<svg width="38" height="22" viewBox="0 0 38 22" fill="none" xmlns="http://www.w3.org/2000/svg">
<g clip-path="url(#clip0_3_76)">
<path d="M7.18223 8.6713C5.20247 8.6713 3.40694 9.41694 2.10628 10.6216C0.804056 11.8263 0 13.493 0 15.3305C0 17.1664 0.804056 18.8316 2.10308 20.0378C3.4053 21.2455 5.20084 21.9912 7.18069 21.9912C9.16049 21.9912 10.9575 21.2455 12.2566 20.0408C13.5589 18.8331 14.3629 17.168 14.3629 15.332C14.3629 13.4945 13.5589 11.8279 12.2598 10.6231L12.223 10.5919C11.6768 10.0913 11.0425 9.67242 10.3474 9.35456L11.2667 7.16206L13.3218 9.27877C13.5476 9.51201 13.9368 9.5313 14.1883 9.32038C14.4398 9.11095 14.4606 8.74999 14.2332 8.51675L12.436 6.66592H16.4228V7.59134C16.4228 8.00281 16.6054 8.38011 16.9001 8.65193C17.1916 8.92528 17.5968 9.0946 18.0438 9.0946H20.701C21.1479 9.0946 21.5531 8.92528 21.8463 8.65342C22.1394 8.38161 22.3221 8.00431 22.3221 7.59134V6.66592H23.9254L26.3712 10.1062C26.1518 10.2666 25.942 10.4404 25.7434 10.6246C24.5773 11.7045 23.8117 13.1527 23.6627 14.763H22.487C22.3733 14.3441 22.1395 13.9683 21.8191 13.6727L21.8159 13.6698C21.3562 13.2449 20.7219 12.982 20.0252 12.982C19.5959 12.982 19.1906 13.0816 18.8351 13.2583L16.7513 11.1119C16.5254 10.8787 16.1362 10.8594 15.8847 11.0703C15.6332 11.2798 15.6124 11.6407 15.8398 11.8739L17.9237 14.0203C17.6498 14.3961 17.488 14.8492 17.488 15.3364C17.488 15.9825 17.7715 16.5723 18.2312 16.9986L18.3113 17.0699L17.8532 17.8497L17.2814 17.5705C16.9819 17.4249 16.6103 17.5304 16.4517 17.8096C16.2948 18.0874 16.4085 18.432 16.7096 18.5791L17.8148 19.1198C18.1111 19.2639 18.4779 19.1614 18.6397 18.888L19.3861 17.6165C19.5895 17.6655 19.8041 17.6922 20.0252 17.6922C20.7219 17.6922 21.3578 17.4293 21.8175 17.003L21.8207 17.0001C22.1395 16.703 22.3749 16.3286 22.487 15.9097H23.6627C23.8101 17.52 24.5774 18.9667 25.7402 20.0467C27.0424 21.2543 28.838 22 30.8178 22C32.7976 22 34.5931 21.2543 35.8937 20.0497C37.1959 18.842 38 17.1769 38 15.3408C38 13.5033 37.1959 11.8367 35.8969 10.6319L35.8601 10.6007C34.5643 9.41392 32.7816 8.6801 30.8194 8.6801C29.5797 8.6801 28.412 8.97274 27.3932 9.48667L24.869 5.93505V3.56728H25.4312C25.8348 3.56728 26.2032 3.41429 26.4675 3.1677C26.7334 2.92112 26.8983 2.57946 26.8983 2.20665V1.75657C26.8983 1.49959 26.8407 1.2545 26.7286 1.02573C26.6164 0.799947 26.4546 0.597929 26.2448 0.428595L26.2016 0.395917C26.0014 0.244404 25.7771 0.132997 25.5384 0.069124C25.2806 -0.00217625 25.0115 -0.0170297 24.7344 0.0186204L23.2208 0.222124C22.7658 0.283028 22.3494 0.440483 21.9986 0.675176C21.6446 0.911354 21.3563 1.22774 21.1561 1.60949C21.0424 1.82339 20.9927 2.05068 21.0055 2.27644C21.0183 2.50221 21.092 2.72505 21.2282 2.92704L21.2666 2.97755C21.398 3.1558 21.5661 3.29988 21.7599 3.39793C21.9746 3.50785 22.2165 3.56727 22.4727 3.56727H23.6404V5.53249H11.6753V3.98616L13.3651 3.76633C13.7015 3.72325 13.9354 3.43508 13.8889 3.12463C13.8424 2.81269 13.5317 2.59583 13.1969 2.63891L8.75534 3.21673C8.41899 3.25981 8.18511 3.54798 8.23157 3.85843C8.27803 4.17037 8.58877 4.38723 8.92353 4.34414L10.4452 4.14657V6.00337L9.20704 8.95192C8.56475 8.77662 7.88559 8.68305 7.18403 8.68305L7.18223 8.6713ZM2.97434 11.4282C4.04911 10.43 5.53873 9.81208 7.18223 9.81208C7.72838 9.81208 8.25541 9.88044 8.75837 10.0067L8.25858 11.198C7.91259 11.1207 7.55223 11.0792 7.18223 11.0792C5.91687 11.0792 4.77162 11.5545 3.94192 12.3239L3.90829 12.3581C3.09939 13.1245 2.59967 14.1747 2.59967 15.3289C2.59967 16.5024 3.11223 17.5645 3.94191 18.3339C4.77158 19.1033 5.91687 19.5787 7.18223 19.5787C8.44595 19.5787 9.59124 19.1033 10.4209 18.3324C11.2506 17.5645 11.7648 16.5009 11.7648 15.3289C11.7648 14.1555 11.2522 13.0934 10.4225 12.3239C10.1214 12.0447 9.77704 11.8025 9.40061 11.6094L9.90194 10.4166C10.4417 10.6751 10.935 11.0064 11.3627 11.397L11.3916 11.4253C12.4679 12.4234 13.1342 13.8034 13.1342 15.3276C13.1342 16.8517 12.4679 18.2316 11.3932 19.2298C10.3168 20.2266 8.8288 20.8445 7.18367 20.8445C5.54026 20.8445 4.05226 20.2266 2.97577 19.2298C1.901 18.2317 1.23468 16.8517 1.23468 15.3276C1.23468 13.805 1.901 12.4236 2.97737 11.4253L2.97434 11.4282ZM26.6114 11.4282C26.7507 11.2975 26.8965 11.1757 27.0503 11.0583L27.8095 12.1279L27.5804 12.3269C26.8853 12.9716 26.4143 13.8183 26.2782 14.7615H24.9007C25.0449 13.4662 25.6728 12.3016 26.6114 11.4297V11.4282ZM28.0722 10.433C28.8938 10.0364 29.8293 9.81062 30.8191 9.81062C32.4481 9.81062 33.9233 10.4182 34.9979 11.3985L35.0267 11.4268C36.1031 12.425 36.7694 13.8049 36.7694 15.3291C36.7694 16.8531 36.1031 18.233 35.0284 19.2313C33.952 20.2281 32.4639 20.846 30.8204 20.846C29.1771 20.846 27.6891 20.2281 26.6126 19.2313C25.6723 18.3594 25.0461 17.1948 24.9019 15.8996H26.2794C26.4156 16.8458 26.8881 17.6924 27.5816 18.3342L27.6185 18.3654C28.4449 19.1155 29.5774 19.5789 30.8219 19.5789C32.0873 19.5789 33.2326 19.1036 34.0623 18.3342C34.8919 17.5647 35.4045 16.5026 35.4045 15.3292C35.4045 14.1572 34.8903 13.0951 34.0607 12.3257C33.2326 11.5562 32.0857 11.0794 30.8219 11.0794C30.1092 11.0794 29.4348 11.2309 28.8342 11.4998L28.0749 10.4318L28.0722 10.433ZM6.61042 15.1255C6.48868 15.4181 6.64566 15.7479 6.96119 15.8608C7.27673 15.9737 7.6323 15.8281 7.75408 15.5355L8.94895 12.6879C9.1684 12.8142 9.37021 12.9642 9.55284 13.1321C10.1599 13.695 10.5347 14.4719 10.5347 15.3305C10.5347 16.189 10.1583 16.9659 9.55284 17.5289C8.94737 18.0919 8.1097 18.4394 7.18227 18.4394C6.25647 18.4394 5.41875 18.0903 4.81175 17.5289C4.20467 16.9659 3.82989 16.189 3.82989 15.3305C3.82989 14.4838 4.19348 13.7173 4.7813 13.1588L4.81175 13.1321C5.4188 12.5691 6.25652 12.2215 7.18232 12.2215C7.39534 12.2215 7.60353 12.2393 7.80538 12.275L6.60883 15.124L6.61042 15.1255ZM17.6546 6.66301H21.0935V7.58843C21.0935 7.68649 21.0487 7.77857 20.9782 7.84394C20.9077 7.90927 20.8084 7.95088 20.7027 7.95088H18.0454C17.938 7.95088 17.8404 7.90927 17.7699 7.84394C17.6978 7.78006 17.6545 7.68943 17.6545 7.58843L17.6546 6.66301ZM28.4937 13.0888L29.6806 14.7599H27.523C27.648 14.1286 27.9795 13.5656 28.4488 13.1303L28.4937 13.0888ZM31.3304 15.0183L29.514 12.4634C29.9145 12.3074 30.3549 12.2198 30.8178 12.2198C31.7436 12.2198 32.5813 12.5689 33.1884 13.1303C33.7954 13.6918 34.1702 14.4687 34.1702 15.3287C34.1702 16.1873 33.7938 16.9642 33.1884 17.5271C32.5813 18.0901 31.7436 18.4377 30.8178 18.4377C29.9048 18.4377 29.0783 18.1005 28.4761 17.5554L28.4473 17.5271C27.978 17.0919 27.648 16.5289 27.5215 15.8991H30.8163C30.9316 15.8961 31.0485 15.8664 31.1526 15.8026C31.4361 15.6303 31.513 15.2782 31.3288 15.0168L31.3304 15.0183ZM21.3322 15.3109V15.3466C21.3275 15.6764 21.1817 15.9735 20.9527 16.1859C20.7156 16.4057 20.3872 16.5409 20.0252 16.5409H20.0124L20.5635 15.6006C20.7252 15.3258 20.6147 14.9797 20.3184 14.8296C20.0221 14.6797 19.6488 14.7822 19.4871 15.057L18.9329 15.9987C18.7967 15.8071 18.7167 15.5768 18.7167 15.3273C18.7167 14.9916 18.8624 14.6871 19.0963 14.4702L19.1603 14.4138C19.3894 14.2281 19.6921 14.1137 20.0237 14.1137C20.3873 14.1137 20.714 14.2489 20.9495 14.4658C21.1817 14.6811 21.3275 14.9783 21.3323 15.3065L21.3322 15.3109ZM14.6227 10.6169C14.8485 10.8502 15.2378 10.8695 15.4893 10.6585C15.7407 10.4491 15.7615 10.0881 15.5341 9.8549L15.446 9.76431C15.2202 9.53111 14.8309 9.51178 14.5795 9.7227C14.328 9.93214 14.3071 10.2931 14.5346 10.5263L14.6227 10.6169ZM23.3923 1.33917L24.906 1.13567C25.0101 1.1223 25.1046 1.12676 25.1895 1.14904C25.2663 1.16983 25.3417 1.20549 25.4121 1.25896L25.4362 1.27827C25.5162 1.34363 25.5771 1.41344 25.6123 1.48771C25.6476 1.55901 25.6668 1.64665 25.6668 1.74618V2.19626C25.6668 2.25568 25.6395 2.31213 25.5963 2.35074C25.5531 2.39085 25.4922 2.41611 25.4297 2.41611H22.4697C22.4233 2.41611 22.3816 2.40719 22.3512 2.39085C22.3255 2.37897 22.3015 2.35817 22.2823 2.3344L22.2695 2.31213C22.2455 2.27647 22.231 2.23934 22.2295 2.20517C22.2262 2.17101 22.2375 2.13239 22.2567 2.09525C22.3656 1.88878 22.5241 1.71499 22.7164 1.58577C22.907 1.45803 23.1376 1.37187 23.3955 1.33771L23.3923 1.33917Z" fill="black"/>
</g>
<defs>
<clipPath id="clip0_3_76">
<rect width="38" height="22" fill="white"/>
</clipPath>
</defs>
</svg>
