<svg xmlns="http://www.w3.org/2000/svg" xmlns:xlink="http://www.w3.org/1999/xlink" version="1.1" x="0px" y="0px" viewBox="0 0 100 125" enable-background="new 0 0 100 100" xml:space="preserve"><g><path d="M23.755,51.969c-3.196,0-5.797,2.601-5.797,5.798c0,3.196,2.601,5.797,5.797,5.797c3.197,0,5.797-2.601,5.797-5.797   C29.552,54.569,26.952,51.969,23.755,51.969z M23.755,63.063c-2.921,0-5.297-2.376-5.297-5.297s2.376-5.298,5.297-5.298   s5.297,2.377,5.297,5.298S26.676,63.063,23.755,63.063z"/><path d="M25.342,57.767c0-0.876-0.712-1.588-1.587-1.588s-1.587,0.712-1.587,1.588c0,0.875,0.712,1.587,1.587,1.587   S25.342,58.642,25.342,57.767z M23.137,57.039c0,0.002,0.001,0.004,0.001,0.007c-0.003-0.001-0.006-0.001-0.009-0.002   C23.132,57.042,23.134,57.041,23.137,57.039z M23.586,57.56c0.038,0.008,0.073,0.023,0.113,0.023c0.07,0,0.136-0.017,0.198-0.04   c0.012,0.106,0.052,0.201,0.115,0.281c-0.098,0.044-0.174,0.119-0.233,0.208c-0.072-0.08-0.166-0.133-0.273-0.163   c0.049-0.084,0.085-0.176,0.085-0.28C23.591,57.579,23.586,57.57,23.586,57.56z M23.827,58.719c-0.003,0-0.006,0.002-0.009,0.002   c0.002-0.003,0.004-0.005,0.005-0.008C23.825,58.715,23.826,58.717,23.827,58.719z M22.88,58.125   c-0.004,0.007-0.01,0.013-0.014,0.021c-0.003-0.008-0.003-0.017-0.007-0.025C22.866,58.123,22.873,58.123,22.88,58.125z"/><path d="M23.755,53.604c-2.295,0-4.163,1.867-4.163,4.163c0,2.295,1.867,4.162,4.163,4.162s4.163-1.867,4.163-4.162   C27.917,55.471,26.05,53.604,23.755,53.604z M22.758,54.672l0.023,1.041l-0.03,0.145l-0.004,0.007l-0.027,0.024l-0.08,0.042   l-0.054,0.015l-0.088-0.02l-0.952-0.55C21.89,55.058,22.302,54.82,22.758,54.672z M21.491,57.584l0.108,0.096l0.006,0.011   l0.007,0.032l-0.004,0.093l-0.014,0.052l-0.061,0.067l-0.958,0.553c-0.053-0.233-0.086-0.472-0.086-0.72   c0-0.237,0.028-0.467,0.077-0.69L21.491,57.584z M21.571,60.178l0.893-0.542l0.14-0.047h0.008l0.038,0.013l0.073,0.047l0.04,0.04   l0.027,0.087v1.095C22.332,60.728,21.918,60.493,21.571,60.178z M23.275,59.702c-0.002-0.013,0.008-0.025,0.004-0.039l-0.057-0.182   c-0.007-0.021-0.028-0.029-0.039-0.047c-0.011-0.018-0.008-0.04-0.023-0.056l-0.103-0.103c-0.007-0.007-0.019-0.005-0.027-0.011   c-0.008-0.006-0.008-0.018-0.016-0.023l-0.125-0.079c-0.009-0.006-0.02-0.001-0.03-0.005c-0.01-0.005-0.013-0.018-0.024-0.021   l-0.102-0.034c-0.014-0.005-0.027,0.005-0.042,0.003c-0.014-0.003-0.023-0.016-0.038-0.016h-0.091   c-0.015,0-0.024,0.013-0.038,0.016c-0.014,0.002-0.027-0.008-0.041-0.003l-0.205,0.068c-0.01,0.003-0.013,0.015-0.022,0.019   c-0.009,0.004-0.02-0.001-0.029,0.004l-1.006,0.61c-0.202-0.25-0.374-0.524-0.496-0.827l1.089-0.628   c0.013-0.007,0.014-0.023,0.024-0.032c0.01-0.008,0.025-0.005,0.034-0.015l0.129-0.14c0.011-0.012,0.007-0.029,0.015-0.042   c0.014-0.021,0.035-0.037,0.042-0.062l0.038-0.14c0.003-0.01-0.005-0.018-0.004-0.028c0.002-0.01,0.012-0.016,0.012-0.027   l0.006-0.148c0-0.012-0.01-0.019-0.011-0.031c-0.001-0.011,0.008-0.02,0.006-0.031l-0.022-0.105   c-0.003-0.014-0.018-0.02-0.023-0.033c-0.005-0.014,0.002-0.029-0.006-0.043l-0.045-0.078c-0.007-0.013-0.023-0.014-0.032-0.025   c-0.009-0.011-0.007-0.026-0.017-0.036l-0.161-0.144c-0.008-0.007-0.019-0.004-0.028-0.01c-0.009-0.006-0.009-0.018-0.019-0.023   l-1.038-0.569c0.119-0.305,0.285-0.581,0.484-0.834l1.08,0.623c0.016,0.009,0.033,0.008,0.05,0.013   c0.008,0.003,0.011,0.012,0.02,0.014l0.186,0.042c0.019,0.004,0.037,0.006,0.055,0.006c0.021,0,0.044-0.003,0.066-0.009l0.14-0.038   c0.006-0.002,0.008-0.009,0.014-0.011c0.012-0.004,0.024-0.003,0.035-0.009l0.131-0.068c0.009-0.005,0.01-0.017,0.019-0.022   c0.01-0.006,0.022-0.004,0.031-0.012l0.081-0.071c0.007-0.006,0.005-0.016,0.011-0.023c0.013-0.014,0.03-0.023,0.04-0.04   l0.045-0.079c0.006-0.011,0-0.024,0.005-0.035c0.006-0.015,0.02-0.023,0.024-0.039l0.043-0.211c0.002-0.01-0.006-0.018-0.006-0.029   c0.001-0.01,0.011-0.017,0.01-0.027l-0.026-1.179c0.164-0.025,0.328-0.05,0.499-0.05c0.159,0,0.312,0.025,0.465,0.047v1.248   c0,0.014,0.013,0.023,0.015,0.036c0.002,0.013-0.008,0.025-0.003,0.039l0.057,0.182c0.008,0.026,0.03,0.041,0.045,0.063   c0.008,0.012,0.005,0.028,0.016,0.039l0.102,0.103c0.008,0.008,0.019,0.005,0.027,0.011c0.008,0.006,0.008,0.018,0.016,0.023   l0.125,0.079c0.011,0.007,0.025,0.005,0.037,0.011c0.008,0.003,0.01,0.013,0.018,0.016l0.103,0.034   c0.026,0.009,0.053,0.013,0.079,0.013h0.091c0.026,0,0.052-0.004,0.078-0.013l0.205-0.067c0.007-0.002,0.009-0.01,0.016-0.013   c0.012-0.005,0.025-0.003,0.036-0.01l1.005-0.61c0.202,0.25,0.374,0.524,0.496,0.827l-1.088,0.628   c-0.012,0.007-0.013,0.022-0.024,0.031c-0.011,0.008-0.025,0.006-0.035,0.016l-0.129,0.14c-0.015,0.016-0.011,0.039-0.021,0.057   c-0.01,0.018-0.031,0.027-0.037,0.048l-0.037,0.14c-0.002,0.009,0.005,0.016,0.003,0.025c-0.002,0.011-0.011,0.018-0.012,0.029   l-0.006,0.148c0,0.011,0.01,0.019,0.011,0.03c0.001,0.011-0.008,0.02-0.006,0.031l0.021,0.105c0.003,0.016,0.018,0.025,0.024,0.039   c0.005,0.012-0.002,0.024,0.005,0.035l0.045,0.079c0.01,0.017,0.027,0.026,0.04,0.04c0.006,0.007,0.004,0.017,0.012,0.024   l0.162,0.143c0.008,0.007,0.02,0.005,0.029,0.011c0.008,0.005,0.008,0.016,0.016,0.02l1.038,0.57   c-0.118,0.305-0.285,0.582-0.484,0.834l-1.08-0.623c-0.012-0.007-0.026,0-0.038-0.005c-0.013-0.005-0.018-0.019-0.032-0.023   l-0.186-0.042c-0.022-0.005-0.04,0.01-0.061,0.011c-0.021,0-0.039-0.013-0.06-0.008l-0.14,0.038   c-0.01,0.003-0.013,0.013-0.022,0.017c-0.009,0.003-0.019-0.002-0.027,0.002l-0.131,0.068c-0.01,0.005-0.011,0.017-0.02,0.024   c-0.009,0.006-0.022,0.003-0.03,0.011l-0.081,0.071c-0.011,0.01-0.009,0.027-0.019,0.038c-0.009,0.011-0.025,0.012-0.033,0.025   l-0.045,0.079c-0.007,0.013,0,0.027-0.005,0.041c-0.005,0.013-0.02,0.018-0.023,0.033l-0.043,0.211   c-0.002,0.01,0.006,0.018,0.005,0.029c-0.001,0.01-0.011,0.017-0.011,0.028l0.026,1.18c-0.164,0.025-0.328,0.051-0.499,0.051   c-0.159,0-0.312-0.025-0.465-0.047v-1.249C23.29,59.723,23.277,59.715,23.275,59.702z M25.045,55.897l-0.137,0.045h-0.01   l-0.037-0.012l-0.072-0.046l-0.042-0.042l-0.027-0.086v-1.095c0.458,0.143,0.871,0.378,1.218,0.692L25.045,55.897z M26.022,57.951   l-0.113-0.099l-0.004-0.006l-0.007-0.037l0.004-0.091l0.014-0.053l0.061-0.066l0.958-0.553c0.053,0.233,0.086,0.473,0.086,0.721   c0,0.237-0.029,0.468-0.077,0.691L26.022,57.951z M24.752,60.861l-0.023-1.042l0.03-0.143l0.004-0.008l0.028-0.025l0.078-0.041   l0.054-0.015l0.088,0.02l0.953,0.55C25.621,60.475,25.208,60.713,24.752,60.861z"/><path d="M75.087,51.969c-3.196,0-5.797,2.601-5.797,5.798c0,3.196,2.601,5.797,5.797,5.797s5.797-2.601,5.797-5.797   C80.884,54.569,78.283,51.969,75.087,51.969z M75.087,63.063c-2.921,0-5.297-2.376-5.297-5.297s2.376-5.298,5.297-5.298   s5.297,2.377,5.297,5.298S78.008,63.063,75.087,63.063z"/><path d="M75.087,53.604c-2.296,0-4.163,1.867-4.163,4.163c0,2.295,1.867,4.162,4.163,4.162c2.295,0,4.162-1.867,4.162-4.162   C79.249,55.471,77.382,53.604,75.087,53.604z M74.09,54.672l0.023,1.04l-0.03,0.146l-0.004,0.006l-0.027,0.024l-0.081,0.042   l-0.053,0.015l-0.089-0.02l-0.951-0.549C73.222,55.058,73.634,54.82,74.09,54.672z M72.824,57.584l0.106,0.094l0.006,0.01   l0.007,0.036l-0.004,0.093l-0.013,0.05l-0.062,0.067l-0.958,0.553c-0.053-0.233-0.086-0.472-0.086-0.72   c0-0.237,0.028-0.467,0.077-0.69L72.824,57.584z M72.903,60.178l0.893-0.541l0.14-0.047h0.007l0.038,0.013l0.073,0.046l0.041,0.041   l0.026,0.084v1.097C73.664,60.728,73.25,60.493,72.903,60.178z M74.606,59.701c-0.002-0.013,0.008-0.025,0.003-0.038l-0.057-0.182   c-0.006-0.021-0.027-0.028-0.038-0.046c-0.011-0.018-0.008-0.041-0.023-0.057l-0.103-0.103c-0.007-0.007-0.019-0.005-0.027-0.011   c-0.008-0.006-0.008-0.018-0.016-0.023l-0.125-0.079c-0.009-0.006-0.02-0.001-0.029-0.005c-0.01-0.005-0.013-0.018-0.024-0.021   l-0.102-0.034c-0.014-0.005-0.028,0.005-0.042,0.003C74.009,59.103,74,59.09,73.985,59.09h-0.091c-0.015,0-0.024,0.013-0.038,0.016   c-0.014,0.002-0.027-0.008-0.041-0.003l-0.205,0.068c-0.01,0.003-0.013,0.015-0.022,0.019c-0.009,0.004-0.02-0.001-0.029,0.004   l-1.005,0.61c-0.202-0.25-0.374-0.524-0.496-0.827l1.089-0.628c0.013-0.007,0.014-0.023,0.024-0.032   c0.01-0.008,0.025-0.005,0.034-0.015l0.129-0.14c0.011-0.012,0.008-0.03,0.016-0.044c0.014-0.021,0.035-0.036,0.042-0.062   l0.037-0.14c0.003-0.01-0.005-0.018-0.004-0.027c0.002-0.01,0.012-0.017,0.012-0.027l0.006-0.148c0-0.011-0.01-0.018-0.011-0.029   c-0.001-0.011,0.008-0.02,0.006-0.03l-0.021-0.105c-0.003-0.014-0.018-0.021-0.023-0.034c-0.005-0.014,0.002-0.028-0.005-0.042   l-0.045-0.078c-0.008-0.013-0.024-0.014-0.033-0.026c-0.009-0.011-0.007-0.026-0.017-0.036l-0.161-0.144   c-0.008-0.007-0.019-0.004-0.027-0.009c-0.009-0.006-0.009-0.018-0.019-0.024l-1.038-0.568c0.119-0.305,0.285-0.581,0.484-0.834   l1.079,0.623c0.015,0.009,0.033,0.008,0.049,0.013c0.008,0.003,0.011,0.012,0.02,0.014l0.186,0.042   c0.02,0.004,0.038,0.006,0.056,0.006c0.021,0,0.044-0.003,0.065-0.009l0.14-0.038c0.006-0.002,0.008-0.009,0.014-0.011   c0.012-0.004,0.024-0.003,0.036-0.009l0.132-0.068c0.01-0.005,0.011-0.017,0.019-0.023c0.01-0.007,0.022-0.004,0.031-0.012   l0.08-0.071c0.007-0.006,0.005-0.016,0.011-0.023c0.013-0.013,0.029-0.022,0.039-0.039l0.046-0.079   c0.006-0.011,0-0.023,0.005-0.035c0.006-0.015,0.021-0.024,0.025-0.04l0.043-0.211c0.002-0.01-0.006-0.018-0.006-0.029   c0.001-0.01,0.011-0.017,0.01-0.027l-0.026-1.179c0.164-0.025,0.328-0.051,0.499-0.051c0.159,0,0.312,0.025,0.465,0.047v1.248   c0,0.014,0.013,0.023,0.015,0.036c0.002,0.013-0.008,0.025-0.003,0.038l0.057,0.182c0.008,0.026,0.03,0.042,0.045,0.063   c0.008,0.012,0.005,0.028,0.016,0.039l0.103,0.103c0.007,0.007,0.019,0.005,0.027,0.011c0.008,0.006,0.008,0.018,0.016,0.023   l0.125,0.079c0.011,0.007,0.025,0.005,0.037,0.011c0.008,0.003,0.01,0.013,0.018,0.016l0.103,0.034   c0.026,0.009,0.053,0.013,0.079,0.013h0.091c0.026,0,0.053-0.004,0.078-0.013l0.204-0.067c0.007-0.002,0.009-0.01,0.016-0.013   c0.012-0.005,0.025-0.003,0.036-0.01l1.005-0.611c0.202,0.25,0.374,0.524,0.496,0.827l-1.088,0.628   c-0.012,0.007-0.013,0.022-0.023,0.031c-0.011,0.008-0.026,0.006-0.035,0.016l-0.129,0.14c-0.016,0.017-0.012,0.04-0.022,0.059   c-0.01,0.018-0.03,0.026-0.036,0.046l-0.037,0.14c-0.003,0.01,0.005,0.018,0.004,0.028c-0.002,0.01-0.012,0.015-0.013,0.025   l-0.007,0.148c0,0.012,0.01,0.019,0.011,0.03c0.001,0.011-0.008,0.02-0.006,0.031l0.021,0.105c0.003,0.016,0.018,0.025,0.025,0.04   c0.005,0.011-0.002,0.024,0.005,0.035l0.046,0.079c0.009,0.016,0.026,0.024,0.038,0.038c0.006,0.007,0.005,0.018,0.012,0.025   l0.161,0.143c0.009,0.008,0.021,0.005,0.03,0.011c0.007,0.005,0.008,0.016,0.016,0.02l1.038,0.57   c-0.119,0.305-0.285,0.582-0.484,0.834l-1.08-0.624c-0.012-0.007-0.026,0-0.038-0.005c-0.012-0.005-0.018-0.019-0.031-0.022   l-0.186-0.042c-0.024-0.005-0.04,0.01-0.062,0.011c-0.021,0-0.038-0.013-0.059-0.008l-0.14,0.038   c-0.01,0.003-0.013,0.013-0.022,0.017c-0.01,0.004-0.02-0.002-0.029,0.003l-0.131,0.068c-0.01,0.005-0.011,0.018-0.02,0.024   c-0.009,0.006-0.02,0.003-0.029,0.01l-0.081,0.071c-0.011,0.01-0.01,0.026-0.019,0.038c-0.01,0.011-0.026,0.013-0.034,0.026   l-0.045,0.079c-0.007,0.013,0,0.027-0.005,0.04c-0.005,0.013-0.019,0.018-0.022,0.032l-0.044,0.211   c-0.002,0.011,0.006,0.019,0.006,0.029c-0.001,0.01-0.011,0.017-0.011,0.027l0.026,1.18c-0.164,0.025-0.328,0.05-0.499,0.05   c-0.159,0-0.312-0.025-0.466-0.047v-1.249C74.621,59.723,74.608,59.714,74.606,59.701z M76.376,55.897l-0.137,0.045h-0.01   l-0.037-0.012l-0.074-0.047l-0.041-0.041l-0.026-0.084v-1.096c0.458,0.143,0.871,0.378,1.218,0.692L76.376,55.897z M77.355,57.952   L77.24,57.85l-0.002-0.004l-0.007-0.036l0.004-0.094l0.013-0.05l0.062-0.067l0.958-0.553c0.053,0.233,0.086,0.473,0.086,0.721   c0,0.237-0.029,0.468-0.077,0.691L77.355,57.952z M76.083,60.861l-0.023-1.04l0.03-0.146l0.005-0.009l0.025-0.022l0.084-0.044   l0.051-0.014l0.089,0.02l0.953,0.55C76.952,60.475,76.54,60.714,76.083,60.861z"/><path d="M76.674,57.767c0-0.876-0.712-1.588-1.587-1.588c-0.876,0-1.588,0.712-1.588,1.588c0,0.875,0.712,1.587,1.588,1.587   C75.962,59.354,76.674,58.642,76.674,57.767z M74.468,57.039c0,0.002,0.001,0.004,0.001,0.007   c-0.003-0.001-0.006-0.001-0.008-0.002C74.463,57.042,74.466,57.041,74.468,57.039z M74.917,57.56   c0.038,0.008,0.073,0.023,0.113,0.023c0.07,0,0.136-0.017,0.198-0.04c0.012,0.106,0.052,0.201,0.115,0.281   c-0.098,0.044-0.174,0.119-0.233,0.208c-0.072-0.08-0.166-0.133-0.273-0.162c0.049-0.084,0.085-0.176,0.085-0.28   C74.923,57.579,74.918,57.57,74.917,57.56z M75.159,58.719c-0.003,0-0.006,0.002-0.009,0.002c0.002-0.002,0.003-0.005,0.005-0.007   C75.157,58.715,75.157,58.717,75.159,58.719z M74.211,58.125c-0.004,0.007-0.01,0.013-0.014,0.021   c-0.003-0.008-0.003-0.017-0.007-0.025C74.198,58.123,74.205,58.123,74.211,58.125z"/><path d="M95.248,53.78l-0.053-0.472c-0.001-0.012-0.012-0.018-0.015-0.029l-0.074-0.531c-0.002-0.018-0.019-0.026-0.024-0.042   c-0.005-0.015,0.003-0.03-0.005-0.045l-0.211-0.38c-0.004-0.007-0.013-0.007-0.017-0.014c-0.004-0.007-0.001-0.015-0.006-0.021   l-0.422-0.526c-0.003-0.004-0.009-0.003-0.012-0.007c-0.003-0.004-0.002-0.009-0.005-0.013l-0.084-0.085   c-0.008-0.008-0.021-0.006-0.03-0.013c-0.009-0.007-0.009-0.02-0.02-0.026l-0.105-0.062c-0.021-0.012-0.044-0.004-0.067-0.01   c-0.022-0.006-0.037-0.025-0.061-0.025h-0.039l0.029-3.458c0,0,0-0.001,0-0.001s0-0.001,0-0.001v-0.377   c0-0.006-0.006-0.01-0.007-0.016c0-0.006,0.006-0.011,0.005-0.018l-0.087-0.638c-0.001-0.009-0.01-0.014-0.012-0.022   c-0.002-0.008,0.004-0.015,0.002-0.023l-0.29-0.869c-0.004-0.013-0.018-0.016-0.024-0.028c-0.006-0.012,0-0.026-0.008-0.037   l-0.406-0.58c-0.006-0.008-0.016-0.007-0.023-0.014c-0.006-0.007-0.004-0.017-0.011-0.024l-0.522-0.493   c-0.006-0.006-0.015-0.003-0.021-0.008c-0.006-0.005-0.006-0.014-0.012-0.018l-0.435-0.29c-0.008-0.005-0.018-0.001-0.026-0.005   c-0.008-0.004-0.01-0.014-0.018-0.018l-0.493-0.203c-0.009-0.004-0.019,0.003-0.028,0c-0.01-0.003-0.014-0.014-0.025-0.016   l-2.205-0.376c-0.002,0-0.004,0.002-0.006,0.001c-0.002,0-0.003-0.003-0.005-0.003l-3.017-0.377c0,0,0,0-0.001,0   c0,0-0.001-0.001-0.001-0.001l-1.479-0.174c-0.013-0.001-0.022,0.01-0.035,0.01c-0.013,0-0.023-0.011-0.037-0.008l-0.039,0.007   c-0.009-0.005-0.01-0.017-0.02-0.021l-0.406-0.184c-0.001,0-0.002,0-0.003,0c-0.001,0-0.001-0.001-0.002-0.002l-4.019-1.731   c-0.001,0-0.001,0-0.002,0c-0.001,0-0.001-0.002-0.002-0.002l-4.608-1.878c-0.002-0.001-0.004,0.001-0.007,0   c-0.002-0.001-0.003-0.004-0.005-0.004l-4.313-1.51c-0.006-0.002-0.011,0.002-0.016,0.001c-0.006-0.002-0.008-0.008-0.014-0.01   l-2.438-0.522c-0.003,0-0.005,0.002-0.007,0.001c-0.003,0-0.004-0.003-0.006-0.004l-5.427-0.853   c-0.005-0.001-0.008,0.004-0.013,0.003c-0.005,0-0.007-0.005-0.012-0.006l-4.572-0.244c-0.003,0-0.004,0.002-0.007,0.002   c-0.003,0-0.004-0.003-0.007-0.003h-4.389c-0.003,0-0.004,0.003-0.007,0.003c-0.003,0-0.005-0.003-0.007-0.003l-4.207,0.244   c-0.004,0-0.006,0.004-0.009,0.005c-0.004,0-0.006-0.003-0.01-0.003l-5.67,0.792c-0.007,0.001-0.01,0.009-0.017,0.01   c-0.007,0.002-0.013-0.004-0.021-0.002l-2.211,0.671c-0.005,0.002-0.006,0.007-0.011,0.009c-0.005,0.002-0.009-0.002-0.014,0   l-1.6,0.679c-0.002,0.001-0.003,0.004-0.005,0.005c-0.002,0.001-0.005-0.001-0.007,0l-3.28,1.598   c-0.002,0.001-0.002,0.004-0.004,0.005c-0.002,0.001-0.005,0-0.007,0.001l-3.76,2.078c-0.001,0.001-0.001,0.002-0.002,0.003   c-0.001,0.001-0.002,0-0.003,0l-3.479,2.038c-0.001,0-0.001,0.002-0.002,0.002c-0.001,0.001-0.002,0-0.003,0l-1.76,1.079   c-0.022,0.013-0.026,0.039-0.042,0.058c-0.016,0.017-0.04,0.022-0.051,0.044l-0.02,0.039h-0.25l-0.224-0.045l-0.849-0.268   c-0.003-0.003-0.008-0.001-0.012-0.004l-0.119-0.038c-0.005-0.001-0.009,0.002-0.013,0.001c-0.014-0.001-0.025-0.013-0.04-0.011   l-5.593,0.679c-0.001,0-0.001,0.001-0.002,0.001c-0.001,0-0.002-0.001-0.002-0.001l-5.959,0.835c-0.002,0-0.003,0.002-0.004,0.003   c-0.002,0-0.003-0.001-0.005-0.001l-4.339,0.783c-0.004,0.001-0.005,0.005-0.009,0.006c-0.004,0.001-0.007-0.002-0.01-0.001   l-1.986,0.522c-0.009,0.002-0.013,0.013-0.021,0.016c-0.009,0.003-0.018-0.002-0.027,0.002l-1.15,0.575   C7.62,48.858,7.616,48.88,7.6,48.893c-0.016,0.013-0.038,0.014-0.051,0.031l-0.337,0.463c-0.019,0.006-0.031,0.022-0.048,0.032   c-0.035,0.019-0.063,0.039-0.083,0.071c-0.006,0.009-0.019,0.011-0.024,0.021l-0.263,0.526L6.7,50.064   c-0.017,0.005-0.023,0.023-0.038,0.03c-0.016,0.008-0.034,0.003-0.048,0.014l-0.122,0.097c-0.017,0.013-0.016,0.035-0.028,0.051   c-0.012,0.015-0.033,0.019-0.042,0.038L5.91,51.365c-0.009,0.018,0.001,0.037-0.003,0.056c-0.005,0.019-0.021,0.032-0.021,0.052   v0.072c0,0.021,0.017,0.034,0.022,0.053c0.004,0.02-0.005,0.039,0.004,0.058l0.048,0.098c0.009,0.018,0.026,0.027,0.038,0.042   l-0.262,0.598c-0.003,0.006,0.002,0.012,0,0.018c-0.002,0.006-0.009,0.008-0.011,0.014l-0.049,0.17   c-0.004,0.013,0.006,0.023,0.004,0.036c-0.002,0.013-0.014,0.02-0.014,0.033v0.055l-0.33,0.227   c-0.007,0.005-0.007,0.015-0.013,0.02c-0.007,0.005-0.016,0.003-0.022,0.009L4.96,53.315c-0.016,0.016-0.014,0.04-0.025,0.059   c-0.012,0.021-0.035,0.032-0.041,0.057l-0.073,0.292c-0.002,0.008,0.005,0.015,0.003,0.023c-0.001,0.008-0.01,0.012-0.01,0.02   l-0.017,0.234c-0.016,0.025-0.019,0.051-0.025,0.081c-0.005,0.021-0.023,0.037-0.022,0.06l0.081,1.886c0,0.001,0,0.001,0,0.002   c-0.006,0.03-0.026,0.055-0.02,0.087l0.028,0.169c0.005,0.028,0.026,0.045,0.039,0.068c0.008,0.017,0.004,0.036,0.016,0.051   l0.141,0.169c0.003,0.004,0.008,0.002,0.012,0.005c0.009,0.01,0.02,0.015,0.031,0.024l0.508,1.777L5.51,58.529   c-0.015,0.03-0.004,0.06-0.006,0.091c-0.003,0.03-0.019,0.058-0.01,0.089l0.057,0.197c0.003,0.009,0.012,0.013,0.015,0.022   c0.003,0.007-0.002,0.014,0.001,0.02l0.028,0.057c0.008,0.017,0.025,0.025,0.036,0.039c0.006,0.008,0.003,0.018,0.01,0.025   l0.084,0.085c0.02,0.02,0.049,0.018,0.073,0.03c0.027,0.014,0.047,0.04,0.08,0.043l1.975,0.197   c0.005,0.001,0.011,0.001,0.016,0.001l2.354,0.168c0,0,0.001,0,0.001,0l3.57,0.337l1.643,0.274l0.972,0.594   c0.002,0.001,0.003,0,0.005,0.001c0.001,0.001,0.001,0.002,0.002,0.003l0.197,0.112c0.039,0.022,0.082,0.033,0.124,0.033   c0.066,0,0.125-0.033,0.172-0.08c0.006-0.006,0.015-0.003,0.02-0.009l0.141-0.169c0.048-0.057,0.06-0.128,0.049-0.197   c0.001-0.008,0.009-0.014,0.009-0.023l-0.055-3.188c0.007-0.02,0.026-0.033,0.027-0.056c0.294-3.423,3.106-6.027,6.542-6.059   c0.007-0.002,0.038,0,0.059,0c1.452,0,2.887,0.48,4.049,1.353c1.369,1.08,2.27,2.692,2.473,4.424c0,0,0,0,0,0.001   c0.1,0.975,0.142,1.965,0.122,2.943c-0.001,0.081,0.042,0.145,0.102,0.192c0.046,0.06,0.108,0.105,0.19,0.105h0.414   c0.003,0,0.007,0,0.011,0c0.022-0.001,0.035-0.019,0.055-0.026c0.007,0,0.014-0.001,0.021-0.002l1.033-0.159l34.453-0.08   l0.671,0.372c0.002,0.001,0.005,0.001,0.007,0.002c0.001,0.001,0.001,0.002,0.003,0.003l0.647,0.323   c0.035,0.018,0.073,0.026,0.111,0.026c0.039,0,0.076-0.014,0.111-0.031l0.002,0.001c0.032,0.014,0.065,0.021,0.099,0.021   c0.059,0,0.112-0.027,0.157-0.065c0.006-0.005,0.014-0.003,0.02-0.008l0.11-0.11c0.004-0.004,0.002-0.01,0.006-0.014   c0.021-0.024,0.024-0.055,0.035-0.085c0.011-0.032,0.028-0.059,0.026-0.092c0-0.005,0.005-0.009,0.004-0.015   c-0.169-1.433-0.084-2.87,0.252-4.272c0.001-0.003-0.002-0.005-0.001-0.008c0.001-0.003,0.004-0.004,0.004-0.007   c0.232-1.288,0.904-2.471,1.893-3.331c1.554-1.181,3.551-1.7,5.485-1.413c2.651,0.467,4.738,2.467,5.317,5.097   c0,0.005-0.005,0.008-0.005,0.013l0.104,2.402c0.001,0.026,0.021,0.042,0.029,0.065c0.007,0.021,0,0.044,0.013,0.063l0.104,0.156   c0.007,0.01,0.017,0.014,0.025,0.022c0.009,0.01,0.017,0.016,0.027,0.024c0.046,0.038,0.099,0.065,0.156,0.065h0.157   c0.005,0,0.011,0,0.016,0l1.673-0.104c0.001,0,0.002-0.001,0.003-0.001c0.008,0,0.015-0.001,0.023-0.002l4.443-0.73   c0.001,0,0.001-0.001,0.002-0.001c0.002,0,0.004,0,0.006-0.001l0.781-0.157l2.123-0.31l2.032-0.156   c0.001,0,0.001-0.001,0.001-0.001c0.005,0,0.01,0,0.015-0.001l0.365-0.053c0.007-0.001,0.009-0.008,0.016-0.009   c0.02-0.004,0.041-0.005,0.059-0.014l0.313-0.156c0.003-0.001,0.003-0.005,0.005-0.006c0.044-0.024,0.083-0.057,0.107-0.105   l0.157-0.313c0.005-0.009-0.001-0.019,0.002-0.028c0.004-0.011,0.016-0.017,0.018-0.029l0.104-0.47c0,0,0-0.001,0-0.001   l0.094-0.377l0.192-0.336c0.003-0.006,0-0.013,0.002-0.019c0.004-0.008,0.013-0.012,0.016-0.021l0.262-0.731   c0.002-0.006-0.003-0.012-0.001-0.018c0.002-0.007,0.009-0.01,0.011-0.018l0.104-0.522c0-0.001,0-0.001,0-0.002   c0-0.001,0.001-0.001,0.001-0.002l0.104-0.574c0.002-0.014-0.008-0.024-0.008-0.037C95.239,53.802,95.25,53.793,95.248,53.78z    M91.217,57.318c-0.003,0-0.005,0.004-0.008,0.004c-0.003,0-0.005-0.003-0.009-0.002l-2.144,0.313   c-0.002,0-0.003,0.003-0.006,0.003c-0.003,0-0.004-0.002-0.007-0.001l-0.774,0.155c0,0-0.001,0-0.001,0l-4.43,0.728l-1.66,0.104   l-0.093-2.148l4.172-0.645c0.004-0.001,0.006-0.005,0.009-0.006c0.013-0.003,0.026-0.002,0.038-0.007l0.993-0.365   c0.013-0.005,0.016-0.019,0.027-0.025c0.015-0.008,0.033-0.006,0.047-0.017l0.313-0.262c0.01-0.008,0.008-0.022,0.016-0.031   c0.019-0.021,0.042-0.037,0.054-0.065l0.261-0.626c0.001-0.002-0.001-0.004,0-0.005c0.001-0.003,0.004-0.004,0.005-0.006   l0.185-0.517l6.536-0.148l0.005,0.048l-0.098,0.54c0,0,0,0,0,0l-0.1,0.5l-0.248,0.694l-0.198,0.346   c-0.006,0.011,0,0.023-0.004,0.034c-0.005,0.012-0.018,0.017-0.021,0.029l-0.104,0.418c0,0.001,0.001,0.002,0,0.003   c0,0.001-0.002,0.002-0.002,0.003l-0.098,0.44l-0.106,0.212l-0.203,0.101l-0.315,0.046L91.217,57.318z M67.536,59.853l-0.727-0.403   c-0.02-0.011-0.042-0.002-0.062-0.007c-0.021-0.006-0.036-0.024-0.059-0.024c0,0,0,0-0.001,0l-34.536,0.08   c-0.007,0-0.011,0.007-0.019,0.008c-0.007,0-0.012-0.006-0.019-0.005l-0.826,0.127l-0.102-2.256H32.2l0.423,0.999   c0.005,0.011,0.016,0.016,0.022,0.026c0.01,0.016,0.021,0.026,0.034,0.04c0.024,0.026,0.049,0.045,0.081,0.058   c0.044,0.073,0.109,0.129,0.2,0.129c0,0,0.001,0,0.002,0l32.03-0.243c0.078-0.001,0.14-0.042,0.186-0.098   c0.005-0.005,0.013-0.003,0.018-0.009l0.703-1.014l1.918,0.066c-0.119,0.864-0.153,1.739-0.102,2.614L67.536,59.853z    M15.654,59.753c-0.015-0.009-0.031-0.002-0.047-0.008c-0.016-0.006-0.025-0.024-0.043-0.027l-1.693-0.282   c-0.003-0.001-0.006,0.003-0.01,0.002c-0.003,0-0.005-0.004-0.008-0.004l-3.583-0.338c-0.001,0-0.002,0.001-0.004,0.001   c-0.001,0-0.001-0.001-0.002-0.001l-2.361-0.168c0,0-0.001-0.001-0.001-0.001L6.022,58.74l-0.021-0.075l0.023-0.046l0.1-0.011   c0.003,0,0.006,0,0.009,0c0.038-0.005,0.062-0.033,0.092-0.053c0.024-0.015,0.055-0.019,0.072-0.041   c0.009-0.012,0.006-0.029,0.013-0.043l0.065,0.065c0.049,0.049,0.113,0.073,0.177,0.073H8.95c0.038,0,0.076-0.009,0.112-0.026   l0.169-0.085c0.007-0.004,0.008-0.012,0.014-0.016c0.038-0.023,0.064-0.057,0.085-0.099c0.007-0.014,0.021-0.023,0.025-0.039   c0.001-0.003,0.005-0.005,0.006-0.009l0.028-0.112c0.004-0.015-0.007-0.027-0.006-0.042c0.001-0.015,0.014-0.026,0.013-0.042   l-0.141-1.551c-0.001-0.008-0.009-0.012-0.01-0.019l3.052-0.072l0.005,0.007c0.003,0.004,0.009,0.002,0.012,0.006   c0.003,0.004,0.002,0.01,0.005,0.014l0.236,0.259l0.015,0.074c0.001,0.006,0.007,0.009,0.009,0.015   c0.006,0.021,0.021,0.034,0.032,0.052c0.021,0.036,0.042,0.066,0.076,0.087c0.008,0.005,0.008,0.015,0.017,0.019l0.395,0.197   c0.016,0.008,0.033,0.007,0.049,0.012c0.007,0.002,0.01,0.009,0.017,0.011l0.903,0.169c0.01,0.002,0.02,0.002,0.03,0.003   c0.001,0,0.002,0.001,0.003,0.001l1.665,0.085c0.004,0,0.009,0,0.013,0c0.002,0,0.004,0,0.007,0l0.792-0.021l0.049,2.858   L15.654,59.753z M7.918,49.268l1.073-0.536l1.949-0.513l0.686-0.124L9.761,48.73c-0.003,0.001-0.004,0.005-0.008,0.007   c-0.003,0.001-0.007-0.001-0.01,0l-1.098,0.47c-0.012,0.005-0.014,0.019-0.024,0.025c-0.011,0.006-0.024,0.002-0.034,0.01   l-0.316,0.253L8.159,49.43c-0.019-0.011-0.04-0.002-0.06-0.008c-0.02-0.006-0.034-0.025-0.056-0.025l-0.215-0.007L7.918,49.268z    M26.717,45.936l0.042,0.013l-0.639,0.106l-1.361,0.118L26.717,45.936z M30.389,45C30.389,45,30.389,45,30.389,45l3.475-2.036l0,0   l3.752-2.074L40.88,39.3l1.462-0.621l0.038,0.028l0.237,0.197c0.011,0.009,0.026,0.007,0.037,0.014   c0.01,0.006,0.012,0.019,0.023,0.024l0.11,0.048l-1.148,0.492c-0.004,0.002-0.004,0.006-0.008,0.008   c-0.004,0.002-0.008-0.001-0.011,0.001l-2.32,1.239c-0.002,0.001-0.002,0.004-0.005,0.006c-0.002,0.001-0.005,0-0.008,0.001   l-2.04,1.239c-0.002,0.001-0.001,0.003-0.003,0.004c-0.001,0.001-0.003,0-0.004,0.001l-3.04,1.998   c-0.004,0.002-0.003,0.007-0.007,0.01c-0.004,0.003-0.008,0.001-0.012,0.003l-2.125,1.691c-0.002,0.001-0.004-0.001-0.006,0   l-0.641,0.246l-0.843,0.099l-0.158-0.095c-0.014-0.008-0.03-0.001-0.045-0.007c-0.015-0.006-0.022-0.022-0.039-0.025l-0.575-0.104   c-0.008-0.002-0.015,0.006-0.023,0.005c-0.008-0.001-0.013-0.009-0.022-0.009h-0.609L30.389,45z M44.642,37.967l4.157-0.581   L46,37.965c-0.004,0.001-0.005,0.005-0.009,0.006c-0.004,0.001-0.007-0.002-0.011-0.001l-2.547,0.757l-0.523-0.229l-0.004-0.004   L44.642,37.967z M50.282,37.179l0.17-0.01l-0.193,0.013L50.282,37.179z M54.471,36.937h0.178l-0.412,0.013L54.471,36.937z    M58.849,36.937l4.548,0.242l5.408,0.85l1.867,0.4l-0.383,0.265l-0.255-0.076c-0.004-0.001-0.007,0.002-0.012,0.001   c-0.004-0.001-0.005-0.005-0.009-0.006l-4.037-0.832c-0.003-0.001-0.005,0.002-0.008,0.001c-0.003-0.001-0.004-0.004-0.007-0.004   l-4.268-0.609c-0.004-0.001-0.006,0.003-0.01,0.003c-0.004,0-0.006-0.004-0.009-0.005l-3.612-0.231H58.849z M75.514,40.049   l4.603,1.876c0,0,0.001,0,0.001,0l3.778,1.628l-0.874,0.153l-0.481-0.114l-2.193-0.949c0,0-0.001,0-0.001,0l-4.2-1.877   c-0.002-0.001-0.004,0.001-0.006,0c-0.003-0.001-0.003-0.004-0.005-0.005l-3.723-1.437c-0.003-0.001-0.007,0.001-0.01,0   s-0.005-0.005-0.008-0.007l-1.49-0.442l0.423-0.293L75.514,40.049z M86.292,44.065c0.001,0,0.002,0,0.003,0l3.003,0.375   l2.177,0.372l0.441,0.182l0.398,0.265l0.488,0.461l0.372,0.53l0.271,0.811l0.082,0.601v0.179l-0.095,0.021   c-0.028,0.006-0.042,0.031-0.065,0.045c-0.022,0.013-0.041,0.023-0.059,0.041c-0.025,0.028-0.035,0.057-0.046,0.094   c-0.006,0.02-0.026,0.032-0.026,0.054l-0.086,2.15l-0.054,0.239c-0.002,0.01,0.006,0.018,0.005,0.029   c-0.001,0.01-0.011,0.016-0.011,0.026v0.116c0,0.028,0.021,0.047,0.03,0.072c0.008,0.026,0.003,0.054,0.02,0.077l0.087,0.116   c0.01,0.014,0.03,0.01,0.043,0.022c0.017,0.016,0.023,0.042,0.046,0.053l0.116,0.058c0.022,0.011,0.045,0.012,0.068,0.016   l-0.002,0.199h-0.683l-0.036-0.051l-0.014-0.126c-0.001-0.006-0.006-0.008-0.007-0.014c-0.001-0.005,0.004-0.009,0.002-0.014   l-0.038-0.166l-0.041-1.726c0.001-0.008,0.008-0.012,0.008-0.02v-0.754c0-0.009-0.009-0.015-0.01-0.024   c-0.001-0.009,0.007-0.016,0.005-0.025L92.6,47.912c0-0.003-0.003-0.004-0.004-0.006c-0.001-0.003,0.002-0.005,0.001-0.008   l-0.174-0.667c-0.001-0.002-0.003-0.003-0.003-0.005c-0.001-0.002,0.001-0.004,0.001-0.006l-0.232-0.753   c-0.003-0.011-0.015-0.014-0.02-0.024c-0.004-0.01,0.001-0.021-0.005-0.031l-0.348-0.58c-0.005-0.008-0.015-0.008-0.021-0.015   c-0.005-0.007-0.002-0.016-0.008-0.022l-0.464-0.522c-0.006-0.006-0.015-0.005-0.021-0.01c-0.006-0.006-0.005-0.016-0.012-0.022   l-0.262-0.203c-0.015-0.012-0.035-0.006-0.051-0.014c-0.016-0.008-0.023-0.026-0.041-0.031l-0.244-0.061   c-0.028-0.02-0.048-0.05-0.084-0.057l-1.248-0.261c-0.004-0.001-0.007,0.003-0.01,0.002c-0.004-0.001-0.006-0.005-0.009-0.005   l-1.826-0.232c0,0,0,0,0,0l-2.865-0.376l-0.209-0.038l0.408-0.071L86.292,44.065z M86.158,55.339l-3.786,0.585   c-0.747-3.367-3.714-5.757-7.169-5.757c-0.047,0-0.095,0-0.144,0.001c-0.028,0-0.057-0.001-0.086-0.001   c-2.388,0-4.607,1.174-5.952,3.151c-0.004,0.006-0.001,0.013-0.004,0.019c-0.003,0.006-0.012,0.007-0.015,0.013   c-0.53,1.107-0.901,2.278-1.113,3.478l-1.758-0.061l4.549-8.071c0.001-0.002,0-0.003,0.001-0.005   c0.001-0.002,0.004-0.003,0.005-0.006l0.536-1.07c0.078-0.026,0.132-0.081,0.154-0.161l15.742,0.134l0.499,0.593l0.203,0.432   l0.111,0.689c0.001,0.007,0.008,0.011,0.01,0.018l-0.166,4.083c-0.001,0.024,0.018,0.041,0.023,0.064v0.087l-0.247,0.69l0,0   l-0.232,0.556l-0.236,0.197L86.158,55.339z M31.137,56.873c-0.239-2.214-1.407-4.192-3.257-5.458c-0.001,0-0.002,0-0.002,0   c-0.001-0.001-0.001-0.002-0.002-0.002c-2.464-1.617-5.67-1.652-8.169-0.089c0,0-0.001,0-0.001,0   c-0.001,0.001-0.002,0.002-0.004,0.003c-0.001,0.001-0.002,0.001-0.003,0.001c0,0,0,0.001,0,0.001   c-2.047,1.203-3.335,3.313-3.491,5.67l-0.423,0.011l-1.641-0.084l-0.853-0.16l-0.253-0.127l-0.004-0.021   c-0.005-0.023-0.027-0.034-0.037-0.054c-0.01-0.021-0.007-0.046-0.023-0.064L12.7,56.201l-0.177-0.243l-0.079-1.67   c0-0.001-0.001-0.001-0.001-0.002c0-0.006,0.007-0.01,0.007-0.016v-0.194c0-0.001-0.001-0.001-0.001-0.001s0.001-0.001,0.001-0.001   c0-0.02-0.017-0.032-0.022-0.051l0.043-0.541l0.168-0.789c0.002-0.01-0.006-0.017-0.005-0.027c0.001-0.009,0.01-0.015,0.01-0.025   v-0.12l0.055-0.083c0.015-0.022,0.007-0.048,0.014-0.072c0.006-0.018,0.02-0.032,0.022-0.052c0.002-0.004,0.007-0.006,0.009-0.01   l0.755-1.679c0.004-0.009-0.002-0.018,0.001-0.027l3.186-0.784l4.874-0.564l6.008-0.41c0,0,0.001,0,0.001,0l4.551-0.196   l-0.201,1.884c0,0.004,0.003,0.006,0.003,0.01c0,0.004-0.004,0.006-0.004,0.01l-0.091,3.197c0,0.005,0.005,0.009,0.005,0.014   c0,0.005-0.005,0.008-0.004,0.013l0.255,3.101H31.137z M5.638,53.345l0.274-0.188c0.002,0,0.003,0.002,0.004,0.002   c0.032,0,0.053-0.023,0.081-0.034l0.667-0.05c0.019,0.004,0.037,0.011,0.055,0.011c0.023,0,0.043-0.014,0.064-0.02L6.86,53.06   c0.005,0,0.008-0.006,0.013-0.006c0.027-0.004,0.055-0.006,0.081-0.019l0.195-0.098c0.002-0.001,0.002-0.003,0.003-0.004   c0.041-0.021,0.077-0.052,0.102-0.095l0.068-0.118h4.801l-0.143,0.672c-0.001,0.006,0.004,0.011,0.003,0.017   c-0.001,0.006-0.007,0.009-0.008,0.015l-0.032,0.405l-6.485,0.068l-0.138-0.056c-0.003-0.001-0.006,0.001-0.009,0l0.001-0.018   l0.051-0.204L5.638,53.345z M9.93,49.201l2.277-0.776l3.798-0.727l4.162-0.624l2.429-0.211l-4.854,0.656   c-0.003,0-0.004,0.003-0.007,0.004s-0.005-0.002-0.008-0.002L14.33,48.19c-0.005,0.001-0.008,0.007-0.013,0.009   c-0.005,0.001-0.01-0.003-0.016-0.001l-2.059,0.669c-0.002,0.001-0.003,0.003-0.005,0.004c-0.002,0.001-0.004-0.001-0.006,0   l-0.824,0.309c-0.047,0.018-0.074,0.057-0.102,0.095l-1.51-0.016L9.93,49.201z M27.76,46.289c0.018-0.003,0.027-0.021,0.044-0.027   l0.128,0.026c0.004,0.001,0.008,0,0.011,0.001l-0.398,0.036L27.76,46.289z M30.542,46.554c0.044,0,0.087-0.013,0.125-0.035   L31.5,46.42c0.004,0,0.006-0.005,0.009-0.005c0.017-0.003,0.034-0.003,0.051-0.009l0.573-0.22l0.546,0.242l-0.12,0.16   c-0.01,0.014-0.005,0.031-0.012,0.046c-0.007,0.015-0.025,0.021-0.029,0.037l-0.257,0.924c0,0,0,0,0,0l-0.157,0.549l-4.556,0.196   c-0.001,0-0.002,0.001-0.003,0.001c-0.001,0-0.002-0.001-0.003-0.001l-6.023,0.411c-0.002,0-0.003,0.003-0.006,0.003   s-0.004-0.002-0.006-0.002l-4.891,0.566c-0.006,0.001-0.009,0.007-0.015,0.008c-0.006,0.001-0.01-0.004-0.016-0.002l-3.169,0.779   c-0.003-0.002-0.002-0.005-0.005-0.007l-0.146-0.098c-0.002-0.002-0.005,0-0.008-0.002c-0.002-0.001-0.002-0.004-0.004-0.006   l-0.414-0.244c-0.006-0.004-0.014,0-0.02-0.003c-0.006-0.003-0.008-0.011-0.014-0.014l-0.7-0.279l0.295-0.11l2.044-0.664   l3.375-0.664l6.83-0.923l5.095-0.463c0,0,0.001-0.001,0.001-0.001c0.002,0,0.004,0,0.006,0l0.741-0.087   C30.508,46.543,30.524,46.554,30.542,46.554z M34.487,44.388l3.021-1.986c0,0,0,0,0,0l2.036-1.236l2.301-1.229l1.659-0.71   l0.476-0.141l-2.983,1.316c-0.006,0.003-0.007,0.01-0.012,0.013c-0.006,0.003-0.013-0.001-0.018,0.003l-2.919,1.798   c-0.003,0.002-0.002,0.005-0.005,0.007c-0.003,0.002-0.006,0-0.008,0.002l-2.6,1.838c-0.002,0.002-0.002,0.005-0.004,0.007   s-0.006,0-0.008,0.002L33,46.023l-0.365-0.162L34.487,44.388z M46.115,38.451l3.504-0.724l3.576-0.242l3.705-0.122l4.731,0.303   l4.254,0.607l4.013,0.827l2.344,0.695l3.713,1.433c0,0,0,0,0,0l4.191,1.873c0,0,0,0,0.001,0c0.001,0,0.001,0.001,0.001,0.001   l2.212,0.958c0.01,0.005,0.021,0.004,0.032,0.007c0.004,0.001,0.006,0.006,0.01,0.007l0.554,0.131c0.003,0.001,0.007,0,0.01,0.001   c0.001,0,0.002,0.002,0.003,0.002l1.595,0.29c0.004,0.001,0.007,0,0.011,0.001c0.001,0,0.001,0.001,0.002,0.001l2.872,0.376   c0.001,0,0.001,0,0.002,0l1.818,0.231l0.651,0.136l-2.37,1.522c-0.003,0.002-0.003,0.006-0.005,0.008   c-0.003,0.002-0.007,0-0.01,0.003l-0.42,0.315l-15.561-0.132l0.118-0.236c0.009-0.019,0-0.039,0.004-0.059   c0.005-0.019,0.022-0.033,0.022-0.053v-0.59c0-0.013-0.012-0.021-0.014-0.033c-0.002-0.012,0.008-0.023,0.004-0.036l-0.197-0.688   c-0.006-0.022-0.028-0.031-0.039-0.05c-0.011-0.019-0.008-0.042-0.024-0.058l-0.224-0.224l-0.357-0.712   c-0.004-0.008-0.014-0.009-0.018-0.016c-0.005-0.007-0.001-0.017-0.006-0.024l-3.589-4.71l0.114,0.024l4.35,5.596   c0.003,0.005,0.01,0.003,0.014,0.007c0.046,0.053,0.108,0.09,0.183,0.09c0.001,0,0.002,0,0.002,0l6.475-0.06   c0.001,0,0.002-0.002,0.004-0.002c0.057-0.001,0.108-0.027,0.151-0.064c0.013-0.011,0.021-0.021,0.031-0.034   c0.011-0.014,0.027-0.022,0.035-0.038l0.061-0.121c0.009-0.019,0-0.038,0.004-0.058c0.005-0.019,0.022-0.033,0.022-0.054v-0.121   c0-0.015-0.013-0.024-0.016-0.038c-0.002-0.014,0.008-0.027,0.003-0.041l-0.061-0.181c-0.01-0.03-0.038-0.042-0.057-0.065   c-0.018-0.023-0.023-0.052-0.049-0.068l-1.755-1.088c-0.001-0.001-0.003,0-0.004-0.001c-0.001-0.001-0.001-0.002-0.002-0.003   l-2.505-1.451c-0.003-0.002-0.006,0-0.009-0.001c-0.003-0.002-0.003-0.006-0.007-0.008l-2.239-1.088   c-0.004-0.002-0.009,0.001-0.013-0.001c-0.004-0.002-0.005-0.007-0.009-0.008l-3.873-1.451c-0.007-0.003-0.013,0.003-0.021,0.001   c-0.007-0.002-0.009-0.01-0.017-0.011l-0.507-0.106c-0.021-0.006-0.036-0.012-0.058-0.012l-0.712-0.149l-0.002-0.003   c-0.073-0.096-0.198-0.109-0.301-0.061l-2.473-0.517c-0.004-0.001-0.007,0.003-0.011,0.002c-0.004-0.001-0.006-0.005-0.01-0.005   l-4.418-0.544c-0.004,0-0.006,0.003-0.01,0.003c-0.003,0-0.005-0.004-0.009-0.004l-3.752-0.181c-0.002,0-0.003,0.002-0.006,0.002   c-0.002,0-0.004-0.003-0.006-0.003h-1.331c-0.002,0-0.005,0-0.007,0l-0.373,0.011c-0.003-0.001-0.005-0.005-0.008-0.005   c-0.012-0.002-0.023,0.007-0.035,0.007l-1.642,0.048c-0.005,0-0.007,0.005-0.012,0.005c-0.005,0-0.008-0.004-0.013-0.003   l-2.359,0.302c0,0,0,0,0,0l-2.487,0.309c-0.005,0.001-0.008,0.006-0.013,0.007c-0.005,0.001-0.009-0.004-0.014-0.002l-3.093,0.736   L46.115,38.451z M94.439,52.544l0.177,0.319l0.032,0.228l-6.364,0.096l0.149-3.673l2.922,0.02c0.001,0,0.001,0,0.002,0   c0.01,0,0.02,0,0.029-0.001l0.802-0.095l0.035,1.496c0,0.009,0.009,0.015,0.01,0.024c0.001,0.009-0.007,0.017-0.004,0.026   l0.039,0.174l0.019,0.176c0.003,0.025,0.023,0.039,0.032,0.061c0.007,0.018,0,0.038,0.012,0.055l0.018,0.025l-2.637-0.018   c-0.001,0-0.001,0-0.002,0c-0.138,0-0.249,0.11-0.25,0.248c-0.001,0.139,0.11,0.251,0.248,0.252l3.079,0.021   c0.001,0,0.001,0,0.002,0h0.971h0.206l0.019,0.011l0.051,0.052L94.439,52.544z M88.387,48.99c0.005,0.01,0.014,0.015,0.02,0.024   l-0.016,0L88.387,48.99z M91.197,46.264l0.424,0.875l0.14,0.779c0,0,0,0,0,0l0.101,0.667l-3.084,0.05l-0.167-0.395   c-0.003-0.006-0.01-0.007-0.013-0.013c-0.003-0.005,0.001-0.012-0.002-0.017l-0.431-0.726l2.479-1.685L91.197,46.264z    M87.584,47.364c0,0.002,0.001,0.003,0.001,0.005l-0.003-0.003L87.584,47.364z M70.241,48.461l-2.474,4.388l-13.047,0.097H52.71   v-1.027v-2.339l0.258-1.635l0.09-0.003c0,0,0,0,0,0l12.097-0.294h1.33l-0.017,0.039c-0.002,0.004,0.001,0.009,0,0.013   c-0.001,0.004-0.006,0.005-0.008,0.009l-0.034,0.104c-0.005,0.014,0.005,0.027,0.003,0.041c-0.002,0.014-0.016,0.023-0.016,0.038   v0.138c0,0.01,0.01,0.016,0.011,0.026c0.001,0.009-0.007,0.017-0.005,0.026l0.034,0.161c0.002,0.009,0.01,0.013,0.013,0.021   c0.002,0.008-0.003,0.016,0,0.023l0.081,0.196c0.006,0.014,0.019,0.02,0.027,0.032c0.005,0.007,0.001,0.017,0.006,0.024   l0.263,0.344l0.125,0.171c0.008,0.01,0.023,0.007,0.031,0.016c0.034,0.035,0.068,0.07,0.119,0.081l0.334,0.069   c0.018,0.004,0.034,0.005,0.051,0.005h1.603c0.028,0,0.057-0.005,0.084-0.015l0.322-0.115c0.005-0.002,0.006-0.008,0.011-0.01   c0.009-0.004,0.018-0.002,0.026-0.007l0.208-0.115c0.008-0.004,0.008-0.014,0.015-0.019c0.008-0.005,0.019-0.003,0.027-0.01   l0.161-0.138c0.01-0.009,0.008-0.024,0.017-0.034c0.022-0.026,0.049-0.048,0.059-0.082l0.139-0.449   c0.003-0.011-0.005-0.02-0.003-0.031c0.002-0.011,0.013-0.018,0.014-0.03l0.011-0.208c0-0.003-0.003-0.004-0.002-0.007   c0-0.002,0.002-0.004,0.002-0.006v-0.149c0-0.015-0.013-0.024-0.016-0.038c-0.002-0.014,0.008-0.027,0.003-0.041l-0.024-0.072   h0.487L70.241,48.461z M65.567,56.752l-0.713,0.003c-0.005,0-0.009,0-0.013,0l-11.671,0.057l-0.167-1.002l-0.292-2.143v-0.221   h2.013c0.001,0,0.001,0,0.002,0l12.76-0.095L65.567,56.752z M38.315,42.638l2.901-1.787l3.041-1.341l3.325-0.791l2.473-0.307   c0.001,0,0.001,0,0.002,0l2.347-0.301l1.284-0.037l-1.37,6.388c-0.001,0.003,0.002,0.005,0.002,0.009   c-0.001,0.004-0.005,0.006-0.005,0.009l-0.126,0.91l-5.138,0.145c0,0-0.001,0-0.001,0c-0.001,0-0.001,0-0.001,0l-5.899,0.216   l-0.706-1.814c-0.007-0.017-0.026-0.023-0.036-0.038c-0.01-0.015-0.007-0.035-0.02-0.048l-0.147-0.147   c-0.009-0.009-0.023-0.006-0.033-0.014c-0.01-0.008-0.011-0.022-0.023-0.028l-0.166-0.092c-0.03-0.016-0.062-0.007-0.094-0.011   c-0.028-0.004-0.052-0.021-0.081-0.015l-0.167,0.037c-0.014,0.003-0.02,0.018-0.034,0.024c-0.013,0.005-0.028-0.002-0.041,0.006   l-0.092,0.055c-0.018,0.011-0.021,0.033-0.035,0.047c-0.015,0.014-0.037,0.016-0.048,0.034l-0.092,0.147   c-0.018,0.028-0.01,0.06-0.015,0.091c-0.006,0.031-0.025,0.058-0.018,0.091l0.019,0.092c0.002,0.01,0.011,0.014,0.014,0.023   c0.002,0.008-0.003,0.016,0,0.023l0.092,0.221l0,0l0.503,1.358l-0.52,0.019c0,0,0,0-0.001,0c0,0,0,0-0.001,0l-0.579,0.025v-0.215   c0-0.006-0.006-0.01-0.006-0.015c0-0.006,0.005-0.01,0.004-0.016l-0.2-1.558c-0.004-0.033-0.031-0.053-0.046-0.08   c-0.014-0.026-0.016-0.057-0.04-0.078l-0.01-0.008c-0.001-0.001-0.001-0.001-0.002-0.002l-0.268-0.23   c-0.015-0.013-0.035-0.008-0.051-0.017c-0.016-0.009-0.024-0.028-0.043-0.034l-0.28-0.08c-0.005-0.002-0.009,0.003-0.014,0.001   c-0.005-0.001-0.007-0.006-0.011-0.007l-0.193-0.034v-0.04c0-0.029-0.021-0.047-0.03-0.073c-0.008-0.026-0.003-0.054-0.02-0.077   l-0.072-0.096L38.315,42.638z M54.448,38.051h0.243l-0.579,5.317c0,0,0,0.001,0,0.001l-0.107,0.841   c-0.004,0.006-0.012,0.005-0.016,0.012c-0.043,0.068-0.039,0.145-0.013,0.215l-0.114,0.898l-1.167,0.04l0.114-0.826v0l1.392-6.49   L54.448,38.051z M55.771,38.051l3.731,0.18l4.4,0.542l2.582,0.539l3.925,5.152l0.177,0.355l-8.754,0.285c0,0,0,0,0,0l-3.557,0.08   c-0.001,0-0.001,0.001-0.001,0.001s-0.001-0.001-0.002-0.001l-2.222,0.076v-0.146c0-0.026-0.02-0.043-0.028-0.067   c-0.007-0.024,0-0.05-0.014-0.072l-0.078-0.117c0,0,0,0,0,0l-0.002-0.003c-0.014-0.021-0.04-0.024-0.059-0.039   c-0.025-0.021-0.047-0.046-0.081-0.056l0.363-0.182c0.006-0.003,0.007-0.011,0.012-0.014c0.044-0.026,0.077-0.064,0.098-0.113   c0.004-0.008,0.012-0.013,0.015-0.021c0-0.001,0.002-0.002,0.002-0.003l0.24-0.799c0.004-0.015-0.006-0.027-0.004-0.042   c0.002-0.015,0.016-0.025,0.015-0.041l-0.04-0.879c-0.001-0.025-0.021-0.041-0.029-0.064c-0.007-0.02,0.001-0.042-0.011-0.061   l-0.44-0.679c-0.009-0.013-0.026-0.014-0.037-0.025c-0.01-0.011-0.01-0.029-0.023-0.038l-0.319-0.24   c-0.014-0.011-0.033-0.005-0.049-0.013c-0.016-0.008-0.023-0.026-0.041-0.03l-0.48-0.12c-0.002-0.001-0.004,0.001-0.006,0.001   c-0.035-0.008-0.068,0.008-0.103,0.016c-0.029,0.006-0.06,0.001-0.084,0.017c-0.002,0.001-0.004,0-0.006,0.001l-0.039,0.026   l0.371-3.404H55.771z M67.53,48.722l-0.214-0.044l-0.07-0.095c-0.001-0.001-0.002-0.001-0.002-0.001   c-0.001-0.001,0-0.002-0.001-0.003l-0.243-0.317l-0.063-0.151l-0.023-0.106v-0.074l0.017-0.05l0.011-0.026l0.052-0.024l2.601-0.057   l0.09,0.025l0.014,0.041v0.096l-0.009,0.176l-0.108,0.35l-0.088,0.076l-0.167,0.093l-0.261,0.093H67.53z M65.15,47.146   c-0.001,0-0.002,0.001-0.003,0.001c-0.001,0-0.002-0.001-0.003-0.001l-12.101,0.294c0,0-0.001,0-0.001,0l0.053-0.37l0.527-1.228   l0.406-0.014c0.008,0.002,0.012,0.011,0.021,0.012c0.011,0.001,0.021,0.002,0.031,0.002c0.017,0,0.029-0.014,0.046-0.017   l4.163-0.142c0,0,0,0,0,0l3.557-0.08c0.001,0,0.001,0,0.002,0l9.026-0.294l0.153,0.153l0.17,0.592v0.495l-0.27,0.537   c0,0,0,0,0,0.001l-0.029,0.059H65.15z M52.213,49.52c-0.001,0.007,0.005,0.013,0.005,0.02c-0.001,0.007-0.008,0.011-0.008,0.019   v2.359v1.027h-7.227c0,0-0.001,0-0.002,0l-12.634,0.097l0.071-2.473l0.207-1.944l11.58-0.389l4.412-0.147L48.6,48.251   c0,0.005,0.004,0.008,0.004,0.013c0,0.005-0.005,0.008-0.005,0.013v0.188v0.169c0,0.016,0.014,0.026,0.017,0.041   c0.003,0.015-0.007,0.029-0.002,0.044l0.075,0.207c0.01,0.029,0.034,0.046,0.052,0.068c0.008,0.01,0.006,0.025,0.016,0.034   l0.169,0.15c0.008,0.007,0.018,0.004,0.026,0.01c0.007,0.005,0.007,0.015,0.015,0.019l0.357,0.207   c0.005,0.003,0.01,0.002,0.015,0.004c0.003,0.002,0.004,0.006,0.007,0.007l0.207,0.094c0.03,0.013,0.061,0.018,0.092,0.02   c0.002,0,0.003,0.002,0.006,0.003l1.542,0.038c0.002,0,0.004,0,0.006,0c0.019,0,0.038-0.002,0.058-0.007l0.319-0.075   c0.002-0.001,0.003-0.003,0.006-0.004c0.007-0.002,0.014-0.001,0.022-0.004l0.207-0.075c0.019-0.007,0.025-0.027,0.041-0.038   c0.016-0.01,0.036-0.007,0.05-0.021l0.188-0.188c0.008-0.008,0.005-0.02,0.012-0.029c0.013-0.016,0.031-0.026,0.04-0.046   l0.075-0.169c0.003-0.007-0.002-0.015,0.001-0.023c0.003-0.009,0.013-0.014,0.015-0.024l0.038-0.169c0-0.001,0-0.001,0-0.002   c0,0,0,0,0-0.001l0.057-0.263c0.002-0.01-0.006-0.017-0.005-0.027c0.001-0.01,0.011-0.016,0.011-0.026v-0.244   c0-0.015-0.014-0.025-0.016-0.039c-0.002-0.014,0.007-0.027,0.003-0.041l-0.033-0.098l0.174-0.006L52.213,49.52z M39.428,46.315   C39.428,46.315,39.428,46.315,39.428,46.315l0.844-0.031c0.004,0,0.007,0.004,0.011,0.004c0.009,0,0.019-0.004,0.028-0.005   l0.64-0.023c0.012,0.002,0.022,0.01,0.034,0.01c0.025,0,0.051-0.006,0.076-0.014l6.005-0.22c0,0,0,0,0,0l5.244-0.148   c0.021,0.009,0.034,0.03,0.057,0.034c0.012,0.001,0.023,0.002,0.034,0.002c0.043,0,0.077-0.023,0.113-0.042l0.556-0.019   l-0.447,1.042c-0.005,0.011,0.003,0.022,0,0.034c-0.003,0.011-0.015,0.017-0.017,0.029l-0.07,0.49l-8.349,0.278l-11.559,0.389   l0.112-0.391c0,0,0-0.001,0-0.001s0-0.001,0.001-0.001l0.245-0.881l0.198-0.264l0.726-0.032h1.468c0,0,0,0,0,0   c0.013,0,0.027-0.001,0.041-0.003c0.027-0.005,0.042-0.028,0.065-0.04c0.022-0.011,0.049-0.011,0.066-0.028L39.428,46.315z    M39.887,44.251c-0.001-0.002,0.001-0.004,0-0.006l-0.073-0.175l0.004-0.006l0.005-0.003l0.035-0.008l0.053,0.03l0.085,0.085   l0.624,1.603l-0.166,0.006l-0.563-1.522C39.89,44.253,39.888,44.252,39.887,44.251z M49.714,49.042l-0.15-0.068l-0.322-0.186   l-0.104-0.093l-0.038-0.105v-0.125v-0.177l0.011-0.112l0.02-0.03l0.007-0.006l0.047-0.006c0.015,0.003,0.025,0.016,0.041,0.016   c0.003,0,0.007,0,0.011,0l2.465-0.11l0.066,0.026l0.051,0.077l0.014,0.04v0.179l-0.05,0.232c0,0-0.001,0.001-0.001,0.001   l-0.033,0.146l-0.046,0.103l-0.115,0.115l-0.144,0.052l-0.271,0.064L49.714,49.042z M34.801,45.431   c0.002-0.001,0.001-0.003,0.003-0.005c0.002-0.001,0.004-0.001,0.005-0.002l0.666-0.509c-0.012,0.023-0.003,0.048-0.006,0.073   c-0.005,0.032-0.015,0.06-0.008,0.091c0.002,0.01,0.001,0.019,0.005,0.029l-0.14,0.224c-0.004,0.006,0,0.013-0.003,0.018   c-0.003,0.006-0.011,0.007-0.014,0.013l-0.16,0.359c-0.002,0.004,0.001,0.009,0,0.013c-0.002,0.004-0.007,0.005-0.008,0.01   l-0.015,0.046l-0.033,0.025l-0.874,0.022L34.801,45.431z M35.59,45.981l0.022-0.066l0.147-0.331l0.044-0.07l0.462,0.438   L35.59,45.981z M37.976,44.053l0.165,0.142l0.186,1.447v0.12l-0.097,0.097l-1.09,0.035l-0.135-0.054l-0.32-0.178l-0.582-0.551   c-0.008-0.059-0.042-0.112-0.09-0.152l0.36-0.69l0.141-0.113l0.329-0.183l0.164-0.066l0.131-0.026l0.62,0.11L37.976,44.053z    M55.372,41.988l0.242,0.182l0.38,0.586l0.035,0.77l-0.197,0.654l-0.481,0.241l-0.431-0.033l-0.305-0.068l-0.111-0.069l0.105-0.822   c0-0.001-0.001-0.002-0.001-0.003c0-0.001,0.001-0.001,0.001-0.002l0.144-1.319l0.294-0.196L55.372,41.988z M54.401,45.061   l0.72,0.06l0.429,0.092v0.06v0.003l-1.182,0.04L54.401,45.061z M32.586,56.913l-0.26-3.165l0.006-0.204l12.653-0.098h7.225v0.241   c0,0.006,0.006,0.01,0.007,0.016c0,0.007-0.006,0.011-0.005,0.018l0.295,2.163c0,0.001,0.002,0.002,0.002,0.003   c0,0.001-0.001,0.002-0.001,0.004l0.154,0.924L32.586,56.913z M71.766,41.053l2.23,1.083l2.485,1.44c0,0,0,0,0,0l1.678,1.041   l0.003,0.01l-4.202,0.039l0.029-0.161c0.005-0.026-0.012-0.046-0.016-0.071c-0.003-0.024,0.009-0.047-0.001-0.071l-0.073-0.171   c-0.01-0.024-0.035-0.031-0.051-0.05c-0.015-0.019-0.018-0.045-0.04-0.059l-0.293-0.195c-0.003-0.002-0.008,0-0.011-0.002   s-0.004-0.007-0.007-0.009l-0.129-0.07l0.014-0.206c0.001-0.009-0.008-0.015-0.008-0.023c0-0.009,0.008-0.016,0.007-0.026   l-0.122-0.926c-0.003-0.019-0.021-0.029-0.027-0.046c-0.006-0.018,0.001-0.037-0.009-0.053l-0.243-0.39   c-0.009-0.015-0.028-0.016-0.04-0.029c-0.011-0.012-0.011-0.031-0.025-0.041l-0.269-0.195c-0.022-0.016-0.049-0.01-0.074-0.018   c-0.025-0.009-0.044-0.03-0.073-0.03H71.84c-0.021,0-0.035,0.018-0.054,0.022c-0.019,0.004-0.039-0.005-0.057,0.004l-0.488,0.244   c-0.021,0.01-0.025,0.033-0.042,0.048c-0.017,0.014-0.04,0.016-0.053,0.035l-0.316,0.463c-0.012,0.017-0.005,0.037-0.012,0.056   c-0.007,0.018-0.026,0.029-0.029,0.049l-0.045,0.305l-2.609-3.357L71.766,41.053z M72.015,44.684l-0.286-0.368l0.047-0.047   l0.409-0.117l0.493,0.03l-0.073,0.122l-0.245,0.376L72.015,44.684z M71.274,42.873l0.247-0.362l0.377-0.188h0.52l0.163,0.118   l0.189,0.302l0.112,0.852l-0.007,0.099l-0.703-0.043c-0.016-0.001-0.026,0.012-0.041,0.014c-0.015,0.002-0.027-0.009-0.042-0.005   l-0.513,0.146c-0.022,0.006-0.031,0.028-0.049,0.039c-0.019,0.011-0.043,0.008-0.059,0.024l-0.048,0.048l-0.252-0.324   L71.274,42.873z M73.026,44.573c0.001-0.001,0-0.003,0.001-0.004c0.001-0.002,0.003-0.002,0.004-0.004l0.169-0.282l0.048,0.026   l0.222,0.148l0.014,0.034l-0.032,0.179l-0.492,0.005L73.026,44.573z M6.535,51.816C6.535,51.816,6.535,51.816,6.535,51.816   l0.657-1.458l0.24-0.48l0.48,0.016L7.36,50.78c-0.003,0.005,0,0.011-0.003,0.016c-0.003,0.005-0.009,0.005-0.012,0.011L6.712,52.17   c-0.001,0.003,0.001,0.006,0,0.008c-0.001,0.003-0.005,0.003-0.006,0.006L6.55,52.582l-0.358,0.027L6.2,52.58L6.535,51.816z    M12.149,51.83h-1.741l0.078-0.223l0.393-0.945l0.473-0.492l0.42,0.018l0.403,0.105l0.485,0.294l-0.038,0.119L12.149,51.83z    M8.125,51.83l0.422-0.798l0.579-0.963l1.426,0.017l-0.48,0.682c-0.006,0.008-0.002,0.019-0.006,0.028   c-0.005,0.009-0.017,0.011-0.021,0.021l-0.219,0.536c-0.002,0.006,0.002,0.012,0,0.018c-0.002,0.006-0.009,0.008-0.011,0.014   L9.699,51.83H8.125z M5.726,55.798l-0.021-1.275l6.251,0.026l0.059,1.249H5.726z M6.656,58.109l-0.004-0.004l-0.027-0.067   l-0.208-1.292l2.349-0.025l0.126,1.388L8.89,58.109H6.656z M33.297,58.123l-0.129-0.193l-0.096-0.254l0.04-0.121l0.157-0.125   l0.038-0.021l19.438-0.094l0.11,0.66L33.297,58.123z M53.363,57.971l-0.11-0.659l11.461-0.056l0.316,0.379l-0.172,0.248   L53.363,57.971z M5.629,56.655l0.015,0.114l-0.032-0.113L5.629,56.655z M18.215,53.243c-0.061,0.074-0.124,0.145-0.182,0.221   C18.091,53.388,18.153,53.316,18.215,53.243z M17.62,54.064c-0.001,0.001-0.002,0.003-0.003,0.005   C17.619,54.067,17.62,54.065,17.62,54.064z M18.688,52.724c-0.043,0.043-0.086,0.086-0.129,0.131   C18.602,52.811,18.644,52.767,18.688,52.724z M23.79,50.675c0.338,0.003,0.676,0.031,1.011,0.083   C24.467,50.706,24.129,50.68,23.79,50.675z M26.816,51.393c-0.137-0.065-0.277-0.121-0.417-0.178   C26.539,51.273,26.679,51.327,26.816,51.393z M25.854,51.009c-0.198-0.062-0.401-0.105-0.604-0.15   C25.453,50.904,25.655,50.946,25.854,51.009z M27.601,51.83c0.021,0.014,0.039,0.031,0.06,0.046   c-0.055-0.036-0.11-0.071-0.166-0.105C27.529,51.792,27.566,51.807,27.601,51.83z M73.488,50.841   c-0.056,0.013-0.113,0.021-0.168,0.035C73.375,50.862,73.432,50.854,73.488,50.841z"/></g></svg>