<svg xmlns="http://www.w3.org/2000/svg" xmlns:xlink="http://www.w3.org/1999/xlink" version="1.1" x="0px" y="0px" viewBox="0 20 100 70" enable-background="new 0 0 100 100" xml:space="preserve"><g><path d="M75.831,45.035c-0.587,0.035-1.136,0.16-1.547,0.353c-0.65,0.305-0.729,0.671-0.718,0.863   c0.039,0.641,1.025,0.947,2.072,0.947c0.106,0,0.214-0.003,0.32-0.009c0.586-0.035,1.135-0.16,1.547-0.353   c0.65-0.305,0.729-0.671,0.718-0.862C78.181,45.266,76.979,44.965,75.831,45.035z M77.294,46.383   c-0.355,0.167-0.84,0.275-1.364,0.307c-1.176,0.068-1.853-0.273-1.863-0.469c-0.006-0.083,0.127-0.238,0.43-0.379   c0.355-0.167,0.84-0.275,1.364-0.307c1.185-0.066,1.853,0.273,1.863,0.469C77.729,46.086,77.597,46.241,77.294,46.383z"/><path d="M21.768,58.138c0.005,0.01,0.015,0.014,0.021,0.023c0.004,0.006,0.001,0.013,0.005,0.018l0.272,0.354   c0.002,0.002,0.005,0.001,0.007,0.004c0.119,0.157,0.299,0.245,0.485,0.245c0.121,0,0.243-0.036,0.349-0.11   c0.141-0.1,0.234-0.255,0.254-0.426l0.055-0.467c0.001-0.01-0.008-0.017-0.008-0.027c0-0.01,0.009-0.016,0.008-0.026l-0.076-0.801   c-0.014-0.139-0.144-0.24-0.272-0.226c-0.138,0.014-0.238,0.135-0.226,0.272l0.074,0.774l-0.052,0.441   c-0.003,0.03-0.02,0.059-0.044,0.075c-0.047,0.036-0.116,0.023-0.151-0.026c-0.001-0.002-0.003-0.001-0.005-0.003   c-0.001-0.002,0-0.004-0.001-0.005l-0.256-0.333l-0.341-0.687c-0.062-0.124-0.212-0.173-0.335-0.112   c-0.124,0.062-0.174,0.211-0.113,0.335L21.768,58.138z"/><path d="M24.04,58.778c0.102,0.127,0.246,0.206,0.405,0.224c0.023,0.003,0.046,0.004,0.07,0.004c0.141,0,0.277-0.052,0.386-0.143   c0.003-0.002,0.007-0.001,0.01-0.003l0.345-0.283c0.008-0.006,0.006-0.017,0.013-0.024c0.006-0.006,0.016-0.003,0.021-0.01   l0.503-0.61c0.088-0.106,0.073-0.265-0.034-0.353c-0.106-0.087-0.264-0.072-0.352,0.034l-0.487,0.591l-0.327,0.268   c-0.002,0.001-0.001,0.004-0.003,0.005c-0.001,0.001-0.003,0-0.005,0.002c-0.023,0.021-0.055,0.027-0.085,0.026   c-0.038-0.005-0.061-0.026-0.071-0.04c-0.01-0.013-0.027-0.041-0.023-0.08l0.049-0.441l0.247-0.736   c0.044-0.131-0.026-0.272-0.157-0.316c-0.13-0.043-0.272,0.027-0.316,0.158l-0.256,0.763c-0.003,0.009,0.004,0.017,0.002,0.026   c-0.002,0.01-0.012,0.014-0.014,0.024L23.91,58.33c0,0,0,0,0,0.001c0,0,0,0,0,0C23.892,58.492,23.938,58.651,24.04,58.778z"/><path d="M23.241,55.567c-2.913,0-5.283,2.37-5.283,5.283s2.37,5.283,5.283,5.283s5.283-2.37,5.283-5.283   S26.154,55.567,23.241,55.567z M23.241,65.634c-2.637,0-4.783-2.146-4.783-4.783s2.146-4.783,4.783-4.783   c2.638,0,4.783,2.146,4.783,4.783S25.878,65.634,23.241,65.634z"/><path d="M23.241,56.083c-2.629,0-4.768,2.139-4.768,4.768s2.139,4.768,4.768,4.768s4.768-2.139,4.768-4.768   S25.87,56.083,23.241,56.083z M23.241,65.118c-2.353,0-4.268-1.914-4.268-4.268s1.915-4.268,4.268-4.268   c2.354,0,4.268,1.914,4.268,4.268S25.594,65.118,23.241,65.118z"/><path d="M21.767,62.513c-0.05-0.154-0.158-0.28-0.303-0.354c-0.148-0.075-0.319-0.083-0.475-0.027   c-0.003,0.001-0.006-0.002-0.009-0.001l-0.422,0.144c-0.008,0.003-0.01,0.012-0.018,0.016c-0.008,0.004-0.018-0.001-0.026,0.003   l-0.685,0.395c-0.12,0.069-0.161,0.222-0.092,0.342c0.046,0.08,0.13,0.125,0.217,0.125c0.042,0,0.085-0.011,0.125-0.033   l0.666-0.384l0.397-0.135c0.002-0.001,0.003-0.003,0.005-0.004s0.004,0.001,0.006,0c0.028-0.011,0.061-0.009,0.086,0.004   c0.035,0.018,0.049,0.048,0.054,0.063c0.005,0.016,0.011,0.047-0.006,0.081c0,0,0,0,0,0.001s0,0,0,0l-0.202,0.398l-0.489,0.601   c-0.087,0.106-0.071,0.264,0.036,0.352c0.046,0.037,0.102,0.056,0.158,0.056c0.072,0,0.145-0.031,0.194-0.093l0.507-0.624   c0.004-0.005,0.002-0.013,0.006-0.018c0.007-0.01,0.018-0.014,0.024-0.025l0.212-0.418l0,0v0l0-0.001c0,0,0-0.001,0-0.001   C21.804,62.83,21.817,62.666,21.767,62.513z"/><path d="M23.602,63.927c-0.001-0.009,0.006-0.017,0.004-0.026l-0.114-0.455c0-0.001-0.001-0.001-0.001-0.002   c-0.04-0.157-0.137-0.289-0.275-0.372c-0.139-0.084-0.303-0.108-0.46-0.068c-0.161,0.04-0.296,0.147-0.379,0.291   c-0.002,0.003-0.005,0.003-0.007,0.005l-0.225,0.386c-0.005,0.008,0,0.017-0.003,0.025c-0.004,0.008-0.014,0.01-0.017,0.019   l-0.259,0.747c-0.045,0.131,0.024,0.273,0.154,0.318c0.027,0.01,0.055,0.014,0.082,0.014c0.104,0,0.2-0.064,0.236-0.168   l0.251-0.726l0.212-0.363c0.001-0.002,0-0.004,0.001-0.005s0.003-0.002,0.004-0.003c0.015-0.027,0.04-0.047,0.07-0.055   c0.038-0.01,0.067,0.003,0.082,0.013c0.014,0.009,0.04,0.028,0.049,0.065c0,0,0,0,0,0c0,0,0,0,0,0.001l0.107,0.429l0.025,0.778   c0.004,0.136,0.116,0.242,0.25,0.242c0.002,0,0.005,0,0.008,0c0.138-0.005,0.247-0.12,0.242-0.258l-0.026-0.805   C23.612,63.943,23.603,63.937,23.602,63.927z"/><path d="M20.308,61.767c0.011-0.004,0.023-0.003,0.033-0.008l0.399-0.199c0.003-0.002,0.003-0.006,0.006-0.007   c0.293-0.143,0.425-0.492,0.291-0.792c-0.07-0.157-0.205-0.278-0.369-0.331c0,0-0.001,0-0.001,0c0,0,0,0,0,0l-0.447-0.143   c-0.01-0.003-0.018,0.004-0.027,0.002c-0.01-0.002-0.014-0.012-0.024-0.013l-0.8-0.079c-0.133-0.012-0.259,0.087-0.273,0.225   c-0.013,0.138,0.087,0.26,0.225,0.273l0.775,0.077l0.42,0.134c0,0,0,0,0,0c0.029,0.009,0.054,0.031,0.066,0.06   c0.024,0.054,0,0.117-0.055,0.143c-0.002,0.001-0.002,0.003-0.003,0.004c-0.002,0.001-0.004-0.001-0.006,0L20.14,61.3l-0.739,0.203   c-0.133,0.036-0.212,0.174-0.175,0.308c0.031,0.11,0.131,0.184,0.241,0.184c0.022,0,0.044-0.003,0.066-0.009l0.762-0.209   C20.301,61.775,20.303,61.768,20.308,61.767z"/><path d="M20.374,59.705c0.011,0.005,0.023,0.004,0.034,0.007c0.005,0.001,0.007,0.007,0.012,0.008l0.435,0.099   c0.019,0.004,0.037,0.006,0.055,0.006c0,0,0,0,0.001,0c0.031,0.005,0.061,0.012,0.091,0.012c0.269,0,0.515-0.178,0.588-0.448   c0.045-0.166,0.018-0.345-0.077-0.49c0,0,0,0,0,0c0,0,0,0,0-0.001l-0.256-0.394c-0.005-0.008-0.016-0.008-0.023-0.015   c-0.006-0.008-0.004-0.018-0.011-0.026l-0.571-0.567c-0.098-0.097-0.255-0.097-0.354,0.002c-0.097,0.098-0.097,0.256,0.001,0.354   l0.552,0.549l0.241,0.37c0.017,0.026,0.022,0.057,0.014,0.088c-0.016,0.058-0.078,0.088-0.133,0.076   c-0.002,0-0.003,0.001-0.004,0.001c-0.002-0.001-0.003-0.003-0.005-0.003l-0.413-0.094l-0.698-0.309   c-0.126-0.057-0.274,0.002-0.33,0.128c-0.056,0.126,0.001,0.273,0.127,0.329L20.374,59.705z"/><path d="M27.121,61.453l-0.784-0.178c-0.01-0.002-0.018,0.006-0.027,0.005c-0.01-0.001-0.015-0.011-0.025-0.011l-0.47-0.006   c-0.001,0-0.001,0-0.001,0c-0.002,0-0.003-0.001-0.005,0c-0.332,0-0.604,0.269-0.608,0.602c-0.001,0.166,0.068,0.325,0.187,0.44   c0.002,0.002,0.001,0.005,0.003,0.007l0.007,0.007c0,0,0,0,0,0h0l0.309,0.308c0.006,0.006,0.016,0.004,0.023,0.009   c0.007,0.006,0.007,0.017,0.015,0.022l0.657,0.439c0.043,0.028,0.091,0.042,0.139,0.042c0.081,0,0.16-0.039,0.208-0.111   c0.077-0.114,0.046-0.27-0.069-0.347l-0.64-0.428l-0.296-0.295c-0.001-0.001-0.003-0.001-0.005-0.002   c-0.001-0.001-0.001-0.004-0.002-0.005c-0.023-0.021-0.036-0.051-0.036-0.082c0-0.059,0.049-0.106,0.108-0.106c0,0,0,0,0,0   l0.442,0.005l0.76,0.172c0.019,0.004,0.037,0.006,0.055,0.006c0.114,0,0.217-0.079,0.244-0.194   C27.34,61.618,27.256,61.484,27.121,61.453z"/><path d="M25.333,63.12c-0.006-0.007-0.016-0.005-0.022-0.011c-0.007-0.006-0.005-0.017-0.013-0.023l-0.35-0.275   c-0.002-0.002-0.005,0-0.008-0.002c-0.122-0.098-0.276-0.15-0.427-0.137c-0.162,0.013-0.309,0.087-0.415,0.21   c-0.113,0.131-0.165,0.304-0.142,0.475c0,0,0,0,0,0c0,0,0,0,0,0.001l0.062,0.466c0.001,0.01,0.011,0.016,0.014,0.026   c0.002,0.009-0.004,0.016-0.001,0.025l0.27,0.758c0.036,0.103,0.133,0.166,0.235,0.166c0.028,0,0.056-0.005,0.084-0.015   c0.13-0.046,0.198-0.189,0.151-0.319l-0.26-0.731l-0.058-0.441c-0.004-0.03,0.005-0.06,0.025-0.084   c0.025-0.03,0.057-0.036,0.073-0.037c0.019-0.007,0.049,0,0.079,0.025c0.002,0.001,0.004,0,0.005,0.002   c0.002,0.001,0.001,0.004,0.003,0.005l0.332,0.261l0.497,0.581c0.049,0.059,0.12,0.088,0.19,0.088c0.058,0,0.115-0.02,0.163-0.061   c0.105-0.089,0.117-0.247,0.027-0.352L25.333,63.12z"/><path d="M25.771,59.124c-0.007,0.006-0.017,0.003-0.024,0.009l-0.315,0.3c0,0,0,0-0.001,0c0,0-0.001,0.001-0.001,0.001   l-0.007,0.006c-0.002,0.002-0.001,0.004-0.003,0.006c-0.24,0.221-0.264,0.595-0.047,0.845c0.114,0.13,0.278,0.204,0.45,0.207   c0,0,0,0,0.001,0l0.469,0.006c0.001,0,0.002,0,0.003,0c0,0,0,0,0,0c0.016,0,0.033-0.002,0.049-0.005l0.789-0.159   c0.135-0.027,0.223-0.159,0.196-0.295c-0.028-0.136-0.162-0.217-0.294-0.195l-0.763,0.154l-0.443-0.006c0,0,0,0,0,0   c-0.03,0-0.059-0.014-0.079-0.036c-0.039-0.045-0.035-0.113,0.01-0.152c0.002-0.002,0.001-0.004,0.003-0.006   c0.001-0.001,0.004-0.001,0.005-0.002l0.305-0.29l0.647-0.411c0.117-0.074,0.151-0.229,0.077-0.345   c-0.074-0.117-0.229-0.151-0.345-0.077l-0.667,0.424C25.778,59.107,25.778,59.118,25.771,59.124z"/><path d="M53.134,48.385c0.107,0,0.215-0.003,0.322-0.01c0.586-0.035,1.135-0.16,1.547-0.353c0.65-0.305,0.729-0.671,0.718-0.862   c-0.044-0.708-1.241-1.011-2.393-0.938c-0.587,0.035-1.136,0.16-1.547,0.353c-0.65,0.305-0.729,0.671-0.718,0.863   C51.103,48.079,52.088,48.385,53.134,48.385z M51.993,47.028c0.355-0.167,0.84-0.275,1.364-0.307   c0.107-0.006,0.211-0.009,0.31-0.009c0.99,0,1.544,0.3,1.554,0.479c0.006,0.083-0.127,0.237-0.43,0.379   c-0.355,0.167-0.84,0.275-1.364,0.307c-1.183,0.071-1.853-0.273-1.863-0.469C51.558,47.324,51.69,47.169,51.993,47.028z"/><path d="M81.66,59.002c0.022,0.003,0.046,0.004,0.069,0.004c0.143,0,0.28-0.052,0.391-0.145c0.001-0.001,0.003-0.001,0.005-0.002   l0.005-0.004c0.001-0.001,0.002-0.001,0.002-0.001c0,0,0-0.001,0-0.001l0.337-0.276c0.008-0.006,0.006-0.017,0.013-0.024   c0.006-0.006,0.017-0.004,0.022-0.011l0.503-0.61c0.087-0.106,0.072-0.265-0.034-0.353c-0.107-0.087-0.265-0.071-0.353,0.034   l-0.489,0.594l-0.324,0.266c-0.001,0.001-0.001,0.003-0.002,0.004c-0.002,0.001-0.004,0-0.006,0.002   c-0.023,0.022-0.054,0.027-0.085,0.027c-0.038-0.005-0.062-0.027-0.071-0.04c-0.011-0.013-0.027-0.041-0.023-0.079l0.049-0.438   l0.248-0.74c0.044-0.131-0.027-0.272-0.158-0.316c-0.13-0.043-0.271,0.027-0.316,0.158l-0.256,0.763   c-0.003,0.009,0.004,0.017,0.002,0.026c-0.002,0.01-0.011,0.015-0.013,0.025l-0.053,0.466c-0.019,0.161,0.027,0.32,0.129,0.448   C81.355,58.905,81.5,58.984,81.66,59.002z"/><path d="M78.983,58.138c0.005,0.01,0.015,0.014,0.02,0.022c0.004,0.006,0.001,0.013,0.005,0.019l0.271,0.354   c0.002,0.002,0.005,0.001,0.007,0.003c0.093,0.125,0.226,0.21,0.38,0.237c0.035,0.006,0.07,0.01,0.105,0.01   c0.124,0,0.244-0.038,0.347-0.11c0.141-0.099,0.234-0.253,0.256-0.425c0,0,0-0.001,0-0.001c0,0,0,0,0-0.001l0.055-0.467   c0.001-0.01-0.007-0.016-0.007-0.026c0-0.01,0.009-0.017,0.008-0.027l-0.076-0.801c-0.014-0.138-0.137-0.241-0.272-0.226   c-0.138,0.014-0.238,0.135-0.226,0.272l0.074,0.776l-0.051,0.436c0,0,0,0,0,0.001c-0.004,0.031-0.021,0.06-0.046,0.078   c-0.048,0.032-0.115,0.021-0.15-0.026c-0.001-0.001-0.003-0.001-0.004-0.003c-0.001-0.002,0-0.004-0.002-0.006l-0.257-0.335   l-0.34-0.685c-0.061-0.123-0.208-0.172-0.335-0.112c-0.123,0.062-0.174,0.211-0.112,0.335L78.983,58.138z"/><path d="M80.455,55.567c-2.913,0-5.282,2.37-5.282,5.283s2.369,5.283,5.282,5.283s5.283-2.37,5.283-5.283   S83.368,55.567,80.455,55.567z M80.455,65.634c-2.637,0-4.782-2.146-4.782-4.783s2.146-4.783,4.782-4.783   c2.638,0,4.783,2.146,4.783,4.783S83.093,65.634,80.455,65.634z"/><path d="M80.455,56.083c-2.629,0-4.768,2.139-4.768,4.768s2.139,4.768,4.768,4.768s4.768-2.139,4.768-4.768   S83.084,56.083,80.455,56.083z M80.455,65.118c-2.354,0-4.268-1.914-4.268-4.268s1.914-4.268,4.268-4.268s4.268,1.914,4.268,4.268   S82.809,65.118,80.455,65.118z"/><path d="M84.336,61.453l-0.784-0.178c-0.01-0.002-0.018,0.006-0.027,0.005c-0.01-0.001-0.015-0.011-0.025-0.011l-0.47-0.006   c-0.003,0-0.005,0-0.007,0c-0.159,0-0.311,0.062-0.425,0.173c-0.116,0.114-0.181,0.266-0.183,0.426   c-0.003,0.167,0.066,0.328,0.187,0.446c0.001,0.001,0.001,0.004,0.002,0.005l0.005,0.005l0,0h0l0.311,0.31   c0.006,0.006,0.016,0.004,0.023,0.01c0.007,0.006,0.006,0.016,0.014,0.021l0.657,0.439c0.042,0.028,0.091,0.042,0.139,0.042   c0.08,0,0.159-0.039,0.208-0.111c0.076-0.114,0.046-0.27-0.069-0.347l-0.637-0.426l-0.3-0.298c-0.001-0.001-0.002,0-0.003-0.001   c-0.001-0.001-0.001-0.003-0.002-0.004c-0.024-0.022-0.037-0.051-0.036-0.083c0.001-0.06,0.049-0.106,0.107-0.106   c0.001,0,0.001,0,0.001,0l0.441,0.005l0.76,0.172c0.019,0.004,0.037,0.006,0.056,0.006c0.114,0,0.218-0.079,0.244-0.194   C84.555,61.618,84.47,61.484,84.336,61.453z"/><path d="M82.985,59.124c-0.007,0.005-0.017,0.003-0.023,0.009l-0.315,0.3c0,0,0,0-0.001,0c0,0-0.001,0.001-0.001,0.001   l-0.007,0.006c-0.002,0.002-0.001,0.004-0.003,0.006c-0.241,0.221-0.265,0.596-0.048,0.844c0.113,0.13,0.277,0.205,0.449,0.208   c0,0,0.001,0,0.001,0l0.47,0.006c0.001,0,0.002,0,0.003,0c0.017,0,0.033-0.002,0.05-0.005l0.789-0.159   c0.135-0.027,0.223-0.159,0.195-0.295c-0.028-0.135-0.163-0.221-0.295-0.195l-0.763,0.154l-0.443-0.006c0,0-0.001,0-0.001,0   c-0.029,0-0.059-0.014-0.078-0.036c-0.033-0.038-0.028-0.119,0.01-0.152c0.002-0.002,0.001-0.004,0.003-0.006   c0.001-0.001,0.004-0.001,0.005-0.002l0.304-0.289l0.648-0.412c0.117-0.074,0.151-0.229,0.077-0.345   c-0.075-0.117-0.23-0.151-0.345-0.077L83,59.103C82.992,59.108,82.992,59.118,82.985,59.124z"/><path d="M82.549,63.12c-0.006-0.007-0.017-0.006-0.024-0.012c-0.006-0.006-0.005-0.017-0.013-0.022l-0.342-0.268c0,0,0,0,0,0   c0,0,0,0,0,0l-0.008-0.007c-0.002-0.001-0.005,0-0.006-0.002c-0.121-0.098-0.266-0.148-0.427-0.137   c-0.162,0.012-0.31,0.087-0.415,0.21c-0.113,0.13-0.164,0.304-0.141,0.474c0,0,0,0,0,0l0,0c0,0,0,0,0,0.001c0,0,0,0,0,0l0.06,0.465   c0.001,0.01,0.011,0.016,0.014,0.026c0.002,0.009-0.004,0.017-0.001,0.026l0.271,0.758c0.036,0.103,0.133,0.166,0.235,0.166   c0.028,0,0.057-0.005,0.084-0.015c0.13-0.046,0.198-0.189,0.151-0.319l-0.261-0.732l-0.057-0.44c0,0,0,0,0,0c0,0,0,0,0-0.001   c-0.004-0.03,0.005-0.061,0.024-0.083c0.04-0.045,0.106-0.051,0.152-0.012c0.002,0.002,0.004,0.001,0.006,0.002   c0.002,0.001,0.001,0.004,0.003,0.005l0.33,0.259l0.499,0.583c0.05,0.059,0.12,0.088,0.19,0.088c0.058,0,0.115-0.02,0.162-0.06   c0.105-0.09,0.117-0.248,0.028-0.353L82.549,63.12z"/><path d="M78.678,62.158c-0.147-0.075-0.319-0.082-0.475-0.027c-0.003,0.001-0.006-0.002-0.01-0.001l-0.422,0.144   c-0.008,0.003-0.01,0.012-0.018,0.016c-0.009,0.004-0.018-0.001-0.027,0.004l-0.685,0.395c-0.119,0.069-0.16,0.222-0.092,0.342   c0.047,0.08,0.131,0.125,0.217,0.125c0.043,0,0.086-0.011,0.125-0.033l0.667-0.384l0.395-0.134   c0.002-0.001,0.003-0.003,0.005-0.004c0.002-0.001,0.004,0.001,0.006,0c0.03-0.012,0.062-0.011,0.087,0.004   c0.053,0.027,0.074,0.092,0.049,0.145l0,0l-0.201,0.395l-0.491,0.604c-0.087,0.106-0.07,0.265,0.037,0.352   c0.046,0.037,0.102,0.056,0.157,0.056c0.072,0,0.145-0.031,0.194-0.093l0.507-0.624c0.005-0.006,0.002-0.014,0.006-0.02   c0.006-0.009,0.017-0.014,0.022-0.024l0.213-0.419C79.097,62.677,78.977,62.311,78.678,62.158z"/><path d="M80.815,63.927c-0.001-0.009,0.006-0.017,0.004-0.026l-0.113-0.455c-0.081-0.326-0.412-0.528-0.736-0.442   c-0.161,0.039-0.296,0.147-0.379,0.29c-0.002,0.003-0.005,0.003-0.007,0.005l-0.225,0.386c-0.005,0.008,0,0.017-0.003,0.025   c-0.004,0.008-0.014,0.01-0.017,0.019l-0.259,0.747c-0.045,0.131,0.024,0.273,0.154,0.318c0.027,0.01,0.055,0.014,0.082,0.014   c0.104,0,0.2-0.064,0.236-0.168l0.251-0.726l0.212-0.363c0.001-0.002,0-0.004,0.001-0.005c0.001-0.002,0.003-0.002,0.004-0.003   c0.015-0.027,0.04-0.047,0.07-0.055c0.058-0.013,0.116,0.021,0.131,0.079l0.106,0.427l0.026,0.78   c0.005,0.136,0.115,0.242,0.25,0.242c0.003,0,0.006,0,0.008,0c0.139-0.005,0.246-0.12,0.242-0.258l-0.026-0.805   C80.827,63.943,80.817,63.937,80.815,63.927z"/><path d="M77.589,59.705c0.01,0.005,0.022,0.004,0.033,0.007c0.005,0.002,0.007,0.007,0.012,0.009l0.436,0.099   c0.019,0.004,0.038,0.006,0.056,0.006c0,0,0,0,0.001,0c0.03,0.005,0.061,0.012,0.091,0.012c0.269,0,0.515-0.179,0.588-0.449   c0.045-0.165,0.017-0.343-0.075-0.487c0-0.001-0.001,0-0.002-0.001c0-0.001,0-0.001,0-0.002l-0.257-0.394   c-0.005-0.008-0.016-0.008-0.022-0.015c-0.006-0.008-0.004-0.018-0.01-0.025l-0.57-0.567c-0.099-0.099-0.257-0.098-0.354,0   c-0.098,0.099-0.098,0.257,0,0.354l0.553,0.55l0.24,0.368v0c0.018,0.028,0.022,0.06,0.015,0.09   c-0.016,0.058-0.075,0.088-0.133,0.076c-0.001,0-0.003,0.001-0.004,0.001c-0.002-0.001-0.003-0.003-0.005-0.003l-0.416-0.094   l-0.697-0.308c-0.122-0.056-0.273,0.001-0.329,0.128c-0.056,0.126,0.001,0.273,0.128,0.329L77.589,59.705z"/><path d="M77.524,61.766c0.011-0.004,0.022-0.003,0.032-0.008l0.388-0.194c0.001,0,0.001,0,0.002,0c0.001,0,0.001-0.001,0.002-0.002   l0.006-0.003c0.002-0.001,0.002-0.003,0.003-0.004c0.142-0.068,0.253-0.184,0.308-0.331c0.058-0.151,0.053-0.316-0.014-0.463   c-0.069-0.157-0.204-0.278-0.368-0.332c0,0-0.001,0-0.001,0c0,0,0,0,0,0l-0.447-0.143c-0.01-0.003-0.018,0.004-0.027,0.002   c-0.01-0.002-0.015-0.012-0.024-0.013l-0.801-0.079c-0.136-0.015-0.26,0.088-0.273,0.225c-0.014,0.138,0.087,0.26,0.225,0.273   l0.775,0.077l0.42,0.134c0,0,0,0,0.001,0c0.029,0.009,0.053,0.03,0.066,0.06c0.016,0.035,0.008,0.065,0.002,0.081   s-0.021,0.045-0.058,0.061c-0.002,0.001-0.002,0.004-0.004,0.005c-0.001,0.001-0.003,0-0.004,0L77.356,61.3l-0.741,0.203   c-0.133,0.036-0.211,0.174-0.175,0.308c0.03,0.11,0.131,0.184,0.241,0.184c0.021,0,0.044-0.003,0.066-0.009l0.763-0.209   C77.516,61.775,77.518,61.768,77.524,61.766z"/><path d="M95.077,52.376c0-0.001,0.001-0.003,0-0.004c-0.015-0.044-0.03-0.088-0.05-0.131c-0.12-0.271-0.336-0.476-0.54-0.669   c-0.151-0.144-0.295-0.285-0.44-0.427c0.044-0.148,0.091-0.296,0.118-0.454c0.045-0.274,0.042-0.55,0.039-0.816l-0.001-0.455   c0.001-0.144,0.002-0.288,0-0.433c-0.001-0.055-0.002-0.11,0-0.164c0.005-0.132,0.029-0.263,0.053-0.394l0.022-0.125   c0.069-0.397,0.102-0.825,0.103-1.344c0.001-0.578-0.04-1.154-0.121-1.714c-0.06-0.411-0.149-0.891-0.356-1.333   c-0.116-0.247-0.271-0.492-0.502-0.795c-0.162-0.213-0.335-0.418-0.507-0.622c-0.007-0.029-0.014-0.058-0.024-0.086   c-0.05-0.144-0.132-0.265-0.219-0.393l-0.079-0.119c-0.066-0.101-0.133-0.201-0.203-0.297c-0.208-0.285-0.451-0.541-0.665-0.767   c-0.897-0.95-1.857-1.954-2.853-2.882c-0.936-0.873-1.909-1.686-2.822-2.435c-0.564-0.463-1.12-0.912-1.715-1.293   c-0.46-0.296-0.944-0.549-1.422-0.793c0.021-0.025,0.046-0.044,0.061-0.077c0.071-0.151,0.035-0.349-0.089-0.483   c-0.101-0.106-0.228-0.137-0.297-0.153c-0.18-0.042-0.354-0.063-0.53-0.084c-0.28-0.034-0.565-0.065-0.849-0.092   c-0.371-0.036-0.742-0.064-1.112-0.092c-0.101-0.008-0.202-0.013-0.303-0.02h0c0,0,0,0,0,0c-1.393-0.102-2.788-0.193-4.184-0.276   c-1.714-0.102-3.971-0.226-6.235-0.286c-0.733-0.019-1.468-0.031-2.202-0.044l-1.883-0.035c-1.722-0.034-3.504-0.069-5.256-0.046   c-1.51,0.02-2.997,0.083-4.379,0.148c-1.391,0.066-2.558,0.13-3.737,0.229c-0.86,0.071-1.697,0.16-2.487,0.263   c-0.956,0.125-1.911,0.28-2.872,0.436c-0.411,0.066-0.835,0.134-1.152,0.226c-0.122,0.035-0.229,0.073-0.422,0.151   c-0.101,0.041-0.228,0.094-0.597,0.262c-0.009,0.004-0.01,0.015-0.018,0.02c-0.255,0.083-0.498,0.193-0.714,0.304   c-2.426,1.248-4.97,2.674-7.778,4.361c-1.317,0.792-2.715,1.652-4.009,2.581c-0.222,0.159-0.441,0.32-0.668,0.487   c-0.369,0.271-0.758,0.558-1.214,0.875l-0.16,0.111c-0.3,0.208-0.606,0.424-0.874,0.643c-0.364-0.009-0.475-0.008-0.584-0.006   c-0.295,0.004-0.59,0.007-0.901-0.004c-0.092-0.003-0.187-0.007-0.304-0.003l-0.086,0.004c-0.093,0.007-0.173,0.024-0.254,0.043   l-1.105,0.25c-0.615,0.138-1.231,0.277-1.846,0.421c-0.961,0.226-1.918,0.464-2.873,0.715c-0.847,0.223-1.69,0.454-2.531,0.694   c-0.829,0.236-1.655,0.479-2.477,0.739c-0.948,0.299-1.792,0.589-2.578,0.886c-0.545,0.205-1.084,0.422-1.623,0.645   c-0.441,0.184-0.915,0.385-1.388,0.615c-0.57,0.277-1.108,0.581-1.599,0.903c-0.295,0.195-0.53,0.367-0.738,0.542   c-0.254,0.213-0.471,0.431-0.66,0.666c-0.129,0.16-0.288,0.375-0.368,0.628C7,50.643,6.985,50.707,6.971,50.773   c-0.011,0.048-0.021,0.097-0.037,0.148c-0.014,0.047-0.041,0.134-0.009,0.238c0.031,0.1,0.106,0.18,0.208,0.218   c0.025,0.009,0.095,0.018,0.122,0.018c-0.033,0.06-0.071,0.115-0.096,0.18c-0.052,0.136-0.079,0.273-0.096,0.379   c-0.021,0.126-0.035,0.252-0.044,0.378c-0.023,0.32-0.015,0.641-0.005,0.954c-0.053,0.029-0.105,0.058-0.16,0.084   c-0.116,0.053-0.237,0.093-0.406,0.146c-0.131,0.041-0.263,0.083-0.381,0.145c-0.177,0.091-0.319,0.215-0.458,0.336l-0.156,0.131   c-0.07,0.001-0.139-0.002-0.214,0.02c-0.105,0.031-0.205,0.093-0.28,0.175c-0.096,0.103-0.16,0.242-0.191,0.416   c-0.039,0.221-0.011,0.419,0.023,0.619c0.01,0.056,0.037,0.137,0.084,0.215c0.001,0.023,0.002,0.048,0.003,0.071l0.007,0.116   C4.896,55.97,4.9,56.17,4.903,56.366c0.003,0.232,0.007,0.46,0.023,0.688c0.034,0.479,0.123,0.968,0.208,1.44   c0.004,0.021,0.022,0.033,0.03,0.051c0.008,0.017,0.015,0.03,0.026,0.045c0.026,0.035,0.056,0.058,0.096,0.075   c0.013,0.006,0.019,0.022,0.033,0.026c0.151,0.044,0.301,0.087,0.454,0.123c0.238,0.057,0.48,0.098,0.723,0.128   c0.031,0.004,0.06,0.003,0.091,0.007c-0.037,0.024-0.08,0.04-0.111,0.07c-0.127,0.125-0.199,0.292-0.201,0.47   c-0.004,0.367,0.29,0.668,0.669,0.674c0,0,0.001,0,0.001,0l1.462,0.006c0.025,0.059,0.045,0.119,0.074,0.176   c-0.172-0.008-0.344-0.016-0.516-0.018c-0.182,0.003-0.363,0.002-0.542,0.021c-0.093,0.01-0.185,0.024-0.278,0.039   c-0.108,0.017-0.217,0.033-0.384,0.046c-0.118,0.008-0.251,0.017-0.385,0.083c-0.268,0.132-0.45,0.458-0.425,0.757   c0.021,0.242,0.179,0.47,0.458,0.658c0.257,0.171,0.528,0.248,0.759,0.302c0.407,0.093,0.828,0.137,1.234,0.179l0.29,0.03   c0.492,0.055,0.98,0.127,1.468,0.199c0.349,0.052,0.698,0.104,1.048,0.148c0.72,0.093,1.487,0.165,2.413,0.227   c0.542,0.036,1.084,0.064,1.625,0.092c0.004,0,0.009,0,0.013,0c0.006,0,0.01-0.006,0.015-0.006c0.005,0,0.009,0.005,0.014,0.004   c0.025-0.003,0.039-0.024,0.06-0.034c0.034-0.014,0.066-0.024,0.09-0.051c0.02-0.022,0.024-0.049,0.035-0.076   c0.011-0.026,0.033-0.045,0.034-0.075c0-0.008-0.007-0.013-0.007-0.021c0-0.008,0.007-0.013,0.006-0.021   c-0.028-0.238-0.03-0.495-0.043-0.744c0.075-0.008,0.15-0.016,0.226-0.019c0.093-0.006,0.184-0.004,0.275-0.002   c0.582,3.494,3.618,6.167,7.274,6.167c3.634,0,6.656-2.641,7.265-6.104c0.161,0.006,0.323,0.01,0.483,0.022   c0.147,0.012,0.293,0.031,0.439,0.05c-0.004,0.25-0.011,0.511-0.025,0.798c0,0,0,0.001,0,0.001s0,0.001,0,0.001   c0,0.023,0.017,0.039,0.022,0.06c0.025,0.106,0.102,0.194,0.215,0.199c0.004,0,0.008,0,0.012,0c0.014,0,0.022-0.012,0.035-0.014   c1.617-0.024,3.234-0.049,4.851-0.068c3.908-0.049,7.748-0.069,10.656-0.082c3.421-0.016,7.091-0.026,10.738,0   c3.794,0.027,7.561,0.095,11.064,0.163l3.28,0.067c0.002,0,0.003,0,0.004,0h0.001c0.068,0,0.13-0.028,0.175-0.073   c0.015-0.014,0.014-0.038,0.024-0.056c0.022-0.036,0.049-0.071,0.05-0.117c0-0.001-0.001-0.001-0.001-0.002   c0-0.001,0.001-0.001,0.001-0.002c0.001-0.326,0.007-0.689,0.017-1.057l0.207-0.027l0.409-0.038   c0.537,3.547,3.596,6.276,7.291,6.276c4.004,0,7.267-3.205,7.374-7.184c0.108,0,0.225-0.002,0.322-0.001l0.087,0.001   c0.009,0.023,0.014,0.044,0.029,0.064c0.02,0.026,0.047,0.037,0.076,0.053c0.022,0.012,0.034,0.036,0.06,0.042   c0.135,0.029,0.269,0.058,0.403,0.078c0.329,0.05,0.661,0.054,0.982,0.058l0.604,0.013c0.187,0.006,0.376,0.012,0.566,0.012   c0.186,0,0.373-0.006,0.56-0.022c0.38-0.035,0.71-0.112,1.01-0.234c0.318-0.132,0.531-0.287,0.67-0.49   c0.08-0.117,0.134-0.251,0.157-0.393c0.005-0.04,0.003-0.104-0.004-0.167c0-0.002,0.002-0.003,0.002-0.004   c0-0.002-0.002-0.003-0.002-0.005c-0.002-0.015,0.003-0.024-0.001-0.039c-0.035-0.155-0.141-0.261-0.236-0.348   c-0.197-0.177-0.396-0.318-0.608-0.433c-0.015-0.008-0.033-0.014-0.048-0.023c0.094-0.085,0.191-0.167,0.282-0.256   c0.28-0.272,0.554-0.581,0.836-0.944c0.299-0.385,0.522-0.719,0.704-1.051c0.126-0.231,0.245-0.487,0.372-0.803   c0.182-0.448,0.294-0.816,0.352-1.159c0.05-0.292,0.063-0.587,0.076-0.871c0.007-0.149,0.014-0.3,0.025-0.449l0.003-0.041   C95.296,53.235,95.285,52.766,95.077,52.376z M85.645,53.199c-0.099-0.081-0.206-0.152-0.309-0.228   c0.059-0.02,0.127-0.036,0.168-0.044c0.454-0.082,0.868-0.094,1.306-0.106l0.21-0.006c0.505-0.016,1.019-0.047,1.537-0.078   c0.566-0.034,1.138-0.068,1.706-0.083c0.77-0.021,1.552-0.005,2.309,0.012l0.528,0.011c0.484,0.009,0.974,0.015,1.577,0.021   c0.083,0.205,0.088,0.431,0.015,0.639c-0.754,0.005-1.508,0.01-2.263,0.021c-0.943,0.015-1.736,0.035-2.538,0.094   c-0.298,0.021-0.595,0.047-0.892,0.073l-0.74,0.063c-0.443,0.037-0.902,0.076-1.354,0.143c-0.192,0.028-0.383,0.065-0.574,0.101   C86.114,53.608,85.885,53.396,85.645,53.199z M94.401,52.195c-0.478-0.005-0.887-0.011-1.293-0.018l-0.528-0.011   c-0.762-0.017-1.55-0.031-2.332-0.012c-0.573,0.015-1.15,0.05-1.723,0.084c-0.513,0.031-1.022,0.062-1.522,0.077l-0.208,0.007   c-0.438,0.012-0.89,0.025-1.381,0.113c-0.175,0.032-0.357,0.074-0.498,0.203c-0.007,0.006-0.009,0.019-0.015,0.026   c-0.331-0.213-0.681-0.397-1.043-0.562c0.004-0.003,0.007-0.007,0.01-0.01c0.163-0.133,0.326-0.231,0.483-0.291   c0.195-0.074,0.413-0.103,0.68-0.123c0.445-0.035,0.887-0.044,1.328-0.052l0.153-0.003c0.589-0.012,1.179-0.027,1.77-0.043   l0.504-0.013c0.878-0.021,1.754-0.039,2.63-0.056l2.253-0.037c0.157,0.153,0.313,0.306,0.487,0.473   C94.244,52.031,94.328,52.112,94.401,52.195z M58.034,59.155c-0.001,0-0.001,0.001-0.002,0.001c-0.001,0-0.001-0.001-0.002-0.001   c-0.387,0.009-0.786,0.017-1.193,0.024c0.016-0.005,0.029-0.016,0.044-0.024c0.341-0.001,0.672-0.003,0.989-0.004   c0.186,0.001,0.393,0.001,0.583,0.002C58.315,59.154,58.171,59.154,58.034,59.155z M47.259,59.226c0,0-0.001,0-0.001,0   s-0.001,0-0.002,0c-3.151,0.024-5.819,0.045-8.006,0.063c2.332-0.029,4.971-0.06,7.93-0.094l0,0   c3.779-0.017,6.932-0.03,9.466-0.039c0.02,0.012,0.042,0.019,0.066,0.025C53.978,59.228,50.808,59.242,47.259,59.226z    M20.354,52.269c-0.712-0.008-1.424-0.017-2.137-0.033l-0.573-0.015c-0.192-0.005-0.389-0.008-0.583-0.013   c0.058-0.005,0.116-0.023,0.16-0.067c0.874-0.893,1.87-1.5,2.958-1.804c0.001,0,0.001-0.001,0.002-0.002c0.001,0,0.002,0,0.002,0   c1.743-0.522,3.626-0.595,5.598-0.213c0,0,0,0,0,0c1.404,0.28,2.674,0.806,3.775,1.562c0.004,0.002,0.008,0.001,0.012,0.004   c0.003,0.002,0.003,0.006,0.006,0.008c0.579,0.328,1.095,0.724,1.536,1.176c0.002,0.002,0.005,0.001,0.007,0.003   c0.045,0.044,0.105,0.072,0.171,0.072c0,0,0,0,0,0h0h0c0.007,0,0.014,0,0.021-0.001c0.837-0.073,1.747-0.099,2.673-0.109   c0.015,0.465,0.043,0.933,0.071,1.4c-0.795,0.012-1.669,0.026-2.633,0.04c-0.002,0-0.002,0.002-0.004,0.002   c-0.002,0-0.003-0.002-0.005-0.002c-0.168,0.009-0.338,0.018-0.507,0.02c-0.047,0.001-0.093,0.001-0.14,0.001   c-0.138,0-0.291-0.051-0.489,0.055c-0.072,0.036-0.133,0.093-0.171,0.157c-0.119,0.198-0.012,0.399,0.069,0.553l0.054,0.109   c0.043,0.093,0.089,0.189,0.163,0.282c0.058,0.073,0.131,0.14,0.214,0.195c0.079,0.051,0.16,0.088,0.241,0.108   c0.098,0.026,0.196,0.031,0.28,0.031c0.028,0,0.054-0.001,0.078-0.001l0.246-0.008c0,0,0,0,0,0   c0.901-0.013,1.802-0.029,2.704-0.043c0.02,0.266,0.038,0.535,0.058,0.797l0.021,0.283c0.05,0.664,0.103,1.349,0.199,2.022   c-0.81,0.004-1.736,0.006-2.772,0.007c-0.209-1.122-0.492-1.992-0.93-2.814c-0.598-1.119-1.439-2.133-2.371-2.854   c-0.851-0.659-1.842-1.112-2.948-1.347c-1.548-0.329-3.305-0.229-4.693,0.272C20.589,52.152,20.478,52.216,20.354,52.269z    M13.819,52.273c-0.012-0.143-0.017-0.283-0.046-0.435c-0.068-0.355-0.168-0.671-0.308-0.965c-0.074-0.156-0.17-0.332-0.332-0.461   c-0.12-0.095-0.271-0.16-0.461-0.199c-0.156-0.032-0.311-0.039-0.507-0.046c-0.213-0.009-0.426-0.022-0.64-0.036   c-0.193-0.012-0.387-0.024-0.581-0.033c-0.02-0.001-0.04,0-0.061-0.001c0.043-0.039,0.077-0.083,0.121-0.121   c0.418-0.364,0.927-0.705,1.553-1.042c0.623-0.335,1.327-0.65,2.216-0.991c0.959-0.368,1.993-0.713,3.071-1.027   c1.112-0.324,2.259-0.609,3.333-0.87c1.572-0.382,2.955-0.702,4.228-0.979c0.465-0.101,0.931-0.2,1.396-0.299   c0.618-0.131,1.236-0.262,1.856-0.399c0.915-0.203,1.884-0.431,2.778-0.719c0.236-0.076,0.466-0.156,0.661-0.236   c0.115-0.047,0.218-0.095,0.353-0.172c0.068-0.039,0.144-0.086,0.326-0.211c0.704-0.428,1.267-0.773,1.726-1.055   c-0.097,1.103-0.2,2.325-0.291,3.582c-0.03,0.001-0.061,0.002-0.091,0.003c-0.95,0.033-1.9,0.065-2.849,0.116   c-1.22,0.065-2.45,0.161-3.657,0.286c-0.676,0.069-1.351,0.148-2.025,0.228c-0.137,0.016-0.235,0.141-0.219,0.278   c0.015,0.127,0.123,0.221,0.248,0.221c0.01,0,0.02,0,0.03-0.002c0.672-0.079,1.345-0.158,2.018-0.227   c1.199-0.124,2.421-0.219,3.632-0.284c0.946-0.05,1.893-0.083,2.84-0.116c0.012,0,0.025-0.001,0.037-0.001   c-0.039,0.572-0.076,1.148-0.107,1.726c-0.093,1.737-0.121,3.195-0.092,4.553c-0.897,0.01-1.776,0.036-2.598,0.104   c-0.449-0.445-0.962-0.84-1.537-1.168c0,0,0,0,0,0c-0.001-0.001-0.003-0.002-0.005-0.003c-0.005-0.003-0.009-0.006-0.013-0.009   c0,0-0.001,0-0.001,0c-1.153-0.788-2.478-1.337-3.942-1.629c0,0,0,0-0.001,0c0,0-0.001-0.001-0.001-0.001   c-2.051-0.396-4.013-0.322-5.833,0.224c0,0-0.001,0-0.001,0c-0.001,0-0.002,0.001-0.004,0.001c0,0-0.001,0-0.001,0c0,0,0,0,0,0   c-1.172,0.328-2.241,0.979-3.177,1.934c-0.097,0.099-0.095,0.257,0.004,0.354c0.042,0.042,0.098,0.057,0.153,0.062   c-0.607-0.014-1.22-0.024-1.83-0.007C14.733,52.213,14.276,52.243,13.819,52.273z M7.517,52.37   c0.008-0.112,0.021-0.225,0.038-0.334c0.02-0.121,0.042-0.208,0.07-0.281c0.065-0.173,0.197-0.337,0.315-0.478   c0.125-0.148,0.263-0.304,0.426-0.428c0.13-0.099,0.266-0.169,0.396-0.204c0.153-0.042,0.326-0.044,0.567-0.047   c0.129-0.001,0.257-0.005,0.385-0.008l0.076-0.002c-0.108,0.147-0.227,0.286-0.319,0.441c-0.05,0.083-0.098,0.168-0.136,0.257   c-0.094,0.217-0.13,0.449-0.153,0.647c-0.021,0.172-0.033,0.342-0.042,0.513c-0.012,0.242-0.011,0.484-0.011,0.726   c-0.387,0.01-0.775,0.012-1.162,0.013H7.509C7.5,52.907,7.497,52.639,7.517,52.37z M9.639,52.473   c0.008-0.159,0.02-0.319,0.039-0.479c0.021-0.171,0.048-0.351,0.116-0.509c0.029-0.067,0.067-0.133,0.106-0.198   c0.146-0.244,0.318-0.475,0.504-0.695c0.173,0.002,0.345-0.001,0.518,0.007c0.19,0.009,0.381,0.021,0.572,0.032   c0.217,0.015,0.434,0.028,0.694,0.038c0.128,0.005,0.255,0.009,0.383,0.035c0.111,0.022,0.196,0.057,0.251,0.101   c0.081,0.064,0.142,0.179,0.19,0.283c0.121,0.255,0.209,0.531,0.269,0.845c0.041,0.211,0.062,0.407,0.064,0.602   c0.001,0.059,0.003,0.18-0.031,0.233c-0.017,0.026-0.049,0.054-0.089,0.072c-0.049,0.023-0.111,0.035-0.182,0.048   c-0.21,0.037-0.42,0.068-0.632,0.094c-0.516,0.062-1.05,0.088-1.566,0.113l-0.485,0.024c-0.244,0.013-0.488,0.023-0.732,0.034   C9.63,52.926,9.628,52.699,9.639,52.473z M62.327,32.864c1.662-0.003,3.618,0.003,5.633,0.047c1.571,0.034,3.182,0.094,4.87,0.178   c0.455,0.318,0.925,0.646,1.36,0.997c0.546,0.439,1.038,0.914,1.448,1.32c0.9,0.894,1.644,1.715,2.271,2.512   c0.75,0.952,1.311,1.835,1.712,2.699c0.285,0.614,0.517,1.277,0.687,1.969c0.152,0.623,0.218,1.126,0.207,1.583   c-0.008,0.331-0.057,0.66-0.145,0.979c-0.13,0.475-0.343,0.92-0.621,1.445c-0.285,0.538-0.544,0.975-0.812,1.376   c-0.385,0.575-0.828,1.1-1.302,1.585c-0.048,0.014-0.098,0.018-0.146,0.033c-1.56,0.467-2.972,1.315-4.206,2.509l-7.944,0.044   c-2.691,0.017-5.588,0.04-8.503,0.065l0.012-0.359c0.047-1.476,0.096-3.001,0.309-4.469c0.118-0.81,0.286-1.607,0.477-2.477   c1.42-0.08,2.841-0.163,4.261-0.233c0.81-0.04,1.62-0.076,2.43-0.113c2.117-0.097,4.308-0.197,6.459-0.342   c0.675-0.045,1.35-0.095,2.023-0.146c0.938-0.069,1.877-0.139,2.87-0.199c0.423-0.025,0.859-0.052,1.292-0.144   c0.22-0.046,0.545-0.13,0.829-0.322c0.27-0.183,0.475-0.438,0.578-0.718c0.086-0.233,0.108-0.503,0.07-0.827   c-0.073-0.623-0.343-1.181-0.569-1.598c-0.297-0.546-0.644-1.05-1.002-1.551c-0.005-0.008-0.01-0.014-0.015-0.022   c-0.114-0.158-0.223-0.318-0.339-0.476c-0.47-0.637-1.031-1.387-1.632-2.116c-0.496-0.601-0.927-1.078-1.356-1.499   c-0.188-0.185-0.412-0.396-0.675-0.549c-0.229-0.134-0.496-0.233-0.84-0.312c-0.334-0.077-0.664-0.116-0.97-0.147   c-0.695-0.071-1.386-0.11-2.211-0.146c-1.178-0.053-2.406-0.094-3.651-0.12c-1.705-0.035-3.291-0.041-4.846-0.021   c0.034-0.139,0.067-0.279,0.101-0.418C61.069,32.876,61.698,32.865,62.327,32.864z M79.785,33.532   c0.656,0.597,1.312,1.195,1.953,1.807c0.841,0.8,1.697,1.665,2.547,2.57c0.771,0.823,1.339,1.469,1.84,2.096   c0.448,0.561,0.882,1.158,1.266,1.685c0.001,0.001,0,0.003,0.001,0.005c0.138,0.185,0.25,0.355,0.356,0.528   c0.2,0.325,0.386,0.674,0.553,1.038c0.147,0.32,0.283,0.659,0.403,1.007c0.077,0.223,0.146,0.448,0.198,0.677   c0.042,0.188,0.072,0.379,0.102,0.57l0.016,0.101c0.037,0.232,0.076,0.464,0.122,0.696c0.074,0.376,0.168,0.776,0.346,1.156   c0.172,0.368,0.413,0.693,0.697,0.941c0.229,0.199,0.501,0.363,0.809,0.489c0.263,0.108,0.533,0.175,0.797,0.232   c-0.013,0.215-0.026,0.431-0.027,0.646l0.001,0.307c0.002,0.143,0.003,0.286-0.001,0.429c-0.005,0.165-0.021,0.33-0.035,0.495   l-0.321,0.005c-0.877,0.017-1.755,0.034-2.634,0.056l-0.504,0.014c-0.59,0.015-1.179,0.03-1.767,0.042l-0.052,0.001   c-0.759-0.712-1.766-1.254-3.008-1.603c-0.001,0-0.002,0.001-0.003,0c-0.001,0-0.001-0.002-0.003-0.002   c-1.695-0.432-3.351-0.471-4.94-0.161c0.303-0.353,0.592-0.721,0.855-1.112c0.274-0.411,0.549-0.875,0.838-1.42   c0.255-0.479,0.512-0.998,0.662-1.547c0.099-0.358,0.152-0.728,0.162-1.099c0.012-0.503-0.059-1.048-0.221-1.714   c-0.179-0.725-0.421-1.418-0.72-2.062c-0.418-0.899-0.998-1.814-1.772-2.797c-0.641-0.813-1.397-1.649-2.312-2.558   c-0.395-0.391-0.92-0.898-1.486-1.354c-0.246-0.199-0.506-0.375-0.763-0.559c0.414,0.022,0.826,0.044,1.251,0.07   C76.589,33.304,78.187,33.418,79.785,33.532z M88.558,41.351c0.049,0.011,0.1,0.029,0.15,0.042   c-0.241-0.052-0.479-0.09-0.702-0.098c-0.092-0.003-0.187,0.001-0.282,0.004c-0.065-0.09-0.136-0.185-0.204-0.278   c0.029,0.038,0.053,0.067,0.082,0.106c0.046,0.061,0.116,0.088,0.186,0.093l-0.001,0.007C88.045,41.26,88.304,41.293,88.558,41.351   z M92.55,42.866c0.017,0.02,0.033,0.041,0.05,0.062c-0.208,0.032-0.42,0.047-0.63,0.063l-0.347,0.026   c-0.045-0.047-0.084-0.1-0.131-0.143L92.55,42.866z M91.779,45.151c-0.011,0.054-0.033,0.096-0.069,0.138   c-0.017-0.008-0.036-0.021-0.055-0.041c-0.072-0.074-0.114-0.189-0.155-0.34c-0.06-0.221-0.083-0.396-0.079-0.583   c0.003-0.132,0.021-0.167,0.02-0.167c0.008-0.007,0.03-0.016,0.054-0.024c0.01,0.008,0.022,0.015,0.045,0.047   c0.04,0.057,0.066,0.118,0.093,0.179c0.046,0.106,0.091,0.214,0.122,0.329C91.8,44.854,91.809,45.013,91.779,45.151z    M89.805,42.315c0.326,0.17,0.658,0.387,1.047,0.681c0.199,0.151,0.406,0.316,0.551,0.514c0.025,0.035,0.038,0.07,0.06,0.107   c-0.155-0.003-0.308-0.013-0.461-0.021c-0.119-0.007-0.238-0.014-0.357-0.019c-0.256-0.011-0.515-0.008-0.771-0.007l-0.792,0.001   c-0.001,0-0.001,0-0.001,0c-0.039,0-0.066,0.025-0.099,0.041c-0.074-0.187-0.142-0.381-0.223-0.559   c-0.176-0.382-0.371-0.749-0.582-1.091c-0.032-0.052-0.073-0.106-0.106-0.157c0.196,0.012,0.398,0.035,0.61,0.085   C89.057,41.979,89.436,42.123,89.805,42.315z M89.875,44.071c0.25,0,0.501-0.003,0.749,0.007c0.108,0.004,0.216,0.01,0.324,0.017   c-0.015,0.075-0.025,0.15-0.027,0.218c-0.005,0.236,0.025,0.459,0.097,0.725c0.028,0.102,0.062,0.205,0.109,0.304   c-0.041,0.003-0.082,0.004-0.123,0.008l-0.219,0.016c-0.426,0.031-0.856,0.051-1.286,0.072c-0.031-0.201-0.062-0.402-0.107-0.6   c-0.05-0.221-0.118-0.453-0.214-0.73c-0.004-0.012-0.01-0.023-0.014-0.035L89.875,44.071z M90.82,45.864l0.221-0.017   c0.224-0.017,0.448-0.034,0.687-0.042c0.015,0,0.086-0.008,0.1-0.011c0.076-0.017,0.144-0.061,0.208-0.117   c0.015,0.256,0.022,0.515,0.024,0.778c0.004,0.56-0.001,1.154-0.1,1.724c-0.025,0.145-0.064,0.302-0.1,0.456   c-0.228-0.051-0.458-0.109-0.676-0.198c-0.257-0.105-0.482-0.241-0.67-0.403c-0.231-0.202-0.43-0.47-0.572-0.776   c-0.156-0.331-0.24-0.696-0.309-1.04c-0.018-0.094-0.033-0.19-0.05-0.284C89.996,45.913,90.41,45.894,90.82,45.864z M70.957,58.654   c-0.993,0.005-1.959,0.006-2.852-0.003c-0.001,0-0.001,0.001-0.002,0.001c-0.001,0-0.001-0.001-0.001-0.001h-0.001   c-3.869,0.014-7.311,0.014-10.23,0H57.87h-0.001c-0.282,0.001-0.578,0.002-0.878,0.003c-0.047-0.442-0.095-0.883-0.13-1.325   c-0.058-0.705-0.087-1.361-0.095-2.003c0.26-0.004,0.52-0.009,0.781-0.013l0.685-0.01c2.955-0.042,6.019-0.084,9.018-0.066   l1.187,0.009c1.225,0.011,2.49,0.021,3.742-0.001c0,0-0.001,0.001-0.001,0.001c-0.529,0.868-0.92,1.867-1.131,2.889   C71.009,58.308,70.984,58.481,70.957,58.654z M47.175,58.695c-0.001,0-0.001,0-0.002,0c-4.187,0.048-7.748,0.09-10.68,0.129l0,0   c-0.446,0.005-0.979,0.01-1.556,0.013l-0.005-0.032c-0.097-0.667-0.149-1.357-0.203-2.068l-0.019-0.24   c-0.019-0.253-0.037-0.512-0.056-0.767c1.002-0.016,2.004-0.03,3.005-0.048c1.886-0.035,3.771-0.075,5.657-0.116   c1.617-0.035,3.234-0.069,4.851-0.101c2.699-0.051,5.397-0.091,8.096-0.13c0.009,0.653,0.038,1.32,0.097,2.036   c0.034,0.428,0.08,0.857,0.126,1.285C53.98,58.666,50.88,58.679,47.175,58.695z M31.438,55.281c-0.001,0-0.002,0.001-0.003,0.001   c-0.001,0-0.002-0.001-0.003-0.001l-0.238,0.008c-0.09,0.004-0.162,0.002-0.22-0.014c-0.03-0.008-0.062-0.022-0.094-0.043   c-0.037-0.024-0.072-0.057-0.097-0.088c-0.038-0.048-0.066-0.108-0.102-0.185l-0.08-0.162c0.105,0.001,0.209,0.001,0.312,0   c0.174-0.002,0.35-0.011,0.525-0.02c0,0,0,0,0,0c0.967-0.014,1.845-0.028,2.643-0.04c0.011,0.168,0.024,0.333,0.036,0.5   C33.225,55.252,32.332,55.268,31.438,55.281z M34.583,54.73c1.244-0.02,2.269-0.037,3.06-0.051   c1.246-0.023,3.114-0.062,5.606-0.115c2.178-0.047,3.812-0.081,4.901-0.102c1.925-0.037,4.637-0.081,8.126-0.132   c-0.004,0.168-0.011,0.337-0.012,0.505c-2.701,0.039-5.403,0.078-8.104,0.13c-1.617,0.031-3.235,0.066-4.852,0.101   c-1.885,0.041-3.771,0.082-5.655,0.116c-1.011,0.019-2.022,0.033-3.033,0.049C34.608,55.063,34.594,54.898,34.583,54.73z    M34.566,47.812c0.031-0.592,0.07-1.183,0.11-1.77c0.323-0.011,0.646-0.022,0.968-0.035c1.136-0.046,2.271-0.104,3.407-0.164   l1.265-0.065c1.396-0.07,2.792-0.131,4.188-0.193c1.281-0.057,2.562-0.113,3.842-0.176c2.244-0.11,4.487-0.239,6.73-0.368   c0.68-0.039,1.36-0.073,2.04-0.111c-0.18,0.825-0.341,1.595-0.454,2.376c-0.218,1.497-0.267,3.037-0.313,4.526l-0.013,0.379   c-2.243,0.02-4.49,0.04-6.657,0.06l-0.438,0.004c-4.404,0.04-8.564,0.078-12.94,0.061l-0.284-0.001   c-0.511-0.002-1.026-0.002-1.54,0.001C34.447,50.988,34.474,49.54,34.566,47.812z M55.442,43.896l-0.431,0.025   c-2.986,0.171-5.227,0.294-6.72,0.367c-0.85,0.042-2.126,0.101-3.828,0.176c-1.765,0.078-3.098,0.14-4.029,0.186   c0.035-0.008,0.066-0.012,0.105-0.027c0.13-0.051,0.243-0.146,0.318-0.267c0.083-0.133,0.106-0.281,0.119-0.407   c0.005-0.052,0.009-0.105,0.012-0.158c0.016-0.328-0.014-0.636-0.045-0.962c-0.014-0.141-0.028-0.285-0.04-0.458   c-0.011-0.177-0.024-0.378-0.145-0.554c-0.104-0.152-0.281-0.268-0.473-0.31c-0.108-0.024-0.206-0.019-0.299-0.014l0.085-0.612   l0.098-0.085c0.539-0.455,1.122-0.88,1.687-1.291l0.601-0.439c0.666-0.488,1.354-0.993,2.051-1.453   c0.668-0.44,1.365-0.853,2.072-1.226c0.595-0.315,1.146-0.574,1.684-0.794c0.665-0.271,1.318-0.484,1.943-0.632   c0.522-0.124,1.081-0.217,1.707-0.284c0.564-0.061,1.131-0.095,1.756-0.132l0.229-0.014c0.786-0.048,1.572-0.096,2.358-0.131   c0.584-0.026,1.168-0.043,1.752-0.06c-0.554,1.94-1.132,3.988-1.679,6.062C56.024,41.565,55.731,42.73,55.442,43.896z    M39.531,42.027c0.121-0.022,0.245-0.028,0.37-0.035l-0.006-0.11c0.009-0.013,0.017-0.027,0.023-0.042l0.046,0.149   c0.083-0.004,0.154-0.008,0.213,0.006c0.069,0.015,0.136,0.057,0.169,0.104c0.043,0.062,0.05,0.18,0.06,0.331   c0.01,0.152,0.024,0.3,0.039,0.447c0.03,0.308,0.058,0.599,0.044,0.89c-0.002,0.044-0.005,0.088-0.01,0.133   c-0.007,0.07-0.018,0.147-0.046,0.193c-0.018,0.029-0.046,0.053-0.075,0.064c-0.021,0.008-0.05,0.014-0.074,0.018   c-0.244,0.041-0.501,0.022-0.774,0.003l-0.09-0.006c-0.058-0.004-0.116-0.006-0.174-0.01c-0.001,0-0.001-0.001-0.002-0.001   c-0.001,0-0.001,0.001-0.002,0.001c-0.105-0.006-0.209-0.012-0.314-0.018L38.66,44.13c-0.129-0.007-0.262-0.015-0.369-0.056   c-0.055-0.021-0.106-0.053-0.142-0.089c-0.086-0.086-0.131-0.237-0.161-0.358c-0.036-0.147-0.05-0.259-0.045-0.364   c0.008-0.172,0.066-0.335,0.156-0.436c0.049-0.056,0.109-0.1,0.169-0.146c0.079-0.061,0.169-0.129,0.247-0.218   c0.062-0.071,0.176-0.12,0.324-0.183l0.111-0.048C39.15,42.146,39.34,42.063,39.531,42.027z M39.452,44.675l0.023,0.002   c0.075,0.005,0.152,0.006,0.228,0.01L39.45,44.7L39.452,44.675z M58.363,33.841c0.013,0,0.028-0.001,0.041-0.001   c-0.012-0.003-0.022,0.005-0.034,0.004C58.367,33.843,58.366,33.841,58.363,33.841z M39.589,40.718l-0.113,0.814   c-0.012,0.002-0.025,0.001-0.038,0.004c-0.247,0.046-0.472,0.144-0.689,0.238l-0.133,0.057c-0.161,0.068-0.343,0.146-0.48,0.304   c0,0,0,0,0,0c-0.044,0.051-0.106,0.098-0.172,0.149c-0.085,0.065-0.169,0.132-0.24,0.211c-0.165,0.187-0.267,0.458-0.28,0.745   c-0.006,0.154,0.012,0.31,0.059,0.505c0.045,0.185,0.12,0.42,0.294,0.594c0.086,0.085,0.194,0.154,0.313,0.201   c0.181,0.07,0.37,0.081,0.522,0.089l0.271,0.014c0.016,0.001,0.033,0.002,0.049,0.003l-0.025,0.297   c-0.001,0.007,0.006,0.011,0.005,0.017c0,0.006-0.006,0.01-0.006,0.017c0.002,0.032,0.025,0.053,0.037,0.08   c0.012,0.027,0.015,0.054,0.035,0.075c0.025,0.027,0.06,0.035,0.094,0.049c0.023,0.009,0.038,0.03,0.063,0.032   c0.007,0,0.014,0.001,0.021,0.001h0c0,0,0,0,0,0s0,0,0,0h0c0.004,0,0.008,0,0.013,0l1.096-0.056   c0.933-0.047,2.333-0.111,4.199-0.194c1.703-0.075,2.98-0.134,3.83-0.176c1.494-0.073,3.736-0.196,6.724-0.367l0.614-0.035   c0.013-0.001,0.02-0.013,0.032-0.016c0.046-0.01,0.087-0.026,0.12-0.058c0.017-0.016,0.024-0.035,0.036-0.055   c0.013-0.021,0.033-0.036,0.039-0.061c0.304-1.224,0.612-2.446,0.934-3.666c0.575-2.185,1.189-4.351,1.769-6.382   c0.004-0.014-0.006-0.025-0.004-0.039c0.002-0.014,0.015-0.023,0.014-0.037c-0.001-0.024-0.019-0.038-0.025-0.059   c-0.008-0.029-0.015-0.052-0.033-0.076c-0.017-0.021-0.04-0.037-0.066-0.052c-0.021-0.014-0.032-0.038-0.057-0.045   c0.416-0.012,0.849-0.021,1.289-0.029c-0.409,1.674-0.819,3.347-1.211,5.024c-0.418,1.789-0.833,3.622-1.264,5.589   c-0.726,0.041-1.452,0.077-2.177,0.119c-2.242,0.129-4.483,0.257-6.726,0.368c-1.28,0.062-2.56,0.119-3.839,0.176   c-1.397,0.062-2.794,0.124-4.191,0.194l-0.968,0.049c-0.031-0.014-0.065-0.021-0.101-0.021c-0.002,0-0.004,0-0.006,0   c-0.595,0.015-1.209,0.029-1.891,0c-0.395-0.017-0.797-0.051-0.996-0.263c-0.107-0.114-0.179-0.304-0.188-0.496   c-0.009-0.182,0.039-0.38,0.148-0.624c0.316-0.696,0.901-1.239,1.474-1.735c0.598-0.518,1.214-1.003,1.829-1.477   C39.592,40.716,39.59,40.716,39.589,40.718z M75.336,40.884c0,0.002,0.001,0.003,0.001,0.005c0,0.001-0.002,0.002-0.002,0.003   l-0.371,1.906c-0.486,0.035-0.97,0.076-1.453,0.118c-0.399,0.035-0.798,0.069-1.198,0.101c-1.404,0.108-2.851,0.17-4.249,0.231   c-0.73,0.031-1.461,0.063-2.189,0.101c-0.874,0.045-1.746,0.1-2.618,0.154l-1.152,0.071c-0.658,0.039-1.316,0.076-1.973,0.112   l0.926-5.121l0.775-4.295c0.6-0.007,1.199-0.008,1.798-0.003c1.01,0.007,2.021,0.019,3.03,0.042   c1.175,0.027,2.216,0.068,3.182,0.125c0.438,0.025,0.946,0.058,1.444,0.129c0.211,0.03,0.457,0.071,0.679,0.15   c0.18,0.064,0.356,0.157,0.526,0.276c0.214,0.15,0.401,0.333,0.557,0.492c0.338,0.346,0.65,0.712,0.994,1.121   c0.397,0.473,0.819,0.979,1.21,1.508c0.188,0.255,0.366,0.517,0.536,0.784L75.336,40.884z M72.46,34.412   c0.047,0.022,0.101,0.042,0.144,0.067c0.015,0.009,0.027,0.021,0.042,0.031C72.585,34.471,72.522,34.444,72.46,34.412z    M61.553,33.797c-0.033,0.01-0.062,0.016-0.087,0.038c-0.024,0.021-0.034,0.048-0.049,0.076c-0.012,0.023-0.036,0.036-0.04,0.063   l-0.812,4.5l-0.982,5.433c-0.002,0.011,0.007,0.019,0.006,0.029c-0.001,0.011-0.011,0.018-0.01,0.029   c0.002,0.026,0.022,0.043,0.031,0.066c0.01,0.029,0.016,0.054,0.036,0.077c0.022,0.026,0.05,0.037,0.082,0.053   c0.021,0.01,0.033,0.032,0.057,0.036c0.016,0.002,0.03,0.004,0.045,0.004c0.005,0,0.009,0,0.014,0   c0.763-0.042,1.527-0.084,2.291-0.13L63.287,44c0.87-0.054,1.74-0.108,2.612-0.154c0.728-0.038,1.457-0.069,2.186-0.101   c1.403-0.061,2.853-0.123,4.267-0.232c0.401-0.031,0.802-0.065,1.203-0.101c0.543-0.047,1.087-0.095,1.636-0.132   c0.017-0.001,0.026-0.016,0.041-0.02c0.042-0.011,0.08-0.025,0.111-0.055c0.018-0.017,0.024-0.038,0.036-0.059   c0.013-0.023,0.035-0.039,0.04-0.067l0.406-2.084c0,0,0.001-0.001,0.001-0.001l0.477-2.097c0.014-0.061-0.002-0.12-0.029-0.172   c0-0.001,0-0.001,0-0.002c0.04,0.055,0.079,0.111,0.119,0.167l-0.481,2.114c0,0.002,0.001,0.003,0.001,0.005   c0,0.001-0.002,0.002-0.002,0.003l-0.461,2.371c-0.893,0.055-1.786,0.12-2.677,0.186c-0.674,0.05-1.347,0.1-2.021,0.145   c-2.146,0.145-4.334,0.245-6.449,0.341c-0.81,0.037-1.62,0.074-2.43,0.114c-1.376,0.067-2.751,0.148-4.127,0.225   c0.421-1.913,0.825-3.703,1.232-5.447c0.402-1.717,0.822-3.432,1.242-5.147c0.442-0.006,0.896-0.006,1.345-0.007   C61.559,33.794,61.557,33.796,61.553,33.797z M77.437,40.499c0.205,0.377,0.449,0.879,0.513,1.417   c0.028,0.244,0.015,0.439-0.043,0.596c-0.066,0.18-0.209,0.354-0.39,0.477c-0.163,0.11-0.364,0.186-0.652,0.247   c-0.286,0.061-0.584,0.088-0.901,0.111l0.434-2.23c0,0,0.001-0.001,0.001-0.001l0.381-1.678   C77.014,39.782,77.237,40.132,77.437,40.499z M36.014,52.834l0.284,0.001c4.381,0.018,8.542-0.021,12.947-0.061l0.438-0.004   c2.16-0.02,4.4-0.04,6.635-0.06l-0.013,0.374c-0.009,0.249-0.01,0.496-0.018,0.745c-3.499,0.051-6.219,0.096-8.147,0.132   c-1.09,0.021-2.724,0.055-4.902,0.102c-2.491,0.054-4.359,0.092-5.604,0.115c-0.794,0.015-1.825,0.032-3.077,0.052   c-0.028-0.466-0.056-0.933-0.071-1.396C34.995,52.832,35.506,52.832,36.014,52.834z M72.538,54.739l-0.298,0.007   c-1.267,0.024-2.556,0.013-3.802,0.002l-1.187-0.009c-3.009-0.019-6.069,0.024-9.028,0.066l-0.686,0.01   c-0.258,0.004-0.516,0.009-0.774,0.012c0.001-0.168,0.008-0.336,0.012-0.504c0.424-0.006,0.852-0.012,1.299-0.019   c4.019-0.058,7.106-0.081,9.179-0.069l1.179,0.01c1.73,0.014,2.974,0.013,3.798-0.002l0.627-0.014l0.044,0   C72.769,54.395,72.658,54.569,72.538,54.739z M73.29,53.764c-0.069-0.028-0.136-0.039-0.175-0.035l-0.262-0.001   c-0.002,0-0.004,0-0.005,0l-0.628,0.014c-0.819,0.015-2.055,0.016-3.784,0.002l-1.18-0.01c-2.068-0.011-5.166,0.012-9.189,0.069   c-0.44,0.006-0.861,0.012-1.279,0.018c0.008-0.24,0.008-0.478,0.017-0.719l0.013-0.397c2.922-0.025,5.826-0.048,8.524-0.065   l8.036-0.045c0.028,0,0.047-0.022,0.072-0.03c0.035-0.012,0.074-0.014,0.102-0.042c0.945-0.933,2.007-1.636,3.159-2.118   c-0.129,0.11-0.254,0.228-0.383,0.336c-0.261,0.218-0.521,0.437-0.774,0.662c-0.481,0.431-0.967,0.917-1.575,1.574   C73.725,53.253,73.511,53.507,73.29,53.764z M59.822,33.307c-1.201,0.02-2.312,0.054-3.371,0.107   c-1.268,0.062-2.577,0.154-4.002,0.279c-0.818,0.072-1.555,0.146-2.296,0.326c-0.273,0.066-0.543,0.147-0.812,0.232   c-0.576,0.182-1.104,0.371-1.613,0.576c-0.733,0.295-1.454,0.638-2.14,1.019c-0.883,0.488-1.803,1.087-2.897,1.885   c-0.607,0.443-1.204,0.9-1.799,1.356l-0.807,0.616c-0.876,0.667-1.782,1.357-2.649,2.109c-0.614,0.533-1.244,1.119-1.602,1.906   c-0.144,0.319-0.205,0.591-0.192,0.855c0.015,0.314,0.133,0.61,0.323,0.813c0.035,0.037,0.072,0.071,0.11,0.102   c-0.15,0.006-0.3,0.013-0.45,0.019c-0.304,0.012-0.608,0.022-0.912,0.033c0.087-1.194,0.184-2.352,0.277-3.408   c0.785-0.541,1.57-1.082,2.352-1.628l0.925-0.648c1.437-1.01,2.922-2.054,4.434-2.987c1.164-0.719,2.34-1.371,3.336-1.914   c0.491-0.268,1.047-0.571,1.623-0.78c0.49-0.177,1.005-0.291,1.489-0.387c1.477-0.294,3.068-0.503,5.01-0.659   c1.473-0.118,2.986-0.193,4.628-0.231c0.379-0.009,0.758-0.006,1.137-0.011C59.889,33.027,59.856,33.167,59.822,33.307z    M72.281,59.145C72.281,59.146,72.281,59.146,72.281,59.145c-0.312,0.004-0.628,0.007-0.958,0.009   C71.638,59.152,71.959,59.149,72.281,59.145z M72.367,58.644c-0.309,0.004-0.601,0.004-0.902,0.007   c0.022-0.138,0.041-0.276,0.07-0.413c0.198-0.966,0.568-1.91,1.068-2.73c0.456-0.749,1.027-1.416,1.743-2.188   c0.597-0.646,1.072-1.121,1.542-1.541c0.249-0.223,0.505-0.438,0.762-0.652c0.369-0.31,0.752-0.63,1.108-0.973   c0.047-0.045,0.088-0.098,0.135-0.145c1.727-0.467,3.547-0.477,5.421-0.002c0.952,0.268,1.75,0.655,2.394,1.146   c-0.238,0.008-0.476,0.009-0.716,0.028c-0.268,0.021-0.551,0.053-0.817,0.153c-0.209,0.079-0.419,0.204-0.623,0.372   c-0.071,0.057-0.135,0.121-0.201,0.183c-0.194-0.074-0.389-0.147-0.591-0.207c-1.558-0.465-3.212-0.482-4.658-0.049   c-1.252,0.375-2.41,1.093-3.35,2.077c-0.791,0.829-1.438,1.876-1.87,3.027C72.666,57.316,72.498,57.952,72.367,58.644z    M93.45,44.126c0.181,0.383,0.261,0.818,0.315,1.192c0.077,0.536,0.116,1.088,0.115,1.641c-0.001,0.49-0.031,0.891-0.095,1.26   l-0.021,0.121c-0.028,0.154-0.056,0.309-0.062,0.466c-0.002,0.063-0.001,0.126,0,0.189c0.002,0.141,0.001,0.281,0,0.422   l0.001,0.463c0.003,0.256,0.005,0.498-0.033,0.73c-0.021,0.124-0.06,0.245-0.096,0.367l-1.344,0.022   c0.013-0.157,0.029-0.315,0.034-0.473c0.004-0.148,0.003-0.298,0.001-0.447l-0.001-0.298c0.002-0.262,0.018-0.523,0.033-0.785   l0.002-0.036c0-0.001,0.001-0.002,0.002-0.003c0.056-0.23,0.11-0.461,0.15-0.694c0.106-0.61,0.111-1.23,0.107-1.812   c-0.004-0.592-0.02-1.221-0.161-1.824c-0.077-0.326-0.192-0.654-0.344-0.975c-0.023-0.048-0.052-0.105-0.081-0.161l0.034-0.003   c0.226-0.017,0.45-0.034,0.672-0.068c0.094-0.014,0.187-0.035,0.28-0.055c0.015,0.019,0.031,0.037,0.046,0.056   C93.213,43.696,93.351,43.913,93.45,44.126z M85.714,35.905c0.906,0.744,1.873,1.551,2.797,2.414   c0.986,0.918,1.901,1.877,2.831,2.86c0.204,0.215,0.435,0.458,0.624,0.718c0.066,0.091,0.129,0.185,0.191,0.279l0.095,0.143   c0.012,0.017,0.017,0.032,0.028,0.049l-0.824,0.006c-0.23-0.204-0.465-0.413-0.723-0.596c-0.3-0.212-0.646-0.403-1.028-0.57   c-0.357-0.155-0.706-0.271-1.038-0.345c-0.241-0.054-0.486-0.086-0.73-0.118c-0.411-0.54-0.774-0.991-1.073-1.328   c0,0,0-0.001,0-0.001c-0.503-0.628-1.138-1.353-1.889-2.152c-0.846-0.902-1.715-1.779-2.584-2.608   c-0.303-0.289-0.639-0.579-0.987-0.869c0.092-0.005,0.183-0.012,0.275-0.015c0.257-0.008,0.513-0.006,0.77-0.005   c0.536,0.271,1.086,0.553,1.596,0.88C84.617,35.013,85.161,35.451,85.714,35.905z M81.98,33.132c0.13,0.015,0.259,0.03,0.413,0.06   c-0.025,0.018-0.047,0.048-0.071,0.075c-0.22-0.001-0.44-0.002-0.658,0.004c-0.312,0.009-0.622,0.031-0.933,0.052   c-0.002,0-0.004,0.003-0.006,0.003c-0.036,0.003-0.063,0.029-0.095,0.047c-0.025,0.015-0.054,0.019-0.073,0.042   c-0.002,0.002-0.005,0.002-0.007,0.004c-0.022,0.028-0.018,0.063-0.026,0.095c-0.002,0.006-0.005,0.011-0.006,0.017   c-0.11-0.101-0.218-0.203-0.328-0.304c0.019-0.048,0.037-0.099,0.045-0.157c0.004-0.031-0.006-0.069-0.007-0.104   c0.304,0.023,0.608,0.046,0.913,0.075C81.423,33.068,81.704,33.099,81.98,33.132z M46.657,33.308   c0.92-0.149,1.872-0.303,2.819-0.427c0.782-0.103,1.611-0.19,2.464-0.261c1.173-0.098,2.335-0.162,3.72-0.228   c1.378-0.065,2.86-0.128,4.361-0.147c1.746-0.023,3.521,0.012,5.24,0.046l1.885,0.035c0.732,0.012,1.465,0.025,2.196,0.044   c2.258,0.06,4.51,0.183,6.22,0.285c1.381,0.082,2.762,0.174,4.141,0.274c0.005,0.001,0.005,0,0.009,0.001   c0.007,0,0.013,0.001,0.02,0.001c0.005,0.009,0.012,0.039,0.008,0.073c-0.001,0.006-0.009,0.017-0.011,0.024   c-1.57-0.112-3.139-0.224-4.71-0.319c-2.508-0.15-4.813-0.248-7.048-0.297c-2.021-0.044-3.992-0.049-5.645-0.047   c-0.657,0.001-1.313,0.012-1.969,0.018c-0.018-0.009-0.026-0.029-0.046-0.034c-0.068-0.018-0.137-0.001-0.193,0.036   c-0.448,0.005-0.896,0.002-1.344,0.013c-1.651,0.038-3.174,0.114-4.655,0.233c-1.962,0.156-3.572,0.368-5.068,0.667   c-0.494,0.098-1.02,0.216-1.532,0.399c-0.002-0.005-0.008-0.006-0.01-0.011c-0.014-0.029-0.039-0.044-0.064-0.066   c-0.026-0.023-0.045-0.047-0.077-0.057c-0.007-0.002-0.009-0.01-0.016-0.012c-0.187-0.048-0.374-0.09-0.564-0.117   c-0.202-0.029-0.408-0.036-0.613-0.044C46.33,33.362,46.488,33.335,46.657,33.308z M31.478,41.615   c0.225-0.166,0.442-0.326,0.663-0.484c1.28-0.918,2.667-1.772,3.976-2.559c2.798-1.681,5.333-3.103,7.749-4.345   c0.267-0.137,0.542-0.278,0.824-0.336c0.093-0.02,0.188-0.03,0.284-0.036c0.238-0.014,0.478-0.002,0.729,0.011l0.375,0.017   c0.122,0.005,0.242,0.017,0.363,0.026c-0.225,0.113-0.472,0.242-0.75,0.394h0c-1.362,0.693-2.51,1.323-3.41,1.871   c-0.001,0.001-0.001,0.002-0.002,0.003c-0.001,0.001-0.003,0-0.004,0.001c-1.013,0.655-2.405,1.592-4.139,2.786   c-0.677,0.465-1.344,0.927-1.999,1.386c-0.003,0.002-0.003,0.007-0.006,0.009c-0.003,0.002-0.007,0.001-0.01,0.003   c-0.106,0.087-0.815,0.545-3.553,2.212l-0.799-0.002c-0.575-0.005-1.092-0.016-1.566-0.038l0.05-0.035   C30.714,42.178,31.106,41.889,31.478,41.615z M29.016,43.344C29.016,43.344,29.016,43.344,29.016,43.344c0.001,0,0.001,0,0.001,0   c0.305,0.008,0.768,0.022,1.5,0.047c-0.652,0.181-1.319,0.346-1.966,0.489c-0.618,0.137-1.235,0.268-1.852,0.399   c-0.466,0.099-0.933,0.198-1.399,0.299c-1.276,0.278-2.663,0.599-4.239,0.981c-1.08,0.262-2.233,0.55-3.354,0.876   c-1.092,0.317-2.138,0.667-3.111,1.041c-0.909,0.349-1.631,0.672-2.273,1.018c-0.66,0.355-1.198,0.717-1.645,1.106   c-0.178,0.156-0.336,0.322-0.489,0.489c-0.078,0-0.156-0.004-0.234-0.003l-0.252,0.006c-0.125,0.003-0.25,0.007-0.436,0.009   c-0.061,0.001-0.123,0.004-0.185,0.006c0.14-0.183,0.278-0.357,0.438-0.503c0.189-0.174,0.418-0.319,0.619-0.442   c0.57-0.348,1.178-0.666,1.858-0.972c0.711-0.319,1.5-0.624,2.411-0.931c0.605-0.203,1.274-0.411,2.105-0.654   c1.025-0.3,2.025-0.575,2.975-0.819c1.042-0.268,2.189-0.542,3.611-0.864c0.764-0.172,1.53-0.341,2.297-0.503l0.377-0.079   c0.439-0.092,0.878-0.184,1.314-0.283c0.372-0.084,0.742-0.174,1.113-0.264l0.081-0.02c0.134-0.033,0.216-0.168,0.184-0.302   c-0.014-0.058-0.053-0.1-0.097-0.133C28.472,43.334,28.592,43.333,29.016,43.344z M16.124,46.171   c0.817-0.258,1.639-0.5,2.463-0.735c0.838-0.239,1.679-0.469,2.521-0.691c0.95-0.25,1.903-0.488,2.86-0.712   c0.613-0.144,1.227-0.282,1.841-0.42l1.106-0.25c0.058-0.013,0.115-0.027,0.182-0.032l0.065-0.003c0.102-0.001,0.186,0,0.303,0.005   c0.156,0.005,0.325,0.002,0.49,0.002c-0.326,0.079-0.652,0.158-0.979,0.233c-0.435,0.099-0.871,0.19-1.307,0.281l-0.378,0.08   c-0.77,0.163-1.537,0.332-2.304,0.505c-1.427,0.322-2.579,0.598-3.625,0.867c-0.955,0.246-1.961,0.522-2.991,0.824   c-0.468,0.137-0.883,0.262-1.267,0.383C15.435,46.396,15.766,46.285,16.124,46.171z M7.458,50.882   c0.012-0.051,0.022-0.102,0.038-0.151c0.055-0.173,0.178-0.34,0.28-0.465c0.169-0.209,0.363-0.404,0.593-0.597   c0.193-0.162,0.413-0.323,0.692-0.506c0.473-0.311,0.992-0.604,1.542-0.872c0.142-0.069,0.276-0.121,0.418-0.185   c-0.399,0.201-0.783,0.408-1.145,0.628c-0.221,0.135-0.475,0.296-0.696,0.5c-0.232,0.212-0.419,0.461-0.601,0.703   c-0.058,0.077-0.048,0.169-0.01,0.25c-0.172,0.055-0.342,0.141-0.506,0.265c-0.187,0.143-0.337,0.306-0.471,0.465L7.55,50.913   c-0.033-0.002-0.066-0.005-0.097-0.007C7.455,50.898,7.457,50.89,7.458,50.882z M6.644,53.979c0.144-0.045,0.284-0.093,0.417-0.154   c0.092-0.041,0.181-0.091,0.27-0.14h0.638c0.419-0.001,0.837-0.002,1.256-0.014c0.05-0.002,0.1-0.005,0.149-0.007   c0.001,0,0.002,0.001,0.003,0.001c0,0,0.001,0,0.001,0c0.001,0,0.002-0.001,0.003-0.001c0.336-0.012,0.672-0.028,1.009-0.047   l0.483-0.024c0.525-0.025,1.068-0.053,1.601-0.116c0.221-0.025,0.44-0.059,0.662-0.098c0.094-0.018,0.201-0.037,0.308-0.089   c0.125-0.059,0.23-0.15,0.298-0.259c0.051-0.082,0.077-0.17,0.091-0.259c0.457-0.03,0.914-0.06,1.372-0.072   c0.806-0.023,1.631,0,2.427,0.021l0.575,0.015c0.403,0.009,0.806,0.013,1.208,0.019c-0.692,0.427-1.261,0.906-1.666,1.29   c-0.113,0.107-0.208,0.21-0.312,0.315c-0.068-0.023-0.131-0.027-0.168-0.025l-0.005,0.2c-0.003,0.003-0.007,0.007-0.01,0.01   l-0.048-0.214c-0.044-0.004-0.09-0.006-0.135-0.007l-1.035-0.027c-0.903-0.024-1.799-0.048-2.698-0.06   c-0.591-0.008-1.183-0.01-1.775-0.012l-1.219-0.006c-1.247-0.009-2.588-0.034-4.093-0.078c0.016-0.009,0.03-0.027,0.046-0.035   C6.389,54.059,6.493,54.027,6.644,53.979z M16.406,55.577l-4.505-0.093c-0.963-0.02-1.928-0.039-2.888-0.069   C8.261,55.39,7.51,55.359,6.75,55.321l-0.086-0.004c-0.375-0.02-0.75-0.039-1.144-0.049c-0.052-0.001-0.101-0.002-0.151-0.003   c0.001-0.181,0.018-0.349,0.096-0.464c0.04-0.059,0.105-0.118,0.175-0.177l0.498,0.014c1.549,0.046,2.922,0.072,4.199,0.081   l1.221,0.006c0.591,0.002,1.181,0.004,1.771,0.012c0.896,0.012,1.79,0.035,2.691,0.06L17,54.823   C16.777,55.075,16.581,55.326,16.406,55.577z M9.077,60.37c-0.254-0.384-0.391-0.829-0.404-1.288   c0.299,0.013,0.6,0.023,0.888,0.046c0.233,0.019,0.461,0.043,0.705,0.069l0.318,0.033c0.14,0.014,0.331,0.032,0.382,0.094   c0.018,0.021,0.039,0.072,0.046,0.15c0.013,0.139-0.03,0.285-0.116,0.402c-0.088,0.12-0.232,0.223-0.43,0.307   c-0.196,0.084-0.421,0.139-0.686,0.166C9.527,60.376,9.277,60.375,9.077,60.37z M6.948,59.665   C6.947,59.665,6.947,59.665,6.948,59.665c-0.002,0-0.003,0.001-0.004,0.001c-0.001,0-0.002-0.001-0.003-0.001   c-0.092-0.001-0.167-0.077-0.166-0.169c0-0.045,0.018-0.087,0.05-0.118c0.031-0.03,0.072-0.047,0.116-0.047   c0.002,0.001,0.002,0,0.003,0l1.238,0.013c0.012,0.11,0.039,0.218,0.063,0.326L6.948,59.665z M7.96,60.829   c0.208,0.002,0.416,0.012,0.623,0.022c0.146,0.007,0.291,0.014,0.438,0.019c0.22,0.005,0.513,0.009,0.811-0.021   c0.315-0.034,0.587-0.101,0.83-0.204c0.28-0.119,0.494-0.277,0.636-0.471c0.16-0.218,0.235-0.482,0.211-0.743   c-0.011-0.119-0.047-0.289-0.159-0.424c-0.182-0.221-0.479-0.25-0.72-0.273l-0.312-0.032c-0.248-0.027-0.48-0.052-0.718-0.07   c-0.376-0.031-0.768-0.045-1.16-0.06c-0.001,0-0.002-0.001-0.003-0.001c-0.001,0-0.002,0.001-0.003,0.001   c-0.045-0.002-0.088-0.005-0.133-0.007l-0.39-0.016c-0.434-0.019-0.898-0.043-1.353-0.101c-0.225-0.028-0.449-0.065-0.669-0.118   c-0.098-0.023-0.194-0.051-0.29-0.079c-0.074-0.411-0.146-0.829-0.174-1.231c-0.016-0.22-0.019-0.438-0.022-0.661   c-0.003-0.194-0.007-0.391-0.018-0.596c0.05,0.002,0.094,0.006,0.151,0.008c0.361,0.009,0.732,0.028,1.103,0.047l0.086,0.005   c0.763,0.038,1.517,0.068,2.273,0.093c0.962,0.03,1.928,0.05,2.896,0.069l4.196,0.087c-0.078,0.135-0.159,0.269-0.225,0.405   c-0.441,0.909-0.713,2.007-0.855,3.454c-0.036,0.372-0.043,0.713-0.054,1.059c-0.719,0.01-1.438,0.02-2.157,0.015   c-1.319-0.007-2.648-0.052-4.008-0.102l-1.339-0.051c0.008-0.001,0.016-0.003,0.025-0.003C7.636,60.83,7.794,60.828,7.96,60.829z    M11.272,62.296c-0.347-0.045-0.692-0.096-1.039-0.146c-0.494-0.073-0.987-0.146-1.486-0.201l-0.293-0.031   c-0.41-0.043-0.796-0.083-1.174-0.17c-0.196-0.045-0.404-0.104-0.592-0.229c-0.101-0.068-0.161-0.138-0.198-0.203l2.283,0.087   c1.364,0.05,2.697,0.095,4.023,0.102c0.144,0.001,0.289,0.001,0.433,0.001c0.567,0,1.135-0.007,1.703-0.015   c0,0.104,0.015,0.198,0.017,0.3c-0.011,0.031-0.033,0.057-0.03,0.092c0.003,0.033,0.026,0.056,0.04,0.084   c0.008,0.212,0.017,0.425,0.036,0.629c-0.447-0.023-0.894-0.046-1.34-0.074C12.739,62.459,11.982,62.388,11.272,62.296z    M23.241,67.733c-3.795,0-6.883-3.088-6.883-6.883c0-3.796,3.088-6.884,6.883-6.884s6.883,3.088,6.883,6.884   C30.124,64.646,27.036,67.733,23.241,67.733z M30.581,61.633c0.027-0.257,0.043-0.518,0.043-0.783c0-4.071-3.312-7.384-7.383-7.384   s-7.383,3.312-7.383,7.384c0,0.242,0.013,0.48,0.036,0.716c-0.076,0-0.151-0.001-0.228,0.002c-0.076,0.004-0.153,0.012-0.229,0.019   c-0.005-0.509,0.015-1.039,0.071-1.609c0.136-1.387,0.392-2.431,0.807-3.284c0.28-0.575,0.667-1.128,1.197-1.702   c0,0,0.001,0,0.001-0.001c0.001-0.001,0.002-0.002,0.002-0.003c0.176-0.191,0.368-0.384,0.576-0.581   c0.973-0.921,1.836-1.486,2.798-1.832c1.305-0.472,2.958-0.563,4.42-0.255c1.031,0.22,1.955,0.641,2.746,1.253   c0.864,0.669,1.678,1.651,2.235,2.695c0.474,0.886,0.751,1.78,0.958,3.087c0.095,0.601,0.178,1.306,0.183,2.343   c-0.134-0.016-0.268-0.035-0.403-0.045C30.88,61.642,30.73,61.639,30.581,61.633z M57.937,62.598   c-3.646-0.026-7.317-0.015-10.744,0c-2.91,0.013-6.75,0.033-10.66,0.082c-1.54,0.018-3.081,0.042-4.621,0.065   c0.049-1.317-0.005-2.208-0.093-2.918c0.574,0.003,1.142,0.005,1.689,0.005c1.347,0,2.607-0.009,3.765-0.025l0,0   c2.482-0.021,5.811-0.048,9.985-0.08c0.984,0.005,1.938,0.008,2.863,0.008c2.966,0,5.621-0.026,7.921-0.078h0   c2.957-0.018,6.18-0.022,9.581-0.011l0,0c0.898,0.009,1.758,0.013,2.571,0.013c0.712,0,1.381-0.004,2.019-0.01   c-0.03,0.242-0.06,0.482-0.081,0.738c-0.074,0.87-0.09,1.702-0.096,2.438l-3.029-0.062C65.501,62.692,61.733,62.625,57.937,62.598z    M80.455,67.733c-3.795,0-6.883-3.088-6.883-6.883c0-3.796,3.088-6.884,6.883-6.884c3.796,0,6.884,3.088,6.884,6.884   C87.339,64.646,84.251,67.733,80.455,67.733z M87.824,60.549c-0.16-3.931-3.399-7.082-7.369-7.082   c-4.071,0-7.383,3.312-7.383,7.384c0,0.206,0.014,0.408,0.031,0.61l-0.399,0.038c-0.002,0-0.003,0.002-0.004,0.002   c-0.002,0-0.003-0.001-0.005-0.001l-0.126,0.016c0.015-0.357,0.03-0.717,0.061-1.089c0.115-1.376,0.351-2.525,0.721-3.514   c0.408-1.089,1.018-2.077,1.763-2.857c0.88-0.922,1.963-1.594,3.132-1.944c1.354-0.407,2.906-0.39,4.372,0.049   c1.012,0.303,1.924,0.782,2.711,1.426c0.887,0.725,1.61,1.66,2.091,2.706c0.426,0.925,0.683,1.985,0.764,3.15   c0.027,0.39,0.03,0.763,0.028,1.106l-0.053,0C88.056,60.546,87.936,60.549,87.824,60.549z M91.882,59.548l0.091-0.015   c0.1,0.044,0.201,0.087,0.295,0.138c0.067,0.036,0.127,0.093,0.19,0.136l-0.072,0c-0.506,0.003-1.011,0.012-1.517,0.021   l-0.852,0.014c-0.008,0-0.016,0-0.025,0c0.227-0.032,0.456-0.062,0.683-0.097C91.079,59.683,91.48,59.615,91.882,59.548z    M92.339,60.647c-0.253,0.104-0.536,0.169-0.865,0.199c-0.349,0.032-0.697,0.021-1.064,0.009l-0.615-0.013   c-0.317-0.004-0.617-0.007-0.912-0.052c-0.058-0.009-0.115-0.022-0.173-0.034c0.002-0.13,0.003-0.262,0.003-0.407   c0.437-0.002,0.875-0.004,1.313-0.009l0.854-0.014c0.503-0.009,1.007-0.018,1.511-0.021l0.41-0.001   c-0.006,0.01-0.006,0.021-0.012,0.031C92.706,60.455,92.56,60.557,92.339,60.647z M94.512,54.912   c-0.053,0.307-0.155,0.642-0.322,1.056c-0.121,0.298-0.231,0.536-0.349,0.751c-0.168,0.308-0.377,0.62-0.659,0.983   c-0.268,0.345-0.525,0.637-0.789,0.892c-0.158,0.153-0.324,0.298-0.49,0.443l-0.104,0.018c-0.399,0.067-0.798,0.134-1.198,0.195   c-0.587,0.091-1.177,0.171-1.767,0.25l-0.149,0.02c-0.002-0.038-0.002-0.074-0.004-0.113c-0.085-1.226-0.356-2.344-0.807-3.324   c-0.301-0.654-0.7-1.26-1.162-1.812c0.089-0.015,0.177-0.033,0.266-0.047c0.436-0.064,0.886-0.102,1.322-0.138l0.743-0.064   c0.294-0.026,0.588-0.052,0.882-0.073c0.791-0.057,1.575-0.078,2.511-0.092c0.72-0.01,1.439-0.015,2.16-0.02   c-0.005,0.088-0.011,0.177-0.016,0.265C94.567,54.384,94.556,54.65,94.512,54.912z"/></g><text x="0" y="115" fill="#000000" font-size="5px" font-weight="bold" font-family="'Helvetica Neue', Helvetica, Arial-Unicode, Arial, Sans-serif">Created by Yasser Megahed</text><text x="0" y="120" fill="#000000" font-size="5px" font-weight="bold" font-family="'Helvetica Neue', Helvetica, Arial-Unicode, Arial, Sans-serif">from the Noun Project</text></svg>