<svg width="59" height="24" viewBox="0 0 59 24" fill="none" xmlns="http://www.w3.org/2000/svg">
<g clip-path="url(#clip0_3_2)">
<path d="M46.0861 8.62665C45.7055 8.64935 45.3496 8.73043 45.0831 8.85562C44.6617 9.05346 44.6105 9.29086 44.6176 9.4154C44.6429 9.83119 45.2822 10.0297 45.961 10.0297C46.0297 10.0297 46.0997 10.0277 46.1685 10.0238C46.5484 10.0011 46.9043 9.92005 47.1715 9.79486C47.5929 9.59702 47.6441 9.35962 47.637 9.23573C47.6098 8.77648 46.8304 8.58124 46.0861 8.62665ZM47.0347 9.50102C46.8045 9.60935 46.4901 9.6794 46.1503 9.70016C45.3879 9.74427 44.9489 9.52308 44.9424 9.39594C44.9385 9.3421 45.0248 9.24156 45.2212 9.1501C45.4514 9.04178 45.7658 8.97173 46.1056 8.95097C46.8739 8.90816 47.307 9.12805 47.3135 9.25519C47.3167 9.30837 47.2311 9.40892 47.0347 9.50102Z" fill="black"/>
<path d="M11.0342 17.1259C11.0375 17.1324 11.044 17.135 11.0478 17.1408C11.0504 17.1447 11.0485 17.1492 11.0511 17.1525L11.2274 17.3821C11.2287 17.3834 11.2307 17.3828 11.232 17.3847C11.3091 17.4865 11.4258 17.5436 11.5464 17.5436C11.6249 17.5436 11.704 17.5203 11.7727 17.4723C11.8641 17.4074 11.9244 17.3069 11.9374 17.196L11.973 16.893C11.9737 16.8865 11.9679 16.882 11.9679 16.8755C11.9679 16.869 11.9737 16.8651 11.973 16.8587L11.9238 16.3391C11.9147 16.2489 11.8304 16.1834 11.7474 16.1925C11.6579 16.2016 11.5931 16.2801 11.6009 16.3689L11.6489 16.871L11.6151 17.157C11.6132 17.1765 11.6022 17.1953 11.5866 17.2057C11.5561 17.229 11.5114 17.2206 11.4887 17.1888C11.4881 17.1875 11.4868 17.1882 11.4855 17.1869C11.4848 17.1856 11.4848 17.1836 11.4848 17.1836L11.3189 16.9676L11.0978 16.522C11.0576 16.4416 10.9603 16.4098 10.8806 16.4494C10.8002 16.4896 10.7678 16.5862 10.8073 16.6667L11.0342 17.1259Z" fill="black"/>
<path d="M12.5073 17.541C12.5734 17.6234 12.6668 17.6747 12.7699 17.6863C12.7848 17.6883 12.7997 17.6889 12.8153 17.6889C12.9067 17.6889 12.9949 17.6552 13.0655 17.5962C13.0675 17.5949 13.0701 17.5955 13.072 17.5942L13.2957 17.4107C13.3009 17.4068 13.2996 17.3996 13.3041 17.3951C13.308 17.3912 13.3145 17.3931 13.3177 17.3886L13.6439 16.9929C13.7009 16.9242 13.6912 16.821 13.6218 16.764C13.5531 16.7075 13.4506 16.7172 13.3936 16.786L13.0778 17.1694L12.8658 17.3432C12.8645 17.3438 12.8652 17.3458 12.8639 17.3464C12.8639 17.3464 12.8619 17.3464 12.8606 17.3477C12.8457 17.3614 12.825 17.3652 12.8055 17.3646C12.7809 17.3614 12.766 17.3477 12.7595 17.3387C12.753 17.3302 12.742 17.3121 12.7446 17.2868L12.7764 17.0007L12.9365 16.5233C12.965 16.4383 12.9196 16.3469 12.8347 16.3183C12.7504 16.2904 12.6584 16.3358 12.6298 16.4208L12.4639 16.9157C12.4619 16.9216 12.4664 16.9268 12.4652 16.9326C12.4639 16.9391 12.4574 16.9417 12.4561 16.9482L12.423 17.2504C12.4113 17.3549 12.4412 17.4587 12.5073 17.541Z" fill="black"/>
<path d="M11.9893 15.4582C10.1006 15.4582 8.56401 16.9955 8.56401 18.885C8.56401 20.7745 10.1006 22.3118 11.9893 22.3118C13.8779 22.3118 15.4145 20.7745 15.4145 18.885C15.4145 16.9955 13.8779 15.4582 11.9893 15.4582ZM11.9893 21.9881C10.2795 21.9881 8.88819 20.5961 8.88819 18.8857C8.88819 17.1752 10.2795 15.7832 11.9893 15.7832C13.6996 15.7832 15.0903 17.1752 15.0903 18.8857C15.0903 20.5961 13.699 21.9881 11.9893 21.9881Z" fill="black"/>
<path d="M11.9893 15.7929C10.2847 15.7929 8.89792 17.1804 8.89792 18.8857C8.89792 20.591 10.2847 21.9784 11.9893 21.9784C13.6938 21.9784 15.0806 20.591 15.0806 18.8857C15.0806 17.1804 13.6938 15.7929 11.9893 15.7929ZM11.9893 21.6534C10.4637 21.6534 9.22209 20.4119 9.22209 18.885C9.22209 17.3581 10.4637 16.1166 11.9893 16.1166C13.5155 16.1166 14.7564 17.3581 14.7564 18.885C14.7564 20.4119 13.5148 21.6534 11.9893 21.6534Z" fill="black"/>
<path d="M11.0336 19.9637C11.0012 19.8638 10.9311 19.7821 10.8371 19.7341C10.7412 19.6854 10.6303 19.6803 10.5292 19.7166C10.5272 19.7172 10.5253 19.7153 10.5233 19.7159L10.2497 19.8093C10.2445 19.8113 10.2432 19.8171 10.2381 19.8197C10.2329 19.8223 10.2264 19.8191 10.2212 19.8217L9.77708 20.0779C9.69928 20.1226 9.6727 20.2219 9.71744 20.2997C9.74726 20.3516 9.80172 20.3808 9.85813 20.3808C9.88536 20.3808 9.91324 20.3737 9.93917 20.3594L10.371 20.1103L10.6284 20.0227C10.6297 20.0221 10.6303 20.0208 10.6316 20.0201C10.6329 20.0195 10.6342 20.0208 10.6355 20.0201C10.6537 20.013 10.6751 20.0143 10.6913 20.0227C10.714 20.0344 10.723 20.0539 10.7263 20.0636C10.7295 20.074 10.7334 20.0941 10.7224 20.1161L10.5914 20.375L10.2744 20.7648C10.218 20.8336 10.2283 20.936 10.2977 20.9931C10.3275 21.0171 10.3638 21.0294 10.4002 21.0294C10.4468 21.0294 10.4942 21.0093 10.5259 20.9691L10.8546 20.5644C10.8572 20.5611 10.8559 20.5559 10.8585 20.5527C10.8631 20.5462 10.8702 20.5436 10.8741 20.5365L11.0115 20.2653V20.264C11.0576 20.1693 11.066 20.063 11.0336 19.9637Z" fill="black"/>
<path d="M12.2233 20.8809C12.2227 20.8751 12.2272 20.8699 12.2259 20.864L12.152 20.5689L12.1513 20.5676C12.1254 20.4658 12.0625 20.3801 11.973 20.3263C11.8829 20.2718 11.7766 20.2563 11.6748 20.2822C11.5704 20.3081 11.4829 20.3776 11.4291 20.471C11.4278 20.4729 11.4258 20.4729 11.4245 20.4742L11.2787 20.7246C11.2754 20.7298 11.2787 20.7356 11.2767 20.7408C11.2741 20.746 11.2676 20.7473 11.2657 20.7531L11.0978 21.2377C11.0686 21.3226 11.1133 21.4147 11.1976 21.4439C11.2151 21.4504 11.2333 21.453 11.2508 21.453C11.3182 21.453 11.3805 21.4115 11.4038 21.344L11.5665 20.8731L11.704 20.6377C11.7046 20.6364 11.7046 20.6344 11.7046 20.6344L11.7072 20.6325C11.7169 20.615 11.7332 20.602 11.7526 20.5968C11.7772 20.5903 11.796 20.5987 11.8058 20.6052C11.8149 20.6111 11.8317 20.6234 11.8375 20.6474L11.9069 20.9263L11.9231 21.431C11.9257 21.5192 11.9983 21.5879 12.0852 21.5879C12.0865 21.5879 12.0885 21.5879 12.0904 21.5879C12.1799 21.5847 12.2505 21.5101 12.2473 21.4206L12.2304 20.8984C12.2298 20.8913 12.224 20.8874 12.2233 20.8809Z" fill="black"/>
<path d="M10.0876 19.4798C10.0948 19.4772 10.1026 19.4779 10.109 19.4746L10.3677 19.3456C10.3697 19.3443 10.3697 19.3417 10.3716 19.341C10.5616 19.2483 10.6472 19.0219 10.5603 18.8273C10.5149 18.7255 10.4274 18.647 10.321 18.6126L10.0306 18.5198C10.0241 18.5179 10.0189 18.5224 10.0131 18.5211C10.0066 18.5198 10.004 18.5133 9.99752 18.5127L9.47884 18.4615C9.39261 18.4537 9.31092 18.5179 9.30184 18.6074C9.29341 18.6969 9.35825 18.776 9.44772 18.7845L9.95019 18.8344L10.2225 18.9213C10.2413 18.9272 10.2575 18.9415 10.2653 18.9603C10.2808 18.9953 10.2653 19.0362 10.2296 19.053C10.2283 19.0537 10.2277 19.0556 10.2277 19.0556C10.2264 19.0563 10.2251 19.055 10.2238 19.0556L9.97872 19.1769L9.49959 19.3086C9.41336 19.3319 9.36214 19.4215 9.38612 19.5084C9.40622 19.5797 9.47106 19.6277 9.54238 19.6277C9.55664 19.6277 9.5709 19.6258 9.58517 19.6219L10.0792 19.4863C10.0831 19.485 10.0844 19.4805 10.0876 19.4798Z" fill="black"/>
<path d="M10.1304 18.1423C10.1376 18.1456 10.1453 18.1449 10.1525 18.1468C10.1557 18.1475 10.157 18.1514 10.1602 18.152L10.4423 18.2163C10.4546 18.2188 10.4663 18.2201 10.4779 18.2201C10.498 18.2234 10.5181 18.2279 10.5376 18.2279C10.712 18.2279 10.8715 18.1125 10.9188 17.9373C10.948 17.8297 10.9305 17.7136 10.8689 17.6195L10.7029 17.3633C10.6997 17.3581 10.6925 17.3581 10.688 17.3536C10.6841 17.3484 10.6854 17.3419 10.6809 17.3367L10.3107 16.9689C10.2471 16.906 10.1453 16.906 10.0811 16.9702C10.0183 17.0338 10.0183 17.1363 10.0818 17.1998L10.4397 17.5559L10.5959 17.7959C10.607 17.8128 10.6102 17.8329 10.605 17.853C10.5946 17.8906 10.5544 17.9101 10.5188 17.9023C10.5175 17.9023 10.5162 17.903 10.5162 17.903C10.5149 17.9023 10.5142 17.901 10.513 17.901L10.2452 17.84L9.79263 17.6396C9.71094 17.6026 9.61498 17.6409 9.57868 17.7226C9.54237 17.8044 9.57932 17.8997 9.66102 17.936L10.1304 18.1423Z" fill="black"/>
<path d="M14.5049 19.2762L13.9965 19.1607C13.9901 19.1594 13.9849 19.1646 13.979 19.1639C13.9726 19.1633 13.9693 19.1568 13.9628 19.1568L13.6581 19.1529H13.6575C13.6562 19.1529 13.6555 19.1523 13.6542 19.1529C13.439 19.1529 13.2626 19.3274 13.26 19.5434C13.2594 19.6511 13.3041 19.7542 13.3813 19.8288C13.3826 19.8301 13.3819 19.832 13.3832 19.8333L13.3877 19.8379L13.5881 20.0377C13.592 20.0416 13.5985 20.0403 13.603 20.0435C13.6075 20.0474 13.6075 20.0545 13.6127 20.0578L14.0387 20.3425C14.0666 20.3607 14.0977 20.3698 14.1288 20.3698C14.1813 20.3698 14.2325 20.3445 14.2637 20.2978C14.3136 20.2238 14.2935 20.1226 14.2189 20.0727L13.804 19.7951L13.6121 19.6037C13.6121 19.6037 13.6101 19.6031 13.6088 19.6024L13.6075 19.5992C13.5926 19.5856 13.5842 19.5661 13.5842 19.546C13.5842 19.5077 13.616 19.4772 13.6542 19.4772L13.9408 19.4805L14.4335 19.592C14.4459 19.5946 14.4575 19.5959 14.4692 19.5959C14.5431 19.5959 14.6099 19.5447 14.6274 19.4701C14.6468 19.3832 14.5924 19.2963 14.5049 19.2762Z" fill="black"/>
<path d="M13.3456 20.3575C13.3417 20.3529 13.3352 20.3542 13.3313 20.3503C13.3268 20.3464 13.3281 20.3393 13.3229 20.3354L13.096 20.157C13.0947 20.1557 13.0927 20.157 13.0908 20.1557C13.0117 20.0922 12.9119 20.0584 12.814 20.0669C12.7089 20.0753 12.6136 20.1233 12.5449 20.2031C12.4716 20.288 12.4379 20.4003 12.4528 20.5112L12.493 20.8141C12.4937 20.8206 12.5001 20.8245 12.5021 20.831C12.5034 20.8368 12.4995 20.8413 12.5014 20.8472L12.6765 21.3389C12.6998 21.4057 12.7627 21.4465 12.8289 21.4465C12.847 21.4465 12.8652 21.4433 12.8833 21.4368C12.9676 21.407 13.0117 21.3142 12.9812 21.2299L12.8127 20.7557L12.775 20.4697C12.7725 20.4502 12.7783 20.4308 12.7913 20.4152C12.8075 20.3957 12.8282 20.3918 12.8386 20.3912C12.8509 20.3866 12.8704 20.3912 12.8898 20.4074C12.8911 20.408 12.8924 20.4074 12.8931 20.4087C12.8943 20.4093 12.8937 20.4113 12.895 20.4119L13.1102 20.5812L13.4325 20.9581C13.4642 20.9964 13.5103 21.0152 13.5557 21.0152C13.5933 21.0152 13.6302 21.0022 13.6613 20.9756C13.7294 20.9179 13.7372 20.8154 13.6789 20.7473L13.3456 20.3575Z" fill="black"/>
<path d="M13.6296 17.7655C13.625 17.7693 13.6186 17.7674 13.614 17.7713L13.4098 17.9659L13.4085 17.9665L13.404 17.9704C13.4027 17.9717 13.4033 17.973 13.402 17.9743C13.2464 18.1177 13.2308 18.3603 13.3715 18.5224C13.4455 18.6068 13.5518 18.6548 13.6633 18.6567L13.968 18.6606H13.97C13.9803 18.6606 13.9914 18.6593 14.0017 18.6573L14.5133 18.5542C14.6008 18.5367 14.6579 18.4511 14.6404 18.3629C14.6222 18.2746 14.5353 18.2221 14.4497 18.2364L13.9551 18.3363L13.6678 18.3324C13.6484 18.3324 13.6296 18.3233 13.6166 18.309C13.5913 18.2798 13.5939 18.2357 13.6231 18.2104C13.6244 18.2091 13.6237 18.2078 13.625 18.2065L13.6283 18.2052L13.826 18.0171L14.2455 17.7505C14.3214 17.7025 14.3434 17.602 14.2954 17.5268C14.2475 17.4509 14.147 17.4288 14.0718 17.4768L13.6393 17.7518C13.6341 17.7544 13.6341 17.7616 13.6296 17.7655Z" fill="black"/>
<path d="M31.3704 10.7996C31.4398 10.7996 31.5098 10.7977 31.5792 10.7931C31.9591 10.7704 32.3151 10.6893 32.5822 10.5642C33.0036 10.3663 33.0548 10.1289 33.0477 10.005C33.0192 9.54578 32.2431 9.34924 31.4962 9.39659C31.1156 9.41929 30.7597 9.50037 30.4932 9.62556C30.0718 9.8234 30.0206 10.0608 30.0277 10.1853C30.0536 10.6011 30.6923 10.7996 31.3704 10.7996ZM30.6307 9.9194C30.8608 9.81107 31.1753 9.74102 31.515 9.72026C31.5844 9.71637 31.6518 9.71443 31.716 9.71443C32.3579 9.71443 32.7171 9.90902 32.7235 10.0251C32.7274 10.079 32.6412 10.1789 32.4448 10.271C32.2146 10.3793 31.9001 10.4493 31.5604 10.4701C30.7934 10.5162 30.359 10.293 30.3525 10.1659C30.3486 10.1114 30.4342 10.0109 30.6307 9.9194Z" fill="black"/>
<path d="M49.8653 17.6863C49.8796 17.6883 49.8951 17.6889 49.91 17.6889C50.0028 17.6889 50.0916 17.6552 50.1635 17.5949C50.1635 17.5949 50.1655 17.5942 50.1668 17.5936L50.17 17.591L50.1713 17.5903L50.3898 17.4107C50.395 17.4068 50.3937 17.3996 50.3982 17.3951C50.4021 17.3912 50.4093 17.3925 50.4125 17.388L50.7386 16.9923C50.795 16.9235 50.7853 16.8204 50.7166 16.7633C50.6472 16.7069 50.5448 16.7172 50.4877 16.7854L50.1707 17.1707L49.9606 17.3432L49.9593 17.3458C49.958 17.3464 49.9567 17.3458 49.9554 17.3471C49.9405 17.3614 49.9204 17.3646 49.9003 17.3646C49.8757 17.3614 49.8601 17.3471 49.8543 17.3387C49.8471 17.3302 49.8368 17.3121 49.8394 17.2874L49.8711 17.0033L50.0319 16.5233C50.0605 16.4383 50.0144 16.3469 49.9295 16.3183C49.8452 16.2904 49.7538 16.3358 49.7246 16.4208L49.5586 16.9157C49.5567 16.9216 49.5612 16.9268 49.5599 16.9326C49.5586 16.9391 49.5528 16.9423 49.5515 16.9488L49.5171 17.2511C49.5048 17.3555 49.5346 17.4587 49.6008 17.5417C49.6676 17.6234 49.7616 17.6747 49.8653 17.6863Z" fill="black"/>
<path d="M48.1297 17.1259C48.1329 17.1324 48.1394 17.135 48.1426 17.1401C48.1452 17.144 48.1433 17.1486 48.1459 17.1525L48.3216 17.3821C48.3229 17.3834 48.3248 17.3827 48.3261 17.384C48.3864 17.4651 48.4727 17.5203 48.5725 17.5378C48.5952 17.5417 48.6179 17.5443 48.6406 17.5443C48.721 17.5443 48.7988 17.5196 48.8656 17.4729C48.957 17.4087 49.0173 17.3088 49.0315 17.1972V17.1959L49.0672 16.893C49.0678 16.8865 49.0627 16.8826 49.0627 16.8761C49.0627 16.8697 49.0685 16.8651 49.0678 16.8586L49.0186 16.3391C49.0095 16.2496 48.9297 16.1827 48.8422 16.1925C48.7527 16.2016 48.6879 16.28 48.6957 16.3689L48.7437 16.8723L48.7106 17.1551C48.708 17.1752 48.697 17.1946 48.6808 17.2063C48.6497 17.2271 48.6062 17.2199 48.5835 17.1894C48.5835 17.1894 48.5816 17.1888 48.5809 17.1875C48.5803 17.1862 48.5809 17.1849 48.5796 17.1836L48.413 16.9663L48.1926 16.522C48.153 16.4422 48.0577 16.4104 47.9754 16.4493C47.8956 16.4896 47.8626 16.5862 47.9028 16.6666L48.1297 17.1259Z" fill="black"/>
<path d="M49.0841 15.4582C47.1955 15.4582 45.6595 16.9955 45.6595 18.885C45.6595 20.7745 47.1955 22.3118 49.0841 22.3118C50.9728 22.3118 52.5093 20.7745 52.5093 18.885C52.5093 16.9955 50.9728 15.4582 49.0841 15.4582ZM49.0841 21.9881C47.3744 21.9881 45.9837 20.5961 45.9837 18.8857C45.9837 17.1752 47.3751 15.7832 49.0841 15.7832C50.7945 15.7832 52.1852 17.1752 52.1852 18.8857C52.1852 20.5961 50.7945 21.9881 49.0841 21.9881Z" fill="black"/>
<path d="M49.0841 15.7929C47.3795 15.7929 45.9927 17.1804 45.9927 18.8857C45.9927 20.591 47.3795 21.9784 49.0841 21.9784C50.7886 21.9784 52.1754 20.591 52.1754 18.8857C52.1754 17.1804 50.7886 15.7929 49.0841 15.7929ZM49.0841 21.6534C47.5578 21.6534 46.3169 20.4119 46.3169 18.885C46.3169 17.3581 47.5578 16.1166 49.0841 16.1166C50.6103 16.1166 51.8512 17.3581 51.8512 18.885C51.8512 20.4119 50.6103 21.6534 49.0841 21.6534Z" fill="black"/>
<path d="M51.6004 19.2761L51.0921 19.1607C51.0856 19.1594 51.0804 19.1646 51.0746 19.1639C51.0681 19.1633 51.0648 19.1568 51.0583 19.1568L50.7536 19.1529C50.7517 19.1529 50.7504 19.1529 50.7491 19.1529C50.646 19.1529 50.5474 19.1931 50.4735 19.2651C50.3983 19.3391 50.3562 19.4377 50.3549 19.5414C50.3529 19.6498 50.3977 19.7542 50.4761 19.8307L50.4774 19.834L50.4807 19.8372L50.6823 20.0383C50.6862 20.0422 50.6927 20.0409 50.6972 20.0448C50.7018 20.0487 50.7011 20.0552 50.7063 20.0584L51.1323 20.3432C51.1595 20.3613 51.1913 20.3704 51.2224 20.3704C51.2742 20.3704 51.3255 20.3451 51.3572 20.2984C51.4065 20.2245 51.3871 20.1233 51.3125 20.0733L50.8995 19.797L50.705 19.6037L50.7031 19.6031L50.7018 19.6005C50.6862 19.5862 50.6778 19.5674 50.6784 19.5466C50.6791 19.5077 50.7102 19.4779 50.7478 19.4779L51.0344 19.4811L51.5271 19.5927C51.5394 19.5953 51.5511 19.5966 51.5634 19.5966C51.6373 19.5966 51.7048 19.5453 51.7216 19.4707C51.7424 19.3832 51.6872 19.2962 51.6004 19.2761Z" fill="black"/>
<path d="M50.7244 17.7655C50.7198 17.7687 50.7133 17.7674 50.7095 17.7713L50.5052 17.9659L50.5039 17.9665L50.4994 17.9704C50.4981 17.9717 50.4987 17.973 50.4974 17.9743C50.3412 18.1177 50.3256 18.3609 50.4663 18.5218C50.5396 18.6061 50.6459 18.6548 50.7574 18.6567L51.0628 18.6606H51.0648C51.0758 18.6606 51.0861 18.6593 51.0972 18.6573L51.6087 18.5542C51.6962 18.5367 51.7533 18.4511 51.7351 18.3629C51.717 18.2753 51.6295 18.2195 51.5439 18.2364L51.0492 18.3363L50.762 18.3324C50.7432 18.3324 50.7231 18.3233 50.7108 18.309C50.6894 18.2844 50.6926 18.2318 50.7172 18.2104C50.7185 18.2091 50.7179 18.2078 50.7192 18.2065L50.7224 18.2052L50.9195 18.0178L51.3397 17.7505C51.4155 17.7025 51.4376 17.602 51.3896 17.5268C51.341 17.4509 51.2405 17.4288 51.1659 17.4768L50.7341 17.7518C50.7289 17.7551 50.7289 17.7616 50.7244 17.7655Z" fill="black"/>
<path d="M50.4417 20.3575C50.4378 20.3529 50.4307 20.3536 50.4261 20.3497C50.4222 20.3458 50.4229 20.3386 50.4177 20.3354L50.196 20.1616L50.1908 20.157C50.1895 20.1564 50.1875 20.157 50.1869 20.1557C50.1084 20.0922 50.0144 20.0597 49.91 20.0669C49.805 20.0746 49.7091 20.1233 49.641 20.2031C49.5677 20.2874 49.5346 20.4003 49.5496 20.5105L49.5885 20.8128C49.5891 20.8193 49.5956 20.8232 49.5975 20.8297C49.5988 20.8355 49.5949 20.8407 49.5969 20.8465L49.7726 21.3382C49.7959 21.405 49.8588 21.4459 49.925 21.4459C49.9431 21.4459 49.9619 21.4426 49.9794 21.4362C50.0637 21.4063 50.1078 21.3136 50.0773 21.2292L49.9081 20.7544L49.8711 20.469C49.8685 20.4496 49.8744 20.4288 49.8867 20.4145C49.9126 20.3853 49.9554 20.3815 49.9853 20.4068C49.9865 20.408 49.9878 20.4074 49.9891 20.408C49.9904 20.4087 49.9898 20.4106 49.9911 20.4113L50.205 20.5793L50.5286 20.9575C50.561 20.9957 50.6064 21.0145 50.6518 21.0145C50.6894 21.0145 50.7263 21.0016 50.7568 20.9756C50.8249 20.9172 50.8326 20.8148 50.7749 20.7466L50.4417 20.3575Z" fill="black"/>
<path d="M47.9319 19.7335C47.8366 19.6848 47.7251 19.6803 47.624 19.7159C47.622 19.7166 47.6201 19.7146 47.6175 19.7153L47.3439 19.8087C47.3387 19.8106 47.3374 19.8165 47.3322 19.8191C47.3264 19.8217 47.3205 19.8184 47.3147 19.8217L46.8706 20.0779C46.7934 20.1226 46.7668 20.2219 46.8109 20.2997C46.8414 20.3516 46.8959 20.3808 46.9516 20.3808C46.9795 20.3808 47.0074 20.3737 47.0327 20.3594L47.4651 20.1103L47.7212 20.0234C47.7225 20.0228 47.7232 20.0215 47.7245 20.0208C47.7258 20.0202 47.727 20.0215 47.7283 20.0208C47.7478 20.013 47.7685 20.0137 47.7847 20.0234C47.8191 20.0409 47.8327 20.0831 47.8165 20.1175L47.6862 20.3737L47.3679 20.7655C47.3115 20.8342 47.3225 20.9373 47.3919 20.9938C47.4217 21.0178 47.458 21.0301 47.4936 21.0301C47.5403 21.0301 47.5877 21.01 47.6194 20.9698L47.9481 20.565C47.9514 20.5611 47.9494 20.5559 47.952 20.5521C47.9559 20.5462 47.963 20.543 47.9663 20.5365L48.1044 20.2647C48.2036 20.0701 48.1258 19.8327 47.9319 19.7335Z" fill="black"/>
<path d="M49.3175 20.8809C49.3168 20.8751 49.3213 20.8699 49.32 20.8641L49.2468 20.5689C49.1943 20.3575 48.9797 20.2264 48.7696 20.2822C48.6652 20.3075 48.5777 20.3776 48.5239 20.4703C48.5226 20.4723 48.5206 20.4723 48.5193 20.4736L48.3735 20.7239C48.3702 20.7291 48.3735 20.735 48.3715 20.7402C48.3689 20.7454 48.3624 20.7467 48.3605 20.7525L48.1926 21.237C48.1634 21.322 48.2081 21.4141 48.2924 21.4433C48.3099 21.4498 48.3281 21.4524 48.3456 21.4524C48.413 21.4524 48.4752 21.4109 48.4986 21.3434L48.6613 20.8725L48.7988 20.637C48.7994 20.6357 48.7994 20.6338 48.7994 20.6338C48.8001 20.6325 48.802 20.6318 48.802 20.6318C48.8117 20.6143 48.8279 20.6014 48.8474 20.5962C48.885 20.5877 48.9226 20.6098 48.9323 20.6474L49.0011 20.9244L49.0179 21.4303C49.0212 21.5185 49.0925 21.5873 49.18 21.5873C49.1819 21.5873 49.1839 21.5873 49.1852 21.5873C49.2753 21.5841 49.3447 21.5095 49.3421 21.4199L49.3252 20.8978C49.3252 20.8913 49.3187 20.8874 49.3175 20.8809Z" fill="black"/>
<path d="M47.2259 18.1423C47.2324 18.1455 47.2401 18.1449 47.2473 18.1468C47.2505 18.1481 47.2518 18.1514 47.2551 18.1527L47.5377 18.2169C47.55 18.2195 47.5624 18.2208 47.574 18.2208C47.5935 18.224 47.6142 18.2286 47.6337 18.2286C47.8081 18.2286 47.9676 18.1125 48.0149 17.9373C48.0441 17.8303 48.0259 17.7148 47.9663 17.6214L47.965 17.6208V17.6195L47.7984 17.3639C47.7951 17.3587 47.788 17.3587 47.7841 17.3542C47.7802 17.349 47.7815 17.3425 47.7776 17.338L47.4081 16.9702C47.3439 16.906 47.2414 16.9066 47.1785 16.9702C47.115 17.0344 47.115 17.1369 47.1785 17.1998L47.5371 17.5566L47.6927 17.7953C47.7044 17.8134 47.7069 17.8342 47.7024 17.8537C47.692 17.8913 47.6538 17.9107 47.6162 17.9029L47.6136 17.9036C47.6123 17.9029 47.6116 17.9017 47.6103 17.9017L47.3406 17.8407L46.8887 17.6409C46.8096 17.6046 46.7117 17.6415 46.6754 17.7239C46.6391 17.8057 46.6761 17.901 46.7584 17.9373L47.2259 18.1423Z" fill="black"/>
<path d="M47.1837 19.4792C47.1909 19.4766 47.198 19.4772 47.2045 19.474L47.456 19.3482H47.4573L47.4586 19.3469L47.4625 19.3449C47.4638 19.3443 47.4645 19.3423 47.4645 19.3423C47.5565 19.2982 47.6285 19.223 47.6642 19.1276C47.7018 19.0297 47.6985 18.9226 47.6551 18.8273C47.6103 18.7255 47.5228 18.647 47.4165 18.6119L47.126 18.5192C47.1195 18.5172 47.1143 18.5218 47.1085 18.5205C47.102 18.5192 47.0988 18.5127 47.093 18.5121L46.5736 18.4608C46.4854 18.4511 46.4051 18.5179 46.3966 18.6068C46.3875 18.6963 46.453 18.7754 46.5425 18.7838L47.045 18.8338L47.3173 18.9207C47.3361 18.9265 47.3523 18.9402 47.3607 18.9596C47.3711 18.9823 47.3659 19.0018 47.362 19.0122C47.3581 19.0225 47.3484 19.0414 47.3244 19.0517C47.3231 19.0524 47.3231 19.0543 47.3218 19.055H47.3192L47.0748 19.1769L46.5944 19.3086C46.5081 19.3319 46.4576 19.4215 46.4809 19.5084C46.5004 19.5797 46.5658 19.6277 46.6372 19.6277C46.6508 19.6277 46.6657 19.6258 46.68 19.6219L47.1746 19.4863C47.1785 19.485 47.1798 19.4805 47.1837 19.4792Z" fill="black"/>
<path d="M58.5642 13.3884C58.5642 13.3877 58.5649 13.3864 58.5642 13.3858C58.5545 13.3572 58.5448 13.3287 58.5318 13.3008C58.454 13.125 58.314 12.992 58.1817 12.8669C58.0838 12.7734 57.9905 12.682 57.8964 12.5899C57.925 12.4939 57.9554 12.3979 57.9729 12.2954C58.0021 12.1177 58.0002 11.9386 57.9982 11.7661L57.9976 11.471C57.9982 11.3776 57.9989 11.2842 57.9976 11.1901C57.9969 11.1544 57.9963 11.1187 57.9976 11.0837C58.0008 10.9981 58.0164 10.9131 58.0319 10.8282L58.0462 10.7471C58.0909 10.4896 58.1123 10.2119 58.113 9.87529C58.1136 9.50037 58.0871 9.12675 58.0345 8.7635C57.9956 8.49691 57.9379 8.18556 57.8037 7.89885C57.7285 7.73864 57.628 7.57972 57.4783 7.38318C57.3732 7.24502 57.2611 7.11204 57.1495 6.97972C57.145 6.96091 57.1405 6.9421 57.134 6.92394C57.1016 6.83053 57.0484 6.75204 56.992 6.66902L56.9408 6.59183C56.898 6.52631 56.8545 6.46144 56.8092 6.39917C56.6743 6.21431 56.5168 6.04825 56.378 5.90166C55.7964 5.28544 55.174 4.6342 54.5283 4.03225C53.9214 3.46598 53.2906 2.93863 52.6986 2.45279C52.3329 2.15247 51.9725 1.86123 51.5867 1.61409C51.2884 1.42209 50.9746 1.25798 50.6647 1.09971C50.6783 1.0835 50.6946 1.07117 50.7043 1.04977C50.7503 0.95182 50.727 0.823388 50.6466 0.736469C50.5811 0.667712 50.4988 0.647602 50.454 0.637224C50.3373 0.609981 50.2245 0.596359 50.1104 0.582737C49.9289 0.560683 49.7441 0.540576 49.5599 0.523062C49.3194 0.499711 49.0789 0.48155 48.839 0.463387C48.7735 0.458198 48.708 0.454955 48.6425 0.450414C47.7394 0.384252 46.8349 0.325225 45.9298 0.271387C44.8185 0.205225 43.3552 0.124793 41.8873 0.0858739C41.4121 0.0735496 40.9356 0.0657652 40.4597 0.0573327L39.2388 0.0346301C38.1224 0.0125761 36.967 -0.0101263 35.8311 0.00479258C34.8521 0.0177656 33.888 0.0586309 32.992 0.100793C32.0901 0.143604 31.3335 0.185116 30.5691 0.249332C30.0115 0.295386 29.4688 0.353117 28.9566 0.419927C28.3368 0.501008 27.7176 0.60155 27.0946 0.702739C26.8281 0.74555 26.5532 0.789658 26.3477 0.849334C26.2686 0.872037 26.1992 0.896685 26.074 0.94728C26.0086 0.973875 25.9262 1.00825 25.687 1.11723C25.6811 1.11982 25.6805 1.12696 25.6753 1.1302C25.51 1.18404 25.3524 1.25539 25.2124 1.32739C23.6395 2.1369 21.9901 3.06187 20.1695 4.15614C19.3156 4.66987 18.4092 5.22771 17.5703 5.83031C17.4263 5.93344 17.2843 6.03787 17.1372 6.1462C16.8979 6.32198 16.6457 6.50815 16.3501 6.71377L16.2463 6.78577C16.0518 6.92069 15.8534 7.0608 15.6797 7.20285C15.4437 7.19702 15.3717 7.19766 15.301 7.19896C15.1098 7.20156 14.9185 7.2035 14.7169 7.19637C14.6572 7.19442 14.5956 7.19183 14.5198 7.19442L14.464 7.19702C14.4037 7.20156 14.3518 7.21258 14.2993 7.22491L13.5829 7.38707C13.1842 7.47658 12.7848 7.56675 12.386 7.66015C11.763 7.80675 11.1425 7.96112 10.5233 8.12393C9.97418 8.26858 9.42762 8.41842 8.88235 8.5741C8.34487 8.72718 7.80933 8.8848 7.27639 9.05345C6.66175 9.24739 6.11457 9.4355 5.60497 9.62815C5.25162 9.76112 4.90215 9.90188 4.55269 10.0465C4.26677 10.1659 3.95945 10.2963 3.65278 10.4454C3.28322 10.6251 2.93441 10.8223 2.61607 11.0312C2.4248 11.1577 2.27244 11.2692 2.13758 11.3827C1.9729 11.5209 1.83221 11.6623 1.70967 11.8147C1.62603 11.9185 1.52295 12.058 1.47108 12.2221C1.45941 12.2643 1.44968 12.3058 1.44061 12.3486C1.43347 12.3797 1.42699 12.4115 1.41662 12.4446C1.40754 12.4751 1.39003 12.5315 1.41078 12.599C1.43088 12.6638 1.47951 12.7157 1.54564 12.7404C1.56185 12.7462 1.60723 12.752 1.62474 12.752C1.60334 12.791 1.5787 12.8266 1.5625 12.8688C1.52878 12.957 1.51128 13.0459 1.50025 13.1146C1.48664 13.1964 1.47756 13.2781 1.47173 13.3598C1.45681 13.5674 1.462 13.7756 1.46848 13.9786C1.43412 13.9974 1.40041 14.0163 1.36475 14.0331C1.28954 14.0675 1.21109 14.0934 1.10152 14.1278C1.01658 14.1544 0.931001 14.1817 0.854495 14.2219C0.739737 14.2809 0.647668 14.3613 0.557547 14.4398L0.456405 14.5248C0.41102 14.5254 0.366284 14.5235 0.317657 14.5378C0.24958 14.5579 0.184745 14.5981 0.136119 14.6513C0.0738771 14.7181 0.0323825 14.8083 0.0122836 14.9211C-0.0130021 15.0645 0.00515162 15.1929 0.0271956 15.3226C0.0336791 15.359 0.0511847 15.4115 0.0816573 15.4621C0.0823057 15.477 0.082954 15.4932 0.0836024 15.5082L0.0881408 15.5834C0.0952727 15.7196 0.0978661 15.8493 0.0998112 15.9765C0.101756 16.127 0.10435 16.2749 0.114723 16.4227C0.136767 16.7334 0.194471 17.0506 0.24958 17.3568C0.252174 17.3704 0.263844 17.3782 0.269031 17.3899C0.274218 17.4009 0.278756 17.4093 0.285888 17.4191C0.302745 17.4418 0.322196 17.4567 0.34813 17.4677C0.356558 17.4716 0.360449 17.482 0.369525 17.4846C0.467427 17.5131 0.564679 17.541 0.66388 17.5644C0.818187 17.6013 0.975089 17.6279 1.13264 17.6474C1.15274 17.65 1.17154 17.6493 1.19164 17.6519C1.16765 17.6675 1.13977 17.6779 1.11967 17.6973C1.03733 17.7784 0.990649 17.8867 0.989352 18.0022C0.986759 18.2403 1.17737 18.4355 1.4231 18.4394L2.37164 18.4433C2.38785 18.4816 2.40081 18.5205 2.41962 18.5574C2.3081 18.5523 2.19658 18.5471 2.08507 18.5458C1.96707 18.5477 1.84971 18.5471 1.73366 18.5594C1.67336 18.5659 1.61371 18.575 1.55342 18.5847C1.4834 18.5957 1.41273 18.6061 1.30445 18.6145C1.22795 18.6197 1.14171 18.6256 1.05484 18.6684C0.881078 18.754 0.763077 18.9654 0.779286 19.1594C0.792902 19.3164 0.895341 19.4643 1.07623 19.5862C1.24286 19.6971 1.41856 19.7471 1.56833 19.7821C1.83221 19.8424 2.10517 19.871 2.3684 19.8982L2.55642 19.9177C2.87541 19.9533 3.1918 20 3.5082 20.0467C3.73447 20.0805 3.96075 20.1142 4.18767 20.1427C4.65448 20.2031 5.15177 20.2498 5.75214 20.29C6.10355 20.3133 6.45496 20.3315 6.80568 20.3497C6.80828 20.3497 6.81152 20.3497 6.81411 20.3497C6.818 20.3497 6.8206 20.3458 6.82384 20.3458C6.82708 20.3458 6.82967 20.349 6.83291 20.3484C6.84912 20.3464 6.8582 20.3328 6.87181 20.3263C6.89386 20.3172 6.91461 20.3107 6.93017 20.2932C6.94313 20.279 6.94573 20.2614 6.95286 20.2439C6.95999 20.2271 6.97425 20.2147 6.9749 20.1953C6.9749 20.1901 6.97036 20.1869 6.97036 20.1817C6.97036 20.1765 6.9749 20.1732 6.97425 20.168C6.9561 20.0137 6.9548 19.847 6.94637 19.6854C6.995 19.6803 7.04363 19.6751 7.0929 19.6731C7.1532 19.6692 7.2122 19.6705 7.2712 19.6718C7.64854 21.9382 9.61694 23.672 11.9873 23.672C14.3434 23.672 16.3027 21.959 16.6976 19.7127C16.802 19.7166 16.907 19.7192 17.0107 19.727C17.106 19.7347 17.2007 19.7471 17.2954 19.7594C17.2928 19.9216 17.2882 20.0909 17.2792 20.277C17.2792 20.2919 17.2902 20.3036 17.2934 20.3172C17.3096 20.386 17.3596 20.4431 17.4328 20.4463C17.4354 20.4463 17.438 20.4463 17.4406 20.4463C17.4497 20.4463 17.4549 20.4385 17.4633 20.4372C18.5117 20.4217 19.5601 20.4054 20.6084 20.3931C23.1422 20.3613 25.6319 20.3484 27.5173 20.3399C29.7353 20.3296 32.1147 20.3231 34.4793 20.3399C36.9391 20.3574 39.3815 20.4016 41.6526 20.4457L43.7792 20.4891C43.7805 20.4891 43.7812 20.4891 43.7818 20.4891C43.8259 20.4891 43.8668 20.471 43.8959 20.4418C43.9057 20.4327 43.905 20.4171 43.9115 20.4054C43.9258 20.3821 43.9433 20.3594 43.9439 20.3296C43.9439 20.3289 43.9433 20.3289 43.9433 20.3283C43.9433 20.3276 43.9439 20.3276 43.9439 20.327C43.9446 20.1155 43.9485 19.88 43.9549 19.6413L44.0891 19.6238L44.3543 19.5992C44.7025 21.8999 46.6858 23.6701 49.0815 23.6701C51.6775 23.6701 53.793 21.5912 53.8624 19.0102C53.9324 19.0102 54.0083 19.0089 54.0712 19.0096L54.1276 19.0102C54.1334 19.0251 54.1367 19.0387 54.1464 19.0517C54.1593 19.0686 54.1768 19.0757 54.1956 19.0861C54.2099 19.0939 54.2177 19.1094 54.2346 19.1133C54.3221 19.1322 54.409 19.151 54.4958 19.1639C54.7091 19.1964 54.9244 19.199 55.1325 19.2016L55.5241 19.21C55.6454 19.2139 55.7679 19.2178 55.8911 19.2178C56.0117 19.2178 56.1329 19.2139 56.2542 19.2035C56.5005 19.1808 56.7145 19.1309 56.909 19.0517C57.1152 18.9661 57.2533 18.8656 57.3434 18.7339C57.3953 18.658 57.4303 18.5711 57.4452 18.479C57.4484 18.453 57.4471 18.4115 57.4426 18.3706C57.4426 18.3693 57.4439 18.3687 57.4439 18.368C57.4439 18.3667 57.4426 18.3661 57.4426 18.3648C57.4413 18.3551 57.4445 18.3492 57.4419 18.3395C57.4193 18.239 57.3505 18.1702 57.2889 18.1138C57.1612 17.999 57.0322 17.9075 56.8947 17.8329C56.885 17.8277 56.8733 17.8238 56.8636 17.818C56.9246 17.7629 56.9875 17.7097 57.0465 17.6519C57.228 17.4755 57.4056 17.2751 57.5885 17.0396C57.7823 16.7899 57.9269 16.5732 58.0449 16.3579C58.1266 16.208 58.2038 16.042 58.2861 15.837C58.4041 15.5464 58.4767 15.3077 58.5143 15.0852C58.5467 14.8958 58.5552 14.7045 58.5636 14.5203C58.5681 14.4236 58.5727 14.3257 58.5798 14.229L58.5817 14.2024C58.7062 13.9456 58.6991 13.6413 58.5642 13.3884ZM52.449 13.9222C52.3848 13.8697 52.3154 13.8236 52.2487 13.7743C52.2869 13.7613 52.331 13.751 52.3576 13.7458C52.6519 13.6926 52.9203 13.6848 53.2043 13.677L53.3405 13.6731C53.6679 13.6627 54.0011 13.6426 54.337 13.6225C54.704 13.6005 55.0748 13.5784 55.4431 13.5687C55.9423 13.5551 56.4493 13.5654 56.9401 13.5765L57.2825 13.5836C57.5963 13.5894 57.9139 13.5933 58.3049 13.5972C58.3587 13.7302 58.362 13.8768 58.3146 14.0117C57.8258 14.015 57.3369 14.0182 56.8474 14.0253C56.236 14.0351 55.7219 14.048 55.2019 14.0863C55.0087 14.0999 54.8161 14.1168 54.6236 14.1337L54.1438 14.1745C53.8566 14.1985 53.559 14.2238 53.2659 14.2673C53.1414 14.2854 53.0176 14.3094 52.8938 14.3328C52.7531 14.1875 52.6046 14.05 52.449 13.9222ZM58.126 13.271C57.816 13.2677 57.5509 13.2638 57.2876 13.2593L56.9453 13.2522C56.4513 13.2411 55.9404 13.232 55.4334 13.2444C55.0618 13.2541 54.6878 13.2768 54.3162 13.2989C53.9836 13.319 53.6536 13.3391 53.3295 13.3488L53.1946 13.3533C52.9106 13.3611 52.6176 13.3696 52.2992 13.4266C52.1858 13.4474 52.0678 13.4746 51.9763 13.5583C51.9718 13.5622 51.9705 13.5706 51.9666 13.5752C51.752 13.437 51.5251 13.3177 51.2904 13.2106C51.293 13.2087 51.2949 13.2061 51.2969 13.2042C51.4025 13.1179 51.5082 13.0543 51.61 13.0154C51.7365 12.9674 51.8778 12.9486 52.0509 12.9356C52.3394 12.9129 52.626 12.9071 52.9119 12.9019L53.0111 12.8999C53.393 12.8922 53.7755 12.8824 54.1587 12.872L54.4855 12.8636C55.0547 12.85 55.6227 12.8383 56.1906 12.8273L57.6514 12.8033C57.7532 12.9025 57.8543 13.0018 57.9671 13.1101C58.0242 13.1646 58.0786 13.2171 58.126 13.271ZM34.5474 17.7856C34.5467 17.7856 34.5467 17.7862 34.5461 17.7862C34.5454 17.7862 34.5454 17.7856 34.5448 17.7856C34.2938 17.7914 34.0352 17.7966 33.7713 17.8011C33.7816 17.7979 33.7901 17.7907 33.7998 17.7856C34.0209 17.7849 34.2355 17.7836 34.441 17.783C34.5616 17.7836 34.6958 17.7836 34.819 17.7843C34.7295 17.7849 34.6362 17.7849 34.5474 17.7856ZM27.5614 17.8316C27.5614 17.8316 27.5601 17.8316 27.5594 17.8316C25.5165 17.8472 23.7867 17.8608 22.3687 17.8725C23.8807 17.8537 25.5917 17.8336 27.5101 17.8115C29.9603 17.8005 32.0045 17.792 33.6474 17.7862C33.6604 17.794 33.6747 17.7985 33.6902 17.8024C31.9176 17.8329 29.8624 17.842 27.5614 17.8316ZM10.1175 13.319C9.65584 13.3138 9.19421 13.3079 8.73194 13.2976L8.36043 13.2878C8.23595 13.2846 8.10822 13.2826 7.98244 13.2794C8.02005 13.2762 8.05765 13.2645 8.08618 13.2359C8.65284 12.6567 9.29859 12.263 10.004 12.0658C10.0046 12.0658 10.0046 12.0651 10.0053 12.0645C10.0059 12.0645 10.0066 12.0645 10.0066 12.0645C11.1367 11.7259 12.3575 11.6785 13.6361 11.9263C14.5464 12.1079 15.3698 12.4491 16.0836 12.9395C16.0862 12.9408 16.0888 12.9402 16.0914 12.9421C16.0933 12.9434 16.0933 12.946 16.0953 12.9473C16.4707 13.16 16.8052 13.4169 17.0911 13.7101C17.0924 13.7114 17.0944 13.7107 17.0957 13.712C17.1248 13.7406 17.1637 13.7587 17.2065 13.7587C17.2111 13.7587 17.2156 13.7587 17.2202 13.7581C17.7628 13.7107 18.3528 13.6939 18.9532 13.6874C18.9629 13.989 18.9811 14.2926 18.9992 14.5955C18.4838 14.6033 17.9171 14.6124 17.2921 14.6214C17.2908 14.6214 17.2908 14.6227 17.2895 14.6227C17.2882 14.6227 17.2876 14.6214 17.2863 14.6214C17.1774 14.6273 17.0671 14.6331 16.9576 14.6344C16.9271 14.6351 16.8973 14.6351 16.8668 14.6351C16.7773 14.6351 16.6781 14.602 16.5498 14.6707C16.5031 14.6941 16.4635 14.7311 16.4389 14.7726C16.3617 14.901 16.4311 15.0314 16.4836 15.1313L16.5186 15.202C16.5465 15.2623 16.5763 15.3246 16.6243 15.3849C16.6619 15.4323 16.7093 15.4757 16.7631 15.5114C16.8143 15.5445 16.8668 15.5685 16.9193 15.5814C16.9829 15.5983 17.0464 15.6016 17.1009 15.6016C17.119 15.6016 17.1359 15.6009 17.1514 15.6009L17.3109 15.5957C17.8951 15.5873 18.4793 15.5769 19.0641 15.5678C19.077 15.7404 19.0887 15.9149 19.1017 16.0848L19.1153 16.2684C19.1477 16.6991 19.1821 17.1434 19.2443 17.5799C18.7191 17.5825 18.1188 17.5838 17.4471 17.5845C17.3116 16.8567 17.1281 16.2924 16.8441 15.7592C16.4564 15.0333 15.9111 14.3756 15.3069 13.9079C14.7551 13.4805 14.1126 13.1866 13.3955 13.0342C12.3919 12.8208 11.2527 12.8857 10.3528 13.2106C10.2698 13.2431 10.1979 13.2846 10.1175 13.319ZM5.88052 13.3216C5.87274 13.2288 5.86949 13.138 5.85069 13.0394C5.8066 12.8091 5.74177 12.6042 5.651 12.4134C5.60302 12.3123 5.54078 12.1981 5.43575 12.1144C5.35795 12.0528 5.26004 12.0106 5.13686 11.9853C5.03571 11.9646 4.93522 11.96 4.80814 11.9555C4.67004 11.9497 4.53195 11.9412 4.3932 11.9322C4.26807 11.9244 4.14229 11.9166 4.01651 11.9107C4.00354 11.9101 3.99057 11.9107 3.97696 11.9101C4.00484 11.8848 4.02688 11.8563 4.05541 11.8316C4.32642 11.5955 4.65643 11.3743 5.0623 11.1557C5.46622 10.9384 5.92266 10.7341 6.49901 10.5129C7.12078 10.2742 7.79118 10.0504 8.4901 9.84675C9.21107 9.63658 9.95473 9.45172 10.6511 9.28242C11.6703 9.03464 12.5669 8.82707 13.3923 8.64739C13.6938 8.58188 13.9959 8.51766 14.2974 8.45345C14.6981 8.36848 15.0987 8.2835 15.5007 8.19464C16.094 8.06296 16.7222 7.91507 17.3018 7.72826C17.4549 7.67896 17.604 7.62707 17.7304 7.57518C17.805 7.54469 17.8717 7.51356 17.9593 7.46361C18.0034 7.43831 18.0526 7.40783 18.1706 7.32675C18.6271 7.04912 18.9921 6.82534 19.2897 6.64242C19.2268 7.35788 19.16 8.15053 19.101 8.96588C19.0816 8.96653 19.0615 8.96718 19.042 8.96783C18.4261 8.98923 17.8102 9.00999 17.1949 9.04307C16.4039 9.08523 15.6064 9.1475 14.8238 9.22858C14.3856 9.27334 13.9479 9.32458 13.5109 9.37648C13.4221 9.38685 13.3586 9.46793 13.3689 9.5568C13.3787 9.63918 13.4487 9.70015 13.5297 9.70015C13.5362 9.70015 13.5427 9.70015 13.5492 9.69885C13.9849 9.64761 14.4212 9.59637 14.8576 9.55161C15.6349 9.47118 16.4272 9.40956 17.2124 9.36739C17.8257 9.33496 18.4397 9.31356 19.0537 9.29215C19.0615 9.29215 19.0699 9.2915 19.0777 9.2915C19.0524 9.66253 19.0284 10.0362 19.0083 10.4111C18.948 11.5378 18.9299 12.4835 18.9487 13.3644C18.3671 13.3709 17.7972 13.3877 17.2642 13.4318C16.9731 13.1432 16.6405 12.887 16.2677 12.6742C16.2671 12.6736 16.2658 12.6729 16.2645 12.6723C16.2612 12.6703 16.2587 12.6684 16.2561 12.6664H16.2554C15.5079 12.1553 14.6488 11.7992 13.6996 11.6098L13.6983 11.6091C12.3685 11.3523 11.0965 11.4003 9.91647 11.7544H9.91583C9.91518 11.7544 9.91453 11.7551 9.91323 11.7551C9.15336 11.9678 8.45963 12.3901 7.85277 13.0096C7.78988 13.0738 7.79118 13.1763 7.85536 13.2392C7.88259 13.2664 7.9189 13.2762 7.95456 13.2794C7.56101 13.2703 7.16357 13.2638 6.76808 13.2749C6.47311 13.2826 6.17681 13.3021 5.88052 13.3216ZM1.79461 13.3845C1.79979 13.3118 1.80822 13.2385 1.81924 13.1678C1.83221 13.0893 1.84647 13.0329 1.86463 12.9856C1.90677 12.8733 1.99235 12.767 2.06886 12.6755C2.1499 12.5795 2.23937 12.4783 2.34506 12.3979C2.42934 12.3337 2.51752 12.2883 2.6018 12.2656C2.701 12.2383 2.81317 12.237 2.96942 12.2351C3.05306 12.2344 3.13604 12.2318 3.21903 12.2299L3.26831 12.2286C3.19829 12.3239 3.12113 12.4141 3.06148 12.5146C3.02907 12.5685 2.99795 12.6236 2.97331 12.6813C2.91236 12.8221 2.88902 12.9726 2.87411 13.101C2.8605 13.2126 2.85272 13.3229 2.84688 13.4338C2.8391 13.5907 2.83975 13.7477 2.83975 13.9047C2.58884 13.9112 2.33728 13.9125 2.08636 13.9131H1.78942C1.78358 13.7328 1.78164 13.559 1.79461 13.3845ZM3.17041 13.4513C3.17559 13.3482 3.18337 13.2444 3.19569 13.1406C3.20931 13.0297 3.22681 12.9129 3.2709 12.8104C3.2897 12.767 3.31434 12.7242 3.33963 12.682C3.43429 12.5237 3.5458 12.3739 3.6664 12.2312C3.77856 12.2325 3.89008 12.2305 4.00224 12.2357C4.12543 12.2416 4.24926 12.2493 4.3731 12.2565C4.51379 12.2662 4.65448 12.2746 4.82306 12.2811C4.90604 12.2844 4.98839 12.287 5.07137 12.3038C5.14334 12.3181 5.19845 12.3408 5.23411 12.3693C5.28663 12.4109 5.32618 12.4854 5.3573 12.5529C5.43575 12.7183 5.4928 12.8973 5.5317 13.101C5.55829 13.2379 5.5719 13.365 5.5732 13.4915C5.57385 13.5298 5.57514 13.6083 5.5531 13.6426C5.54208 13.6595 5.52133 13.6777 5.4954 13.6893C5.46363 13.7043 5.42343 13.712 5.3774 13.7205C5.24124 13.7445 5.10509 13.7646 4.96764 13.7814C4.63309 13.8217 4.28687 13.8385 3.95232 13.8547L3.63787 13.8703C3.47967 13.8787 3.32147 13.8852 3.16328 13.8924C3.16457 13.7451 3.16328 13.5979 3.17041 13.4513ZM37.3307 0.731929C38.4083 0.729983 39.6765 0.733875 40.9829 0.762415C42.0015 0.784469 43.0459 0.823388 44.1404 0.877875C44.4354 1.08414 44.7401 1.2969 45.0221 1.52458C45.3761 1.80933 45.6951 2.11744 45.9609 2.38079C46.5445 2.96069 47.0268 3.49323 47.4333 4.0102C47.9196 4.62771 48.2833 5.20047 48.5433 5.7609C48.7281 6.15917 48.8785 6.58923 48.9887 7.0381C49.0873 7.44221 49.1301 7.76848 49.1229 8.06491C49.1178 8.27961 49.086 8.49302 49.0289 8.69993C48.9447 9.00804 48.8066 9.29669 48.6263 9.63723C48.4415 9.9862 48.2736 10.2697 48.0998 10.5298C47.8502 10.9027 47.563 11.2433 47.2557 11.5579C47.2246 11.567 47.1922 11.5696 47.161 11.5793C46.1496 11.8822 45.2341 12.4323 44.4341 13.2067L39.2836 13.2353C37.5388 13.2463 35.6606 13.2612 33.7706 13.2774L33.7784 13.0446C33.8089 12.0872 33.8407 11.098 33.9788 10.1458C34.0553 9.62037 34.1642 9.10339 34.288 8.53907C35.2087 8.48718 36.13 8.43334 37.0506 8.38793C37.5758 8.36199 38.101 8.33864 38.6261 8.31464C39.9987 8.25172 41.4192 8.18685 42.8138 8.0928C43.2515 8.06361 43.6891 8.03118 44.1255 7.9981C44.7336 7.95334 45.3424 7.90793 45.9862 7.86902C46.2605 7.8528 46.5432 7.83529 46.8239 7.77561C46.9665 7.74577 47.1772 7.69129 47.3614 7.56675C47.5364 7.44804 47.6693 7.28264 47.7361 7.10102C47.7919 6.94988 47.8061 6.77475 47.7815 6.56458C47.7342 6.16047 47.5591 5.79852 47.4126 5.52804C47.22 5.17387 46.9951 4.84696 46.7629 4.52198C46.7597 4.51679 46.7565 4.5129 46.7532 4.50771C46.6793 4.40523 46.6086 4.30144 46.5334 4.19896C46.2287 3.78577 45.865 3.29928 45.4753 2.82641C45.1537 2.43658 44.8743 2.12717 44.5962 1.85409C44.4743 1.73409 44.329 1.59723 44.1585 1.49798C44.01 1.41106 43.8369 1.34685 43.6139 1.2956C43.3974 1.24566 43.1834 1.22036 42.985 1.20025C42.5344 1.1542 42.0864 1.1289 41.5515 1.10555C40.7877 1.07117 39.9916 1.04458 39.1844 1.02771C38.0789 1.00501 37.0506 1.00112 36.0425 1.01409C36.0645 0.923929 36.0859 0.833118 36.1079 0.742956C36.5151 0.739712 36.9229 0.732577 37.3307 0.731929ZM48.6496 1.16523C49.075 1.55247 49.5003 1.94036 49.9159 2.33733C50.4611 2.85625 51.0161 3.41733 51.5672 4.00436C52.0671 4.5382 52.4354 4.95723 52.7602 5.36393C53.0507 5.72782 53.332 6.11506 53.581 6.4569C53.5817 6.45755 53.581 6.45885 53.5817 6.46014C53.6711 6.58015 53.7438 6.69042 53.8125 6.80264C53.9421 7.01345 54.0627 7.23983 54.171 7.47593C54.2663 7.6835 54.3545 7.90339 54.4323 8.12912C54.4822 8.27377 54.527 8.41972 54.5607 8.56826C54.5879 8.69021 54.6074 8.8141 54.6268 8.93799L54.6372 9.0035C54.6612 9.15399 54.6865 9.30448 54.7163 9.45496C54.7643 9.69885 54.8252 9.95831 54.9406 10.2048C55.0521 10.4435 55.2084 10.6543 55.3925 10.8152C55.541 10.9443 55.7173 11.0506 55.917 11.1324C56.0875 11.2024 56.2626 11.2459 56.4338 11.2829C56.4253 11.4223 56.4169 11.5624 56.4163 11.7019L56.4169 11.901C56.4182 11.9938 56.4188 12.0865 56.4163 12.1793C56.413 12.2863 56.4026 12.3933 56.3936 12.5004L56.1854 12.5036C55.6168 12.5146 55.0476 12.5257 54.4777 12.5399L54.1509 12.549C53.7684 12.5587 53.3865 12.5685 53.0053 12.5763L52.9716 12.5769C52.4795 12.1151 51.8266 11.7635 51.0213 11.5371C51.0207 11.5371 51.02 11.5378 51.0194 11.5371C51.0187 11.5371 51.0187 11.5358 51.0174 11.5358C49.9185 11.2556 48.8448 11.2303 47.8146 11.4314C48.011 11.2024 48.1984 10.9637 48.3689 10.7101C48.5466 10.4435 48.7249 10.1425 48.9122 9.78902C49.0776 9.47831 49.2442 9.14166 49.3414 8.78556C49.4056 8.55334 49.44 8.31334 49.4465 8.07269C49.4543 7.74642 49.4082 7.39291 49.3032 6.96091C49.1871 6.49064 49.0302 6.04112 48.8364 5.62339C48.5654 5.04025 48.1893 4.44674 47.6875 3.80912C47.2719 3.28177 46.7817 2.7395 46.1885 2.14987C45.9324 1.89625 45.592 1.56739 45.2251 1.2716C45.0656 1.14252 44.897 1.02836 44.7304 0.90901C44.9988 0.92328 45.2659 0.93755 45.5415 0.954415C46.5775 1.01733 47.6136 1.09128 48.6496 1.16523ZM54.3376 6.23701C54.3694 6.24414 54.4025 6.25582 54.4349 6.26425C54.2786 6.23052 54.1243 6.20587 53.9797 6.20069C53.9201 6.19874 53.8585 6.20133 53.7969 6.20328C53.7548 6.1449 53.7087 6.08328 53.6646 6.02296C53.6835 6.0476 53.699 6.06641 53.7178 6.09171C53.7476 6.13128 53.793 6.14879 53.8384 6.15204L53.8378 6.15658C54.005 6.17798 54.173 6.19939 54.3376 6.23701ZM56.9259 7.21972C56.9369 7.23269 56.9473 7.24631 56.9583 7.25993C56.8234 7.28069 56.686 7.29042 56.5498 7.3008L56.3248 7.31766C56.2957 7.28718 56.2704 7.2528 56.2399 7.22491L56.9259 7.21972ZM56.426 8.70188C56.4188 8.73691 56.4046 8.76415 56.3812 8.79139C56.3702 8.78621 56.3579 8.77777 56.3456 8.7648C56.2989 8.7168 56.2717 8.64221 56.2451 8.54426C56.2062 8.40091 56.1913 8.28739 56.1939 8.1661C56.1958 8.08048 56.2075 8.05777 56.2068 8.05777C56.212 8.05323 56.2263 8.04739 56.2419 8.04221C56.2483 8.04739 56.2561 8.05193 56.271 8.07269C56.297 8.10966 56.3138 8.14923 56.3313 8.1888C56.3611 8.25756 56.3903 8.32761 56.4104 8.4022C56.4396 8.50923 56.4454 8.61237 56.426 8.70188ZM55.1461 6.86231C55.3575 6.97258 55.5727 7.11334 55.825 7.30404C55.954 7.40199 56.0882 7.50902 56.1822 7.63745C56.1984 7.66015 56.2068 7.68285 56.2211 7.70685C56.1206 7.70491 56.0214 7.69842 55.9222 7.69323C55.8451 7.68869 55.7679 7.68415 55.6907 7.68091C55.5248 7.67377 55.3568 7.67572 55.1909 7.67637L54.6774 7.67702C54.6521 7.67702 54.6339 7.69323 54.6125 7.70361C54.5646 7.58231 54.5205 7.45648 54.468 7.34102C54.3539 7.09323 54.2274 6.85518 54.0906 6.63334C54.0699 6.59961 54.0433 6.56458 54.0219 6.5315C54.149 6.53929 54.2799 6.55421 54.4174 6.58664C54.6612 6.64437 54.9069 6.73777 55.1461 6.86231ZM55.1915 8.00134C55.3536 8.00134 55.5163 7.99939 55.6771 8.00588C55.7472 8.00848 55.8172 8.01237 55.8872 8.01691C55.8775 8.06556 55.871 8.11421 55.8697 8.15831C55.8665 8.31139 55.8859 8.45604 55.9326 8.62858C55.9507 8.69475 55.9728 8.76156 56.0033 8.82577C55.9767 8.82772 55.9501 8.82837 55.9235 8.83096L55.7815 8.84134C55.5053 8.86145 55.2265 8.87442 54.9477 8.88804C54.9276 8.75766 54.9075 8.62729 54.8784 8.49885C54.8459 8.3555 54.8019 8.20502 54.7396 8.02534C54.737 8.01756 54.7331 8.01042 54.7305 8.00264L55.1915 8.00134ZM55.8042 9.16437L55.9475 9.15334C56.0927 9.14231 56.238 9.13129 56.3929 9.1261C56.4026 9.1261 56.4487 9.12091 56.4578 9.11896C56.507 9.10793 56.5511 9.07939 56.5926 9.04307C56.6023 9.20912 56.6069 9.37712 56.6082 9.54772C56.6108 9.91096 56.6075 10.2963 56.5433 10.666C56.5271 10.76 56.5018 10.8619 56.4785 10.9618C56.3307 10.9287 56.1816 10.8911 56.0402 10.8333C55.8736 10.7652 55.7277 10.677 55.6058 10.5719C55.456 10.4409 55.327 10.2671 55.235 10.0686C55.1338 9.85388 55.0794 9.61712 55.0346 9.39399C55.023 9.33302 55.0132 9.27075 55.0022 9.20977C55.27 9.19615 55.5384 9.18383 55.8042 9.16437ZM42.926 17.4606C42.2822 17.4638 41.6559 17.4645 41.0769 17.4586C41.0763 17.4586 41.0763 17.4593 41.0756 17.4593C41.075 17.4593 41.075 17.4586 41.075 17.4586C38.5665 17.4677 36.3342 17.4677 34.4417 17.4586H34.4404C34.2575 17.4593 34.0656 17.4599 33.8711 17.4606C33.8407 17.1739 33.8095 16.8878 33.7868 16.6011C33.7492 16.1438 33.7304 15.7183 33.7252 15.3019C33.8938 15.2993 34.0624 15.296 34.2316 15.2934L34.6757 15.287C36.5916 15.2597 38.5782 15.2325 40.5226 15.2442L41.2922 15.25C42.0864 15.2571 42.9066 15.2636 43.7183 15.2493L43.7176 15.25C43.3747 15.813 43.1212 16.461 42.9844 17.1239C42.9597 17.2362 42.9435 17.3484 42.926 17.4606ZM27.5069 17.4872C27.5063 17.4872 27.5063 17.4872 27.5056 17.4872C24.791 17.5183 22.4822 17.5456 20.5812 17.5709C20.292 17.5741 19.9465 17.5773 19.5724 17.5793L19.5691 17.5585C19.5062 17.1259 19.4725 16.6783 19.4375 16.2171L19.4252 16.0614C19.4129 15.8973 19.4012 15.7293 19.3889 15.5639C20.0385 15.5536 20.6882 15.5445 21.3372 15.5328C22.56 15.5101 23.7821 15.4842 25.0049 15.4576C26.0533 15.4349 27.1017 15.4128 28.1501 15.392C29.9 15.359 31.6492 15.333 33.3991 15.3077C33.405 15.7313 33.4238 16.1639 33.462 16.6284C33.4841 16.906 33.5139 17.1843 33.5437 17.4619C31.9189 17.4684 29.909 17.4768 27.5069 17.4872ZM17.3038 15.2727C17.3031 15.2727 17.3025 15.2733 17.3018 15.2733C17.3012 15.2733 17.3006 15.2727 17.2999 15.2727L17.1456 15.2779C17.0872 15.2805 17.0406 15.2792 17.003 15.2688C16.9835 15.2636 16.9628 15.2545 16.942 15.2409C16.918 15.2253 16.8953 15.2039 16.8791 15.1838C16.8545 15.1527 16.8363 15.1138 16.813 15.0638L16.7611 14.9587C16.8292 14.9594 16.8966 14.9594 16.9634 14.9587C17.0762 14.9574 17.1903 14.9516 17.3038 14.9458C17.9307 14.9367 18.5 14.9276 19.0174 14.9198C19.0245 15.0288 19.0329 15.1358 19.0407 15.2442C18.4624 15.2539 17.8834 15.2643 17.3038 15.2727ZM19.3429 14.9153C20.1494 14.9023 20.814 14.8913 21.3268 14.8822C22.1347 14.8673 23.3458 14.842 24.9615 14.8076C26.3736 14.7771 27.433 14.7551 28.139 14.7414C29.3871 14.7174 31.1455 14.6889 33.4076 14.6558C33.405 14.7648 33.4004 14.8744 33.3998 14.9834C31.6486 15.0087 29.8967 15.034 28.1455 15.0677C27.0971 15.0878 26.0481 15.1105 24.9997 15.1332C23.7776 15.1598 22.5548 15.1864 21.3333 15.2085C20.6778 15.2208 20.0223 15.2299 19.3668 15.2403C19.3591 15.1313 19.35 15.0243 19.3429 14.9153ZM19.3318 10.4279C19.3519 10.0439 19.3772 9.66058 19.4032 9.27983C19.6126 9.27269 19.822 9.26556 20.0308 9.25712C20.7673 9.22729 21.5032 9.18966 22.2397 9.15075L23.0599 9.10858C23.965 9.06318 24.8701 9.02361 25.7752 8.98339C26.6057 8.94642 27.4362 8.9101 28.2661 8.86923C29.721 8.79788 31.1753 8.7142 32.6295 8.63053C33.0704 8.60523 33.5113 8.58318 33.9522 8.55853C33.8355 9.09366 33.7311 9.59312 33.6578 10.0997C33.5165 11.0707 33.4847 12.0697 33.4549 13.0355L33.4465 13.2813C31.9922 13.2943 30.5354 13.3073 29.1304 13.3203L28.8464 13.3229C25.9911 13.3488 23.2939 13.3734 20.4567 13.3624L20.2726 13.3618C19.9413 13.3605 19.6074 13.3605 19.2741 13.3624C19.2547 12.488 19.2722 11.5488 19.3318 10.4279ZM32.8668 7.88783L32.5874 7.90404C30.6514 8.01496 29.1985 8.09475 28.2305 8.1421C27.6794 8.16934 26.8521 8.20761 25.7486 8.25626C24.6042 8.30685 23.74 8.34707 23.1364 8.37691C23.1591 8.37172 23.1792 8.36912 23.2044 8.35939C23.2887 8.32631 23.362 8.26469 23.4106 8.18621C23.4644 8.09994 23.4793 8.00393 23.4878 7.9222C23.491 7.88848 23.4936 7.8541 23.4956 7.81972C23.5059 7.60696 23.4865 7.40718 23.4664 7.19572C23.4573 7.10426 23.4482 7.01085 23.4404 6.89864C23.4333 6.78383 23.4249 6.65345 23.3464 6.53929C23.279 6.44069 23.1642 6.36544 23.0398 6.3382C22.9697 6.32263 22.9062 6.32587 22.8459 6.32912L22.901 5.93214L22.9646 5.87701C23.314 5.58187 23.692 5.3062 24.0583 5.0396L24.448 4.75485C24.8798 4.43831 25.3258 4.11074 25.7777 3.81236C26.2108 3.52696 26.6627 3.25906 27.1211 3.01712C27.5069 2.81279 27.8641 2.64479 28.213 2.50209C28.6441 2.32631 29.0675 2.18814 29.4727 2.09214C29.8111 2.01171 30.1736 1.95139 30.5794 1.90793C30.9451 1.86836 31.3127 1.84631 31.7179 1.82231L31.8664 1.81323C32.376 1.78209 32.8856 1.75096 33.3952 1.72825C33.7739 1.71139 34.1525 1.70036 34.5311 1.68933C34.172 2.94771 33.7972 4.27615 33.4426 5.62144C33.2442 6.37582 33.0542 7.1315 32.8668 7.88783ZM22.5509 6.6755C22.6294 6.66123 22.7097 6.65734 22.7908 6.6528L22.7869 6.58145C22.7927 6.57302 22.7979 6.56393 22.8018 6.5542L22.8316 6.65085C22.8855 6.64826 22.9315 6.64566 22.9697 6.65475C23.0145 6.66448 23.0579 6.69172 23.0793 6.72221C23.1072 6.76242 23.1117 6.83896 23.1182 6.93691C23.1247 7.0355 23.1338 7.1315 23.1435 7.22685C23.1629 7.42664 23.1811 7.61539 23.172 7.80415C23.1707 7.83269 23.1688 7.86123 23.1655 7.89042C23.161 7.93583 23.1539 7.98577 23.1357 8.01561C23.124 8.03442 23.1059 8.04999 23.0871 8.05712C23.0735 8.06231 23.0547 8.0662 23.0391 8.0688C22.8809 8.09539 22.7143 8.08307 22.5373 8.07075L22.4789 8.06685C22.4413 8.06426 22.4037 8.06296 22.3661 8.06037C22.3655 8.06037 22.3655 8.05972 22.3648 8.05972C22.3642 8.05972 22.3642 8.06037 22.3635 8.06037C22.2955 8.05648 22.228 8.05258 22.1599 8.04869L21.9862 8.03961C21.9026 8.03507 21.8163 8.02988 21.7469 8.00329C21.7113 7.98966 21.6782 7.96891 21.6549 7.94556C21.5991 7.88977 21.5699 7.79183 21.5505 7.71334C21.5272 7.61799 21.5181 7.54534 21.5213 7.47723C21.5265 7.36566 21.5641 7.25993 21.6225 7.19442C21.6542 7.1581 21.6931 7.12956 21.732 7.09972C21.7833 7.06015 21.8416 7.01604 21.8922 6.95831C21.9324 6.91226 22.0063 6.88048 22.1022 6.83961L22.1742 6.80848C22.3039 6.75269 22.4271 6.69885 22.5509 6.6755ZM22.4997 8.39312L22.5146 8.39442C22.5632 8.39766 22.6131 8.39831 22.6624 8.40091L22.4984 8.40934L22.4997 8.39312ZM34.7607 1.36566C34.7691 1.36566 34.7788 1.36501 34.7872 1.36501C34.7795 1.36306 34.773 1.36825 34.7652 1.3676C34.7633 1.36696 34.7626 1.36566 34.7607 1.36566ZM22.5885 5.82642L22.5152 6.35441C22.5075 6.35571 22.499 6.35506 22.4906 6.35701C22.3305 6.38685 22.1846 6.45041 22.0439 6.51139L21.9577 6.54837C21.8533 6.59248 21.7353 6.64307 21.6465 6.74556C21.6179 6.77864 21.5777 6.80912 21.5349 6.84221C21.4798 6.88437 21.4254 6.92783 21.3793 6.97907C21.2724 7.10037 21.2062 7.27615 21.1978 7.46231C21.1939 7.56221 21.2056 7.66339 21.236 7.78988C21.2652 7.90988 21.3138 8.06231 21.4267 8.17518C21.4824 8.23031 21.5524 8.27507 21.6296 8.30556C21.7469 8.35096 21.8695 8.3581 21.968 8.36329L22.1437 8.37237C22.1541 8.37302 22.1651 8.37366 22.1755 8.37431L22.1593 8.56696C22.1586 8.5715 22.1632 8.5741 22.1625 8.57799C22.1625 8.58188 22.1586 8.58448 22.1586 8.58902C22.1599 8.60977 22.1749 8.62339 22.1826 8.64091C22.1904 8.65842 22.1924 8.67594 22.2053 8.68956C22.2215 8.70707 22.2442 8.71226 22.2663 8.72134C22.2812 8.72718 22.2909 8.7408 22.3071 8.7421C22.3117 8.7421 22.3162 8.74275 22.3207 8.74275C22.3233 8.74275 22.3259 8.74275 22.3292 8.74275L23.0398 8.70642C23.6447 8.67594 24.5524 8.63442 25.7622 8.58058C26.8663 8.53193 27.6943 8.49366 28.2454 8.46642C29.214 8.41907 30.6676 8.33929 32.6049 8.22837L33.003 8.20566C33.0114 8.20502 33.0159 8.19723 33.0237 8.19529C33.0536 8.1888 33.0801 8.17842 33.1015 8.15766C33.1126 8.14729 33.1171 8.13496 33.1249 8.12199C33.1333 8.10837 33.1463 8.09864 33.1502 8.08242C33.3473 7.28848 33.5469 6.49583 33.7557 5.70447C34.1285 4.28717 34.5266 2.8822 34.9027 1.56479C34.9052 1.55571 34.8988 1.54858 34.9001 1.5395C34.9014 1.53042 34.9098 1.52458 34.9091 1.5155C34.9085 1.49993 34.8968 1.49085 34.8929 1.47723C34.8877 1.45842 34.8832 1.4435 34.8715 1.42793C34.8605 1.41431 34.8456 1.40393 34.8287 1.3942C34.8151 1.38512 34.808 1.36955 34.7918 1.36501C35.0615 1.35723 35.3422 1.35139 35.6275 1.3462C35.3623 2.43204 35.0965 3.51723 34.8424 4.60501C34.5713 5.76544 34.3023 6.95442 34.0228 8.23031C33.5521 8.25691 33.0814 8.28026 32.6114 8.3075C31.1578 8.39118 29.7048 8.4742 28.2506 8.5462C27.4207 8.58642 26.5908 8.62339 25.7615 8.66037C24.8558 8.70058 23.95 8.7408 23.0443 8.7862L22.4167 8.81799C22.3966 8.80891 22.3746 8.80437 22.3512 8.80437C22.3499 8.80437 22.3486 8.80437 22.3473 8.80437C21.9616 8.8141 21.5635 8.82318 21.1213 8.80437C20.8652 8.79334 20.6046 8.77129 20.4755 8.63377C20.4062 8.55983 20.3595 8.43658 20.3536 8.31204C20.3478 8.19399 20.3789 8.06556 20.4496 7.90729C20.6545 7.45583 21.0338 7.10361 21.4053 6.78188C21.793 6.44587 22.1924 6.13128 22.5911 5.82382C22.5905 5.82512 22.5892 5.82512 22.5885 5.82642ZM45.7651 5.93409C45.7651 5.93539 45.7658 5.93604 45.7658 5.93733C45.7658 5.93798 45.7645 5.93863 45.7645 5.93928L45.5239 7.17561C45.2088 7.19831 44.895 7.22491 44.5819 7.25215C44.3232 7.27485 44.0645 7.29691 43.8052 7.31766C42.8949 7.38772 41.9567 7.42793 41.0503 7.4675C40.577 7.48761 40.1031 7.50837 39.6311 7.53302C39.0644 7.56221 38.4991 7.59788 37.9337 7.63291L37.1868 7.67896C36.7602 7.70426 36.3336 7.72826 35.9076 7.75161L36.508 4.42987L37.0104 1.64393C37.3995 1.63939 37.7878 1.63874 38.1762 1.64198C38.831 1.64652 39.4865 1.65431 40.1407 1.66923C40.9025 1.68674 41.5774 1.71333 42.2037 1.75031C42.4877 1.76652 42.8171 1.78793 43.14 1.83398C43.2768 1.85344 43.4363 1.88004 43.5802 1.93128C43.6969 1.97279 43.811 2.03312 43.9212 2.11031C44.06 2.2076 44.1812 2.32631 44.2824 2.42944C44.5015 2.65387 44.7038 2.89128 44.9268 3.15658C45.1842 3.46339 45.4578 3.7916 45.7113 4.13474C45.8332 4.30014 45.9486 4.47009 46.0588 4.64328L45.7651 5.93409ZM43.9005 1.73604C43.9309 1.75031 43.966 1.76328 43.9938 1.7795C44.0036 1.78533 44.0113 1.79312 44.0211 1.7996C43.9815 1.77431 43.9407 1.75679 43.9005 1.73604ZM36.8289 1.33712C36.8075 1.3436 36.7887 1.3475 36.7725 1.36177C36.7569 1.37539 36.7505 1.3929 36.7407 1.41106C36.7329 1.42598 36.7174 1.43442 36.7148 1.45193L36.1883 4.37085L35.5517 7.89496C35.5504 7.9021 35.5562 7.90729 35.5555 7.91377C35.5549 7.92091 35.5484 7.92545 35.5491 7.93258C35.5504 7.94945 35.5633 7.96048 35.5692 7.97539C35.5756 7.9942 35.5795 8.01042 35.5925 8.02534C35.6068 8.04221 35.6249 8.04934 35.6457 8.05972C35.6593 8.0662 35.6671 8.08048 35.6826 8.08307C35.693 8.08437 35.7021 8.08566 35.7118 8.08566C35.715 8.08566 35.7176 8.08566 35.7209 8.08566C36.2156 8.05842 36.7109 8.03118 37.2062 8.00134L37.9531 7.95529C38.5172 7.92026 39.0813 7.88523 39.6466 7.85539C40.1186 7.83075 40.5913 7.81064 41.0639 7.78988C41.9736 7.75031 42.9137 7.7101 43.8305 7.63939C44.0904 7.61929 44.3504 7.59723 44.6104 7.57388C44.9625 7.54339 45.3152 7.51226 45.6711 7.48826C45.6821 7.48761 45.688 7.47788 45.6977 7.47529C45.7249 7.46815 45.7496 7.45907 45.7697 7.43961C45.7813 7.42858 45.7852 7.41496 45.793 7.40134C45.8014 7.38642 45.8157 7.37604 45.8189 7.35788L46.0822 6.00609L46.0828 6.00544L46.3921 4.64523C46.4012 4.60566 46.3908 4.56739 46.3733 4.53366C46.3733 4.53301 46.3733 4.53301 46.3733 4.53236C46.3992 4.56804 46.4245 4.60436 46.4504 4.64069L46.1386 6.01193C46.1386 6.01323 46.1392 6.01387 46.1392 6.01517C46.1392 6.01582 46.1379 6.01647 46.1379 6.01712L45.839 7.55507C45.2601 7.59075 44.6811 7.63291 44.1034 7.67572C43.6664 7.70815 43.2301 7.74058 42.7931 7.76977C41.4017 7.86383 39.9831 7.92869 38.6119 7.99096C38.0867 8.01496 37.5615 8.03896 37.0364 8.06491C36.1442 8.10837 35.2528 8.16091 34.3606 8.21085C34.6336 6.96999 34.8955 5.8089 35.1594 4.67766C35.42 3.56393 35.6923 2.4515 35.9647 1.33906C36.2512 1.33517 36.5456 1.33517 36.8367 1.33452C36.8328 1.33517 36.8315 1.33647 36.8289 1.33712ZM47.1273 5.68436C47.2602 5.9289 47.4184 6.25452 47.4599 6.6035C47.4781 6.76177 47.4696 6.88826 47.432 6.9901C47.3893 7.10685 47.2965 7.21972 47.1792 7.2995C47.0735 7.37085 46.9432 7.42015 46.7565 7.45972C46.571 7.49929 46.3778 7.5168 46.1723 7.53172L46.4537 6.08523L46.4543 6.08458L46.7014 4.99614C46.8531 5.21928 46.9976 5.44631 47.1273 5.68436ZM20.2707 13.6854L20.4548 13.6861C23.2952 13.6978 25.993 13.6725 28.849 13.6465L29.133 13.6439C30.5334 13.631 31.9857 13.618 33.4348 13.605L33.4264 13.8476C33.4205 14.0091 33.4199 14.1693 33.4147 14.3309C31.1461 14.3639 29.3826 14.3931 28.1326 14.4165C27.4259 14.4301 26.3665 14.4522 24.9543 14.4826C23.3393 14.5177 22.1282 14.5423 21.321 14.5572C20.8062 14.567 20.1377 14.578 19.326 14.591C19.3078 14.2887 19.2897 13.9858 19.28 13.6854C19.61 13.6842 19.9413 13.6842 20.2707 13.6854ZM43.951 14.9211L43.7578 14.9257C42.9364 14.9412 42.1007 14.9341 41.2928 14.927L40.5232 14.9211C38.5723 14.9088 36.5884 14.9367 34.6699 14.9639L34.2251 14.9704C34.0578 14.973 33.8906 14.9763 33.7233 14.9782C33.7239 14.8692 33.7285 14.7603 33.7311 14.6513C34.006 14.6474 34.2835 14.6435 34.5733 14.639C37.179 14.6013 39.1805 14.5864 40.5245 14.5942L41.2889 14.6007C42.4106 14.6098 43.2171 14.6091 43.7514 14.5994L44.1579 14.5903H44.1864C44.1008 14.698 44.0289 14.8109 43.951 14.9211ZM44.4386 14.2887C44.3939 14.2705 44.3504 14.2634 44.3251 14.266L44.1553 14.2653C44.154 14.2653 44.1527 14.2653 44.152 14.2653L43.7449 14.2744C43.2139 14.2842 42.4125 14.2848 41.2915 14.2757L40.5265 14.2692C39.1857 14.2621 37.1771 14.277 34.5688 14.314C34.2835 14.3179 34.0105 14.3218 33.7395 14.3257C33.7447 14.17 33.7447 14.0156 33.7505 13.8593L33.759 13.6018C35.6534 13.5856 37.5363 13.5706 39.2855 13.5596L44.4957 13.5304C44.5138 13.5304 44.5261 13.5162 44.5423 13.511C44.565 13.5032 44.5903 13.5019 44.6085 13.4837C45.2212 12.8785 45.9097 12.4225 46.6566 12.1099C46.573 12.1812 46.4919 12.2578 46.4083 12.3278C46.2391 12.4692 46.0705 12.6113 45.9065 12.7572C45.5946 13.0368 45.2795 13.352 44.8853 13.7782C44.7206 13.9572 44.5819 14.122 44.4386 14.2887ZM35.7066 1.01928C34.9279 1.03225 34.2076 1.05431 33.521 1.08869C32.6989 1.1289 31.8502 1.18858 30.9263 1.26966C30.396 1.31636 29.9181 1.36436 29.4377 1.48112C29.2607 1.52393 29.0856 1.57647 28.9112 1.6316C28.5378 1.74966 28.1955 1.87225 27.8654 2.00523C27.3902 2.19658 26.9227 2.41906 26.478 2.6662C25.9055 2.98274 25.309 3.37128 24.5997 3.8889C24.2061 4.17625 23.8191 4.47269 23.4333 4.76847L22.9101 5.16804C22.3421 5.60069 21.7547 6.04825 21.1926 6.53604C20.7945 6.88177 20.3861 7.26188 20.1539 7.77237C20.0606 7.97929 20.021 8.15572 20.0295 8.32696C20.0392 8.53064 20.1157 8.72264 20.2389 8.85431C20.2616 8.87831 20.2856 8.90037 20.3102 8.92048C20.2129 8.92437 20.1157 8.92891 20.0184 8.9328C19.8213 8.94058 19.6242 8.94707 19.4271 8.95421C19.4836 8.17972 19.5464 7.42858 19.6067 6.74361C20.1157 6.39269 20.6246 6.04177 21.1317 5.6876L21.7314 5.26728C22.6631 4.61214 23.6259 3.93496 24.6062 3.32977C25.3609 2.86339 26.1233 2.44047 26.7691 2.08825C27.0874 1.91441 27.4479 1.71787 27.8214 1.58231C28.139 1.4675 28.4729 1.39355 28.7867 1.33128C29.7444 1.14058 30.7759 1.00501 32.035 0.903821C32.99 0.82728 33.971 0.778631 35.0356 0.753983C35.2813 0.748145 35.527 0.750091 35.7727 0.746848C35.75 0.837658 35.7286 0.928469 35.7066 1.01928ZM43.7844 17.7791C43.7844 17.7797 43.7844 17.7797 43.7844 17.7791C43.5821 17.7817 43.3773 17.7836 43.1633 17.7849C43.3675 17.7836 43.5756 17.7817 43.7844 17.7791ZM43.8402 17.4541C43.6398 17.4567 43.4505 17.4567 43.2554 17.4586C43.2696 17.3691 43.2819 17.2796 43.3007 17.1907C43.4291 16.5642 43.669 15.9518 43.9932 15.4199C44.2888 14.9341 44.659 14.5014 45.1233 14.0007C45.5103 13.5817 45.8183 13.2736 46.123 13.0011C46.2845 12.8565 46.4504 12.717 46.6171 12.5782C46.8563 12.3771 47.1046 12.1696 47.3354 11.9471C47.3659 11.9179 47.3925 11.8835 47.423 11.853C48.5427 11.5501 49.7227 11.5436 50.9377 11.8517C51.5549 12.0256 52.0723 12.2766 52.4898 12.5951C52.3355 12.6003 52.1812 12.6009 52.0256 12.6132C51.8519 12.6269 51.6684 12.6476 51.4959 12.7125C51.3604 12.7637 51.2243 12.8448 51.092 12.9538C51.046 12.9907 51.0045 13.0323 50.9617 13.0725C50.8359 13.0245 50.7095 12.9771 50.5785 12.9382C49.5684 12.6366 48.496 12.6256 47.5585 12.9064C46.7467 13.1497 45.9959 13.6154 45.3865 14.2537C44.8737 14.7914 44.4542 15.4705 44.1741 16.2171C44.034 16.5927 43.9251 17.0052 43.8402 17.4541ZM57.5094 8.03702C57.6267 8.28545 57.6786 8.56761 57.7136 8.81021C57.7635 9.15788 57.7888 9.51593 57.7882 9.87464C57.7875 10.1925 57.7681 10.4526 57.7266 10.6919L57.713 10.7704C57.6948 10.8703 57.6767 10.9709 57.6728 11.0727C57.6715 11.1136 57.6721 11.1544 57.6728 11.1953C57.6741 11.2867 57.6734 11.3776 57.6728 11.469L57.6734 11.7693C57.6754 11.9354 57.6767 12.0924 57.652 12.2429C57.6384 12.3233 57.6131 12.4018 57.5898 12.4809L56.7184 12.4952C56.7268 12.3933 56.7372 12.2909 56.7404 12.1884C56.743 12.0924 56.7424 11.9951 56.7411 11.8984L56.7404 11.7051C56.7417 11.5352 56.7521 11.3659 56.7618 11.1959L56.7631 11.1726C56.7631 11.1719 56.7638 11.1713 56.7644 11.1706C56.8007 11.0214 56.8357 10.8716 56.8617 10.7205C56.9304 10.3248 56.9336 9.92264 56.931 9.54512C56.9285 9.16112 56.9181 8.75312 56.8267 8.36199C56.7767 8.15053 56.7022 7.93777 56.6036 7.72956C56.5887 7.69842 56.5699 7.66145 56.5511 7.62512L56.5732 7.62318C56.7197 7.61215 56.8649 7.60112 57.0089 7.57907C57.0698 7.56999 57.1301 7.55637 57.1904 7.54339C57.2001 7.55572 57.2105 7.56739 57.2202 7.57972C57.3557 7.7581 57.4452 7.89885 57.5094 8.03702ZM52.4937 2.70447C53.0811 3.18706 53.7081 3.71052 54.3072 4.27031C54.9464 4.86577 55.5397 5.48782 56.1427 6.12544C56.2749 6.2649 56.4247 6.42252 56.5472 6.59118C56.59 6.65021 56.6309 6.71118 56.6711 6.77215L56.7327 6.86491C56.7404 6.87593 56.7437 6.88566 56.7508 6.89669L56.2166 6.90058C56.0674 6.76826 55.9151 6.63269 55.7478 6.51399C55.5533 6.37647 55.329 6.25258 55.0813 6.14425C54.8498 6.04371 54.6236 5.96847 54.4083 5.92047C54.2521 5.88544 54.0932 5.86469 53.935 5.84393C53.6685 5.49366 53.4332 5.20112 53.2393 4.98252C52.9132 4.57517 52.5015 4.10425 52.0146 3.58598C51.4661 3.0009 50.9027 2.43204 50.3393 1.89431C50.1428 1.70685 49.925 1.51874 49.6993 1.33063C49.759 1.32739 49.818 1.32285 49.8776 1.3209C50.0443 1.31571 50.2102 1.31701 50.3769 1.31766C50.7244 1.49344 51.081 1.67636 51.4116 1.88847C51.7825 2.12587 52.1352 2.40998 52.4937 2.70447ZM50.0728 0.905766C50.1571 0.915496 50.2407 0.925226 50.3406 0.944685C50.3243 0.956361 50.3101 0.97582 50.2945 0.993334C50.1519 0.992685 50.0092 0.992037 49.8679 0.995929C49.6656 1.00177 49.4646 1.01604 49.263 1.02966C49.2617 1.02966 49.2604 1.0316 49.2591 1.0316C49.2358 1.03355 49.2183 1.05042 49.1975 1.06209C49.1813 1.07182 49.1625 1.07442 49.1502 1.08933C49.1489 1.09063 49.1469 1.09063 49.1456 1.09193C49.1314 1.11009 49.134 1.13279 49.1288 1.15355C49.1275 1.15744 49.1255 1.16069 49.1249 1.16458C49.0536 1.09906 48.9836 1.0329 48.9122 0.967388C48.9246 0.936253 48.9362 0.903172 48.9414 0.86555C48.944 0.845442 48.9375 0.820793 48.9369 0.798091C49.134 0.81301 49.3311 0.827929 49.5288 0.846739C49.7117 0.864253 49.8938 0.884361 50.0728 0.905766ZM27.1711 1.01993C27.7675 0.92328 28.3848 0.823388 28.9988 0.742956C29.5058 0.676145 30.0433 0.61971 30.5963 0.573656C31.3568 0.510089 32.1102 0.468575 33.0082 0.425765C33.9016 0.383602 34.8625 0.342738 35.8356 0.330413C36.9677 0.315494 38.1185 0.338198 39.233 0.360252L40.4551 0.382955C40.9297 0.390739 41.405 0.39917 41.8789 0.411494C43.3429 0.450413 44.803 0.530197 45.9117 0.596359C46.807 0.64955 47.7024 0.709226 48.5965 0.774091C48.5997 0.774739 48.5997 0.774091 48.6023 0.774739C48.6069 0.774739 48.6108 0.775388 48.6153 0.775388C48.6185 0.781226 48.6231 0.800685 48.6205 0.822739C48.6198 0.826631 48.6146 0.833766 48.6133 0.838307C47.5954 0.765658 46.5782 0.69301 45.5596 0.631387C43.9335 0.534089 42.4391 0.470521 40.99 0.438738C39.6797 0.410197 38.4018 0.406956 37.3301 0.408253C36.9041 0.408902 36.4788 0.416035 36.0535 0.419927C36.0418 0.414089 36.0366 0.401117 36.0237 0.397873C35.9796 0.386198 35.9348 0.397224 35.8985 0.421224C35.6081 0.424467 35.3176 0.422521 35.0271 0.429656C33.9567 0.454305 32.9693 0.503604 32.0091 0.580793C30.737 0.681983 29.6931 0.819496 28.7232 1.01344C28.4029 1.07701 28.0619 1.15355 27.7299 1.27225C27.7286 1.26901 27.7247 1.26836 27.7235 1.26512C27.7144 1.24631 27.6982 1.23658 27.682 1.22231C27.6651 1.20739 27.6528 1.19182 27.632 1.18533C27.6275 1.18404 27.6262 1.17885 27.6217 1.17755C27.5004 1.14642 27.3792 1.11917 27.256 1.10166C27.125 1.08285 26.9915 1.07831 26.8586 1.07312C26.959 1.05496 27.0615 1.03744 27.1711 1.01993ZM17.3297 6.40825C17.4756 6.30058 17.6163 6.19679 17.7596 6.09431C18.5895 5.49885 19.4887 4.9449 20.3374 4.43441C22.1515 3.34404 23.7951 2.42166 25.3615 1.61604C25.5346 1.52717 25.7129 1.43571 25.8957 1.39809C25.956 1.38512 26.0176 1.37863 26.0799 1.37474C26.2342 1.36566 26.3898 1.37344 26.5525 1.38187L26.7957 1.3929C26.8748 1.39614 26.9526 1.40393 27.031 1.40977C26.8851 1.48306 26.725 1.56674 26.5447 1.66533C25.6617 2.11485 24.9174 2.5235 24.3339 2.87896C24.3332 2.8796 24.3332 2.88025 24.3326 2.8809C24.3319 2.88155 24.3306 2.8809 24.33 2.88155C23.6732 3.30641 22.7707 3.9142 21.6465 4.68869C21.2075 4.99031 20.7751 5.28998 20.3504 5.58771C20.3485 5.58901 20.3485 5.59225 20.3465 5.59355C20.3446 5.59485 20.342 5.5942 20.34 5.5955C20.2713 5.65193 19.8116 5.94901 18.0364 7.03031L17.5184 7.02902C17.1456 7.02577 16.8104 7.01864 16.5031 7.00437L16.5355 6.98166C16.8344 6.77345 17.0885 6.58599 17.3297 6.40825ZM15.7335 7.52977C15.9312 7.53496 16.2321 7.54404 16.7067 7.56026C16.2839 7.67766 15.8515 7.78469 15.432 7.87745C15.0313 7.96631 14.6313 8.05129 14.2313 8.13626C13.9291 8.20048 13.6263 8.26469 13.3242 8.3302C12.4969 8.51053 11.5976 8.71875 10.5758 8.96653C9.87563 9.13647 9.12808 9.32329 8.40128 9.53475C7.69328 9.74037 7.0151 9.96739 6.38429 10.21C5.79493 10.4364 5.32682 10.6459 4.91058 10.8703C4.48267 11.1006 4.13386 11.3354 3.84404 11.5877C3.72864 11.6889 3.6262 11.7966 3.527 11.9049C3.47643 11.9049 3.42586 11.9023 3.37529 11.903L3.2119 11.9069C3.13086 11.9088 3.04981 11.9114 2.92922 11.9127C2.88967 11.9133 2.84947 11.9153 2.80928 11.9166C2.90004 11.7979 2.98952 11.685 3.09325 11.5903C3.21579 11.4774 3.36426 11.3834 3.49458 11.3036C3.86414 11.0779 4.25834 10.8716 4.69922 10.6731C5.1602 10.4662 5.67175 10.2684 6.2624 10.0692C6.65462 9.93756 7.08836 9.80264 7.62714 9.64502C8.2917 9.45042 8.94006 9.27204 9.55599 9.11377C10.2316 8.93993 10.9752 8.76221 11.8972 8.55334C12.3925 8.44177 12.8892 8.33215 13.3865 8.22707L13.6309 8.17583C13.9155 8.11615 14.2001 8.05648 14.4828 7.99226C14.724 7.93777 14.9639 7.87939 15.2044 7.82102L15.2569 7.80804C15.3438 7.78664 15.397 7.69907 15.3762 7.61215C15.3672 7.57453 15.3419 7.54729 15.3134 7.52588C15.3808 7.52329 15.4586 7.52264 15.7335 7.52977ZM7.37494 9.3635C7.90464 9.19615 8.43758 9.03918 8.97183 8.88675C9.51514 8.73172 10.0604 8.58253 10.6063 8.43853C11.2223 8.27637 11.8401 8.12199 12.4606 7.97669C12.858 7.88329 13.2561 7.79377 13.6542 7.70426L14.3713 7.5421C14.4089 7.53366 14.4459 7.52458 14.4893 7.52134L14.5314 7.51939C14.5976 7.51875 14.652 7.51939 14.7279 7.52264C14.829 7.52588 14.9386 7.52393 15.0456 7.52393C14.8342 7.57518 14.6229 7.62642 14.4108 7.67507C14.1288 7.73929 13.8461 7.79831 13.5635 7.85734L13.3184 7.90923C12.8191 8.01496 12.3219 8.12458 11.8246 8.2368C10.8994 8.44566 10.1525 8.62469 9.4743 8.79918C8.85512 8.95875 8.20288 9.13777 7.53508 9.33366C7.23165 9.42253 6.96258 9.50361 6.71362 9.5821C6.92822 9.50945 7.14283 9.43745 7.37494 9.3635ZM1.75635 12.4193C1.76413 12.3862 1.77062 12.3531 1.78099 12.3213C1.81665 12.2091 1.8964 12.1008 1.96253 12.0197C2.0721 11.8842 2.19788 11.7577 2.347 11.6325C2.47213 11.5274 2.61477 11.423 2.79566 11.3043C3.10233 11.1025 3.43882 10.9125 3.79542 10.7386C3.88748 10.6939 3.97436 10.6602 4.06643 10.6186C3.80774 10.749 3.55877 10.8833 3.32407 11.026C3.18078 11.1136 3.0161 11.218 2.87281 11.3503C2.7224 11.4878 2.60115 11.6493 2.48315 11.8063C2.44555 11.8563 2.45203 11.9159 2.47667 11.9685C2.36515 12.0042 2.25493 12.0599 2.14861 12.1404C2.02736 12.2331 1.93011 12.3389 1.84323 12.442L1.816 12.4394C1.79461 12.4381 1.77321 12.4362 1.75311 12.4349C1.75441 12.4297 1.7557 12.4245 1.75635 12.4193ZM1.22859 14.4282C1.32196 14.399 1.41273 14.3678 1.49896 14.3283C1.5586 14.3017 1.61631 14.2692 1.67401 14.2374H2.08766C2.35932 14.2368 2.63033 14.2362 2.90199 14.2284C2.93441 14.2271 2.96682 14.2251 2.99859 14.2238C2.99924 14.2238 2.99989 14.2245 3.00054 14.2245C3.00119 14.2245 3.00248 14.2238 3.00313 14.2238C3.22098 14.216 3.43882 14.2057 3.65732 14.1933L3.97047 14.1778C4.31086 14.1616 4.66291 14.1434 5.00848 14.1025C5.15177 14.0863 5.29376 14.0643 5.43769 14.039C5.49864 14.0273 5.56801 14.015 5.63739 13.9812C5.71843 13.943 5.78651 13.8839 5.83059 13.8132C5.86366 13.76 5.88052 13.703 5.88959 13.6452C6.18589 13.6258 6.48219 13.6063 6.7791 13.5985C7.30167 13.5836 7.83656 13.5985 8.35265 13.6122L8.72545 13.6219C8.98674 13.6277 9.24802 13.6303 9.50866 13.6342C9.06 13.9112 8.69109 14.2219 8.42851 14.471C8.35524 14.5404 8.29365 14.6072 8.22622 14.6753C8.18213 14.6604 8.14129 14.6578 8.1173 14.6591L8.11406 14.7888C8.11211 14.7907 8.10952 14.7933 8.10757 14.7953L8.07645 14.6565C8.04792 14.6539 8.0181 14.6526 7.98892 14.6519L7.31788 14.6344C6.73242 14.6189 6.15153 14.6033 5.56866 14.5955C5.18548 14.5903 4.80166 14.589 4.41784 14.5877L3.6275 14.5838C2.819 14.578 1.94956 14.5618 0.973792 14.5332C0.984165 14.5274 0.993242 14.5157 1.00362 14.5105C1.06326 14.48 1.13069 14.4593 1.22859 14.4282ZM7.55777 15.4647L4.63698 15.4044C4.01262 15.3914 3.38696 15.3791 2.76454 15.3596C2.27698 15.3434 1.79007 15.3233 1.29732 15.2986L1.24156 15.296C0.998429 15.2831 0.755297 15.2707 0.499844 15.2643C0.46613 15.2636 0.434361 15.263 0.401943 15.2623C0.402591 15.1449 0.413613 15.0359 0.464185 14.9613C0.490119 14.9231 0.532262 14.8848 0.577646 14.8465L0.900528 14.8556C1.90482 14.8854 2.79501 14.9023 3.62296 14.9082L4.41459 14.912C4.79777 14.9133 5.1803 14.9146 5.56283 14.9198C6.14375 14.9276 6.72334 14.9425 7.30751 14.9587L7.94289 14.9756C7.79831 15.1391 7.67123 15.3019 7.55777 15.4647ZM2.80603 18.5737C2.64135 18.3246 2.55253 18.0359 2.5441 17.7382C2.73796 17.7466 2.93311 17.7531 3.11984 17.768C3.2709 17.7804 3.41873 17.7959 3.57692 17.8128L3.7831 17.8342C3.87387 17.8433 3.9977 17.855 4.03077 17.8952C4.04244 17.9088 4.05606 17.9419 4.06059 17.9925C4.06902 18.0826 4.04114 18.1773 3.98539 18.2532C3.92833 18.3311 3.83497 18.3979 3.70659 18.4524C3.57952 18.5069 3.43364 18.5425 3.26182 18.56C3.09779 18.5776 2.9357 18.5769 2.80603 18.5737ZM1.42569 18.1164C1.42504 18.1164 1.42504 18.1164 1.42569 18.1164C1.4244 18.1164 1.42375 18.117 1.4231 18.117C1.42245 18.117 1.4218 18.1164 1.42115 18.1164C1.36151 18.1157 1.31288 18.0664 1.31353 18.0067C1.31353 17.9776 1.3252 17.9503 1.34595 17.9302C1.36604 17.9107 1.39263 17.8997 1.42115 17.8997C1.42245 17.9004 1.42245 17.8997 1.4231 17.8997L2.22576 17.9082C2.23354 17.9795 2.25104 18.0496 2.26661 18.1196L1.42569 18.1164ZM2.08182 18.8714C2.21668 18.8727 2.35154 18.8792 2.48575 18.8857C2.58041 18.8902 2.67442 18.8947 2.76973 18.898C2.91236 18.9012 3.10233 18.9038 3.29554 18.8844C3.49977 18.8623 3.67612 18.8189 3.83367 18.752C4.01521 18.6749 4.15396 18.5724 4.24602 18.4465C4.34976 18.3051 4.39839 18.1339 4.38282 17.9646C4.37569 17.8874 4.35235 17.7771 4.27974 17.6896C4.16174 17.5462 3.96918 17.5274 3.81292 17.5125L3.61064 17.4917C3.44985 17.4742 3.29943 17.458 3.14512 17.4463C2.90134 17.4262 2.64719 17.4171 2.39303 17.4074C2.39239 17.4074 2.39174 17.4067 2.39109 17.4067C2.39044 17.4067 2.38979 17.4074 2.38914 17.4074C2.35997 17.4061 2.33209 17.4041 2.30291 17.4029L2.05006 17.3925C1.76867 17.3802 1.46784 17.3646 1.17284 17.327C1.02696 17.3088 0.881726 17.2848 0.739089 17.2504C0.67555 17.2355 0.613306 17.2173 0.551064 17.1992C0.503086 16.9326 0.456405 16.6614 0.438251 16.4007C0.427877 16.258 0.425932 16.1166 0.423987 15.9719C0.422042 15.8461 0.419449 15.7183 0.412317 15.5853C0.444734 15.5866 0.473262 15.5892 0.510218 15.5905C0.744275 15.5964 0.984814 15.6087 1.22535 15.621L1.28111 15.6243C1.7758 15.6489 2.26466 15.6684 2.75481 15.6846C3.37853 15.704 4.00484 15.717 4.63244 15.7293L7.35289 15.7858C7.30232 15.8733 7.2498 15.9603 7.20701 16.0485C6.92109 16.6381 6.74474 17.3503 6.65267 18.2889C6.62933 18.5302 6.62479 18.7514 6.61766 18.9758C6.15153 18.9823 5.68536 18.9888 5.2192 18.9856C4.36402 18.981 3.50236 18.9518 2.62061 18.9194L1.75246 18.8863C1.75765 18.8857 1.76284 18.8844 1.76867 18.8844C1.87176 18.872 1.9742 18.8707 2.08182 18.8714ZM4.22917 19.823C4.00419 19.7938 3.78051 19.7607 3.55553 19.7283C3.23524 19.6809 2.91561 19.6336 2.59208 19.5979L2.40211 19.5778C2.13629 19.5499 1.88602 19.5239 1.64095 19.4675C1.51387 19.4383 1.37901 19.4 1.25712 19.319C1.19164 19.2749 1.15274 19.2294 1.12875 19.1873L2.60893 19.2437C3.49329 19.2762 4.35754 19.3053 5.21725 19.3099C5.31062 19.3105 5.40463 19.3105 5.49799 19.3105C5.86561 19.3105 6.23387 19.306 6.6021 19.3008C6.6021 19.3683 6.61183 19.4292 6.61312 19.4954C6.60599 19.5155 6.59173 19.5324 6.59367 19.5551C6.59562 19.5765 6.61053 19.5914 6.61961 19.6096C6.62479 19.7471 6.63063 19.8852 6.64295 20.0176C6.35317 20.0026 6.06335 19.9877 5.77419 19.9696C5.1803 19.9287 4.6895 19.8826 4.22917 19.823ZM11.9893 23.3497C9.52876 23.3497 7.52665 21.3466 7.52665 18.885C7.52665 16.4227 9.52876 14.4197 11.9893 14.4197C14.4497 14.4197 16.4519 16.4227 16.4519 18.885C16.4519 21.3473 14.4497 23.3497 11.9893 23.3497ZM16.7482 19.3929C16.7657 19.2262 16.776 19.0569 16.776 18.885C16.776 16.2444 14.6287 14.0954 11.9893 14.0954C9.34981 14.0954 7.20247 16.2437 7.20247 18.885C7.20247 19.042 7.2109 19.1964 7.22581 19.3494C7.17654 19.3494 7.12791 19.3488 7.07799 19.3507C7.02872 19.3533 6.97879 19.3585 6.92952 19.3631C6.92628 19.0329 6.93924 18.6891 6.97555 18.3194C7.06373 17.4197 7.2297 16.7425 7.49877 16.1892C7.68031 15.8163 7.93122 15.4576 8.27485 15.0852C8.27485 15.0852 8.2755 15.0852 8.2755 15.0846C8.27614 15.0839 8.27679 15.0833 8.27679 15.0826C8.3909 14.9587 8.51539 14.8336 8.65024 14.7058C9.28109 14.1084 9.84062 13.7419 10.4643 13.5174C11.3104 13.2113 12.3822 13.1523 13.33 13.352C13.9985 13.4947 14.5976 13.7678 15.1104 14.1648C15.6706 14.5987 16.1984 15.2357 16.5595 15.9129C16.8668 16.4876 17.0464 17.0675 17.1806 17.9153C17.2422 18.3051 17.296 18.7624 17.2993 19.4351C17.2124 19.4247 17.1255 19.4124 17.038 19.4059C16.942 19.3987 16.8448 19.3968 16.7482 19.3929ZM34.4845 20.0189C32.1206 20.002 29.7405 20.0091 27.5186 20.0189C25.6319 20.0273 23.1422 20.0403 20.6071 20.072C19.6087 20.0837 18.6096 20.0993 17.6111 20.1142C17.6429 19.2599 17.6079 18.682 17.5508 18.2214C17.923 18.2234 18.2912 18.2247 18.6459 18.2247C19.5192 18.2247 20.3361 18.2189 21.0869 18.2085C22.6961 18.1949 24.8545 18.1773 27.5607 18.1566C28.1987 18.1598 28.8172 18.1618 29.4169 18.1618C31.34 18.1618 33.0613 18.1449 34.5525 18.1112C36.4697 18.0995 38.5594 18.0969 40.7644 18.104C41.3466 18.1099 41.9042 18.1125 42.4313 18.1125C42.8929 18.1125 43.3267 18.1099 43.7403 18.106C43.7209 18.263 43.7014 18.4186 43.6878 18.5847C43.6398 19.149 43.6295 19.6887 43.6256 20.1661L41.6617 20.1259C39.3886 20.0798 36.9456 20.0364 34.4845 20.0189ZM49.084 23.3497C46.6236 23.3497 44.6214 21.3466 44.6214 18.885C44.6214 16.4227 46.6236 14.4197 49.084 14.4197C51.5452 14.4197 53.5473 16.4227 53.5473 18.885C53.5473 21.3473 51.5452 23.3497 49.084 23.3497ZM53.8617 18.6898C53.758 16.1399 51.658 14.096 49.084 14.096C46.4446 14.096 44.2973 16.2444 44.2973 18.8857C44.2973 19.0193 44.3063 19.1503 44.3174 19.2813L44.0587 19.306C44.0574 19.306 44.0567 19.3073 44.0561 19.3073C44.0548 19.3073 44.0541 19.3066 44.0528 19.3066L43.9711 19.317C43.9809 19.0854 43.9906 18.8519 44.0107 18.6106C44.0853 17.7181 44.2383 16.9728 44.4782 16.3313C44.7427 15.6249 45.1382 14.984 45.6212 14.4781C46.1917 13.88 46.8939 13.4442 47.6518 13.2171C48.5297 12.9531 49.5359 12.9642 50.4864 13.2489C51.1426 13.4454 51.7339 13.7562 52.2441 14.1739C52.8192 14.6442 53.288 15.2506 53.5998 15.9291C53.876 16.5291 54.0426 17.2167 54.0952 17.9724C54.1127 18.2253 54.1146 18.4673 54.1133 18.6898H54.0789C54.0122 18.6878 53.9344 18.6898 53.8617 18.6898ZM56.4928 18.0405L56.5518 18.0307C56.6166 18.0593 56.6821 18.0872 56.743 18.1203C56.7865 18.1436 56.8254 18.1806 56.8662 18.2085H56.8195C56.4915 18.2104 56.164 18.2163 55.836 18.2221L55.2836 18.2312C55.2784 18.2312 55.2732 18.2312 55.2674 18.2312C55.4146 18.2104 55.563 18.191 55.7102 18.1683C55.9721 18.128 56.2321 18.0839 56.4928 18.0405ZM56.7891 18.7533C56.625 18.8208 56.4415 18.863 56.2282 18.8824C56.002 18.9032 55.7763 18.896 55.5384 18.8883L55.1397 18.8798C54.9341 18.8772 54.7396 18.8753 54.5484 18.8461C54.5108 18.8403 54.4738 18.8318 54.4362 18.824C54.4375 18.7397 54.4381 18.6541 54.4381 18.56C54.7215 18.5587 55.0054 18.5574 55.2894 18.5542L55.8431 18.5451C56.1692 18.5393 56.496 18.5334 56.8228 18.5315L57.0886 18.5309C57.0847 18.5373 57.0847 18.5445 57.0808 18.551C57.027 18.6288 56.9323 18.695 56.7891 18.7533ZM58.1979 15.0333C58.1636 15.2325 58.0974 15.4498 57.9892 15.7183C57.9107 15.9116 57.8394 16.066 57.7629 16.2054C57.654 16.4052 57.5185 16.6076 57.3356 16.8431C57.1619 17.0669 56.9952 17.2563 56.8241 17.4217C56.7216 17.5209 56.614 17.615 56.5064 17.709L56.4389 17.7207C56.1803 17.7642 55.9216 17.8076 55.6622 17.8472C55.2816 17.9062 54.8991 17.9581 54.5166 18.0093L54.42 18.0223C54.4187 17.9977 54.4187 17.9743 54.4174 17.949C54.3623 17.1538 54.1866 16.4286 53.8942 15.7929C53.699 15.3687 53.4403 14.9756 53.1408 14.6176C53.1985 14.6078 53.2555 14.5962 53.3132 14.5871C53.5959 14.5456 53.8877 14.5209 54.1704 14.4976L54.6521 14.456C54.8427 14.4392 55.0333 14.4223 55.2239 14.4087C55.7368 14.3717 56.2451 14.3581 56.8519 14.349C57.3188 14.3425 57.7849 14.3393 58.2524 14.336C58.2491 14.3931 58.2453 14.4509 58.242 14.5079C58.2336 14.6909 58.2265 14.8634 58.1979 15.0333Z" fill="black"/>
</g>
<defs>
<clipPath id="clip0_3_2">
<rect width="59" height="24" fill="white"/>
</clipPath>
</defs>
</svg>
