<svg width="69" height="24" viewBox="0 0 69 24" fill="none" xmlns="http://www.w3.org/2000/svg">
<g clip-path="url(#clip0_3_28)">
<path d="M14.4104 13.3157C11.987 13.3157 10.0149 15.5451 10.0149 18.2854C10.0149 21.0248 11.987 23.2543 14.4104 23.2543C16.8345 23.2543 18.8059 21.0248 18.8059 18.2854C18.8059 15.5443 16.8345 13.3157 14.4104 13.3157ZM14.4104 22.8248C12.1956 22.8248 10.394 20.7883 10.394 18.2846C10.394 15.7808 12.1956 13.7434 14.4104 13.7434C16.6252 13.7434 18.4268 15.7808 18.4268 18.2846C18.4268 20.7883 16.6252 22.8248 14.4104 22.8248Z" fill="black"/>
<path d="M15.6137 18.2854C15.6137 17.5346 15.0738 16.9243 14.4104 16.9243C13.7469 16.9243 13.2071 17.5346 13.2071 18.2854C13.2071 19.0354 13.7469 19.6457 14.4104 19.6457C15.0738 19.6457 15.6137 19.0354 15.6137 18.2854ZM13.9418 17.6614C13.9418 17.6631 13.9425 17.6649 13.9425 17.6674C13.9403 17.6666 13.938 17.6666 13.9357 17.6657C13.938 17.664 13.9395 17.6631 13.9418 17.6614ZM14.2822 18.108C14.3111 18.1149 14.3376 18.1277 14.3679 18.1277C14.421 18.1277 14.471 18.1131 14.5181 18.0934C14.5272 18.1843 14.5575 18.2657 14.6053 18.3343C14.5309 18.372 14.4733 18.4363 14.4286 18.5126C14.374 18.444 14.3027 18.3986 14.2216 18.3729C14.2587 18.3009 14.286 18.222 14.286 18.1329C14.286 18.1243 14.2822 18.1166 14.2822 18.108ZM14.465 19.1014C14.4627 19.1014 14.4604 19.1031 14.4582 19.1031C14.4597 19.1006 14.4612 19.0989 14.4619 19.0963C14.4635 19.098 14.4642 19.0997 14.465 19.1014ZM13.7469 18.5923C13.7439 18.5983 13.7393 18.6034 13.7363 18.6103C13.734 18.6034 13.734 18.5957 13.731 18.5889C13.7363 18.5906 13.7416 18.5906 13.7469 18.5923Z" fill="black"/>
<path d="M14.4104 14.7171C12.6702 14.7171 11.2538 16.3174 11.2538 18.2854C11.2538 20.2526 12.6695 21.8528 14.4104 21.8528C16.1513 21.8528 17.5669 20.2526 17.5669 18.2854C17.5662 16.3174 16.1505 14.7171 14.4104 14.7171ZM13.6544 15.6326L13.6719 16.5248L13.6491 16.6491L13.6461 16.6551L13.6256 16.6757L13.5649 16.7117L13.524 16.7246L13.4573 16.7074L12.7354 16.236C12.9963 15.9634 13.3087 15.7594 13.6544 15.6326ZM12.6937 18.1286L12.7756 18.2108L12.7802 18.2203L12.7855 18.2477L12.7824 18.3274L12.7718 18.372L12.7256 18.4294L11.9992 18.9034C11.959 18.7037 11.934 18.4988 11.934 18.2863C11.934 18.0831 11.9552 17.886 11.9923 17.6948L12.6937 18.1286ZM12.7544 20.352L13.4315 19.8874L13.5376 19.8471H13.5437L13.5725 19.8583L13.6279 19.8986L13.6582 19.9328L13.6787 20.0074V20.946C13.3314 20.8234 13.0175 20.622 12.7544 20.352ZM14.0464 19.944C14.0449 19.9328 14.0525 19.9226 14.0495 19.9106L14.0062 19.7546C14.0009 19.7366 13.985 19.7297 13.9767 19.7143C13.9683 19.6988 13.9706 19.68 13.9592 19.6663L13.8811 19.578C13.8758 19.572 13.8667 19.5737 13.8607 19.5686C13.8546 19.5634 13.8546 19.5531 13.8485 19.5488L13.7537 19.4811C13.7469 19.476 13.7386 19.4803 13.731 19.4768C13.7234 19.4726 13.7211 19.4614 13.7128 19.4588L13.6355 19.4297C13.6248 19.4254 13.615 19.434 13.6036 19.4323C13.593 19.4297 13.5862 19.4186 13.5748 19.4186H13.5058C13.4944 19.4186 13.4876 19.4297 13.477 19.4323C13.4664 19.434 13.4565 19.4254 13.4459 19.4297L13.2905 19.488C13.2829 19.4906 13.2806 19.5008 13.2738 19.5043C13.267 19.5077 13.2586 19.5034 13.2518 19.5077L12.489 20.0306C12.3358 19.8163 12.2054 19.5814 12.1129 19.3217L12.9386 18.7834C12.9485 18.7774 12.9493 18.7637 12.9568 18.756C12.9644 18.7491 12.9758 18.7517 12.9826 18.7431L13.0804 18.6231C13.0888 18.6128 13.0857 18.5983 13.0918 18.5871C13.1024 18.5691 13.1183 18.5554 13.1236 18.534L13.1525 18.414C13.1547 18.4054 13.1487 18.3986 13.1494 18.39C13.1509 18.3814 13.1585 18.3763 13.1585 18.3668L13.1631 18.24C13.1631 18.2297 13.1555 18.2237 13.1547 18.2134C13.154 18.204 13.1608 18.1963 13.1593 18.1868L13.1426 18.0968C13.1403 18.0848 13.129 18.0797 13.1252 18.0686C13.1214 18.0566 13.1267 18.0437 13.1206 18.0317L13.0865 17.9648C13.0812 17.9537 13.0691 17.9528 13.0622 17.9434C13.0554 17.934 13.0569 17.9211 13.0493 17.9126L12.9273 17.7891C12.9212 17.7831 12.9129 17.7857 12.906 17.7806C12.8992 17.7754 12.8992 17.7651 12.8916 17.7608L12.1046 17.2731C12.1948 17.0117 12.3207 16.7751 12.4716 16.5583L13.2905 17.0923C13.3026 17.1 13.3155 17.0991 13.3284 17.1034C13.3344 17.106 13.3367 17.1137 13.3435 17.1154L13.4846 17.1514C13.499 17.1548 13.5126 17.1566 13.5263 17.1566C13.5422 17.1566 13.5596 17.154 13.5763 17.1488L13.6825 17.1163C13.687 17.1146 13.6885 17.1086 13.6931 17.1068C13.7022 17.1034 13.7113 17.1043 13.7196 17.0991L13.819 17.0408C13.8258 17.0366 13.8265 17.0263 13.8334 17.022C13.8409 17.0168 13.85 17.0186 13.8569 17.0117L13.9183 16.9508C13.9236 16.9457 13.9221 16.9371 13.9266 16.9311C13.9365 16.9191 13.9494 16.9114 13.957 16.8968L13.9911 16.8291C13.9956 16.8197 13.9911 16.8086 13.9949 16.7991C13.9994 16.7863 14.01 16.7794 14.0131 16.7657L14.0457 16.5848C14.0472 16.5763 14.0411 16.5694 14.0411 16.56C14.0419 16.5514 14.0495 16.5454 14.0487 16.5368L14.029 15.5263C14.1533 15.5048 14.2777 15.4834 14.4073 15.4834C14.5279 15.4834 14.6439 15.5048 14.7599 15.5237V16.5934C14.7599 16.6054 14.7698 16.6131 14.7713 16.6243C14.7728 16.6354 14.7652 16.6457 14.769 16.6577L14.8123 16.8137C14.8183 16.836 14.835 16.8488 14.8464 16.8677C14.8524 16.878 14.8502 16.8917 14.8585 16.9011L14.9358 16.9894C14.9419 16.9963 14.9503 16.9937 14.9563 16.9988C14.9624 17.004 14.9624 17.0143 14.9684 17.0186L15.0632 17.0863C15.0716 17.0923 15.0822 17.0906 15.0913 17.0957C15.0973 17.0983 15.0989 17.1068 15.1049 17.1094L15.183 17.1386C15.2027 17.1463 15.2232 17.1497 15.2429 17.1497H15.3119C15.3316 17.1497 15.3514 17.1463 15.3711 17.1386L15.5265 17.0811C15.5318 17.0794 15.5333 17.0726 15.5386 17.07C15.5477 17.0657 15.5576 17.0674 15.5659 17.0614L16.328 16.5386C16.4811 16.7528 16.6116 16.9877 16.7041 17.2474L15.8791 17.7857C15.87 17.7917 15.8692 17.8046 15.8609 17.8123C15.8526 17.8191 15.8419 17.8174 15.8344 17.826L15.7365 17.946C15.7252 17.9597 15.7282 17.9794 15.7206 17.9948C15.713 18.0103 15.6971 18.018 15.6926 18.036L15.6645 18.156C15.663 18.1637 15.6683 18.1697 15.6668 18.1774C15.6653 18.1868 15.6584 18.1928 15.6577 18.2023L15.6531 18.3291C15.6531 18.3386 15.6607 18.3454 15.6615 18.3548C15.6622 18.3643 15.6554 18.372 15.6569 18.3814L15.6729 18.4714C15.6751 18.4851 15.6865 18.4928 15.6911 18.5048C15.6948 18.5151 15.6895 18.5254 15.6948 18.5348L15.729 18.6026C15.7365 18.6171 15.7494 18.6248 15.7593 18.6368C15.7638 18.6428 15.7623 18.6514 15.7684 18.6574L15.8912 18.78C15.8973 18.786 15.9064 18.7843 15.9132 18.7894C15.9193 18.7937 15.9193 18.8031 15.9254 18.8066L16.7124 19.2951C16.6229 19.5566 16.4963 19.794 16.3454 20.01L15.5265 19.476C15.5174 19.47 15.5068 19.476 15.4977 19.4717C15.4878 19.4674 15.4841 19.4554 15.4734 19.452L15.3324 19.416C15.3157 19.4117 15.3021 19.4246 15.2862 19.4254C15.2702 19.4254 15.2566 19.4143 15.2407 19.4186L15.1345 19.4511C15.1269 19.4537 15.1246 19.4623 15.1178 19.4657C15.111 19.4683 15.1034 19.464 15.0973 19.4674L14.998 19.5257C14.9904 19.53 14.9897 19.5403 14.9829 19.5463C14.976 19.5514 14.9662 19.5488 14.9601 19.5557L14.8987 19.6166C14.8903 19.6251 14.8919 19.6397 14.8843 19.6491C14.8775 19.6586 14.8653 19.6594 14.8593 19.6706L14.8251 19.7383C14.8198 19.7494 14.8251 19.7614 14.8214 19.7734C14.8176 19.7846 14.8062 19.7888 14.8039 19.8017L14.7713 19.9826C14.7698 19.9911 14.7759 19.998 14.7751 20.0074C14.7743 20.016 14.7668 20.022 14.7668 20.0314L14.7865 21.0428C14.6621 21.0643 14.5378 21.0866 14.4081 21.0866C14.2875 21.0866 14.1715 21.0651 14.0555 21.0463V19.9757C14.0578 19.962 14.0479 19.9551 14.0464 19.944ZM15.3885 16.6826L15.2846 16.7211H15.2771L15.249 16.7108L15.1944 16.6714L15.1626 16.6354L15.1421 16.5617V15.6231C15.4894 15.7457 15.8025 15.9471 16.0656 16.2163L15.3885 16.6826ZM16.1293 18.4431L16.0436 18.3583L16.0406 18.3531L16.0353 18.3214L16.0383 18.2434L16.0489 18.198L16.0952 18.1414L16.8216 17.6674C16.8618 17.8671 16.8868 18.0728 16.8868 18.2854C16.8868 18.4886 16.8648 18.6866 16.8284 18.8777L16.1293 18.4431ZM15.1664 20.9374L15.1489 20.0443L15.1717 19.9217L15.1747 19.9148L15.1959 19.8934L15.2551 19.8583L15.296 19.8454L15.3627 19.8626L16.0853 20.334C15.8253 20.6066 15.5121 20.8106 15.1664 20.9374Z" fill="black"/>
<path d="M53.3324 13.3157C50.9091 13.3157 48.9369 15.5451 48.9369 18.2854C48.9369 21.0248 50.9091 23.2543 53.3324 23.2543C55.7558 23.2543 57.728 21.0248 57.728 18.2854C57.728 15.5443 55.7558 13.3157 53.3324 13.3157ZM53.3324 22.8248C51.1176 22.8248 49.316 20.7883 49.316 18.2846C49.316 15.7808 51.1176 13.7434 53.3324 13.7434C55.5473 13.7434 57.3489 15.7808 57.3489 18.2846C57.3489 20.7883 55.5473 22.8248 53.3324 22.8248Z" fill="black"/>
<path d="M53.3324 14.7171C51.5915 14.7171 50.1759 16.3174 50.1759 18.2854C50.1759 20.2526 51.5915 21.8528 53.3324 21.8528C55.0726 21.8528 56.4883 20.2526 56.4883 18.2854C56.4883 16.3174 55.0726 14.7171 53.3324 14.7171ZM52.5765 15.6326L52.5939 16.524L52.5712 16.6491L52.5681 16.6543L52.5477 16.6748L52.4863 16.7108L52.4461 16.7237L52.3786 16.7066L51.6575 16.236C51.9183 15.9634 52.2307 15.7594 52.5765 15.6326ZM51.6165 18.1286L51.6969 18.2091L51.7015 18.2177L51.7068 18.2486L51.7037 18.3283L51.6939 18.3711L51.6469 18.4286L50.9205 18.9026C50.8803 18.7028 50.8553 18.498 50.8553 18.2854C50.8553 18.0823 50.8765 17.8851 50.9137 17.694L51.6165 18.1286ZM51.6764 20.352L52.3536 19.8883L52.4597 19.848H52.465L52.4938 19.8591L52.5492 19.8986L52.5803 19.9337L52.6 20.0057V20.946C52.2535 20.8234 51.9396 20.622 51.6764 20.352ZM52.9677 19.9431C52.9662 19.932 52.9738 19.9217 52.97 19.9106L52.9268 19.7546C52.9222 19.7366 52.9063 19.7306 52.898 19.7151C52.8896 19.6997 52.8919 19.68 52.8805 19.6663L52.8024 19.578C52.7971 19.572 52.788 19.5737 52.782 19.5686C52.7759 19.5634 52.7759 19.5531 52.7698 19.5488L52.6751 19.4811C52.6682 19.476 52.6599 19.4803 52.6531 19.4768C52.6455 19.4726 52.6432 19.4614 52.6349 19.4588L52.5575 19.4297C52.5469 19.4254 52.5363 19.434 52.5257 19.4323C52.5151 19.4306 52.5082 19.4194 52.4969 19.4194H52.4279C52.4165 19.4194 52.4097 19.4306 52.3991 19.4331C52.3884 19.4348 52.3786 19.4263 52.368 19.4306L52.2125 19.4888C52.2049 19.4914 52.2027 19.5017 52.1958 19.5051C52.189 19.5086 52.1807 19.5043 52.1739 19.5086L51.4118 20.0314C51.2587 19.8171 51.1282 19.5823 51.0357 19.3226L51.8615 18.7843C51.8713 18.7783 51.8721 18.7646 51.8797 18.7568C51.8872 18.75 51.8986 18.7526 51.9054 18.744L52.0033 18.624C52.0116 18.6137 52.0093 18.5983 52.0154 18.5863C52.026 18.5683 52.0419 18.5554 52.0472 18.5331L52.0753 18.4131C52.0776 18.4046 52.0715 18.3977 52.0723 18.39C52.0738 18.3814 52.0813 18.3754 52.0813 18.3668L52.0859 18.24C52.0859 18.2306 52.0783 18.2246 52.0776 18.2151C52.0768 18.2057 52.0836 18.198 52.0821 18.1894L52.0662 18.0994C52.0639 18.0874 52.0525 18.0814 52.0487 18.0703C52.045 18.0583 52.0503 18.0463 52.045 18.0343L52.0108 17.9674C52.0048 17.9563 51.9926 17.9554 51.9858 17.9451C51.979 17.9357 51.9805 17.9228 51.9729 17.9143L51.8508 17.7908C51.8448 17.7848 51.8364 17.7874 51.8304 17.7831C51.8236 17.778 51.8235 17.7677 51.816 17.7626L51.0289 17.2757C51.1191 17.0143 51.245 16.7777 51.3959 16.5608L52.214 17.0948C52.2254 17.1026 52.2391 17.1017 52.2512 17.106C52.2573 17.1086 52.2595 17.1163 52.2664 17.118L52.4074 17.154C52.4226 17.1574 52.4362 17.1591 52.4499 17.1591C52.4658 17.1591 52.4832 17.1566 52.4991 17.1514L52.6053 17.1188C52.6098 17.1171 52.6114 17.1111 52.6159 17.1094C52.625 17.106 52.6341 17.1068 52.6432 17.1017L52.7433 17.0434C52.7509 17.0391 52.7516 17.0288 52.7577 17.0237C52.7653 17.0177 52.7744 17.0203 52.7812 17.0134L52.8419 16.9526C52.8472 16.9474 52.8457 16.9388 52.8502 16.9328C52.8601 16.9217 52.8722 16.914 52.8798 16.8994L52.9147 16.8317C52.9192 16.8223 52.9147 16.812 52.9185 16.8017C52.923 16.7888 52.9344 16.7811 52.9374 16.7674L52.97 16.5866C52.9715 16.578 52.9655 16.5711 52.9655 16.5617C52.9662 16.5531 52.9738 16.5471 52.973 16.5386L52.9533 15.528C53.0777 15.5066 53.202 15.4843 53.3317 15.4843C53.4523 15.4843 53.5683 15.5057 53.6843 15.5246V16.5943C53.6843 16.6063 53.6941 16.614 53.6956 16.6251C53.6972 16.6363 53.6896 16.6466 53.6934 16.6577L53.7366 16.8137C53.7427 16.836 53.7593 16.8497 53.7707 16.8677C53.7768 16.878 53.7745 16.8917 53.7828 16.9011L53.8609 16.9894C53.8662 16.9954 53.8753 16.9937 53.8814 16.9988C53.8875 17.004 53.8875 17.0143 53.8936 17.0186L53.9883 17.0863C53.9967 17.0923 54.0073 17.0906 54.0164 17.0957C54.0224 17.0983 54.024 17.1068 54.03 17.1094L54.1081 17.1386C54.1278 17.1463 54.1483 17.1497 54.168 17.1497H54.237C54.2567 17.1497 54.2772 17.1463 54.2962 17.1386L54.4509 17.0811C54.4562 17.0794 54.4577 17.0726 54.463 17.07C54.4721 17.0657 54.4819 17.0674 54.4903 17.0614L55.2523 16.5377C55.4055 16.752 55.5359 16.9868 55.6284 17.2466L54.8034 17.7848C54.7943 17.7908 54.7936 17.8037 54.786 17.8114C54.7777 17.8183 54.7663 17.8166 54.7595 17.8251L54.6616 17.9451C54.6495 17.9597 54.6525 17.9794 54.645 17.9957C54.6374 18.0111 54.6222 18.018 54.6177 18.0351L54.5896 18.1551C54.5873 18.1637 54.5934 18.1706 54.5926 18.1791C54.5911 18.1877 54.5835 18.192 54.5828 18.2006L54.5775 18.3274C54.5775 18.3377 54.5851 18.3437 54.5858 18.3531C54.5866 18.3626 54.5798 18.3703 54.5813 18.3797L54.5972 18.4697C54.5995 18.4834 54.6108 18.4911 54.6162 18.504C54.6199 18.5134 54.6146 18.5246 54.6199 18.534L54.6548 18.6017C54.6616 18.6154 54.6745 18.6223 54.6836 18.6343C54.6882 18.6403 54.6874 18.6497 54.6927 18.6557L54.8148 18.7783C54.8216 18.7851 54.8307 18.7826 54.8376 18.7877C54.8429 18.792 54.8436 18.8014 54.8497 18.8048L55.6367 19.2934C55.5465 19.5548 55.4206 19.7923 55.2698 20.0083L54.4509 19.4734C54.4418 19.4674 54.4311 19.4734 54.422 19.4691C54.4129 19.4648 54.4084 19.4528 54.3985 19.4503L54.2575 19.4143C54.2393 19.41 54.2272 19.4228 54.2105 19.4237C54.1946 19.4237 54.1817 19.4126 54.1658 19.4168L54.0596 19.4494C54.052 19.452 54.0497 19.4606 54.0429 19.464C54.0353 19.4674 54.0278 19.4623 54.0209 19.4666L53.9216 19.5248C53.914 19.5291 53.9133 19.5403 53.9064 19.5454C53.8996 19.5506 53.8913 19.548 53.8845 19.554L53.823 19.6148C53.8147 19.6234 53.8154 19.6371 53.8086 19.6474C53.801 19.6568 53.7889 19.6586 53.7828 19.6697L53.7487 19.7374C53.7434 19.7486 53.7487 19.7606 53.7449 19.7717C53.7411 19.7828 53.7305 19.7871 53.7283 19.7991L53.6949 19.98C53.6934 19.9894 53.6994 19.9963 53.6994 20.0048C53.6987 20.0134 53.6911 20.0194 53.6911 20.028L53.7108 21.0394C53.5865 21.0608 53.4621 21.0823 53.3324 21.0823C53.2119 21.0823 53.0959 21.0608 52.9791 21.042V19.9714C52.9791 19.962 52.9693 19.9543 52.9677 19.9431ZM54.3098 16.6826L54.2059 16.7211H54.1984L54.1703 16.7108L54.1142 16.6706L54.0831 16.6354L54.0634 16.5634V15.624C54.4107 15.7466 54.7238 15.948 54.9869 16.2171L54.3098 16.6826ZM55.0521 18.444L54.9649 18.3566L54.9634 18.3531L54.9581 18.3223L54.9612 18.2417L54.971 18.1988L55.018 18.1414L55.7444 17.6674C55.7846 17.8671 55.8096 18.0728 55.8096 18.2854C55.8096 18.4886 55.7876 18.6866 55.7512 18.8777L55.0521 18.444ZM54.0877 20.9374L54.0702 20.046L54.093 19.9208L54.0968 19.9131L54.1157 19.8943L54.1794 19.8566L54.2181 19.8446L54.2856 19.8617L55.0082 20.3331C54.7466 20.6066 54.4342 20.8114 54.0877 20.9374Z" fill="black"/>
<path d="M54.5358 18.2854C54.5358 17.5346 53.9959 16.9243 53.3324 16.9243C52.6682 16.9243 52.1284 17.5346 52.1284 18.2854C52.1284 19.0354 52.6682 19.6457 53.3324 19.6457C53.9959 19.6457 54.5358 19.0354 54.5358 18.2854ZM52.8631 17.6614C52.8631 17.6631 52.8639 17.6649 52.8639 17.6674C52.8616 17.6666 52.8593 17.6666 52.8578 17.6657C52.8593 17.664 52.8616 17.6631 52.8631 17.6614ZM53.2035 18.108C53.2324 18.1149 53.2589 18.1277 53.2892 18.1277C53.3423 18.1277 53.3923 18.1131 53.4394 18.0934C53.4485 18.1843 53.4788 18.2657 53.5266 18.3343C53.4523 18.372 53.3946 18.4363 53.3499 18.5126C53.2953 18.444 53.224 18.3986 53.1429 18.3737C53.18 18.3017 53.2073 18.2229 53.2073 18.1337C53.2081 18.1243 53.2043 18.1166 53.2035 18.108ZM53.387 19.1014C53.3848 19.1014 53.3825 19.1031 53.3802 19.1031C53.3817 19.1014 53.3825 19.0989 53.384 19.0971C53.3855 19.098 53.3855 19.0997 53.387 19.1014ZM52.6682 18.5923C52.6652 18.5983 52.6606 18.6034 52.6576 18.6103C52.6553 18.6034 52.6553 18.5957 52.6523 18.5889C52.6584 18.5906 52.6637 18.5906 52.6682 18.5923Z" fill="black"/>
<path d="M68.6194 14.868L68.5792 14.4634C68.5784 14.4531 68.5701 14.448 68.5678 14.4386L68.5117 13.9834C68.5102 13.968 68.4973 13.9611 68.4935 13.9474C68.4897 13.9346 68.4958 13.9217 68.4897 13.9089L68.3297 13.5831C68.3267 13.5771 68.3199 13.5771 68.3168 13.5711C68.3138 13.5651 68.3161 13.5583 68.3123 13.5531L67.9923 13.1023C67.99 13.0989 67.9855 13.0997 67.9832 13.0963C67.9809 13.0929 67.9817 13.0886 67.9794 13.0851L67.9157 13.0123C67.9096 13.0054 67.8998 13.0071 67.893 13.0011C67.8861 12.9951 67.8861 12.984 67.8778 12.9789L67.7982 12.9257C67.7823 12.9154 67.7648 12.9223 67.7474 12.9171C67.7307 12.912 67.7193 12.8957 67.7011 12.8957H67.6716L67.6936 9.93171V9.93V9.60686C67.6936 9.60171 67.689 9.59829 67.6882 9.59314C67.6882 9.588 67.6928 9.58371 67.692 9.57771L67.6261 9.03086C67.6253 9.02314 67.6185 9.01886 67.617 9.012C67.6155 9.00514 67.62 8.99914 67.6185 8.99229L67.3986 8.24743C67.3956 8.23629 67.3849 8.23371 67.3804 8.22343C67.3758 8.21314 67.3804 8.20114 67.3743 8.19171L67.0665 7.69457C67.0619 7.68771 67.0544 7.68857 67.049 7.68257C67.0445 7.67657 67.046 7.668 67.0407 7.662L66.6449 7.23943C66.6404 7.23429 66.6335 7.23686 66.629 7.23257C66.6244 7.22829 66.6244 7.22057 66.6199 7.21714L66.29 6.96857C66.284 6.96429 66.2764 6.96771 66.2703 6.96429C66.2643 6.96086 66.2628 6.95229 66.2567 6.94886L65.8829 6.77486C65.876 6.77143 65.8685 6.77743 65.8616 6.77486C65.8541 6.77229 65.851 6.76286 65.8427 6.76114L64.1708 6.43886C64.1692 6.43886 64.1677 6.44057 64.1662 6.43971C64.1647 6.43971 64.1639 6.43714 64.1624 6.43714L61.8748 6.114L61.8733 6.11314L60.7518 5.964C60.742 5.96314 60.7352 5.97257 60.7253 5.97257C60.7155 5.97257 60.7079 5.96314 60.6973 5.96571L60.6677 5.97171C60.6609 5.96743 60.6601 5.95714 60.6525 5.95371L60.3447 5.796C60.3439 5.796 60.3432 5.796 60.3424 5.796C60.3416 5.796 60.3416 5.79514 60.3409 5.79429L57.2935 4.31057C57.2927 4.31057 57.2927 4.31057 57.292 4.31057C57.2912 4.31057 57.2912 4.30886 57.2905 4.30886L53.7965 2.69914C53.795 2.69829 53.7935 2.7 53.7912 2.69914C53.7897 2.69829 53.7889 2.69571 53.7874 2.69571L50.5171 1.40143C50.5126 1.39971 50.5088 1.40314 50.505 1.40229C50.5004 1.40057 50.4989 1.39543 50.4944 1.39371L48.6458 0.946286C48.6435 0.946286 48.642 0.948 48.6405 0.947143C48.6382 0.947143 48.6374 0.944571 48.6359 0.943714L44.5209 0.212572C44.5171 0.211715 44.5149 0.216003 44.5111 0.215145C44.5073 0.215145 44.5058 0.21086 44.502 0.210003L41.0353 0.000859946C41.033 0.000859946 41.0323 0.00257329 41.03 0.00257329C41.0277 0.00257329 41.0269 0 41.0247 0H37.6967C37.6945 0 37.6937 0.00257329 37.6914 0.00257329C37.6892 0.00257329 37.6876 0 37.6861 0L34.4962 0.209145C34.4932 0.209145 34.4917 0.212572 34.4894 0.213429C34.4864 0.213429 34.4848 0.210859 34.4818 0.210859L30.1826 0.889714C30.1773 0.890571 30.175 0.897428 30.1697 0.898286C30.1644 0.9 30.1598 0.894857 30.1538 0.896571L28.4773 1.47171C28.4735 1.47343 28.4727 1.47771 28.4689 1.47943C28.4652 1.48114 28.4621 1.47771 28.4583 1.47943L27.2451 2.06143C27.2436 2.06229 27.2429 2.06486 27.2414 2.06571C27.2398 2.06657 27.2376 2.06486 27.236 2.06571L24.749 3.43543C24.7475 3.43629 24.7475 3.43886 24.746 3.43971C24.7445 3.44057 24.7422 3.43971 24.7407 3.44057L21.8897 5.22171C21.8889 5.22257 21.8889 5.22343 21.8882 5.22429C21.8874 5.22514 21.8866 5.22429 21.8859 5.22429L19.248 6.97114C19.2472 6.97114 19.2472 6.97286 19.2465 6.97286C19.2457 6.97371 19.2449 6.97286 19.2442 6.97286L17.9097 7.89771C17.893 7.90886 17.89 7.93114 17.8778 7.94743C17.8657 7.962 17.8475 7.96629 17.8392 7.98514L17.824 8.01857H17.6344L17.4646 7.98L16.8208 7.75029C16.8186 7.74771 16.8148 7.74943 16.8117 7.74686L16.7215 7.71429C16.7177 7.71343 16.7147 7.716 16.7116 7.71514C16.701 7.71429 16.6927 7.704 16.6813 7.70571L12.4405 8.28771C12.4397 8.28771 12.4397 8.28857 12.439 8.28857C12.4382 8.28857 12.4374 8.28771 12.4374 8.28771L7.91908 9.00343C7.91756 9.00343 7.9168 9.00514 7.91604 9.006C7.91453 9.006 7.91377 9.00514 7.91225 9.00514L4.62227 9.67628C4.61924 9.67714 4.61848 9.68057 4.61545 9.68143C4.61241 9.68229 4.61014 9.67971 4.60787 9.68057L3.102 10.128C3.09517 10.1297 3.09214 10.1391 3.08607 10.1417C3.07925 10.1443 3.07243 10.14 3.0656 10.1434L2.19362 10.6363C2.17618 10.6491 2.17315 10.668 2.16102 10.6791C2.14889 10.6903 2.13221 10.6911 2.12235 10.7057L1.86682 11.1026C1.85241 11.1077 1.84332 11.1214 1.83043 11.13C1.80389 11.1463 1.78266 11.1634 1.76749 11.1909C1.76294 11.1986 1.75309 11.2003 1.74929 11.2089L1.54988 11.6597L1.4786 11.6829C1.46571 11.6871 1.46116 11.7026 1.44979 11.7086C1.43766 11.7154 1.42401 11.7111 1.41339 11.7206L1.32089 11.8037C1.308 11.8149 1.30876 11.8337 1.29966 11.8474C1.29056 11.8603 1.27463 11.8637 1.26781 11.88L0.879591 12.798C0.872767 12.8134 0.880349 12.8297 0.877316 12.846C0.873525 12.8623 0.861393 12.8734 0.861393 12.8906V12.9523C0.861393 12.9703 0.874283 12.9814 0.878074 12.9977C0.881107 13.0149 0.874283 13.0311 0.881107 13.0474L0.917503 13.1314C0.924327 13.1469 0.937217 13.1546 0.946316 13.1674L0.747657 13.68C0.745382 13.6851 0.749173 13.6903 0.747657 13.6954C0.74614 13.7006 0.740833 13.7023 0.739316 13.7074L0.702162 13.8531C0.699129 13.8643 0.706712 13.8729 0.705195 13.884C0.703679 13.8951 0.69458 13.9011 0.69458 13.9123V13.9594L0.44436 14.154C0.439052 14.1583 0.439052 14.1669 0.434503 14.1711C0.429195 14.1754 0.422371 14.1737 0.417822 14.1789L0.159261 14.4694C0.147129 14.4831 0.148646 14.5037 0.140305 14.52C0.131206 14.538 0.113767 14.5474 0.109217 14.5689L0.0538656 14.8191C0.0523492 14.826 0.0576567 14.832 0.0561402 14.8389C0.055382 14.8457 0.048558 14.8491 0.048558 14.856L0.0356677 15.0566C0.0235358 15.078 0.021261 15.1003 0.0167116 15.126C0.0129204 15.144 -0.000727854 15.1577 3.03885e-05 15.1774L0.0614478 16.794C0.0614478 16.7949 0.0614478 16.7949 0.0614478 16.7957C0.0568984 16.8214 0.0417336 16.8429 0.046283 16.8703L0.0675141 17.0151C0.0713053 17.0391 0.0872281 17.0537 0.0970853 17.0734C0.103151 17.088 0.100118 17.1043 0.109217 17.1171L0.216129 17.262C0.218404 17.2654 0.222195 17.2637 0.225228 17.2663C0.232052 17.2749 0.240393 17.2791 0.248734 17.2869L0.63392 18.81L0.576294 18.9386C0.56492 18.9643 0.573261 18.99 0.571745 19.0166C0.56947 19.0423 0.557338 19.0663 0.564162 19.0929L0.607382 19.2617C0.609657 19.2694 0.616481 19.2729 0.618756 19.2806C0.62103 19.2866 0.617239 19.2926 0.619514 19.2977L0.640745 19.3466C0.646811 19.3611 0.659701 19.368 0.668041 19.38C0.672591 19.3869 0.670316 19.3954 0.675624 19.4014L0.739316 19.4743C0.754481 19.4914 0.77647 19.4897 0.794668 19.5C0.81514 19.512 0.830305 19.5343 0.855327 19.5369L2.35285 19.7057C2.35665 19.7066 2.3612 19.7066 2.36499 19.7066L4.14989 19.8506L6.85757 20.1394L8.10333 20.3743L8.84034 20.8834C8.84186 20.8843 8.84262 20.8834 8.84413 20.8843C8.84489 20.8851 8.84489 20.886 8.84565 20.8869L8.99502 20.9829C9.02459 21.0017 9.0572 21.0111 9.08904 21.0111C9.13909 21.0111 9.18382 20.9829 9.21946 20.9426C9.22401 20.9374 9.23084 20.94 9.23463 20.9349L9.34154 20.79C9.37793 20.7411 9.38703 20.6803 9.37869 20.6211C9.37945 20.6143 9.38552 20.6091 9.38552 20.6014L9.34381 17.8689C9.34912 17.8517 9.36353 17.8406 9.36429 17.8209C9.58721 14.8869 11.7194 12.6549 14.3247 12.6274C14.33 12.6257 14.3535 12.6274 14.3694 12.6274C15.4704 12.6274 16.5585 13.0389 17.4396 13.7871C18.4776 14.7129 19.1608 16.0946 19.3147 17.5791C19.3905 18.4149 19.4224 19.2643 19.4072 20.1026C19.4064 20.172 19.439 20.2269 19.4845 20.2671C19.5194 20.3186 19.5664 20.3571 19.6286 20.3571H19.9425C19.9448 20.3571 19.9478 20.3571 19.9509 20.3571C19.9675 20.3563 19.9774 20.3409 19.9926 20.3349C19.9979 20.3349 20.0032 20.334 20.0085 20.3331L20.7917 20.1969L46.9155 20.1283L47.4242 20.4471C47.4257 20.448 47.428 20.448 47.4295 20.4489C47.4303 20.4497 47.4303 20.4506 47.4318 20.4514L47.9224 20.7283C47.9489 20.7437 47.9777 20.7506 48.0066 20.7506C48.0361 20.7506 48.0642 20.7386 48.0907 20.724L48.0922 20.7249C48.1165 20.7369 48.1415 20.7429 48.1673 20.7429C48.212 20.7429 48.2522 20.7197 48.2864 20.6871C48.2909 20.6829 48.297 20.6846 48.3015 20.6803L48.3849 20.586C48.388 20.5826 48.3864 20.5774 48.3895 20.574C48.4054 20.5534 48.4077 20.5269 48.416 20.5011C48.4244 20.4737 48.4372 20.4506 48.4357 20.4223C48.4357 20.418 48.4395 20.4146 48.4388 20.4094C48.3106 19.1811 48.3751 17.9494 48.6298 16.7477C48.6306 16.7451 48.6283 16.7434 48.6291 16.7409C48.6298 16.7383 48.6321 16.7374 48.6321 16.7349C48.808 15.6309 49.3176 14.6169 50.0675 13.8797C51.2458 12.8674 52.76 12.4226 54.2264 12.6686C56.2365 13.0689 57.819 14.7831 58.258 17.0374C58.258 17.0417 58.2542 17.0443 58.2542 17.0486L58.3331 19.1074C58.3338 19.1297 58.349 19.1434 58.355 19.1631C58.3604 19.1811 58.355 19.2009 58.3649 19.2171L58.4438 19.3509C58.4491 19.3594 58.4566 19.3629 58.4627 19.3697C58.4695 19.3783 58.4756 19.3834 58.4832 19.3903C58.5181 19.4229 58.5583 19.446 58.6015 19.446H58.7205C58.7243 19.446 58.7289 19.446 58.7326 19.446L60.0012 19.3569C60.0019 19.3569 60.0027 19.356 60.0035 19.356C60.0095 19.356 60.0148 19.3551 60.0209 19.3543L63.3898 18.7286C63.3905 18.7286 63.3905 18.7277 63.3913 18.7277C63.3928 18.7277 63.3943 18.7277 63.3958 18.7269L63.988 18.5923L65.5978 18.3266L67.1385 18.1929C67.1393 18.1929 67.1393 18.192 67.1393 18.192C67.1431 18.192 67.1469 18.192 67.1506 18.1911L67.4274 18.1457C67.4327 18.1449 67.4342 18.1389 67.4395 18.138C67.4547 18.1346 67.4706 18.1337 67.4843 18.126L67.7216 17.9923C67.7239 17.9914 67.7239 17.988 67.7254 17.9871C67.7588 17.9666 67.7883 17.9383 67.8065 17.8971L67.9256 17.6289C67.9294 17.6211 67.9248 17.6126 67.9271 17.6049C67.9301 17.5954 67.9392 17.5903 67.9407 17.58L68.0196 17.1771L68.0909 16.8531L68.2364 16.5651C68.2387 16.56 68.2365 16.554 68.238 16.5489C68.241 16.542 68.2478 16.5386 68.2501 16.5309L68.4488 15.9043C68.4503 15.8991 68.4465 15.894 68.448 15.8889C68.4495 15.8829 68.4548 15.8803 68.4563 15.8734L68.5352 15.426C68.5352 15.4251 68.5352 15.4251 68.5352 15.4243C68.5352 15.4234 68.536 15.4234 68.536 15.4226L68.6148 14.9306C68.6163 14.9186 68.6087 14.91 68.6087 14.8989C68.6125 14.8869 68.6209 14.8791 68.6194 14.868ZM65.5629 17.9006C65.5606 17.9006 65.5591 17.904 65.5568 17.904C65.5546 17.904 65.553 17.9014 65.55 17.9023L63.9243 18.1706C63.9228 18.1706 63.9221 18.1731 63.9198 18.1731C63.9175 18.1731 63.9167 18.1714 63.9145 18.1723L63.3276 18.3051L59.9678 18.9291L58.7091 19.0183L58.6386 17.1771L61.802 16.6243C61.805 16.6234 61.8066 16.62 61.8088 16.6191C61.8187 16.6166 61.8286 16.6174 61.8377 16.6131L62.5906 16.3003C62.6004 16.296 62.6027 16.284 62.6111 16.2789C62.6224 16.272 62.6361 16.2737 62.6467 16.2643L62.884 16.0397C62.8916 16.0329 62.8901 16.0209 62.8962 16.0131C62.9106 15.9951 62.928 15.9814 62.9371 15.9574L63.135 15.4209C63.1358 15.4191 63.1342 15.4174 63.135 15.4166C63.1358 15.414 63.138 15.4131 63.1388 15.4114L63.2791 14.9683L68.2349 14.8414L68.2387 14.8826L68.1644 15.3454L68.0886 15.774L67.9006 16.3689L67.7504 16.6654C67.7459 16.6749 67.7504 16.6851 67.7474 16.6946C67.7436 16.7049 67.7337 16.7091 67.7315 16.7194L67.6526 17.0777C67.6526 17.0786 67.6534 17.0794 67.6526 17.0803C67.6526 17.0811 67.6511 17.082 67.6511 17.0829L67.5768 17.46L67.4964 17.6417L67.3425 17.7283L67.1036 17.7677L65.5629 17.9006ZM47.607 20.0734L47.0557 19.728C47.0406 19.7186 47.0239 19.7263 47.0087 19.722C46.9928 19.7169 46.9814 19.7014 46.964 19.7014L20.7766 19.77C20.7713 19.77 20.7682 19.776 20.7622 19.7769C20.7569 19.7769 20.7531 19.7717 20.7478 19.7726L20.1215 19.8814L20.0441 17.9477H20.8137L21.1345 18.804C21.1383 18.8134 21.1466 18.8177 21.1512 18.8263C21.1587 18.84 21.1671 18.8486 21.1769 18.8606C21.1951 18.8829 21.2141 18.8991 21.2384 18.9103C21.2717 18.9729 21.321 19.0209 21.39 19.0209C21.39 19.0209 21.3908 19.0209 21.3915 19.0209L45.678 18.8126C45.7371 18.8117 45.7842 18.7766 45.819 18.7286C45.8228 18.7243 45.8289 18.726 45.8327 18.7209L46.3657 17.8517L47.82 17.9083C47.7298 18.6489 47.704 19.3989 47.7427 20.1489L47.607 20.0734ZM8.26787 19.9877C8.25649 19.98 8.24436 19.986 8.23223 19.9809C8.2201 19.9757 8.21327 19.9603 8.19963 19.9577L6.91595 19.716C6.91368 19.7151 6.9114 19.7186 6.90837 19.7177C6.9061 19.7177 6.90458 19.7143 6.9023 19.7143L4.18552 19.4246C4.18477 19.4246 4.18401 19.4254 4.18249 19.4254C4.18173 19.4254 4.18173 19.4246 4.18098 19.4246L2.39077 19.2806L2.39001 19.2797L0.964514 19.1194L0.948591 19.0551L0.96603 19.0157L1.04185 19.0063C1.04413 19.0063 1.0464 19.0063 1.04868 19.0063C1.07749 19.002 1.09569 18.978 1.11844 18.9609C1.13663 18.948 1.16014 18.9446 1.17303 18.9257C1.17985 18.9154 1.17758 18.9009 1.18289 18.8889L1.23217 18.9446C1.26933 18.9866 1.31785 19.0071 1.36638 19.0071H3.18465C3.21346 19.0071 3.24227 18.9994 3.26957 18.9849L3.39771 18.912C3.40302 18.9086 3.40378 18.9017 3.40833 18.8983C3.43714 18.8786 3.45685 18.8494 3.47278 18.8134C3.47809 18.8014 3.4887 18.7937 3.49173 18.78C3.49249 18.7774 3.49552 18.7757 3.49628 18.7723L3.51751 18.6763C3.52055 18.6634 3.51221 18.6531 3.51296 18.6403C3.51372 18.6274 3.52358 18.618 3.52282 18.6043L3.41591 17.2749C3.41515 17.268 3.40909 17.2646 3.40833 17.2586L5.72248 17.1969L5.72627 17.2029C5.72855 17.2063 5.7331 17.2046 5.73537 17.208C5.73765 17.2114 5.73689 17.2166 5.73916 17.22L5.91811 17.442L5.92948 17.5054C5.93024 17.5106 5.93479 17.5131 5.93631 17.5183C5.94085 17.5363 5.95223 17.5474 5.96057 17.5629C5.97649 17.5937 5.99241 17.6194 6.0182 17.6374C6.02426 17.6417 6.02426 17.6503 6.03109 17.6537L6.33059 17.8226C6.34272 17.8294 6.35561 17.8286 6.36774 17.8329C6.37305 17.8346 6.37533 17.8406 6.38063 17.8423L7.06533 17.9871C7.07291 17.9889 7.08049 17.9889 7.08807 17.9897C7.08883 17.9897 7.08959 17.9906 7.09035 17.9906L8.35279 18.0634C8.35582 18.0634 8.35962 18.0634 8.36265 18.0634C8.36417 18.0634 8.36568 18.0634 8.36796 18.0634L8.96848 18.0454L9.00564 20.4951L8.26787 19.9877ZM2.40214 11.0006L3.21573 10.5411L4.69355 10.1014L5.2137 9.99514L3.79958 10.5394C3.79731 10.5403 3.79655 10.5437 3.79351 10.5454C3.79124 10.5463 3.78821 10.5446 3.78593 10.5454L2.95338 10.9483C2.94428 10.9526 2.94277 10.9646 2.93518 10.9697C2.92684 10.9749 2.91699 10.9714 2.9094 10.9783L2.6698 11.1951L2.58488 11.1394C2.57047 11.13 2.55455 11.1377 2.53938 11.1326C2.52422 11.1274 2.5136 11.1111 2.49692 11.1111L2.3339 11.1051L2.40214 11.0006ZM16.6563 8.14457L16.6881 8.15571L16.2036 8.24657L15.1717 8.34771L16.6563 8.14457ZM19.4406 7.34229L22.0755 5.59714L24.9204 3.81943L27.3953 2.45657L28.5038 1.92429L28.5326 1.94829L28.7123 2.11714C28.7207 2.12486 28.7321 2.12314 28.7404 2.12914C28.748 2.13429 28.7495 2.14543 28.7578 2.14971L28.8412 2.19086L27.9708 2.61257C27.9677 2.61429 27.9677 2.61771 27.9647 2.61943C27.9617 2.62114 27.9586 2.61857 27.9564 2.62029L26.1973 3.68229C26.1957 3.68314 26.1957 3.68571 26.1935 3.68743C26.1919 3.68829 26.1897 3.68743 26.1874 3.68829L24.6406 4.75029C24.6391 4.75114 24.6398 4.75286 24.6383 4.75371C24.6375 4.75457 24.636 4.75371 24.6353 4.75457L22.3302 6.46714C22.3272 6.46886 22.3279 6.47314 22.3249 6.47571C22.3219 6.47829 22.3188 6.47657 22.3158 6.47829L20.7045 7.92771C20.703 7.92857 20.7015 7.92686 20.7 7.92771L20.214 8.13857L19.5748 8.22343L19.455 8.142C19.4444 8.13514 19.4322 8.14114 19.4208 8.136C19.4095 8.13086 19.4042 8.11714 19.3913 8.11457L18.9553 8.02543C18.9492 8.02371 18.9439 8.03057 18.9378 8.02971C18.9318 8.02886 18.928 8.022 18.9212 8.022H18.4594L19.4406 7.34229ZM30.2478 1.314L33.3998 0.816003L31.2775 1.31229C31.2744 1.31314 31.2737 1.31657 31.2706 1.31743C31.2676 1.31829 31.2653 1.31571 31.2623 1.31657L29.3311 1.96543L28.9345 1.76914L28.9315 1.76571L30.2478 1.314ZM34.5243 0.638574L34.6532 0.630001L34.5068 0.641144L34.5243 0.638574ZM37.7005 0.431145H37.8355L37.5231 0.442288L37.7005 0.431145ZM41.0201 0.431145L44.4686 0.638574L48.5692 1.36714L49.9848 1.71L49.6944 1.93714L49.5011 1.872C49.498 1.87114 49.4958 1.87371 49.492 1.87286C49.4889 1.872 49.4882 1.86857 49.4851 1.86771L46.4241 1.15457C46.4218 1.15371 46.4203 1.15629 46.418 1.15543C46.4158 1.15457 46.415 1.152 46.4127 1.152L43.1766 0.630001C43.1735 0.629144 43.172 0.632574 43.169 0.632574C43.1659 0.632574 43.1644 0.629145 43.1622 0.628287L40.4234 0.430288L41.0201 0.431145ZM53.6562 3.09857L57.1464 4.70657L60.0118 6.102L59.3491 6.23314L58.9844 6.13543L57.3216 5.322L54.1362 3.71314C54.1347 3.71229 54.1332 3.714 54.1316 3.71314C54.1294 3.71229 54.1294 3.70971 54.1278 3.70886L51.3049 2.47714C51.3026 2.47629 51.2996 2.478 51.2973 2.47714C51.2951 2.47629 51.2935 2.47286 51.2913 2.47114L50.1615 2.09229L50.4822 1.84114L53.6562 3.09857ZM61.8286 6.54086C61.8293 6.54086 61.8301 6.54086 61.8308 6.54086L64.1078 6.86228L65.7585 7.18114L66.0929 7.33714L66.3947 7.56429L66.7647 7.95943L67.0468 8.41371L67.2523 9.10886L67.3144 9.624V9.77743L67.2424 9.79543C67.2212 9.80057 67.2105 9.822 67.1931 9.834C67.1764 9.84514 67.162 9.85371 67.1484 9.86914C67.1294 9.89314 67.1218 9.918 67.1135 9.94971C67.1089 9.96686 67.0938 9.97714 67.0938 9.996L67.0286 11.8389L66.9876 12.0437C66.9861 12.0523 66.9922 12.0591 66.9914 12.0686C66.9907 12.0771 66.9831 12.0823 66.9831 12.0909V12.1903C66.9831 12.2143 66.999 12.2306 67.0058 12.252C67.0119 12.2743 67.0081 12.2983 67.021 12.318L67.087 12.4174C67.0945 12.4294 67.1097 12.426 67.1196 12.4363C67.1324 12.45 67.137 12.4723 67.1544 12.4817L67.2424 12.5314C67.2591 12.5409 67.2765 12.5417 67.294 12.5451L67.2924 12.7157H66.7746L66.7473 12.672L66.7366 12.564C66.7359 12.5589 66.7321 12.5571 66.7313 12.552C66.7306 12.5477 66.7344 12.5443 66.7329 12.54L66.704 12.3977L66.673 10.9183C66.6737 10.9114 66.679 10.908 66.679 10.9011V10.2549C66.679 10.2471 66.6722 10.242 66.6714 10.2343C66.6707 10.2266 66.6767 10.2206 66.6752 10.2129L66.6115 9.83828C66.6115 9.83571 66.6093 9.83486 66.6085 9.83314C66.6077 9.83057 66.61 9.82886 66.6093 9.82628L66.4773 9.25457C66.4766 9.25286 66.4751 9.252 66.4751 9.25029C66.4743 9.24857 66.4758 9.24686 66.4758 9.24514L66.2999 8.59971C66.2976 8.59029 66.2885 8.58771 66.2847 8.57914C66.2817 8.57057 66.2855 8.56114 66.2809 8.55257L66.0171 8.05543C66.0133 8.04857 66.0057 8.04857 66.0012 8.04257C65.9974 8.03657 65.9996 8.02886 65.9951 8.02371L65.6433 7.57629C65.6387 7.57114 65.6319 7.572 65.6273 7.56771C65.6228 7.56257 65.6236 7.554 65.6182 7.54886L65.4196 7.37486C65.4082 7.36457 65.393 7.36971 65.3809 7.36286C65.3688 7.356 65.3635 7.34057 65.3498 7.33629L65.1648 7.284C65.1436 7.26686 65.1284 7.24114 65.1011 7.23514L64.1548 7.01143C64.1518 7.01057 64.1495 7.014 64.1473 7.01314C64.1442 7.01229 64.1427 7.00886 64.1404 7.00886L62.7559 6.81L60.5835 6.48771L60.425 6.45514L60.7344 6.39429L61.8286 6.54086ZM61.7269 16.2043L58.8562 16.7057C58.2898 13.8197 56.0401 11.7711 53.4204 11.7711C53.3848 11.7711 53.3484 11.7711 53.3112 11.772C53.29 11.772 53.268 11.7711 53.246 11.7711C51.4353 11.7711 49.7528 12.7774 48.733 14.472C48.7299 14.4771 48.7322 14.4831 48.7299 14.4883C48.7276 14.4934 48.7208 14.4943 48.7185 14.4994C48.3167 15.4483 48.0354 16.452 47.8746 17.4806L46.5416 17.4283L49.9909 10.5103C49.9916 10.5086 49.9909 10.5077 49.9916 10.506C49.9924 10.5043 49.9947 10.5034 49.9954 10.5009L50.4018 9.58371C50.461 9.56143 50.5019 9.51429 50.5186 9.44571L62.4549 9.56057L62.8332 10.0689L62.9871 10.4391L63.0713 11.0297C63.0721 11.0357 63.0774 11.0391 63.0789 11.0451L62.953 14.5449C62.9523 14.5654 62.9667 14.58 62.9705 14.5997V14.6743L62.7832 15.2657L62.6073 15.7423L62.4283 15.9111L61.7269 16.2043ZM20.0077 17.5191C19.8265 15.6214 18.9409 13.926 17.5381 12.8409C17.5374 12.8409 17.5366 12.8409 17.5366 12.8409C17.5359 12.84 17.5359 12.8391 17.5351 12.8391C15.6668 11.4531 13.2359 11.4231 11.341 12.7629C11.3403 12.7637 11.3387 12.7646 11.3372 12.7654C11.3365 12.7663 11.3357 12.7663 11.335 12.7663C9.78284 13.7974 8.80622 15.6069 8.68793 17.6271L8.3672 17.6366L7.12295 17.5646L6.47617 17.4274L6.28434 17.3186L6.28131 17.3006C6.27751 17.2809 6.26083 17.2714 6.25325 17.2543C6.24567 17.2363 6.24794 17.2149 6.23581 17.1994L6.02805 16.9431L5.89384 16.7349L5.83394 15.3034C5.83394 15.3026 5.83318 15.3026 5.83318 15.3017C5.83318 15.2966 5.83849 15.2931 5.83849 15.288V15.1217C5.83849 15.1209 5.83773 15.1209 5.83773 15.1209L5.83849 15.12C5.83849 15.1029 5.8256 15.0926 5.82181 15.0763L5.85441 14.6126L5.9818 13.9363C5.98332 13.9277 5.97725 13.9217 5.97801 13.9131C5.97877 13.9054 5.98559 13.9003 5.98559 13.8917V13.7889L6.02729 13.7177C6.03867 13.6989 6.0326 13.6766 6.03791 13.656C6.04246 13.6406 6.05307 13.6286 6.05459 13.6114C6.05611 13.608 6.0599 13.6063 6.06142 13.6029L6.63389 12.1637C6.63692 12.156 6.63237 12.1483 6.63465 12.1406L9.05037 11.4686L12.746 10.9851L17.3016 10.6337L20.7531 10.4657L20.6007 12.0806C20.6007 12.084 20.6029 12.0857 20.6029 12.0891C20.6029 12.0926 20.5999 12.0943 20.5999 12.0977L20.5309 14.838C20.5309 14.8423 20.5347 14.8457 20.5347 14.85C20.5347 14.8543 20.5309 14.8569 20.5317 14.8611L20.725 17.5191H20.0077ZM0.673349 14.4951L0.881107 14.334C0.882624 14.334 0.883382 14.3357 0.88414 14.3357C0.908404 14.3357 0.924327 14.316 0.945558 14.3066L1.45131 14.2637C1.46571 14.2671 1.47936 14.2731 1.49301 14.2731C1.51045 14.2731 1.52561 14.2611 1.54154 14.256L1.59992 14.2509C1.60371 14.2509 1.60599 14.2457 1.60978 14.2457C1.63025 14.2423 1.65148 14.2406 1.6712 14.2294L1.81905 14.1454C1.82057 14.1446 1.82057 14.1429 1.82133 14.142C1.85241 14.124 1.87971 14.0974 1.89867 14.0606L1.95023 13.9594H5.59055L5.48212 14.5354C5.48136 14.5406 5.48515 14.5449 5.48439 14.55C5.48363 14.5551 5.47909 14.5577 5.47833 14.5629L5.45406 14.91L0.536866 14.9683L0.432228 14.9203C0.429953 14.9194 0.427679 14.9211 0.425404 14.9203L0.426162 14.9049L0.464833 14.73L0.673349 14.4951ZM3.92772 10.9431L5.65424 10.278L8.53401 9.65486L11.6898 9.12L13.5316 8.93914L9.85108 9.50143C9.8488 9.50143 9.84804 9.504 9.84577 9.50486C9.84349 9.50571 9.84198 9.50314 9.8397 9.50314L7.26399 10.0766C7.2602 10.0774 7.25792 10.0826 7.25413 10.0843C7.25034 10.0851 7.24655 10.0817 7.242 10.0834L5.68078 10.6569C5.67926 10.6577 5.6785 10.6594 5.67699 10.6603C5.67547 10.6611 5.67395 10.6594 5.67244 10.6603L5.04765 10.9251C5.01201 10.9406 4.99154 10.974 4.97031 11.0066L3.82536 10.9929L3.92772 10.9431ZM17.4471 8.44714C17.4608 8.44457 17.4676 8.42914 17.4805 8.424L17.5776 8.44629C17.5806 8.44714 17.5836 8.44628 17.5859 8.44714L17.2841 8.478L17.4471 8.44714ZM19.5566 8.67429C19.5899 8.67429 19.6225 8.66314 19.6514 8.64429L20.283 8.55943C20.286 8.55943 20.2875 8.55514 20.2898 8.55514C20.3027 8.55257 20.3156 8.55257 20.3285 8.54743L20.7629 8.35886L21.1769 8.56629L21.0859 8.70343C21.0784 8.71543 21.0822 8.73 21.0768 8.74286C21.0715 8.75571 21.0579 8.76086 21.0549 8.77457L20.86 9.56657L20.7409 10.0371L17.2864 10.2051C17.2856 10.2051 17.2849 10.206 17.2841 10.206C17.2834 10.206 17.2826 10.2051 17.2818 10.2051L12.715 10.5574C12.7134 10.5574 12.7127 10.56 12.7104 10.56C12.7081 10.56 12.7074 10.5583 12.7059 10.5583L8.9973 11.0434C8.99275 11.0443 8.99047 11.0494 8.98592 11.0503C8.98137 11.0511 8.97834 11.0469 8.97379 11.0486L6.57095 11.7163C6.56868 11.7146 6.56944 11.712 6.56716 11.7103L6.45646 11.6263C6.45494 11.6246 6.45267 11.6263 6.45039 11.6246C6.44888 11.6237 6.44888 11.6211 6.44736 11.6194L6.13345 11.4103C6.1289 11.4069 6.12283 11.4103 6.11828 11.4077C6.11373 11.4051 6.11222 11.3983 6.10767 11.3957L5.5769 11.1566L5.80058 11.0623L7.35043 10.4931L9.90946 9.924L15.0883 9.13286L18.9515 8.736L18.9523 8.73514C18.9538 8.73514 18.9553 8.73514 18.9568 8.73514L19.5187 8.66057C19.5308 8.66486 19.5429 8.67429 19.5566 8.67429ZM22.5478 6.81771L24.8385 5.11543L26.3823 4.056L28.127 3.00257L29.3849 2.394L29.7458 2.27314L27.484 3.40114C27.4794 3.40371 27.4787 3.40971 27.4749 3.41229C27.4703 3.41486 27.465 3.41143 27.4612 3.41486L25.2479 4.956C25.2457 4.95771 25.2464 4.96029 25.2441 4.962C25.2419 4.96371 25.2396 4.962 25.2381 4.96371L23.2666 6.53914C23.2651 6.54086 23.2651 6.54343 23.2636 6.54514C23.2621 6.54686 23.2591 6.54514 23.2576 6.54686L21.4203 8.21914L21.1436 8.08029L22.5478 6.81771ZM31.3647 1.72886L34.0215 1.10829L36.733 0.900857L39.5423 0.796287L43.1296 1.056L46.3551 1.57629L49.3979 2.28514L51.1753 2.88086L53.9906 4.10914L57.1684 5.71457C57.1692 5.71457 57.1699 5.71543 57.1699 5.71543L58.8471 6.53657C58.8547 6.54086 58.8631 6.54 58.8714 6.54257C58.8744 6.54343 58.876 6.54771 58.879 6.54857L59.2991 6.66086C59.3013 6.66171 59.3044 6.66086 59.3066 6.66171C59.3074 6.66171 59.3082 6.66343 59.3089 6.66343L60.5183 6.912C60.5213 6.91286 60.5236 6.912 60.5266 6.91286C60.5274 6.91286 60.5274 6.91371 60.5282 6.91371L62.7058 7.236C62.7066 7.236 62.7066 7.236 62.7074 7.236L64.0858 7.434L64.5795 7.55057L62.7824 8.85514C62.7801 8.85686 62.7801 8.86028 62.7786 8.862C62.7764 8.86371 62.7733 8.862 62.771 8.86457L62.4526 9.13457L50.6536 9.02143L50.7431 8.81914C50.7499 8.80286 50.7431 8.78571 50.7461 8.76857C50.7499 8.75228 50.7628 8.74029 50.7628 8.72314V8.21743C50.7628 8.20629 50.7537 8.19943 50.7522 8.18914C50.7506 8.17886 50.7582 8.16943 50.7552 8.15828L50.6058 7.56857C50.6013 7.54971 50.5846 7.542 50.5762 7.52571C50.5679 7.50943 50.5702 7.48971 50.558 7.476L50.3882 7.284L50.1175 6.67371C50.1145 6.66686 50.1069 6.666 50.1039 6.66C50.1001 6.654 50.1031 6.64543 50.0993 6.63943L47.378 2.60229L47.4644 2.62286L50.7628 7.41943C50.765 7.42371 50.7704 7.422 50.7734 7.42543C50.8083 7.47086 50.8553 7.50257 50.9121 7.50257C50.9129 7.50257 50.9137 7.50257 50.9137 7.50257L55.8233 7.45114C55.824 7.45114 55.8248 7.44943 55.8263 7.44943C55.8695 7.44857 55.9082 7.42629 55.9408 7.39457C55.9507 7.38514 55.9567 7.37657 55.9643 7.36543C55.9726 7.35343 55.9848 7.34657 55.9908 7.33286L56.0371 7.22914C56.0439 7.21286 56.0371 7.19657 56.0401 7.17943C56.0439 7.16314 56.0568 7.15114 56.0568 7.13314V7.02943C56.0568 7.01657 56.047 7.00886 56.0447 6.99686C56.0432 6.98486 56.0507 6.97371 56.047 6.96171L56.0007 6.80657C55.9931 6.78086 55.9719 6.77057 55.9575 6.75086C55.9438 6.73114 55.94 6.70629 55.9203 6.69257L54.5896 5.76C54.5889 5.75914 54.5873 5.76 54.5866 5.75914C54.5858 5.75829 54.5858 5.75743 54.5851 5.75657L52.6857 4.51286C52.6834 4.51114 52.6811 4.51286 52.6788 4.512C52.6766 4.51029 52.6766 4.50686 52.6735 4.50514L50.9758 3.57257C50.9728 3.57086 50.969 3.57343 50.966 3.57171C50.9629 3.57 50.9622 3.56571 50.9592 3.56486L48.0225 2.32114C48.0172 2.31857 48.0126 2.32371 48.0066 2.322C48.0013 2.32029 47.9997 2.31343 47.9937 2.31257L47.6092 2.22171C47.5933 2.21657 47.5819 2.21143 47.5653 2.21143L47.0254 2.08371L47.0239 2.08114C46.9685 1.99886 46.8737 1.98771 46.7956 2.02886L44.9205 1.58571C44.9175 1.58486 44.9152 1.58829 44.9122 1.58743C44.9091 1.58657 44.9076 1.58314 44.9046 1.58314L41.5547 1.11686C41.5516 1.11686 41.5501 1.11943 41.5471 1.11943C41.5448 1.11943 41.5433 1.116 41.5403 1.116L38.6954 0.960857C38.6938 0.960857 38.6931 0.962571 38.6908 0.962571C38.6893 0.962571 38.6878 0.96 38.6863 0.96H37.677C37.6755 0.96 37.6732 0.96 37.6717 0.96L37.3889 0.969429C37.3866 0.968571 37.3851 0.965143 37.3828 0.965143C37.3737 0.963429 37.3654 0.971143 37.3563 0.971143L36.1113 1.01229C36.1075 1.01229 36.106 1.01657 36.1022 1.01657C36.0984 1.01657 36.0961 1.01314 36.0923 1.014L34.3036 1.27286L32.4179 1.53771C32.4141 1.53857 32.4118 1.54286 32.408 1.54371C32.4042 1.54457 32.4012 1.54029 32.3974 1.542L30.0522 2.17286L31.3647 1.72886ZM68.0059 13.8086L68.1402 14.082L68.1644 14.2774L63.339 14.3597L63.4519 11.2114L65.6675 11.2286C65.6683 11.2286 65.6683 11.2286 65.669 11.2286C65.6766 11.2286 65.6842 11.2286 65.691 11.2277L66.2991 11.1463L66.3257 12.4286C66.3257 12.4363 66.3325 12.4414 66.3333 12.4491C66.334 12.4569 66.328 12.4637 66.3302 12.4714L66.3598 12.6206L66.3742 12.7714C66.3765 12.7929 66.3916 12.8049 66.3985 12.8237C66.4038 12.8391 66.3985 12.8563 66.4076 12.8709L66.4212 12.8923L64.4217 12.8769C64.421 12.8769 64.421 12.8769 64.4202 12.8769C64.3156 12.8769 64.2314 12.9711 64.2307 13.0894C64.2299 13.2086 64.3141 13.3046 64.4187 13.3054L66.7533 13.3234C66.7541 13.3234 66.7541 13.3234 66.7548 13.3234H67.4911H67.6473L67.6617 13.3329L67.7004 13.3774L68.0059 13.8086ZM63.4171 10.7623C63.4209 10.7709 63.4277 10.7751 63.4322 10.7829H63.4201L63.4171 10.7623ZM65.5477 8.42571L65.8692 9.17571L65.9754 9.84343L66.052 10.4151L63.7135 10.458L63.5869 10.1194C63.5846 10.1143 63.5793 10.1134 63.5771 10.1083C63.5748 10.104 63.5778 10.098 63.5755 10.0937L63.2487 9.47143L65.1284 8.02714L65.5477 8.42571ZM62.8082 9.36857C62.8082 9.37029 62.809 9.37114 62.809 9.37286L62.8067 9.37029L62.8082 9.36857ZM49.658 10.3089L47.7821 14.07L37.8893 14.1531H36.3653V13.2729V11.268L36.5609 9.86657L36.6291 9.864L45.8016 9.612H46.8101L46.7972 9.64543C46.7956 9.64886 46.7979 9.65314 46.7972 9.65657C46.7964 9.66 46.7926 9.66086 46.7911 9.66428L46.7653 9.75343C46.7615 9.76543 46.7691 9.77657 46.7676 9.78857C46.7661 9.80057 46.7555 9.80829 46.7555 9.82114V9.93943C46.7555 9.948 46.763 9.95314 46.7638 9.96171C46.7646 9.96943 46.7585 9.97628 46.76 9.984L46.7858 10.122C46.7873 10.1297 46.7934 10.1331 46.7956 10.14C46.7972 10.1469 46.7934 10.1537 46.7956 10.1597L46.8571 10.3277C46.8616 10.3397 46.8715 10.3449 46.8775 10.3551C46.8813 10.3611 46.8783 10.3697 46.8821 10.3757L47.0815 10.6706L47.1763 10.8171C47.1824 10.8257 47.1937 10.8231 47.1998 10.8309C47.2256 10.8609 47.2514 10.8909 47.29 10.9003L47.5433 10.9594C47.5569 10.9629 47.5691 10.9637 47.5819 10.9637H48.7974C48.8186 10.9637 48.8406 10.9594 48.8611 10.9509L49.1053 10.8523C49.109 10.8506 49.1098 10.8454 49.1136 10.8437C49.1204 10.8403 49.1272 10.842 49.1333 10.8377L49.291 10.7391C49.2971 10.7357 49.2971 10.7271 49.3024 10.7229C49.3085 10.7186 49.3168 10.7203 49.3229 10.7143L49.4449 10.596C49.4525 10.5883 49.451 10.5754 49.4578 10.5669C49.4745 10.5446 49.495 10.5257 49.5026 10.4966L49.608 10.1117C49.6102 10.1023 49.6042 10.0946 49.6057 10.0851C49.6072 10.0757 49.6155 10.0697 49.6163 10.0594L49.6246 9.88114C49.6246 9.87857 49.6224 9.87771 49.6231 9.87514C49.6231 9.87343 49.6246 9.87171 49.6246 9.87V9.74229C49.6246 9.72943 49.6148 9.72171 49.6125 9.70971C49.611 9.69771 49.6186 9.68657 49.6148 9.67457L49.5966 9.61286H49.9659L49.658 10.3089ZM46.114 17.4154L45.5734 17.418C45.5696 17.418 45.5665 17.418 45.5635 17.418L36.7141 17.4669L36.5874 16.608L36.366 14.7711V14.5817H37.8924C37.8931 14.5817 37.8931 14.5817 37.8939 14.5817L47.5691 14.5003L46.114 17.4154ZM25.4504 5.31771L27.65 3.786L29.9559 2.63657L32.477 1.95857L34.3521 1.69543C34.3529 1.69543 34.3529 1.69543 34.3537 1.69543L36.1333 1.43743L37.1068 1.40571L36.068 6.88114C36.0673 6.88371 36.0696 6.88543 36.0696 6.88886C36.0688 6.89229 36.0658 6.894 36.0658 6.89657L35.9702 7.67657L32.0744 7.80086C32.0736 7.80086 32.0729 7.80086 32.0729 7.80086L27.6 7.986L27.0647 6.43114C27.0594 6.41657 27.045 6.41143 27.0374 6.39857C27.0298 6.38571 27.0321 6.36857 27.0222 6.35743L26.9108 6.23143C26.9039 6.22371 26.8933 6.22629 26.8857 6.21943C26.8782 6.21257 26.8774 6.20057 26.8683 6.19543L26.7424 6.11657C26.7197 6.10286 26.6954 6.11057 26.6712 6.10714C26.6499 6.10371 26.6317 6.08914 26.6097 6.09429L26.4831 6.126C26.4725 6.12857 26.4679 6.14143 26.4573 6.14657C26.4475 6.15086 26.4361 6.14486 26.4262 6.15171L26.3565 6.19886C26.3428 6.20829 26.3406 6.22714 26.3299 6.23914C26.3186 6.25114 26.3019 6.25286 26.2935 6.26829L26.2238 6.39429C26.2101 6.41829 26.2162 6.44571 26.2124 6.47229C26.2079 6.49886 26.1935 6.522 26.1988 6.55029L26.2132 6.62914C26.2147 6.63771 26.2215 6.64114 26.2238 6.64886C26.2253 6.65571 26.2215 6.66257 26.2238 6.66857L26.2935 6.858L26.6749 8.022L26.2807 8.03829C26.2807 8.03829 26.2799 8.03829 26.2791 8.03829L25.8401 8.05971V7.87543C25.8401 7.87029 25.8356 7.86686 25.8356 7.86257C25.8356 7.85743 25.8394 7.854 25.8386 7.84886L25.687 6.51343C25.6839 6.48514 25.6635 6.468 25.6521 6.44486C25.6415 6.42257 25.6399 6.396 25.6217 6.378L25.6142 6.37114C25.6134 6.37029 25.6134 6.37029 25.6126 6.36943L25.4094 6.17229C25.3981 6.16114 25.3829 6.16543 25.3708 6.15771C25.3586 6.15 25.3526 6.13371 25.3382 6.12857L25.1259 6.06C25.1221 6.05829 25.119 6.06257 25.1152 6.06086C25.1115 6.06 25.1099 6.05571 25.1069 6.05486L24.9606 6.02571V5.99143C24.9606 5.96657 24.9446 5.95114 24.9378 5.92886C24.9317 5.90657 24.9355 5.88257 24.9226 5.86286L24.8681 5.78057L25.4504 5.31771ZM37.6831 1.386H37.8674L37.4283 5.94343L37.3472 6.66514C37.3442 6.67029 37.3381 6.66943 37.3351 6.67543C37.3025 6.73371 37.3055 6.79971 37.3252 6.85971L37.2388 7.62943L36.3539 7.66371L36.4403 6.95571L37.4958 1.39286L37.6831 1.386ZM38.6863 1.386L41.5153 1.54029L44.8515 2.00486L46.8093 2.46686L49.7854 6.88286L49.9196 7.18714L43.282 7.43143L40.5849 7.5C40.5841 7.5 40.5841 7.50086 40.5841 7.50086C40.5841 7.50086 40.5834 7.5 40.5826 7.5L38.8978 7.56514V7.44C38.8978 7.41771 38.8826 7.40314 38.8766 7.38257C38.8713 7.362 38.8766 7.33971 38.866 7.32086L38.8068 7.22057L38.8053 7.218C38.7947 7.2 38.775 7.19743 38.7606 7.18457C38.7416 7.16657 38.7249 7.14514 38.6991 7.13657L38.9744 6.98057C38.9789 6.978 38.9797 6.97114 38.9835 6.96857C39.0168 6.94629 39.0419 6.91371 39.0578 6.87171C39.0608 6.86486 39.0669 6.86057 39.0692 6.85371C39.0692 6.85286 39.0707 6.852 39.0707 6.85114L39.2527 6.16629C39.2557 6.15343 39.2481 6.14314 39.2496 6.13029C39.2511 6.11743 39.2618 6.10886 39.261 6.09514L39.2307 5.34171C39.2299 5.32029 39.2147 5.30657 39.2087 5.28686C39.2034 5.26971 39.2094 5.25086 39.2003 5.23457L38.8667 4.65257C38.8599 4.64143 38.847 4.64057 38.8387 4.63114C38.8311 4.62171 38.8311 4.60629 38.8212 4.59857L38.5793 4.39286C38.5687 4.38343 38.5543 4.38857 38.5422 4.38171C38.5301 4.37486 38.5247 4.35943 38.5111 4.356L38.1471 4.25314C38.1456 4.25229 38.1441 4.254 38.1426 4.254C38.1161 4.24714 38.091 4.26086 38.0645 4.26771C38.0425 4.27286 38.019 4.26857 38.0008 4.28229C37.9993 4.28314 37.9978 4.28229 37.9963 4.28314L37.9667 4.30543L38.248 1.38771H38.6863V1.386ZM47.6024 10.5326L47.4402 10.4949L47.3871 10.4134C47.3863 10.4126 47.3856 10.4126 47.3856 10.4126C47.3848 10.4117 47.3856 10.4109 47.3848 10.41L47.2006 10.1383L47.1528 10.0089L47.1353 9.918V9.85457L47.1482 9.81171L47.1566 9.78943L47.196 9.76886L49.1682 9.72L49.2364 9.74143L49.247 9.77657V9.85886L49.2402 10.0097L49.1583 10.3097L49.0916 10.3749L48.965 10.4546L48.7671 10.5343H47.6024V10.5326ZM45.7978 9.18171C45.797 9.18171 45.7963 9.18257 45.7955 9.18257C45.7948 9.18257 45.794 9.18171 45.7933 9.18171L36.6178 9.43371L36.6572 9.11657L37.0568 8.064L37.3646 8.052C37.3707 8.05371 37.3737 8.06143 37.3806 8.06229C37.3889 8.06314 37.3965 8.064 37.4041 8.064C37.417 8.064 37.4261 8.052 37.4389 8.04943L40.5955 7.92771L43.2926 7.85914C43.2933 7.85914 43.2933 7.85914 43.2941 7.85914L50.138 7.60714L50.254 7.73829L50.3829 8.24571V8.67L50.1782 9.13029L50.1562 9.18171H45.7978ZM35.9884 11.2166C35.9877 11.2226 35.9922 11.2277 35.9922 11.2337C35.9915 11.2397 35.9862 11.2431 35.9862 11.25V13.272V14.1523H30.5063C30.5063 14.1523 30.5056 14.1523 30.5048 14.1523L20.9252 14.2354L20.979 12.1157L21.136 10.4494L29.9164 10.116L33.2618 9.99L33.2489 10.1289C33.2489 10.1331 33.2519 10.1357 33.2519 10.14C33.2519 10.1443 33.2481 10.1469 33.2481 10.1511V10.3123V10.4571C33.2481 10.4709 33.2588 10.4794 33.261 10.4923C33.2633 10.5051 33.2557 10.5171 33.2595 10.53L33.3164 10.7074C33.324 10.7323 33.3422 10.7469 33.3558 10.7657C33.3619 10.7743 33.3604 10.7871 33.3679 10.7949L33.4961 10.9234C33.5022 10.9294 33.5097 10.9269 33.5158 10.932C33.5211 10.9363 33.5211 10.9449 33.5272 10.9483L33.7979 11.1257C33.8017 11.1283 33.8055 11.1274 33.8092 11.1291C33.8115 11.1309 33.8123 11.1343 33.8146 11.1351L33.9715 11.2157C33.9943 11.2269 34.0178 11.2311 34.0413 11.2329C34.0428 11.2329 34.0435 11.2346 34.0458 11.2354L35.215 11.268C35.2165 11.268 35.2181 11.268 35.2196 11.268C35.234 11.268 35.2484 11.2663 35.2636 11.262L35.5054 11.1977C35.5069 11.1969 35.5077 11.1951 35.51 11.1943C35.5153 11.1926 35.5206 11.1934 35.5267 11.1909L35.6836 11.1266C35.698 11.1206 35.7026 11.1034 35.7147 11.094C35.7268 11.0854 35.742 11.088 35.7526 11.076L35.8952 10.9149C35.9012 10.908 35.899 10.8977 35.9043 10.89C35.9141 10.8763 35.9278 10.8677 35.9346 10.8506L35.9915 10.7057C35.9937 10.6997 35.9899 10.6929 35.9922 10.686C35.9945 10.6783 36.0021 10.674 36.0036 10.6654L36.0324 10.5206C36.0324 10.5197 36.0324 10.5197 36.0324 10.5189L36.0756 10.2926C36.0771 10.284 36.0711 10.278 36.0718 10.2694C36.0726 10.2609 36.0802 10.2557 36.0802 10.2471V10.038C36.0802 10.0251 36.0696 10.0166 36.068 10.0046C36.0665 9.99257 36.0734 9.98143 36.0703 9.96943L36.0453 9.88543L36.1772 9.88029L35.9884 11.2166ZM26.2943 8.46943L26.9343 8.44286C26.9373 8.44286 26.9396 8.44629 26.9426 8.44629C26.9494 8.44629 26.957 8.44286 26.9638 8.442L27.4491 8.42229C27.4582 8.424 27.4658 8.43086 27.4749 8.43086C27.4938 8.43086 27.5136 8.42571 27.5325 8.41886L32.0858 8.23029L36.062 8.10343C36.0779 8.11114 36.0878 8.12914 36.1052 8.13257C36.1143 8.13343 36.1226 8.13429 36.131 8.13429C36.1636 8.13429 36.1894 8.11457 36.2167 8.09829L36.6382 8.082L36.2993 8.97514C36.2955 8.98457 36.3016 8.994 36.2993 9.00429C36.297 9.01371 36.2879 9.01886 36.2864 9.02914L36.2333 9.44914L29.9028 9.68743L21.1383 10.0209L21.2232 9.68571C21.2232 9.68571 21.2232 9.684 21.2239 9.684L21.4097 8.92886L21.5598 8.70257L22.1103 8.67514H23.2234C23.2333 8.67514 23.2439 8.67429 23.2545 8.67257C23.275 8.66829 23.2864 8.64857 23.3038 8.63829C23.3205 8.62886 23.341 8.62886 23.3538 8.61429L26.2943 8.46943ZM26.6423 6.70029C26.6416 6.69857 26.6431 6.69686 26.6423 6.69514L26.587 6.54514L26.59 6.54L26.5938 6.53743L26.6204 6.53057L26.6605 6.55629L26.725 6.62914L27.1981 8.00314L27.0723 8.00829L26.6454 6.70371C26.6446 6.702 26.6431 6.70114 26.6423 6.70029ZM34.0936 10.8069L33.9798 10.7486L33.7357 10.5891L33.6568 10.5094L33.628 10.4194V10.3123V10.1606L33.6364 10.0646L33.6515 10.0389L33.6568 10.0337L33.6925 10.0286C33.7038 10.0311 33.7114 10.0423 33.7236 10.0423C33.7258 10.0423 33.7289 10.0423 33.7319 10.0423L35.601 9.948L35.651 9.97029L35.6897 10.0363L35.7003 10.0706V10.224L35.6624 10.4229L35.6616 10.4237L35.6366 10.5489L35.6017 10.6371L35.5145 10.7357L35.4053 10.7803L35.1999 10.8351L34.0936 10.8069ZM22.7859 7.71171C22.7874 7.71086 22.7867 7.70914 22.7882 7.70743C22.7897 7.70657 22.7912 7.70657 22.792 7.70571L23.297 7.26943C23.2879 7.28914 23.2947 7.31057 23.2924 7.332C23.2886 7.35943 23.2811 7.38343 23.2864 7.41C23.2879 7.41857 23.2871 7.42629 23.2902 7.43486L23.184 7.62686C23.181 7.632 23.184 7.638 23.1817 7.64229C23.1795 7.64743 23.1734 7.64829 23.1711 7.65343L23.0498 7.96114C23.0483 7.96457 23.0506 7.96886 23.0498 7.97228C23.0483 7.97571 23.0445 7.97657 23.0437 7.98086L23.0324 8.02029L23.0073 8.04171L22.3446 8.06057L22.7859 7.71171ZM23.3842 8.18314L23.4009 8.12657L23.5123 7.84286L23.5457 7.78286L23.896 8.15828L23.3842 8.18314ZM25.1933 6.53057L25.3185 6.65229L25.4595 7.89257V7.99543L25.3859 8.07857L24.5595 8.10857L24.4571 8.06229L24.2145 7.90971L23.7732 7.43743C23.7671 7.38686 23.7413 7.34143 23.7049 7.30714L23.9779 6.71571L24.0848 6.61886L24.3343 6.462L24.4586 6.40543L24.5579 6.38314L25.028 6.47743L25.1933 6.53057ZM38.3837 4.76057L38.5672 4.91657L38.8553 5.41886L38.8819 6.07886L38.7325 6.63943L38.3678 6.846L38.041 6.81771L37.8097 6.75943L37.7256 6.70029L37.8052 5.99571C37.8052 5.99486 37.8044 5.994 37.8044 5.99314C37.8044 5.99229 37.8052 5.99229 37.8052 5.99143L37.9144 4.86086L38.1373 4.69286L38.3837 4.76057ZM37.6475 7.39457L38.1934 7.446L38.5187 7.52486V7.57629V7.57886L37.6224 7.61314L37.6475 7.39457ZM21.1064 17.5534L20.9093 14.8406L20.9138 14.6657L30.5079 14.5817H35.9862V14.7883C35.9862 14.7934 35.9907 14.7969 35.9915 14.802C35.9915 14.808 35.9869 14.8114 35.9877 14.8174L36.2114 16.6714C36.2114 16.6723 36.2129 16.6731 36.2129 16.674C36.2129 16.6749 36.2121 16.6757 36.2121 16.6774L36.3289 17.4694L21.1064 17.5534ZM50.8143 3.95914L52.5052 4.88743L54.3894 6.12171L55.6618 7.014L55.664 7.02257L52.4779 7.056L52.4999 6.918C52.5037 6.89571 52.4908 6.87857 52.4878 6.85714C52.4855 6.83657 52.4946 6.81686 52.487 6.79629L52.4317 6.64971C52.4241 6.62914 52.4051 6.62314 52.393 6.60686C52.3816 6.59057 52.3793 6.56829 52.3627 6.55629L52.1405 6.38914C52.1382 6.38743 52.1344 6.38914 52.1322 6.38743C52.1299 6.38571 52.1291 6.38143 52.1268 6.37971L52.029 6.31971L52.0397 6.14314C52.0404 6.13543 52.0336 6.13029 52.0336 6.12343C52.0336 6.11571 52.0396 6.10971 52.0389 6.10114L51.9464 5.30743C51.9441 5.29114 51.9305 5.28257 51.9259 5.268C51.9214 5.25257 51.9267 5.23629 51.9191 5.22257L51.7348 4.88829C51.728 4.87543 51.7136 4.87457 51.7045 4.86343C51.6962 4.85314 51.6962 4.83686 51.6856 4.82829L51.4816 4.66114C51.4649 4.64743 51.4444 4.65257 51.4255 4.64571C51.4065 4.638 51.3921 4.62 51.3701 4.62H50.8704C50.8545 4.62 50.8439 4.63543 50.8295 4.63886C50.8151 4.64229 50.7999 4.63457 50.7863 4.64229L50.4163 4.85143C50.4003 4.86 50.3973 4.87971 50.3844 4.89257C50.3715 4.90457 50.3541 4.90629 50.3442 4.92257L50.1046 5.31943C50.0955 5.334 50.1008 5.35114 50.0955 5.36743C50.0902 5.38286 50.0758 5.39229 50.0735 5.40943L50.0394 5.67086L48.0612 2.79343L50.8143 3.95914ZM51.0031 7.07143L50.7863 6.756L50.8219 6.71571L51.132 6.61543L51.5058 6.64114L51.4505 6.74571L51.2647 7.068L51.0031 7.07143ZM50.4413 5.51914L50.6286 5.20886L50.9144 5.04771H51.3087L51.4323 5.14886L51.5756 5.40771L51.6605 6.138L51.6552 6.22286L51.1222 6.186C51.11 6.18514 51.1025 6.19629 51.0911 6.198C51.0797 6.19971 51.0706 6.19029 51.0592 6.19371L50.6703 6.31886C50.6536 6.324 50.6468 6.34286 50.6331 6.35229C50.6187 6.36171 50.6005 6.35914 50.5884 6.37286L50.552 6.414L50.3609 6.13629L50.4413 5.51914ZM51.7697 6.97629C51.7705 6.97543 51.7697 6.97371 51.7705 6.97286C51.7712 6.97114 51.7727 6.97114 51.7735 6.96943L51.9016 6.72771L51.938 6.75L52.1064 6.87686L52.117 6.906L52.0927 7.05943L51.7197 7.06371L51.7697 6.97629ZM1.35349 13.1846L1.85166 11.9349L2.03363 11.5234L2.39759 11.5371L1.97904 12.2966C1.97677 12.3009 1.97904 12.306 1.97677 12.3103C1.97449 12.3146 1.96994 12.3146 1.96767 12.3197L1.4877 13.488C1.48694 13.4906 1.48846 13.4931 1.4877 13.4949C1.48694 13.4974 1.48391 13.4974 1.48315 13.5L1.36487 13.8411L1.09341 13.8643L1.09948 13.8394L1.35349 13.1846ZM5.61026 13.1966H4.29016L4.34931 13.0054L4.64729 12.1954L5.00594 11.7737L5.3244 11.7891L5.62998 11.8791L5.99772 12.1311L5.96891 12.2331L5.61026 13.1966ZM2.5591 13.1966L2.87907 12.5126L3.3181 11.6871L4.39935 11.7017L4.03539 12.2863C4.03084 12.2931 4.03388 12.3026 4.03084 12.3103C4.02705 12.318 4.01795 12.3197 4.01492 12.3283L3.84887 12.7877C3.84735 12.7929 3.85038 12.798 3.84887 12.8031C3.84735 12.8083 3.84204 12.81 3.84052 12.8151L3.75257 13.1966H2.5591ZM0.740074 16.5977L0.724151 15.5049L5.46392 15.5271L5.50866 16.5977H0.740074ZM1.44524 18.5786L1.44221 18.5751L1.42173 18.5177L1.26402 17.4103L3.04513 17.3889L3.14067 18.5786H3.13915H1.44524ZM21.6455 18.5906L21.5477 18.4251L21.4749 18.2074L21.5053 18.1037L21.6243 17.9966L21.6531 17.9786L36.3918 17.898L36.4752 18.4637L21.6455 18.5906ZM36.8604 18.4603L36.777 17.8954L45.4672 17.8474L45.7068 18.1723L45.5764 18.3849L36.8604 18.4603ZM0.666525 17.3323L0.677898 17.43L0.653635 17.3331L0.666525 17.3323ZM10.2097 14.4077C10.1635 14.4711 10.1157 14.532 10.0717 14.5971C10.1157 14.532 10.1627 14.4703 10.2097 14.4077ZM9.75857 15.1114C9.75781 15.1123 9.75705 15.114 9.7563 15.1157C9.75781 15.114 9.75857 15.1123 9.75857 15.1114ZM10.5684 13.9629C10.5358 13.9997 10.5032 14.0366 10.4706 14.0751C10.5032 14.0374 10.535 13.9997 10.5684 13.9629ZM14.4369 12.2066C14.6932 12.2091 14.9495 12.2331 15.2035 12.2777C14.9503 12.2331 14.694 12.2109 14.4369 12.2066ZM16.7314 12.822C16.6275 12.7663 16.5213 12.7183 16.4152 12.6694C16.5213 12.7191 16.6275 12.7654 16.7314 12.822ZM16.0019 12.4929C15.8518 12.4397 15.6979 12.4029 15.544 12.3643C15.6979 12.4029 15.851 12.4389 16.0019 12.4929ZM17.3266 13.1966C17.3425 13.2086 17.3562 13.2231 17.3721 13.236C17.3304 13.2051 17.2887 13.1751 17.2462 13.146C17.272 13.164 17.3 13.1769 17.3266 13.1966Z" fill="black"/>
</g>
<defs>
<clipPath id="clip0_3_28">
<rect width="69" height="24" fill="white"/>
</clipPath>
</defs>
</svg>
