<svg width="26" height="26" viewBox="0 0 26 26" fill="none" xmlns="http://www.w3.org/2000/svg">
<g clip-path="url(#clip0_1407_7067)">
<path d="M10.833 12.2778H12.9997V13.7223H10.833V12.2778Z" fill="#040404"/>
<path d="M19.1027 10.2339C17.8218 8.1379 16.0744 6.3658 13.9966 5.0556C13.0367 4.44723 11.9424 4.08309 10.8094 3.99496C9.67636 3.90684 8.53898 4.09741 7.49656 4.55005C6.58476 4.98013 5.79135 5.6257 5.18485 6.43101C4.57836 7.23632 4.177 8.17715 4.01545 9.17227C3.95767 9.51171 3.91434 9.83671 3.871 10.1545C3.19482 10.2641 2.57958 10.6104 2.13509 11.1316C1.6906 11.6528 1.44579 12.315 1.44434 13V17.4273C1.44434 17.8104 1.59652 18.1778 1.8674 18.4486C2.13829 18.7195 2.50569 18.8717 2.88878 18.8717V13C2.88878 12.617 3.04096 12.2496 3.31185 11.9787C3.58273 11.7078 3.95013 11.5556 4.33323 11.5556H17.8604C19.2524 11.5575 20.5868 12.1113 21.571 13.0956C22.5553 14.0798 23.1091 15.4142 23.111 16.8062V17.3334H21.6666C21.3615 16.5896 20.7933 15.9841 20.0704 15.6325C19.3474 15.2809 18.5203 15.2078 17.7469 15.4272C16.9735 15.6465 16.3079 16.143 15.8771 16.8217C15.4464 17.5005 15.2806 18.3141 15.4115 19.1073C15.5424 19.9005 15.9607 20.6178 16.5867 21.1222C17.2127 21.6266 18.0025 21.8829 18.8054 21.8422C19.6082 21.8014 20.368 21.4665 20.9397 20.9013C21.5114 20.3361 21.855 19.5802 21.9049 18.7778H23.111C23.4941 18.7778 23.8615 18.6256 24.1324 18.3548C24.4033 18.0839 24.5554 17.7165 24.5554 17.3334V16.8062C24.5525 15.2475 24.0065 13.7387 23.0113 12.5392C22.0161 11.3397 20.634 10.5245 19.1027 10.2339ZM7.94434 10.1112H5.00489C5.00489 9.88727 5.06989 9.65616 5.11322 9.38893C5.238 8.59554 5.56364 7.84725 6.05917 7.2152C6.55469 6.58315 7.20365 6.08834 7.94434 5.77782V10.1112ZM9.38878 10.1112V5.47449C10.7371 5.2994 12.1046 5.59534 13.2599 6.31227C14.837 7.29462 16.1982 8.58703 17.261 10.1112H9.38878ZM18.6332 20.4967C18.2761 20.4967 17.927 20.3908 17.6301 20.1924C17.3332 19.994 17.1018 19.712 16.9651 19.3821C16.8285 19.0522 16.7927 18.6892 16.8624 18.3389C16.932 17.9887 17.104 17.6669 17.3565 17.4144C17.609 17.1619 17.9307 16.99 18.281 16.9203C18.6312 16.8506 18.9943 16.8864 19.3242 17.023C19.6541 17.1597 19.9361 17.3911 20.1345 17.688C20.3329 17.985 20.4388 18.334 20.4388 18.6912C20.4388 19.17 20.2486 19.6293 19.9099 19.9679C19.5713 20.3065 19.1121 20.4967 18.6332 20.4967Z" fill="#040404"/>
<path d="M10.2342 17.3333C9.92922 16.5895 9.36101 15.984 8.63805 15.6324C7.91509 15.2809 7.08798 15.2078 6.31456 15.4271C5.54115 15.6465 4.87556 16.1429 4.44482 16.8217C4.01407 17.5005 3.84832 18.3141 3.9792 19.1073C4.11008 19.9005 4.52842 20.6177 5.15439 21.1221C5.78037 21.6266 6.57015 21.8829 7.37304 21.8421C8.17593 21.8014 8.93571 21.4664 9.5074 20.9012C10.0791 20.336 10.4227 19.5801 10.4726 18.7777H14.3004V18.5972C14.2861 18.1711 14.3347 17.7452 14.4448 17.3333H10.2342ZM7.22258 20.4966C6.86547 20.4966 6.51639 20.3907 6.21947 20.1923C5.92254 19.994 5.69112 19.712 5.55446 19.382C5.4178 19.0521 5.38205 18.6891 5.45172 18.3388C5.52138 17.9886 5.69335 17.6669 5.94586 17.4144C6.19837 17.1619 6.52009 16.9899 6.87033 16.9202C7.22058 16.8506 7.58361 16.8863 7.91354 17.023C8.24346 17.1596 8.52545 17.391 8.72384 17.688C8.92224 17.9849 9.02813 18.334 9.02813 18.6911C9.02813 19.1699 8.83791 19.6292 8.4993 19.9678C8.16069 20.3064 7.70144 20.4966 7.22258 20.4966Z" fill="#040404"/>
</g>
<defs>
<clipPath id="clip0_1407_7067">
<rect width="26" height="26" fill="white"/>
</clipPath>
</defs>
</svg>
