<svg xmlns="http://www.w3.org/2000/svg" viewBox="0 0 64 80" x="0px" y="0px"><title>motorbiking-motocycle-driving-racing</title><path d="M53,31a9.027,9.027,0,0,0-1.006.06L51.525,29H53a1,1,0,0,0,.929-.629l2-5a1,1,0,0,0-.764-1.357l-5.433-.906-.757-3.33A1,1,0,0,0,48,17H44v2h3.2l.626,2.757-.516.516a1,1,0,0,1-1.154.188l-4.711-2.356a.876.876,0,0,0-.131-.053l-1.948-.65a5,5,0,0,0-2.666-.138l-6.815,1.514a3.019,3.019,0,0,0-2.194,1.98l-.458,1.376-.108.021a17.286,17.286,0,0,1-8.091-.328l-2.761-.789a.961.961,0,0,0-.151-.03l-8-1a1.043,1.043,0,0,0-.32.012l-5,1a1,1,0,0,0-.179,1.907l9.251,3.736-.394,2.361C11.322,31.016,11.163,31,11,31a9,9,0,1,0,8.941,10h3.582l-1.4,2.515A1,1,0,0,0,23,45H36.333a4.987,4.987,0,0,0,4.616-3.077l3.858-9.259,4.776-3.184.462,2.029A8.975,8.975,0,1,0,53,31Zm.61-7.218L52.323,27H51.071l-.86-3.784ZM27.52,26.116l.27-.054.9.6a10.955,10.955,0,0,1-11.965-1.413l1.765.505A19.28,19.28,0,0,0,27.52,26.116ZM13.763,29.5l7.961,3.69A4.965,4.965,0,0,1,24.442,39h-4.5a9.015,9.015,0,0,0-6.485-7.651ZM15.9,39a5.009,5.009,0,0,0-3.109-3.655l.335-2.013A7.014,7.014,0,0,1,17.92,39Zm-2.083,2a2.994,2.994,0,1,1-3.339-3.947L9.819,41Zm-1.635-2,.268-1.61A3,3,0,0,1,13.816,39ZM11,47a7,7,0,0,1,0-14c.051,0,.1.007.152.008l-.336,2.011A4.992,4.992,0,1,0,15.9,41H17.92A7.006,7.006,0,0,1,11,47ZM43.077,31.615,39.1,41.153A2.993,2.993,0,0,1,36.333,43H24.7l1.039-1.872a7,7,0,0,0-3.175-9.75l-9.288-4.3-6.8-2.748,1.563-.312,5.289.661-.033.033,1.3,1.3A12.955,12.955,0,0,0,30.6,27.884l1.358-.835a5.558,5.558,0,0,1,5.979.108A23.549,23.549,0,0,0,43.548,29.9l1.2.4-1.3.866A1,1,0,0,0,43.077,31.615ZM46.852,28.9l-2.671-.89a21.587,21.587,0,0,1-5.139-2.514,7.562,7.562,0,0,0-8.136-.147l-.3.187-1.412-.941.4-1.2a1.009,1.009,0,0,1,.731-.661l6.813-1.513a3,3,0,0,1,1.6.082l1.881.627,4.648,2.324a2.994,2.994,0,0,0,3.077-.239l.768,3.381ZM53,47a7,7,0,0,1-2.509-13.527l.451,1.983A4.977,4.977,0,1,0,53,35c-.037,0-.071.01-.108.011l-.451-1.983c.185-.014.37-.028.559-.028a7,7,0,0,1,0,14Zm-.975-6.778,1.95-.444-.623-2.742a2.99,2.99,0,1,1-1.952.436Z"/><text x="0" y="79" fill="#000000" font-size="5px" font-weight="bold" font-family="'Helvetica Neue', Helvetica, Arial-Unicode, Arial, Sans-serif">Created by mynamepong</text><text x="0" y="84" fill="#000000" font-size="5px" font-weight="bold" font-family="'Helvetica Neue', Helvetica, Arial-Unicode, Arial, Sans-serif">from the Noun Project</text></svg>