<svg width="42" height="24" viewBox="0 0 42 24" fill="none" xmlns="http://www.w3.org/2000/svg">
<g clip-path="url(#clip0_3_74)">
<path d="M14.6808 7.87591C14.5028 8.27568 14.3754 8.64043 14.3005 8.96811L14.2989 8.97634L14.2961 8.98869L14.2939 8.99897L14.2911 9.00926C14.2448 9.2226 14.2205 9.41991 14.2189 9.6012C14.214 10.0731 14.3656 10.4348 14.6736 10.6841C15.0148 10.9582 15.5584 11.1261 16.3014 11.1838C17.434 11.2725 18.9862 11.1009 20.9535 10.6718C19.4244 8.99434 18.1198 7.92073 17.0433 7.45191C16.04 7.01608 15.2518 7.15672 14.6808 7.87591ZM40.2147 7.88106L32.8413 7.9573V9.74031L40.3105 9.76714L40.2147 7.88106ZM32.8181 7.52249L40.2615 7.44573C40.2747 7.4241 40.2902 7.40297 40.3078 7.38288L40.6865 6.95013L39.8729 6.19798H33.1709L32.3209 6.99187L32.7046 7.35043C32.7558 7.39833 32.7949 7.45655 32.8181 7.52249ZM39.5378 19.4751C40.2604 19.4436 40.7151 19.321 40.9439 19.1624C40.9858 19.1335 41.0106 19.1109 41.0194 19.0964L41.0078 19.0845C40.9351 18.9867 40.7505 18.8867 40.466 18.8095C40.3954 18.7904 40.3338 18.7575 40.283 18.7142H39.5378V19.4751ZM41.5927 18.4014C41.6731 18.4705 41.7404 18.5436 41.7933 18.6194L41.8142 18.6492C41.9488 18.8584 41.9873 19.0856 41.9234 19.3113C41.8661 19.5142 41.7255 19.7038 41.4984 19.8609C41.1297 20.1159 40.4682 20.3112 39.4799 20.3457C39.4005 20.4801 39.2468 20.5713 39.071 20.5713L39.0334 20.5703L38.4062 20.5821C37.5788 22.0597 36.369 23.0452 35.0438 23.5434C34.3146 23.8174 33.5468 23.9442 32.7889 23.9247C32.0294 23.9045 31.2781 23.7376 30.5808 23.4249C29.3946 22.8927 28.3622 21.9412 27.7035 20.5811L18.7845 20.6492C17.8574 20.7445 16.9981 20.3751 16.2457 19.5776C15.5605 19.728 14.9796 19.7198 14.5077 19.5529C13.9395 19.3524 13.5453 18.9434 13.3254 18.3293L13.321 18.319L13.3128 18.2979L10.9249 11.8283L10.4024 12.5918C12.051 13.7948 12.5322 16.9589 12.863 19.1335C12.9952 20.0083 13.1028 20.7099 13.2279 20.9624C13.3183 21.1473 13.2598 21.3735 13.0768 21.4971C12.4562 21.9154 11.8625 22.0725 11.3003 21.9675C11.1002 21.9298 10.9084 21.8603 10.7248 21.7578C10.6323 21.8588 10.538 21.9556 10.4426 22.0484C9.33141 23.1266 7.93247 23.7861 6.50265 23.956C5.05906 24.1271 3.58294 23.803 2.33116 22.9133C2.141 22.7783 1.9569 22.6316 1.78547 22.4769L1.7546 22.4466C0.478574 21.052 -0.0621543 19.4648 0.00564344 17.9578C0.0596612 16.7621 0.496764 15.6189 1.25191 14.6623L0.702362 14.7499C0.448809 14.7911 0.207383 14.6325 0.163287 14.3955C0.140688 14.2749 0.17376 14.1574 0.244313 14.0657C1.12954 12.7618 2.32785 11.9149 3.80011 11.5269C5.17371 11.1648 6.77825 11.2091 8.57788 11.6604L9.29724 10.5723L9.27129 10.5759C9.02605 10.6089 8.79233 10.5883 8.57409 10.5157L8.54708 10.5069C8.32275 10.4265 8.12264 10.2936 7.95121 10.1091C7.62325 9.75626 7.38899 9.19937 7.27047 8.44311L7.26717 8.42559C7.10456 7.42977 7.13874 6.64309 7.38347 6.09546L7.39394 6.07022C7.5086 5.82397 7.66679 5.62305 7.86908 5.47159C8.07964 5.31549 8.32547 5.21503 8.60876 5.17485C8.97202 5.12282 9.40306 5.17072 9.90187 5.32476C10.4272 3.83643 11.4233 2.12244 12.8889 0.184352C12.9186 0.145199 12.9561 0.109652 13.0002 0.0802867C13.2091 -0.0588104 13.5001 -0.0124448 13.649 0.182806C14.655 1.50886 14.3711 2.57785 13.7658 3.58863L14.4774 3.05697C14.5607 2.98587 14.6709 2.9426 14.7922 2.9426H15.9811C17.197 2.79113 18.1065 2.78031 18.7074 2.90808C19.092 2.98999 19.3776 3.13424 19.5623 3.33722C19.7789 3.57626 19.8483 3.86836 19.7695 4.20735C19.7034 4.49224 19.5198 4.8168 19.2211 5.17897C19.1296 5.28973 18.9923 5.34743 18.8529 5.34743L16.0257 5.34897L16.0136 5.34949H16.0015H15.9894L15.9772 5.34897L15.4156 5.34949L13.9389 6.73016L14.2432 7.01453C15.075 6.21498 16.1399 6.09753 17.4368 6.66164C18.456 7.1052 19.6295 8.00367 20.9551 9.35597C21.7208 8.06498 23.2074 8.4699 24.576 8.8434C25.0864 8.98303 25.5786 9.11751 25.9375 9.11751C26.3133 9.11546 26.8751 8.94489 27.4422 8.77286C28.2211 8.53636 29.0115 8.29731 29.6217 8.40138C30.2517 8.50854 30.6463 8.88309 30.6078 9.73671H31.9075V7.83984L31.3315 7.30149C31.1496 7.13148 31.1496 6.85431 31.3315 6.68431L32.6516 5.45304C32.742 5.36907 32.861 5.32683 32.9796 5.32683L40.0642 5.32527C40.1948 5.32527 40.3128 5.37576 40.3977 5.45665L41.6445 6.60909C41.8176 6.76931 41.8285 7.02535 41.6754 7.19742L41.1423 7.80687L41.263 10.1818C41.2718 10.3528 41.1727 10.5058 41.0221 10.5837L38.8907 11.6841H40.6903C40.8574 11.6841 41.0045 11.7665 41.0866 11.8906L41.9085 12.94C41.9691 13.0179 41.9984 13.108 41.9984 13.1972L42 14.3207C42 14.5366 41.8319 14.7159 41.6114 14.7509V18.2778C41.6114 18.3206 41.6048 18.3623 41.5927 18.4014ZM16.4684 3.76327V4.47679H18.618C18.7492 4.29751 18.8298 4.14553 18.8578 4.02291C18.8716 3.96213 18.8699 3.9204 18.8512 3.89979C18.7999 3.84312 18.6831 3.79418 18.5034 3.75605C18.0674 3.66281 17.3889 3.6659 16.4684 3.76327ZM15.5346 4.47679V3.8153H14.9536L12.6557 5.53083L13.2808 6.11504L14.8715 4.62773C14.9569 4.53551 15.0838 4.47679 15.2243 4.47679H15.5346ZM8.83976 12.9184C8.87065 12.9571 8.90202 12.9843 8.93398 13.0004L8.94781 13.0076C8.96486 13.0132 8.98528 13.0158 9.00949 13.0148L9.36065 12.5022L9.36666 12.4929L9.37333 12.4836L9.37992 12.4743L10.6444 10.6275L10.6499 10.6187L10.6742 10.5831L10.6808 10.5749L12.163 8.40963L11.916 8.26228L9.19915 12.3749L9.17708 12.4089L9.17049 12.4177L8.83976 12.9184ZM9.70785 13.6057C9.65498 13.6969 9.56678 13.771 9.45379 13.8081C9.30885 13.8561 9.16934 13.8818 9.03544 13.8859L8.67876 14.5227C8.74547 14.5433 8.80831 14.5783 8.86126 14.6283C9.65555 15.3737 10.1753 16.2908 10.468 17.2876C10.7717 18.3226 10.8302 19.4451 10.6962 20.5487C10.9487 20.8737 11.211 21.0618 11.4822 21.1123C11.7098 21.1551 11.9661 21.1035 12.2506 20.9598C12.137 20.5472 12.0455 19.9516 11.9403 19.2561C11.636 17.2515 11.1912 14.3352 9.89915 13.3264L9.70785 13.6057ZM8.55976 13.7979L8.53992 13.7891L8.49635 13.77C8.46382 13.7535 8.43187 13.736 8.40099 13.7164L8.04216 14.3419C8.0383 14.4201 8.01184 14.4985 7.96058 14.5675C7.93081 14.6082 7.89444 14.6427 7.8542 14.67L7.03731 16.0945C7.03676 16.1135 7.03346 16.1331 7.02739 16.1522C7.01196 16.2001 6.97999 16.2393 6.9392 16.266L5.80704 18.2402C5.78058 18.3144 5.77727 18.3705 5.79105 18.406L5.80483 18.4272L5.83956 18.4329C5.8831 18.4318 5.93878 18.4113 5.9994 18.3685L7.11449 16.3784L7.11669 16.3732L7.11944 16.3685L7.1222 16.3639L7.12495 16.3593L7.12771 16.3546L8.55976 13.7979ZM8.05924 13.3919C7.9942 13.3033 7.93688 13.2028 7.88506 13.0911L7.88066 13.0817L7.87624 13.0719L7.87184 13.0622L7.86798 13.0524L7.86412 13.0426L7.86081 13.0328L7.8575 13.023L7.8542 13.0127L7.85144 13.0029L7.85034 12.9973L7.84814 12.9869L7.84593 12.9761L7.84427 12.9658L7.84262 12.955L7.84152 12.9442L7.84042 12.9339L7.83987 12.9231L7.83932 12.9123V12.902V12.8911L7.83987 12.8808L7.84042 12.87L7.84152 12.8597L7.84262 12.8494L7.84427 12.8391L7.84593 12.8288L7.84814 12.8185L7.85034 12.8082L7.85309 12.7979L7.85585 12.7875L7.86357 12.7634L7.86577 12.7577L7.86963 12.7479L7.87569 12.7329L7.88562 12.7134L7.89609 12.6933L7.90215 12.684L7.90821 12.6742L8.06586 12.4352C6.54234 12.0864 5.1952 12.0633 4.05146 12.3646C3.14198 12.6037 2.35376 13.0545 1.69948 13.7144C1.94036 13.6803 2.17407 13.65 2.40172 13.6221L2.41274 13.6206L2.42431 13.6191L2.43534 13.618C3.47655 13.4919 4.37612 13.4279 5.13292 13.4279C6.32681 13.4279 7.20323 13.5903 7.76049 13.9132L8.05924 13.3919ZM14.2062 18.0511C14.333 18.4055 14.5436 18.6358 14.8363 18.7389C15.0507 18.8146 15.3169 18.8352 15.635 18.7996L15.5132 18.6091C15.006 18.6966 14.6218 18.4169 14.2586 17.7477C13.8447 16.9842 13.4522 15.6597 12.8779 13.719L12.2743 11.7016L12.2655 11.6387L12.2721 11.4435C12.3057 11.1715 12.4369 10.9603 12.6628 10.8135L12.6767 10.8051C12.8756 10.68 13.1435 10.6069 13.4786 10.5878C13.3486 10.2962 13.2858 9.96446 13.2896 9.594C13.2913 9.43843 13.3056 9.27617 13.3315 9.10611L12.9462 8.8764L11.5654 10.8927L14.1947 18.0156L14.2062 18.0511ZM34.679 20.9016L34.4193 20.6584L33.1196 20.6831L33.0943 21.2942C33.1438 21.2957 33.194 21.2952 33.2437 21.2942C33.7127 21.2817 34.1928 21.1504 34.679 20.9016ZM35.0637 20.6461L35.0857 20.6667L35.1199 20.6451L35.0637 20.6461ZM32.9774 21.7243C32.9388 21.7475 32.8925 21.7604 32.8429 21.7588C32.7806 21.7568 32.7249 21.732 32.6842 21.6929C32.0117 21.5899 31.3585 21.2715 30.7357 20.729L30.6486 20.7305C30.6155 20.7336 30.5814 20.7336 30.5466 20.7295L29.1802 20.5698L28.737 20.5734C29.2971 21.5502 30.0891 22.24 30.9821 22.6408C31.5619 22.9005 32.1848 23.0396 32.8143 23.056C33.4443 23.072 34.0853 22.9659 34.6977 22.7356C35.6981 22.3595 36.6252 21.6501 37.3231 20.6028L35.9004 20.6301C35.018 21.3338 34.1294 21.7068 33.2568 21.7289C33.1631 21.7315 33.0706 21.7299 32.9774 21.7243ZM32.6307 21.2401L32.6533 20.6919L31.4439 20.7151C31.8325 20.9835 32.2294 21.1581 32.6307 21.2401ZM6.26398 20.6028L6.30202 21.5816C6.65423 21.5718 6.99818 21.5121 7.32669 21.4054C7.65962 21.2973 7.97766 21.1401 8.27309 20.9361L7.42536 20.1437C7.22307 20.2869 6.99763 20.4024 6.75951 20.4843C6.59967 20.5394 6.43375 20.5791 6.26398 20.6028ZM5.83569 21.5661L5.79877 20.6254C5.3082 20.6049 4.8055 20.442 4.34525 20.101L3.83208 20.8475C4.26698 21.1277 4.71565 21.3266 5.16434 21.4456C5.38867 21.5054 5.61301 21.5451 5.83569 21.5661ZM7.77041 19.8501L8.63191 20.6553C8.80336 20.5044 8.96428 20.3354 9.11367 20.1495C9.39202 19.8038 9.63019 19.3952 9.81705 18.929L9.80601 18.7847H8.36846C8.34639 18.879 8.31773 18.9707 8.28355 19.0604C8.16949 19.3556 7.99255 19.6239 7.77041 19.8501ZM8.42471 18.3478H9.75421C9.71122 18.0645 9.65111 17.7868 9.57172 17.5164C9.47248 17.1784 9.34302 16.8513 9.18153 16.5401L8.16728 17.2382C8.3552 17.6189 8.43352 17.9939 8.42471 18.3478ZM7.94073 16.8528L8.95769 16.1532C8.75931 15.8431 8.52444 15.553 8.24995 15.2883L7.60671 16.4361C7.73404 16.5747 7.84538 16.7137 7.94073 16.8528ZM5.3115 14.7174L5.63065 15.8085C5.95917 15.7503 6.30808 15.7529 6.66361 15.8282L7.2611 14.7855C6.54124 14.634 5.88751 14.6211 5.3115 14.7174ZM5.18418 15.9302L4.85897 14.8199C4.69471 14.8668 4.53872 14.924 4.3899 14.9895C3.93406 15.1904 3.55042 15.4757 3.24781 15.8173L4.14792 16.6586L4.16004 16.6442C4.35682 16.4128 4.5988 16.2186 4.87054 16.0724C4.97142 16.0182 5.07614 15.9703 5.18418 15.9302ZM3.88996 17.0337L2.97276 16.1764L2.93032 16.2434C2.59794 16.7787 2.43038 17.4087 2.45077 18.0625C2.45463 18.1743 2.46345 18.2871 2.47833 18.4004L3.5868 18.2989C3.57798 17.9965 3.62152 17.7085 3.70971 17.4437C3.75712 17.3 3.81775 17.1629 3.88996 17.0337ZM3.63365 18.7311L2.56101 18.8295C2.71094 19.4158 3.0152 20.0021 3.48868 20.5409L4.02334 19.7636C3.82271 19.4117 3.69649 19.0645 3.63365 18.7311ZM3.38616 21.0829C3.36797 21.0716 3.35199 21.0577 3.33875 21.0428L3.3349 21.0386C2.62385 20.3158 2.20659 19.4941 2.0528 18.6822L2.0506 18.6683C2.01367 18.4695 1.99162 18.2711 1.98555 18.0748C1.9624 17.3391 2.15202 16.6293 2.52684 16.025C2.59188 15.9198 2.66298 15.8178 2.73905 15.7194L2.74235 15.7148L2.74566 15.7107L2.75614 15.6973C3.11828 15.2393 3.60334 14.8545 4.19147 14.5959C4.42738 14.4913 4.68038 14.4073 4.94882 14.345L4.96039 14.3419L4.967 14.3403C5.02874 14.3259 5.09654 14.312 5.16047 14.3007H5.13292C4.44226 14.3007 3.62428 14.3563 2.68007 14.467C1.61846 15.3959 0.995046 16.6575 0.934969 17.9919C0.87654 19.2849 1.34451 20.6538 2.44802 21.8665C2.59519 21.9979 2.74456 22.1169 2.89228 22.2219C3.93957 22.9659 5.17591 23.2369 6.3858 23.0937C7.60891 22.9484 8.81111 22.3785 9.77241 21.4456C9.86275 21.3575 9.95095 21.2673 10.0364 21.1746C9.96364 21.0885 9.89257 20.9964 9.82306 20.897C9.76574 20.8135 9.73766 20.7115 9.75199 20.6054C9.78229 20.3843 9.80486 20.1628 9.81869 19.9418C9.71501 20.1077 9.60318 20.2633 9.48516 20.4101C9.27409 20.6728 9.04145 20.9042 8.79175 21.1046L8.78739 21.1087L8.75931 21.1308C8.36904 21.4384 7.93743 21.6681 7.47993 21.8165C6.71156 22.0659 5.87318 22.0886 5.03646 21.8649C4.4836 21.7176 3.92854 21.46 3.39608 21.0891L3.39112 21.086L3.38616 21.0829ZM8.19264 8.31793C8.28471 8.90314 8.4434 9.3096 8.65455 9.53631C8.72562 9.6126 8.80114 9.66514 8.87888 9.69291L8.89214 9.69806C8.96428 9.72077 9.04861 9.7254 9.14019 9.71357C9.33915 9.68726 9.57172 9.58474 9.83409 9.40697C9.40528 8.49514 9.34352 7.41225 9.65053 6.16192C9.28233 6.04446 8.98141 6.00376 8.74769 6.03725C8.62696 6.05425 8.52773 6.09237 8.45172 6.14904C8.37011 6.21138 8.30068 6.30205 8.24724 6.41745L8.23892 6.43393C8.06586 6.82495 8.05263 7.45243 8.18822 8.28805L8.18988 8.29577L8.19153 8.3071L8.19264 8.31793ZM11.2567 7.60647C10.8003 6.2258 11.5715 5.14548 12.336 4.07649C12.9792 3.17649 13.617 2.28369 13.2218 1.26467C11.9485 3.02399 11.103 4.56797 10.6874 5.89197L10.6818 5.90793L10.6548 5.99603L10.6521 6.00633L10.6488 6.01715L10.6455 6.02746C10.3434 7.05627 10.3081 7.94339 10.543 8.6868L11.2567 7.60647ZM12.1398 6.27835C12.0416 6.63227 12.0295 6.99651 12.1552 7.37464L13.5586 8.21077C13.6082 8.06549 13.6644 7.91661 13.7278 7.7636L12.9704 7.05471L12.9616 7.04699L12.9528 7.03926L12.9446 7.03101L12.9362 7.02329L12.1398 6.27835ZM6.43375 16.2295C5.94924 16.1558 5.48679 16.2429 5.10204 16.4494C4.88267 16.5674 4.68589 16.7261 4.52494 16.9151C4.36344 17.1047 4.23556 17.3273 4.15508 17.5715C3.96106 18.1562 4.02445 18.879 4.4803 19.6363C5.1467 20.2138 5.93988 20.3009 6.59856 20.0752C6.84715 19.9902 7.0781 19.8599 7.27544 19.6955L7.27984 19.6914L7.28426 19.6878L7.28866 19.6842L7.29308 19.6806L7.29748 19.677L7.35811 19.6234C7.57253 19.4256 7.74175 19.1835 7.84483 18.9146C8.02617 18.439 8.00412 17.8703 7.66955 17.282L7.66679 17.2773L7.66403 17.2722L7.66128 17.2676C7.58191 17.1305 7.48654 16.9935 7.3719 16.8554L6.39462 18.5997L6.39186 18.6049L6.3869 18.6142L6.38414 18.6189L6.38084 18.6235L6.37753 18.6281L6.37422 18.6327L6.37091 18.6374L6.3676 18.6415L6.36375 18.6456L6.36044 18.6497L6.35658 18.6538L6.35272 18.658L6.34832 18.6616L6.34005 18.6688L6.33563 18.6729L6.32792 18.6791L6.32296 18.6827C6.16807 18.8037 5.9994 18.8641 5.85058 18.8677C5.74089 18.8703 5.63561 18.8429 5.54907 18.7899C5.46584 18.7389 5.3997 18.6637 5.36001 18.5715L5.35339 18.5565C5.30324 18.4293 5.30269 18.266 5.37103 18.0841L6.43375 16.2295ZM25.8978 17.4004C25.8718 17.572 25.8377 17.7363 25.7958 17.896C25.723 18.1732 25.6293 18.4329 25.5268 18.6745L26.8376 18.7023L25.8978 17.4004ZM25.0269 18.6657C25.1481 18.3983 25.2611 18.1062 25.3438 17.792C25.4226 17.4911 25.4739 17.1671 25.4799 16.8209L25.2391 16.4871H19.904L19.7574 16.6813C19.8219 16.7205 19.8644 16.7879 19.8644 16.8646V18.6487C21.25 18.6333 22.7019 18.6348 24.2155 18.6538L25.0269 18.6657ZM29.2022 19.6399L27.7525 19.5956H27.7415L27.6964 19.5945L27.6853 19.594C26.4859 19.5611 25.3239 19.5363 24.2044 19.5225C22.6495 19.5034 21.1602 19.5019 19.742 19.5189C18.9399 19.8563 18.0558 19.6363 17.0928 18.8579C16.8167 18.6348 16.5318 18.3628 16.2374 18.0423C16.3896 18.2999 16.5472 18.5313 16.7109 18.7353C17.32 19.4961 17.9946 19.8579 18.6919 19.7826C18.7206 19.7795 18.7492 19.779 18.7774 19.7805L27.9731 19.7105L27.9846 19.71H28.0353L29.1802 19.7013C29.2122 19.6986 29.2447 19.6986 29.2777 19.7023L30.1376 19.8027L30.1365 19.1263L29.5126 19.5446L29.5037 19.5508L29.4949 19.557L29.4856 19.5632L29.4762 19.5688L29.4668 19.5745L29.4574 19.5801L29.4475 19.5853L29.4426 19.5879L29.4376 19.5904L29.432 19.593L29.4216 19.5976L29.4111 19.6023L29.4007 19.607L29.3902 19.6111L29.3792 19.6147L29.3687 19.6183L29.3577 19.6214L29.3466 19.6245L29.3356 19.627L29.3246 19.6296L29.3135 19.6317L29.3025 19.6337L29.2915 19.6353L29.2805 19.6368L29.2579 19.6389L29.2518 19.6399L29.2402 19.6404H29.2281H29.2165L29.2022 19.6399ZM15.2463 18.1454C14.8093 17.3268 14.4262 16.3098 14.1125 15.111C14.0734 14.9889 14.0949 14.8586 14.166 14.7535L13.1892 12.9957L13.1865 12.9905L13.1843 12.9854L13.1733 12.9566L13.1716 12.9514L13.1661 12.9282C13.1634 12.9071 13.1634 12.8829 13.1667 12.8628L13.1677 12.8577L13.1689 12.8525L13.17 12.8474L13.1711 12.8421L13.1794 12.8175L13.1849 12.8051L13.2031 12.7752L13.2141 12.7603L13.224 12.75L13.2279 12.7459L13.2323 12.7417L13.2372 12.7365L13.2499 12.7263L13.2549 12.7227L13.2643 12.7165L13.2692 12.7134L14.6693 11.7027C14.4411 11.6027 14.2415 11.4837 14.0684 11.3445C13.945 11.2446 13.8359 11.1359 13.7416 11.019C13.6683 11.018 13.5983 11.018 13.5326 11.0211C13.2708 11.0329 13.0724 11.0813 12.9395 11.1643L12.9297 11.171C12.8183 11.2436 12.7522 11.3518 12.7351 11.4919L12.7301 11.6068L13.3265 13.6036C13.8937 15.519 14.2807 16.8261 14.6742 17.5519C14.8572 17.8888 15.0391 18.0846 15.2463 18.1454ZM14.5799 14.5526C14.7332 14.5593 14.8793 14.6361 14.9614 14.7689C15.522 15.6674 16.05 16.4175 16.5461 17.0193V16.8646C16.5461 16.7441 16.6508 16.6462 16.7798 16.6462H18.0079L16.9154 12.9236L14.3534 14.1451L14.5799 14.5526ZM17.0135 17.5529C17.251 17.8059 17.4804 18.0218 17.7014 18.2005C18.3766 18.7461 18.9427 18.9156 19.3969 18.7085V17.0831H17.0135V17.5529ZM27.9835 18.7327L29.0787 18.7667L29.4408 18.5235C29.3896 18.4534 29.3593 18.369 29.3593 18.2778V16.4505L27.1418 13.8741H24.4774L27.9835 18.7327ZM18.5492 16.6462H19.2134L19.581 16.1594L19.6041 16.128L21.1233 14.1162C21.1321 14.1018 21.142 14.0879 21.1542 14.0755L21.2672 13.9261L18.6053 12.8865L18.5492 16.6462ZM20.2336 16.0502H24.9238L23.7613 14.4393H21.4501L20.2336 16.0502ZM21.7797 14.0024H23.446L21.5873 11.4265L21.1111 11.5326C21.583 11.7778 21.9357 12.0138 22.143 12.2786L22.1518 12.2894C22.5134 12.7613 22.4412 13.2734 21.8095 13.9632L21.7797 14.0024ZM31.0702 18.7142V19.8532L38.0815 19.7198L38.0925 19.7187H38.1041L38.1267 19.7182L38.1377 19.7187L38.604 19.7095V18.7142H31.0702ZM30.293 14.7571V17.8414H30.5923H30.6033H30.6155H39.0588H39.071H39.0831H40.6777V14.7571H30.293ZM29.3593 15.0626V14.7571H29.221C29.1714 14.7571 29.1234 14.7499 29.0787 14.7365L29.3593 15.0626ZM28.8401 13.14L29.6917 11.887C29.7804 11.7567 29.9309 11.6851 30.0853 11.6851L34.7451 11.6846L34.7038 11.6686H29.3797C29.071 11.8839 28.7183 12.0607 28.3203 12.1983L28.285 12.2091C27.316 12.5372 26.0846 12.6315 24.5964 12.4929C24.495 12.4836 24.404 12.4439 24.3323 12.3857C23.8616 11.9947 23.2878 11.63 22.6131 11.2905L23.8478 13.0014H27.3634C27.5227 13.0014 27.6638 13.0766 27.7482 13.1905L28.7558 14.3614L28.7541 14.3207V13.3924C28.7541 13.2987 28.7861 13.2111 28.8401 13.14ZM30.341 12.5568L29.6878 13.5181V13.8843H29.8141H29.8262H29.8383H41.0663V13.3372L40.4556 12.5568H30.341ZM30.25 10.7959H34.7936C34.8691 10.7959 34.9402 10.8129 35.0036 10.8423L37.0546 11.6382L39.0053 10.6311L32.4201 10.6074L32.3743 10.6095H30.3696C30.3317 10.6733 30.292 10.7356 30.25 10.7959ZM13.6931 12.9566L14.1384 13.7582L16.7891 12.4939L16.6663 12.0746C16.5142 12.071 16.3664 12.0633 16.2253 12.0525C15.8406 12.0225 15.4939 11.9654 15.1835 11.8809L13.6931 12.9566ZM17.1485 12.0751L17.2847 12.5403L17.2864 12.5455L17.288 12.5506L17.2897 12.5558L17.2907 12.5609L18.1038 15.329L18.1446 12.6032C18.0668 12.4141 18.0591 12.2178 18.1225 12.0169C17.7786 12.0489 17.4539 12.0684 17.1485 12.0751ZM18.6561 11.9597C18.6202 12.0159 18.5932 12.0715 18.575 12.1245C18.542 12.2188 18.537 12.3111 18.5613 12.3981L21.5548 13.5665C21.9269 13.1229 21.9754 12.8077 21.7726 12.5428L21.767 12.5356C21.546 12.2529 21.0687 11.9854 20.4045 11.6779C19.7794 11.7995 19.1962 11.8937 18.6561 11.9597ZM21.7086 9.92991C22.9919 10.4301 24.0347 11.0009 24.8362 11.6403C26.1177 11.7469 27.1622 11.6645 27.9648 11.3935L27.9995 11.3801C28.7662 11.1148 29.313 10.6666 29.6382 10.0386C29.7358 9.49611 29.6432 9.28851 29.4541 9.25654C29.0782 9.19269 28.3991 9.39823 27.73 9.6012C27.0894 9.79543 26.4545 9.98811 25.9375 9.98811C25.4441 9.98554 24.8907 9.8346 24.3169 9.678C23.3 9.4008 22.1931 9.0984 21.7086 9.92991Z" fill="black"/>
</g>
<defs>
<clipPath id="clip0_3_74">
<rect width="42" height="24" fill="white"/>
</clipPath>
</defs>
</svg>
