<svg xmlns="http://www.w3.org/2000/svg" xmlns:xlink="http://www.w3.org/1999/xlink" version="1.1" x="0px" y="0px" viewBox="0 0 100 125" enable-background="new 0 0 100 100" xml:space="preserve"><g><path d="M21.651,55.998c-2.565,0-4.653,2.088-4.653,4.653s2.087,4.652,4.653,4.652s4.653-2.087,4.653-4.652   S24.216,55.998,21.651,55.998z M21.651,64.804c-2.29,0-4.153-1.862-4.153-4.152s1.863-4.153,4.153-4.153s4.153,1.863,4.153,4.153   S23.941,64.804,21.651,64.804z"/><path d="M20.615,60.651c0,0.571,0.465,1.036,1.036,1.036s1.036-0.465,1.036-1.036s-0.465-1.036-1.036-1.036   S20.615,60.08,20.615,60.651z M21.651,60.115c0.295,0,0.536,0.24,0.536,0.536s-0.241,0.536-0.536,0.536s-0.536-0.24-0.536-0.536   S21.355,60.115,21.651,60.115z"/><path d="M17.908,59.43c0.002,0.019,0.006,0.033,0.012,0.051c0.008,0.023,0.02,0.039,0.035,0.059   c0.009,0.013,0.006,0.03,0.018,0.042c0.007,0.007,0.018,0.004,0.025,0.01c0.008,0.006,0.008,0.017,0.016,0.023   c0.506,0.319,1.087,0.485,1.679,0.485c0.165,0,0.331-0.017,0.496-0.043c0,0,0,0,0,0s0,0,0,0c0.014-0.002,0.028-0.001,0.042-0.004   c0.057-0.01,0.1-0.046,0.136-0.086c0.006-0.006,0.016-0.004,0.021-0.011c0.001-0.001,0-0.002,0.001-0.003   c0.02-0.028,0.017-0.064,0.025-0.098c0.006-0.03,0.024-0.057,0.02-0.087c0-0.001,0.001-0.003,0.001-0.004   c-0.006-0.032-0.033-0.05-0.049-0.077c-0.016-0.027-0.021-0.06-0.048-0.08c-0.546-0.407-0.911-1.001-1.028-1.671   c-0.004-0.025-0.027-0.038-0.038-0.06c-0.011-0.024-0.009-0.051-0.028-0.071c-0.007-0.007-0.017-0.005-0.024-0.011   c-0.026-0.023-0.054-0.027-0.087-0.038c-0.031-0.009-0.056-0.021-0.087-0.019c-0.009,0.001-0.016-0.007-0.024-0.005   c-0.026,0.004-0.039,0.028-0.062,0.039c-0.023,0.011-0.05,0.009-0.069,0.027c-0.011,0.01-0.018,0.024-0.028,0.035   c-0.001,0.001-0.002,0.002-0.003,0.003c-0.406,0.404-0.722,0.896-0.922,1.431c0,0-0.001,0-0.001,0.001c0,0.001,0,0.001,0,0.002   c-0.006,0.017-0.018,0.031-0.024,0.048c-0.005,0.015,0.005,0.029,0.002,0.045C17.91,59.387,17.905,59.406,17.908,59.43z    M19.583,59.59c-0.354-0.015-0.698-0.104-1.02-0.256l0.514-0.527C19.21,59.09,19.373,59.357,19.583,59.59z"/><path d="M19.998,64.053c0.523-0.576,0.812-1.321,0.817-2.1c0-0.001,0-0.002,0-0.003c0-0.002,0-0.003,0-0.005   c0-0.029-0.022-0.049-0.031-0.075c-0.011-0.034-0.011-0.07-0.037-0.098c-0.001-0.001-0.003-0.001-0.004-0.002   c-0.018-0.018-0.046-0.019-0.068-0.031c-0.035-0.018-0.067-0.044-0.106-0.044c-0.001,0-0.002-0.001-0.003-0.001c0,0,0,0-0.001,0   c-0.036,0-0.062,0.025-0.093,0.039c-0.026,0.011-0.056,0.009-0.078,0.03c-0.371,0.349-0.826,0.58-1.316,0.674   c0.008-0.035,0.021-0.068,0.021-0.105c0-0.139-0.064-0.26-0.161-0.345c0.472-0.189,0.899-0.481,1.234-0.876   c0.001-0.001,0.001-0.001,0.002-0.002c0.001-0.001,0.003-0.002,0.004-0.004c0.023-0.027,0.02-0.061,0.03-0.092   c0.009-0.029,0.031-0.052,0.029-0.084c0-0.001-0.001-0.002-0.001-0.003c-0.003-0.04-0.03-0.071-0.052-0.106   c-0.013-0.021-0.015-0.048-0.033-0.064c-0.001-0.001-0.001-0.003-0.002-0.004c-0.024-0.02-0.055-0.017-0.083-0.027   c-0.031-0.012-0.058-0.035-0.093-0.033c-0.684,0.052-1.34-0.181-1.861-0.619c-0.021-0.017-0.047-0.013-0.071-0.023   c-0.023-0.01-0.038-0.032-0.065-0.035c-0.009-0.001-0.015,0.007-0.024,0.007c-0.032,0-0.056,0.014-0.086,0.025   c-0.033,0.013-0.062,0.02-0.087,0.045c-0.006,0.006-0.015,0.004-0.021,0.011c-0.017,0.02-0.013,0.047-0.022,0.07   c-0.01,0.023-0.032,0.039-0.035,0.066c-0.002,0.014,0.002,0.029,0,0.043c0,0.002,0,0.004,0,0.006   c-0.052,0.57,0.022,1.151,0.213,1.689v0v0c0.006,0.017,0.007,0.036,0.013,0.054c0.007,0.018,0.024,0.028,0.034,0.044   c0.01,0.015,0.015,0.029,0.027,0.041c0.008,0.008,0.013,0.015,0.022,0.022c0.031,0.025,0.068,0.035,0.107,0.043   c0.01,0.002,0.015,0.012,0.025,0.013c0.006,0.001,0.012,0.001,0.018,0.001c0,0,0,0,0,0c0,0,0,0,0,0h0c0,0,0,0,0,0c0,0,0,0,0,0   c0,0,0,0,0,0c0.011,0,0.022-0.001,0.033-0.002h0c-0.014,0.044-0.028,0.089-0.028,0.138c0,0.139,0.064,0.26,0.161,0.345   c-0.003,0.012-0.001,0.022-0.002,0.034c-0.001,0.009-0.009,0.014-0.009,0.023c0,0.033,0.021,0.055,0.031,0.084   c0.007,0.019,0,0.04,0.012,0.057c0.005,0.007,0.012,0.012,0.017,0.019c0.007,0.009,0.013,0.017,0.021,0.025   c0.326,0.466,0.753,0.861,1.243,1.149c0.001,0.001,0,0.001,0.001,0.002c0.001,0.001,0.003,0,0.004,0.001   c0.015,0.008,0.026,0.022,0.041,0.03c0.039,0.022,0.082,0.033,0.124,0.033c0.048,0,0.094-0.017,0.134-0.043   c0.004-0.002,0.008-0.001,0.012-0.004c0.007-0.005,0.006-0.015,0.013-0.021c0.002-0.002,0.003-0.003,0.005-0.005   C19.983,64.057,19.992,64.059,19.998,64.053z M18.495,60.894c0.286,0.133,0.587,0.226,0.9,0.268   c-0.283,0.22-0.608,0.374-0.955,0.465L18.495,60.894z M19.818,63.464l-0.43-0.599c0.302-0.081,0.594-0.196,0.86-0.363   C20.172,62.849,20.024,63.173,19.818,63.464z"/><path d="M19.534,57.492c0.002,0.009-0.005,0.018-0.002,0.027c0.235,0.732,0.728,1.348,1.386,1.74   c0.002,0.002,0.004,0.003,0.006,0.004c0.009,0.005,0.016,0.012,0.025,0.017c0.04,0.023,0.083,0.034,0.125,0.034   c0.019,0,0.038-0.002,0.058-0.007c0.008-0.002,0.011-0.011,0.018-0.013c0.051-0.017,0.097-0.046,0.129-0.093   c0.002-0.003,0.006-0.005,0.008-0.008c0.001-0.001,0.003-0.002,0.003-0.003c0.018-0.032,0.01-0.067,0.014-0.101   c0.003-0.028,0.02-0.053,0.013-0.083c-0.156-0.662-0.055-1.352,0.287-1.94c0.013-0.023,0.004-0.048,0.01-0.072   c0.006-0.025,0.026-0.044,0.024-0.07c-0.001-0.009-0.01-0.013-0.011-0.022c-0.006-0.036-0.026-0.06-0.047-0.091   c-0.018-0.026-0.027-0.05-0.052-0.068c-0.007-0.005-0.007-0.014-0.014-0.018c-0.023-0.013-0.048-0.004-0.072-0.009   c-0.025-0.006-0.045-0.026-0.071-0.023c-0.014,0.001-0.028,0.007-0.042,0.008c-0.002,0.001-0.004,0.001-0.006,0.001   c-0.569,0.047-1.128,0.22-1.626,0.503c0,0,0,0-0.001,0c0,0,0,0.001-0.001,0.001c-0.016,0.009-0.034,0.013-0.049,0.022   c-0.014,0.008-0.016,0.026-0.027,0.036c-0.019,0.016-0.034,0.027-0.048,0.048c-0.01,0.016-0.017,0.029-0.023,0.046   c-0.009,0.023-0.009,0.043-0.011,0.068c-0.001,0.015-0.014,0.027-0.013,0.042C19.522,57.477,19.531,57.482,19.534,57.492z    M20.132,57.658l0.733-0.073c-0.081,0.302-0.128,0.612-0.116,0.926C20.487,58.272,20.28,57.982,20.132,57.658z"/><path d="M25.614,60.679C25.614,60.679,25.614,60.678,25.614,60.679c0-0.019,0.006-0.036,0.006-0.055   c0-0.019-0.014-0.03-0.017-0.048c-0.005-0.022-0.008-0.039-0.018-0.059c-0.006-0.012-0.007-0.023-0.015-0.034   c-0.017-0.027-0.043-0.042-0.072-0.059c-0.011-0.007-0.013-0.021-0.025-0.026c-0.009-0.004-0.018,0.002-0.028-0.001   c-0.009-0.003-0.013-0.013-0.022-0.016c-0.759-0.163-1.549-0.042-2.225,0.342c-0.002,0.001-0.003,0.001-0.004,0.002   c-0.001,0.001-0.003,0.001-0.004,0.002c-0.03,0.017-0.039,0.05-0.058,0.075c-0.019,0.024-0.048,0.039-0.057,0.07   c0,0.001,0.001,0.002,0,0.003c-0.009,0.031,0.006,0.062,0.009,0.094c0.004,0.033-0.004,0.067,0.012,0.096c0,0.001,0,0.002,0,0.003   c0.03,0.053,0.078,0.083,0.13,0.103c0.006,0.002,0.008,0.01,0.015,0.012c0.652,0.195,1.198,0.628,1.537,1.219   c0.025,0.043,0.062,0.074,0.104,0.095c0.002,0.001,0.002,0.003,0.004,0.004c0.035,0.018,0.073,0.025,0.109,0.025   c0.042,0,0.085-0.011,0.125-0.033c0.001-0.001,0.001-0.002,0.002-0.003c0.041-0.024,0.076-0.059,0.099-0.105   c0.007-0.014,0.008-0.029,0.015-0.043c0-0.001,0.001-0.002,0.001-0.003C25.48,61.822,25.61,61.251,25.614,60.679   C25.614,60.679,25.614,60.679,25.614,60.679z M23.957,60.941c0.338-0.107,0.692-0.141,1.046-0.108l-0.303,0.671   C24.478,61.282,24.234,61.087,23.957,60.941z"/><path d="M22.882,59.713c0,0.001-0.001,0.001-0.001,0.002c-0.001,0.002-0.002,0.003-0.002,0.005c-0.011,0.031,0.003,0.06,0.004,0.09   c0,0.032-0.012,0.064,0.001,0.095c0.001,0.001,0.002,0.002,0.003,0.003c0.002,0.005,0.008,0.008,0.011,0.013   c0.026,0.049,0.066,0.083,0.114,0.106c0.007,0.003,0.009,0.012,0.016,0.015c0.028,0.011,0.058,0.016,0.086,0.016   c0.033,0,0.066-0.007,0.099-0.021c0.625-0.269,1.321-0.289,1.961-0.055c0.012,0.005,0.024-0.004,0.036-0.001   c0.017,0.004,0.031,0.017,0.049,0.017c0.02,0,0.041-0.002,0.061-0.008c0.008-0.002,0.011-0.011,0.019-0.014   c0.032-0.011,0.052-0.034,0.078-0.057c0.024-0.022,0.047-0.038,0.061-0.067c0.004-0.008,0.014-0.01,0.017-0.018   c0.009-0.025-0.004-0.048-0.003-0.074c0.002-0.025,0.017-0.047,0.011-0.073c-0.004-0.014-0.012-0.027-0.016-0.042   c-0.001-0.002-0.001-0.003-0.002-0.005c-0.146-0.553-0.414-1.074-0.778-1.515c0,0,0,0,0,0c0,0,0,0,0,0   c-0.012-0.014-0.019-0.032-0.031-0.046c-0.011-0.013-0.028-0.011-0.041-0.021c-0.019-0.015-0.032-0.029-0.055-0.038   c-0.018-0.008-0.032-0.012-0.05-0.015c-0.024-0.005-0.043-0.001-0.068,0.001c-0.016,0.001-0.029-0.01-0.044-0.005   c-0.01,0.003-0.013,0.013-0.021,0.017c-0.009,0.004-0.019-0.002-0.028,0.003C23.679,58.384,23.152,58.985,22.882,59.713z    M23.602,59.391c0.19-0.299,0.44-0.553,0.732-0.756l0.199,0.71C24.223,59.318,23.909,59.325,23.602,59.391z"/><path d="M21.991,59.143c0.001,0.002,0.001,0.004,0.002,0.006c0.021,0.058,0.063,0.098,0.113,0.127   c0.005,0.003,0.005,0.009,0.01,0.012c0.036,0.018,0.074,0.026,0.112,0.026c0.028,0,0.057-0.005,0.084-0.015   c0.007-0.002,0.008-0.01,0.014-0.013c0.051-0.023,0.097-0.056,0.124-0.11c0.306-0.607,0.827-1.07,1.467-1.302   c0.033-0.012,0.048-0.043,0.072-0.066c0.013-0.012,0.034-0.008,0.045-0.023c0.005-0.007,0.001-0.016,0.006-0.023   c0.017-0.028,0.017-0.058,0.022-0.091c0.005-0.033,0.012-0.061,0.004-0.093c-0.002-0.008,0.004-0.016,0.001-0.024   c-0.009-0.025-0.034-0.034-0.049-0.053c-0.015-0.021-0.017-0.048-0.039-0.064c-0.012-0.009-0.027-0.013-0.04-0.022   c-0.001,0-0.002-0.001-0.003-0.001c-0.467-0.33-1.007-0.556-1.571-0.66c0,0,0-0.001-0.001-0.001c-0.001,0-0.001,0-0.002,0   c-0.017-0.003-0.033-0.012-0.05-0.015c-0.015-0.003-0.027,0.009-0.042,0.01c-0.025,0-0.045-0.002-0.069,0.005   c-0.019,0.005-0.032,0.012-0.049,0.022c-0.02,0.011-0.031,0.026-0.047,0.042c-0.012,0.012-0.031,0.012-0.041,0.027   c-0.005,0.008-0.001,0.018-0.005,0.026c-0.005,0.009-0.016,0.01-0.019,0.02c-0.294,0.72-0.311,1.52-0.05,2.252   C21.991,59.143,21.991,59.143,21.991,59.143z M22.336,58.431c-0.047-0.351-0.019-0.706,0.076-1.05l0.609,0.415   C22.764,57.976,22.528,58.184,22.336,58.431z"/><path d="M24.744,62.959c-0.004-0.015,0.004-0.03-0.003-0.045c-0.004-0.009-0.015-0.01-0.021-0.018   c-0.005-0.008-0.001-0.019-0.007-0.026c-0.479-0.617-1.166-1.033-1.933-1.171c-0.037-0.007-0.067,0.013-0.101,0.022   c-0.027,0.006-0.056-0.001-0.081,0.015c-0.001,0.001-0.001,0.002-0.002,0.003c-0.031,0.021-0.042,0.058-0.061,0.09   c-0.014,0.024-0.039,0.042-0.044,0.069c0,0.001-0.002,0.002-0.002,0.003c-0.006,0.034,0.013,0.062,0.02,0.093   c0.006,0.03-0.001,0.061,0.017,0.089c0.374,0.568,0.514,1.251,0.395,1.921c-0.005,0.026,0.013,0.047,0.016,0.073   c0.003,0.025-0.009,0.049,0.002,0.074c0.004,0.009,0.014,0.013,0.019,0.022c0.009,0.015,0.019,0.023,0.031,0.036   c0.031,0.034,0.066,0.057,0.109,0.07c0.01,0.003,0.015,0.014,0.025,0.016c0.015,0.003,0.029,0.004,0.044,0.004c0,0,0,0,0,0s0,0,0,0   c0,0,0,0,0,0c0,0,0,0,0.001,0c0.034,0,0.068-0.007,0.101-0.021c0.537-0.24,1.017-0.607,1.398-1.055c0,0,0.001,0,0.001,0   c0,0,0-0.001,0.001-0.001c0.011-0.013,0.027-0.023,0.038-0.037c0.01-0.012,0.006-0.029,0.013-0.043   c0.012-0.021,0.023-0.038,0.029-0.062c0.004-0.018,0.006-0.033,0.006-0.051C24.757,63.001,24.751,62.983,24.744,62.959z    M24.102,62.944l-0.664,0.319c-0.027-0.311-0.089-0.618-0.207-0.909C23.558,62.489,23.851,62.69,24.102,62.944z"/><path d="M21.847,62.184C21.847,62.184,21.847,62.184,21.847,62.184c-0.002-0.002-0.003-0.004-0.004-0.006   c-0.024-0.029-0.06-0.033-0.091-0.048c-0.025-0.012-0.042-0.037-0.072-0.04c-0.001,0-0.002,0.001-0.003,0.001   c-0.034-0.004-0.065,0.017-0.099,0.028c-0.029,0.01-0.063,0.008-0.086,0.027c0,0-0.001,0-0.001,0   c-0.01,0.008-0.008,0.022-0.017,0.032c-0.034,0.037-0.066,0.078-0.072,0.131c-0.079,0.677-0.41,1.29-0.932,1.727   c-0.019,0.016-0.019,0.042-0.032,0.062c-0.015,0.022-0.04,0.034-0.048,0.061c-0.002,0.008,0.004,0.016,0.003,0.024   c-0.006,0.032,0.004,0.059,0.01,0.092c0.007,0.033,0.009,0.062,0.028,0.089c0.005,0.007,0.002,0.017,0.007,0.023   c0.014,0.017,0.037,0.013,0.054,0.025c0.024,0.018,0.039,0.046,0.069,0.055c0.354,0.102,0.722,0.152,1.091,0.152   c0.239,0,0.479-0.021,0.714-0.064c0.016-0.003,0.023-0.018,0.037-0.024c0.028-0.01,0.056-0.017,0.079-0.037   c0.01-0.009,0.015-0.019,0.024-0.03c0.014-0.016,0.02-0.032,0.029-0.051c0.008-0.016,0.024-0.025,0.029-0.043   c0.002-0.009-0.005-0.017-0.004-0.026c0.002-0.01,0.011-0.016,0.012-0.026C22.602,63.542,22.344,62.784,21.847,62.184z    M21.767,62.971c0.164,0.314,0.259,0.657,0.288,1.012l-0.714-0.182C21.52,63.545,21.67,63.27,21.767,62.971z"/><path d="M76.387,55.998c-2.565,0-4.653,2.088-4.653,4.653s2.088,4.652,4.653,4.652s4.652-2.087,4.652-4.652   S78.952,55.998,76.387,55.998z M76.387,64.804c-2.29,0-4.153-1.862-4.153-4.152s1.863-4.153,4.153-4.153s4.152,1.863,4.152,4.153   S78.677,64.804,76.387,64.804z"/><path d="M77.869,60.21c0,0-0.001,0.001-0.001,0.001c-0.001,0.002-0.003,0.003-0.004,0.004c-0.022,0.025-0.019,0.058-0.029,0.087   c-0.011,0.03-0.033,0.054-0.032,0.088c0,0.001,0.002,0.002,0.002,0.004c0.002,0.027,0.024,0.048,0.035,0.074   c0.015,0.033,0.021,0.071,0.047,0.095c0.002,0.002,0.001,0.004,0.003,0.006c0.047,0.04,0.105,0.061,0.163,0.061   c0.002,0,0.003-0.002,0.005-0.002c0.003,0,0.004,0.002,0.006,0.002c0.672-0.036,1.337,0.196,1.854,0.642   c0.025,0.022,0.058,0.023,0.088,0.033c0.017,0.006,0.028,0.024,0.047,0.026c0.01,0.001,0.02,0.002,0.028,0.002   c0.07,0,0.129-0.033,0.175-0.08c0.004-0.004,0.011-0.002,0.015-0.007c0.015-0.017,0.01-0.04,0.02-0.059   c0.013-0.026,0.036-0.045,0.039-0.075c0.002-0.014-0.001-0.029,0-0.043c0-0.002,0-0.004,0-0.006   c0.058-0.57-0.008-1.151-0.193-1.692c0,0,0-0.001,0-0.001c0-0.001-0.001-0.001-0.001-0.001c-0.006-0.017-0.006-0.035-0.012-0.051   c-0.005-0.015-0.022-0.02-0.03-0.033c-0.011-0.02-0.018-0.038-0.035-0.054c-0.014-0.014-0.028-0.023-0.045-0.033   c-0.021-0.013-0.04-0.017-0.063-0.023c-0.015-0.004-0.024-0.019-0.04-0.021c-0.01-0.001-0.017,0.008-0.026,0.008   c-0.01,0-0.016-0.008-0.026-0.007C79.085,59.247,78.38,59.623,77.869,60.21z M79.545,60.449c-0.283-0.136-0.579-0.239-0.89-0.286   c0.283-0.214,0.608-0.363,0.955-0.449L79.545,60.449z"/><path d="M79.671,58.43c-0.33-0.488-0.77-0.906-1.28-1.206c-0.014-0.009-0.03-0.001-0.045-0.007   c-0.022-0.008-0.04-0.017-0.063-0.018c-0.019-0.002-0.033-0.001-0.052,0.002c-0.025,0.003-0.043,0.013-0.066,0.024   c-0.014,0.006-0.03,0-0.043,0.009c-0.008,0.006-0.008,0.017-0.015,0.024c-0.007,0.006-0.017,0.004-0.024,0.011   c-0.531,0.568-0.829,1.311-0.844,2.089c0,0,0,0.001,0,0.001c0,0.002-0.001,0.004-0.001,0.006c-0.001,0.04,0.025,0.07,0.041,0.105   c0.011,0.023,0.007,0.049,0.025,0.068c0.001,0.001,0.002,0,0.002,0.001c0.045,0.048,0.107,0.079,0.177,0.08   c0.001,0,0.003,0,0.004,0c0.061,0,0.121-0.021,0.169-0.066c0.492-0.452,1.129-0.699,1.798-0.699c0.013,0,0.026,0.001,0.039,0   c0.048,0,0.095-0.014,0.138-0.041c0.008-0.005,0.007-0.016,0.014-0.021c0.026-0.021,0.036-0.048,0.052-0.077   c0.016-0.029,0.033-0.053,0.036-0.085c0.001-0.009,0.01-0.014,0.01-0.023c0-0.026-0.02-0.044-0.027-0.068   c-0.007-0.025,0.001-0.051-0.014-0.073c-0.008-0.013-0.02-0.022-0.029-0.034C79.672,58.432,79.672,58.431,79.671,58.43z    M78.253,57.861l0.425,0.607c-0.305,0.077-0.599,0.187-0.867,0.35C77.891,58.473,78.043,58.15,78.253,57.861z"/><path d="M73.322,58.305c0.004,0.015-0.005,0.03,0.002,0.044c0.005,0.011,0.016,0.015,0.022,0.025   c0.004,0.006,0.001,0.014,0.005,0.02c0.471,0.623,1.152,1.048,1.919,1.195c0.016,0.004,0.031,0.005,0.047,0.005   c0.046,0,0.093-0.013,0.135-0.039c0.004-0.003,0.004-0.009,0.008-0.012c0.039-0.028,0.062-0.068,0.08-0.114   c0.005-0.013,0.018-0.021,0.021-0.035c0-0.001,0.001-0.002,0.002-0.003c0.005-0.027-0.012-0.048-0.015-0.074   c-0.004-0.037,0.002-0.075-0.019-0.108c-0.367-0.574-0.499-1.258-0.371-1.927c0.005-0.026-0.012-0.046-0.015-0.071   c-0.002-0.026,0.01-0.05-0.001-0.076c-0.004-0.008-0.014-0.01-0.018-0.017c-0.016-0.029-0.041-0.043-0.066-0.064   c-0.026-0.021-0.046-0.042-0.078-0.051c-0.008-0.002-0.012-0.012-0.02-0.013c-0.027-0.007-0.05,0.011-0.077,0.015   c-0.024,0.003-0.047-0.009-0.07,0.001c-0.011,0.005-0.02,0.013-0.032,0.018c-0.004,0.003-0.008,0.004-0.012,0.007   c-0.539,0.242-1.027,0.601-1.409,1.05c-0.011,0.013-0.006,0.03-0.014,0.044c-0.012,0.021-0.023,0.037-0.029,0.061   c-0.004,0.018-0.006,0.032-0.007,0.05C73.309,58.262,73.316,58.281,73.322,58.305z M73.963,58.328l0.669-0.311   c0.023,0.312,0.081,0.62,0.196,0.913C74.502,58.79,74.211,58.585,73.963,58.328z"/><path d="M72.531,60.823c0.013,0.009,0.016,0.026,0.03,0.033c0.012,0.005,0.024,0.005,0.036,0.008   c0.006,0.002,0.008,0.008,0.013,0.009c0.233,0.053,0.471,0.08,0.707,0.08c0.532,0,1.059-0.135,1.53-0.397   c0.004-0.002,0.004-0.008,0.008-0.011c0.049-0.03,0.09-0.073,0.109-0.133c0-0.001-0.001-0.002,0-0.004   c0.009-0.031-0.005-0.062-0.008-0.094c-0.003-0.033,0.005-0.067-0.011-0.095c-0.001-0.001,0-0.002,0-0.003   c-0.015-0.027-0.045-0.035-0.067-0.054c-0.025-0.022-0.042-0.053-0.076-0.064c-0.649-0.204-1.19-0.645-1.523-1.238   c-0.013-0.024-0.04-0.029-0.058-0.046c-0.018-0.018-0.024-0.044-0.048-0.055c-0.008-0.004-0.016,0.001-0.024-0.002   c-0.033-0.013-0.063-0.008-0.099-0.007c-0.03,0.002-0.057-0.001-0.085,0.011c-0.009,0.004-0.018-0.002-0.027,0.003   c-0.024,0.013-0.029,0.04-0.047,0.06c-0.017,0.018-0.043,0.024-0.055,0.047c-0.007,0.013-0.009,0.029-0.015,0.042   c0,0.001-0.001,0.002-0.001,0.003c-0.25,0.514-0.386,1.084-0.398,1.656c0,0-0.001,0.001-0.001,0.001c0,0.001,0.001,0.002,0,0.002   c0,0.017-0.006,0.034-0.006,0.051c0,0.016,0.014,0.027,0.017,0.042c0.004,0.024,0.006,0.044,0.016,0.065   c0.008,0.017,0.016,0.029,0.028,0.044C72.494,60.799,72.511,60.809,72.531,60.823z M74.086,60.334   c-0.34,0.103-0.695,0.133-1.049,0.095l0.312-0.668C73.567,59.985,73.81,60.184,74.086,60.334z"/><path d="M76.209,59.114c0,0.001,0.001,0.001,0.001,0.002c0.001,0.001,0.002,0.003,0.003,0.004c0.007,0.008,0.018,0.005,0.026,0.012   c0.038,0.037,0.08,0.071,0.136,0.079c0.011,0.001,0.021,0.002,0.032,0.002c0.056,0,0.111-0.019,0.157-0.056   c0.001-0.001,0.001-0.003,0.002-0.004c0.047-0.039,0.08-0.093,0.089-0.158c0.088-0.675,0.427-1.283,0.954-1.714   c0.009-0.008,0.008-0.021,0.016-0.029c0.026-0.028,0.054-0.054,0.065-0.093c0.003-0.008-0.004-0.016-0.002-0.024   c0.007-0.032-0.003-0.06-0.009-0.092c-0.006-0.033-0.008-0.062-0.027-0.09c-0.005-0.007-0.001-0.017-0.007-0.023   c-0.017-0.021-0.044-0.022-0.066-0.035c-0.021-0.014-0.031-0.038-0.056-0.046c-0.014-0.004-0.028-0.004-0.042-0.007   c-0.002,0-0.004-0.001-0.006-0.001c-0.548-0.157-1.132-0.192-1.698-0.105c-0.001,0-0.001-0.001-0.002-0.001   c-0.001,0-0.002,0.001-0.003,0.001c-0.017,0.003-0.035,0-0.052,0.003c-0.017,0.003-0.024,0.019-0.04,0.025   c-0.023,0.008-0.041,0.015-0.061,0.03c-0.013,0.01-0.023,0.018-0.035,0.03c-0.017,0.019-0.026,0.038-0.036,0.062   c-0.007,0.014-0.023,0.02-0.027,0.035c-0.003,0.009,0.005,0.017,0.003,0.027c-0.002,0.01-0.012,0.015-0.012,0.025   C75.472,57.749,75.72,58.51,76.209,59.114z M76.299,58.33c-0.16-0.316-0.251-0.661-0.275-1.016l0.712,0.191   C76.553,57.759,76.399,58.032,76.299,58.33z"/><path d="M75.351,60.651c0,0.571,0.465,1.036,1.036,1.036s1.036-0.465,1.036-1.036s-0.465-1.036-1.036-1.036   S75.351,60.08,75.351,60.651z M76.923,60.651c0,0.296-0.24,0.536-0.536,0.536s-0.536-0.24-0.536-0.536s0.24-0.536,0.536-0.536   S76.923,60.355,76.923,60.651z"/><path d="M80.114,61.918c-0.002-0.019-0.005-0.033-0.012-0.051c-0.008-0.023-0.02-0.039-0.034-0.059   c-0.009-0.013-0.006-0.03-0.017-0.042c-0.007-0.007-0.018-0.005-0.025-0.011c-0.007-0.006-0.007-0.017-0.016-0.023   c-0.651-0.423-1.435-0.588-2.204-0.467c0,0-0.001,0-0.001,0c-0.002,0-0.004,0-0.006,0c-0.037,0.006-0.06,0.035-0.089,0.055   c-0.023,0.015-0.053,0.018-0.07,0.041c-0.001,0.001,0,0.002-0.001,0.003c-0.023,0.03-0.022,0.07-0.029,0.108   c-0.005,0.026-0.022,0.05-0.018,0.077c0,0.001-0.001,0.002-0.001,0.003c0.006,0.038,0.036,0.061,0.056,0.091   c0.015,0.022,0.017,0.051,0.039,0.068c0.002,0.001,0.003,0.003,0.005,0.004c0,0,0.001,0.001,0.001,0.001   c0.399,0.307,0.697,0.715,0.868,1.179c-0.01-0.001-0.018-0.006-0.029-0.006c-0.166,0-0.306,0.093-0.388,0.225   c-0.262-0.436-0.619-0.811-1.062-1.079c-0.001-0.001-0.002-0.001-0.003-0.002c-0.002-0.001-0.004-0.003-0.006-0.005   c-0.033-0.019-0.07-0.012-0.106-0.015c-0.027-0.003-0.049-0.02-0.078-0.014c-0.001,0-0.002,0.002-0.003,0.002   c-0.038,0.009-0.064,0.04-0.094,0.066c-0.019,0.017-0.047,0.023-0.06,0.045c-0.001,0.001-0.002,0.001-0.003,0.002   c-0.018,0.03-0.009,0.063-0.014,0.095c-0.005,0.03-0.023,0.057-0.015,0.089c0.148,0.665,0.038,1.353-0.311,1.938   c-0.013,0.022-0.005,0.047-0.01,0.071c-0.007,0.025-0.026,0.044-0.025,0.071c0.001,0.009,0.01,0.015,0.011,0.024   c0.005,0.029,0.021,0.049,0.035,0.074c0.017,0.031,0.031,0.059,0.059,0.08c0.008,0.006,0.008,0.017,0.016,0.022   c0.04,0.023,0.084,0.035,0.128,0.035c0.005,0,0.01,0,0.015,0c0.588-0.036,1.165-0.209,1.679-0.492c0.001,0,0.002,0,0.003,0   c0.001,0,0.001-0.001,0.002-0.002c0.015-0.009,0.033-0.012,0.049-0.021c0.014-0.008,0.015-0.025,0.027-0.035   c0.019-0.016,0.035-0.027,0.049-0.047c0.011-0.016,0.017-0.029,0.024-0.046c0.009-0.023,0.01-0.042,0.012-0.067   c0.002-0.016,0.015-0.027,0.014-0.043c-0.001-0.01-0.01-0.015-0.012-0.024c-0.002-0.01,0.006-0.018,0.003-0.027   c0-0.001-0.001-0.002-0.001-0.003c0.023,0.003,0.043,0.014,0.067,0.014c0.165,0,0.304-0.092,0.387-0.223   c0.008,0.001,0.013,0.008,0.022,0.008c0.013,0,0.026-0.001,0.04-0.003c0.024-0.004,0.037-0.026,0.058-0.036   c0.025-0.011,0.053-0.01,0.074-0.029c0.011-0.01,0.018-0.024,0.029-0.034c0.001-0.001,0.002-0.002,0.003-0.003   c0.411-0.399,0.734-0.887,0.94-1.42c0,0,0.001,0,0.001-0.001c0,0,0-0.001,0-0.001c0.006-0.017,0.018-0.031,0.024-0.048   c0.006-0.015-0.004-0.03-0.002-0.045C80.111,61.961,80.116,61.942,80.114,61.918z M77.868,63.663l-0.734,0.064   c0.085-0.301,0.135-0.61,0.128-0.924C77.521,63.045,77.724,63.338,77.868,63.663z M78.937,62.527   c-0.129-0.286-0.289-0.555-0.497-0.791c0.355,0.019,0.699,0.113,1.019,0.27L78.937,62.527z"/><path d="M76.027,62.155c-0.001-0.002-0.001-0.004-0.002-0.006c-0.011-0.03-0.04-0.043-0.059-0.066   c-0.021-0.025-0.031-0.058-0.062-0.074c-0.001-0.001-0.003,0-0.005,0c-0.024-0.012-0.052-0.003-0.078-0.007   c-0.038-0.005-0.075-0.019-0.111-0.007c-0.001,0-0.003-0.001-0.004,0c-0.034,0.012-0.05,0.043-0.075,0.067   c-0.021,0.019-0.051,0.027-0.065,0.055c-0.312,0.604-0.84,1.061-1.482,1.284c-0.025,0.009-0.035,0.034-0.055,0.049   c-0.021,0.015-0.048,0.016-0.064,0.038c-0.005,0.007-0.002,0.017-0.006,0.025c-0.017,0.028-0.017,0.056-0.022,0.088   c-0.005,0.033-0.014,0.061-0.005,0.094c0.002,0.008-0.004,0.016-0.001,0.024c0.015,0.042,0.044,0.072,0.075,0.099   c0.006,0.006,0.005,0.015,0.012,0.02c0.002,0.001,0.004,0.002,0.006,0.003c0,0,0.001,0,0.001,0.001   c0.472,0.349,1.024,0.587,1.597,0.7c0,0,0,0,0.001,0.001c0.001,0.001,0.003,0,0.004,0.001c0.017,0.003,0.032,0.012,0.049,0.015   c0.016,0.003,0.03,0.004,0.045,0.004c0.054,0,0.104-0.021,0.147-0.053c0.014-0.01,0.02-0.025,0.032-0.038   c0.001-0.001,0.002-0.002,0.003-0.004c0.006-0.007,0.018-0.004,0.023-0.012c0.005-0.006,0.001-0.015,0.005-0.021   c0.006-0.01,0.016-0.014,0.021-0.025C76.253,63.69,76.28,62.89,76.027,62.155C76.027,62.155,76.027,62.155,76.027,62.155z    M75.674,62.863c0.042,0.351,0.01,0.706-0.089,1.048l-0.603-0.423C75.241,63.312,75.479,63.108,75.674,62.863z"/><path d="M75.143,61.575c0.001-0.001,0.001-0.002,0.002-0.004c0.001-0.002,0.002-0.003,0.002-0.005   c0.012-0.032-0.002-0.062-0.003-0.094c-0.001-0.031,0.012-0.06,0-0.091c0-0.001-0.002-0.001-0.002-0.002   c-0.012-0.029-0.042-0.043-0.065-0.065c-0.024-0.024-0.041-0.057-0.073-0.069c-0.001,0-0.001-0.001-0.002-0.002   c-0.032-0.013-0.063,0.001-0.095,0.002c-0.031,0.001-0.06-0.012-0.09,0.001c-0.002,0.001-0.003,0.001-0.005,0.002   c-0.001,0-0.001,0-0.002,0.001c-0.628,0.258-1.321,0.267-1.955,0.028c-0.024-0.01-0.047,0.004-0.072,0.002   c-0.026-0.002-0.047-0.018-0.075-0.012c-0.009,0.002-0.012,0.011-0.02,0.014c-0.031,0.011-0.05,0.032-0.075,0.054   c-0.025,0.022-0.05,0.038-0.064,0.068c-0.004,0.008-0.013,0.009-0.016,0.017c-0.01,0.025,0.003,0.048,0.002,0.073   c-0.002,0.025-0.018,0.047-0.012,0.074c0.003,0.014,0.011,0.027,0.015,0.041c0.001,0.002,0.001,0.004,0.002,0.005   c0.145,0.575,0.414,1.118,0.79,1.571c0.006,0.007,0.016,0.004,0.022,0.01c0.011,0.011,0.018,0.024,0.031,0.033   c0.042,0.028,0.089,0.047,0.139,0.047c0.021,0,0.043-0.003,0.064-0.009c0.006-0.002,0.007-0.008,0.013-0.01   c0.012-0.004,0.024-0.003,0.036-0.009C74.329,62.895,74.864,62.3,75.143,61.575z M74.419,61.888   c-0.194,0.296-0.446,0.547-0.742,0.745l-0.19-0.711c0.104,0.01,0.207,0.029,0.312,0.029C74.007,61.951,74.214,61.93,74.419,61.888z   "/><path d="M94.813,54.954v-0.022c0.175-0.068,0.301-0.235,0.301-0.434c0-0.135-0.059-0.264-0.159-0.353   c-0.001-0.001-0.003,0-0.004-0.001c-0.216-0.19-0.489-0.289-0.773-0.313c0-0.002-0.002-0.003-0.002-0.004   c0-0.002,0.002-0.004,0.002-0.006l-0.062-1.298c0,0,0,0,0,0l-0.099-3.181c0-0.001-0.001-0.001-0.001-0.002   c0-0.001,0.001-0.002,0.001-0.003c-0.013-0.25-0.218-0.445-0.468-0.445h-0.06c-0.371-3.952-1.792-7.734-4.129-10.948   c-0.002-0.003-0.007-0.003-0.01-0.006c-0.003-0.003-0.001-0.008-0.004-0.012c-0.39-0.445-0.885-0.763-1.427-0.965l0.039-0.162   c0-0.002-0.001-0.004-0.001-0.006c0.01-0.047,0.001-0.112-0.015-0.169l0.546-1.264c0,0,0,0,0,0c0,0,0,0,0,0l0.001-0.002   c0.016-0.036,0.003-0.072,0.002-0.109l0.932-2.063c0.006-0.014-0.002-0.028,0.001-0.042c0.014-0.031,0.042-0.058,0.042-0.09   c0-0.138-0.143-0.281-0.28-0.281c-0.093,0-0.171,0.071-0.223,0.156c-0.009,0.013-0.027,0.017-0.033,0.032l-0.917,2.031   c-0.039,0.03-0.073,0.065-0.092,0.102c-0.001,0.002-0.003,0.002-0.004,0.003l-0.002,0.004c0,0-0.001,0.001-0.001,0.001   c0,0,0,0.001,0,0.001l-0.628,1.329c-0.024,0.015-0.051,0.024-0.07,0.045c0,0,0,0,0,0.001c0,0-0.001,0-0.001,0l-0.243,0.274   c-0.094-0.008-0.185-0.03-0.281-0.03h-1.098l-0.945-0.565c-0.002-0.001-0.004,0-0.005-0.001c-0.002-0.001-0.002-0.004-0.005-0.006   c-1.069-0.57-2.26-0.837-3.48-0.774c-0.001,0-0.001-0.001-0.002-0.001H60.251c0,0,0,0,0,0c-1.049-0.065-2.087,0.061-3.09,0.366   c-0.003,0.001-0.003,0.004-0.006,0.005c-0.003,0.001-0.005-0.001-0.008,0l-2.654,0.977h-5.061c-0.007,0-0.011,0.007-0.017,0.007   c-0.017-0.002-0.033-0.007-0.05-0.007c-1.646,0-3.26,0.239-4.828,0.684c-0.012,0.002-0.022-0.007-0.034-0.004   c-0.01,0.003-0.014,0.014-0.023,0.019c-0.656,0.189-1.307,0.405-1.944,0.671c-0.002,0.001-0.002,0.004-0.004,0.005   c-0.002,0.001-0.005-0.001-0.007,0c-4.649,2.229-9.021,5.024-13.001,8.303l-0.614-0.075c-0.027-0.003-0.049,0.015-0.074,0.021   c-0.033,0.006-0.067,0-0.096,0.02l-0.248,0.168c0,0,0,0,0,0.001c-0.063,0.043-0.137,0.067-0.214,0.07   c-0.005,0-0.008,0.005-0.013,0.006c-0.005,0-0.009-0.004-0.013-0.004l-10.194,1.454c-3.224,0.46-6.412,1.251-9.473,2.352   c-0.005,0.002-0.006,0.008-0.011,0.01c-0.005,0.002-0.009-0.001-0.014,0.001c-1.52,0.736-2.546,2.141-2.806,3.769   c-0.008,0.025-0.029,0.043-0.029,0.07c0,0.013,0.012,0.021,0.014,0.033c-0.021,0.152-0.029,0.308-0.036,0.464   c-0.24,0.043-0.47,0.13-0.655,0.293c-0.194,0.171-0.212,0.468-0.041,0.662c0.05,0.056,0.114,0.095,0.184,0.121v0.024   c-0.255,0.1-0.437,0.346-0.437,0.636v0.841c0,0.379,0.308,0.688,0.687,0.688h0.185l0.087,0.673c0.21,1.631,1.552,2.919,3.19,3.062   l5.654,0.495c0.007,0.001,0.014,0.001,0.021,0.001c0,0,0,0,0,0c0,0,0,0,0,0c0,0,0,0,0.001,0c0,0,0,0,0,0   c0.015,0,0.031-0.001,0.047-0.005c0.021-0.004,0.031-0.024,0.05-0.033c0.033-0.015,0.062-0.028,0.085-0.056   c0.019-0.022,0.026-0.046,0.036-0.074c0.008-0.022,0.028-0.037,0.03-0.061c0.001-0.013-0.01-0.021-0.011-0.034   c0-0.012,0.01-0.022,0.007-0.035c-0.022-0.113-0.034-0.227-0.05-0.34h0.381c0.47,3.169,3.201,5.61,6.498,5.61   s6.028-2.441,6.498-5.61h0.382c-0.015,0.109-0.027,0.219-0.047,0.326c-0.002,0.009,0.006,0.016,0.005,0.024   c-0.001,0.009-0.009,0.014-0.009,0.023c0,0.027,0.021,0.044,0.028,0.069c0.01,0.032,0.014,0.06,0.035,0.086   c0.021,0.025,0.048,0.035,0.077,0.051c0.023,0.013,0.036,0.036,0.063,0.042c0.015,0.003,0.031,0.004,0.046,0.004c0,0,0,0,0,0H69.33   c0.016,0,0.031-0.001,0.047-0.004c0.027-0.005,0.041-0.029,0.064-0.042c0.028-0.015,0.055-0.025,0.075-0.049   c0.022-0.026,0.027-0.056,0.037-0.088c0.007-0.023,0.028-0.041,0.028-0.066c0-0.009-0.008-0.014-0.009-0.022   c-0.001-0.009,0.007-0.016,0.005-0.025c-0.04-0.209-0.059-0.424-0.079-0.637l0.344-0.02c0.321,3.329,3.134,5.941,6.546,5.941   c3.627,0,6.577-2.95,6.577-6.577c0-0.039-0.005-0.077-0.006-0.116l0.392-0.023c0.004,0.213,0.01,0.427-0.005,0.634   c-0.001,0.007,0.006,0.012,0.006,0.02c0,0.008-0.007,0.013-0.006,0.02c0.003,0.032,0.026,0.052,0.039,0.079   c0.012,0.025,0.015,0.05,0.034,0.069c0.028,0.029,0.065,0.039,0.103,0.052c0.02,0.007,0.032,0.026,0.054,0.027   c0.007,0.001,0.013,0.001,0.019,0.001c0.007,0,0.015,0,0.021-0.001l7.485-0.655c1.639-0.144,2.98-1.433,3.191-3.063l0.046-0.354   c0.002-0.013,0.015-0.022,0.015-0.036c0-0.007-0.007-0.012-0.008-0.019l0.021-0.167h0.197c0.379,0,0.687-0.309,0.687-0.688V55.59   C95.25,55.3,95.068,55.054,94.813,54.954z M94.563,56.618h-0.211c-0.039-0.049-0.095-0.084-0.162-0.093   c-0.085-0.01-0.155,0.033-0.209,0.093H82.676c-0.281-0.435-0.609-0.841-0.981-1.215h12.868c0.103,0,0.187,0.084,0.187,0.187v0.841   C94.75,56.534,94.666,56.618,94.563,56.618z M68.966,61.072h0.005c0,0.006-0.005,0.009-0.005,0.015   c0.013,0.219,0.049,0.437,0.081,0.654h-0.681c0.232-0.102,0.392-0.339,0.406-0.64c0.001-0.01,0.01-0.017,0.01-0.028   c-0.088-1.582,0.322-3.134,1.152-4.463h0.214C69.298,57.925,68.877,59.468,68.966,61.072z M29.068,61.393   C29.068,61.393,29.068,61.393,29.068,61.393c0.001-0.008,0.001-0.016,0.001-0.024c0,0,0,0,0-0.001c0,0,0,0,0-0.001   c0.168-1.737-0.281-3.394-1.164-4.757h2.056c0.048,1.686,0.296,3.369,0.759,5.006c0.008,0.029,0.031,0.046,0.048,0.069   c0.011,0.016,0.017,0.033,0.032,0.046c0.003,0.003,0.004,0.008,0.007,0.01h-1.788C29.035,61.625,29.056,61.51,29.068,61.393   C29.068,61.393,29.068,61.393,29.068,61.393z M14.893,57.523H5.842H5.437c-0.103,0-0.187-0.084-0.187-0.188v-0.841   c0-0.103,0.084-0.187,0.187-0.187h10.167C15.331,56.688,15.093,57.094,14.893,57.523z M16.397,55.371H5.468   c0.138-0.093,0.296-0.155,0.464-0.155c0,0,0.001,0,0.001,0h10.635C16.512,55.268,16.451,55.317,16.397,55.371z M17.164,54.716   H16.69c0.005-0.004,0.009-0.009,0.014-0.013c3.264-2.654,8.01-2.281,10.839,0.751h-0.558c-1.182-1.215-2.778-2.039-4.593-2.221   C20.451,53.042,18.611,53.622,17.164,54.716z M29.962,55.954c0,0.052-0.004,0.104-0.003,0.156h-2.41   c-0.04-0.051-0.075-0.106-0.116-0.156H29.962z M31.98,48.329c2.291,0.004,4.585,0.007,6.883,0.007   c5.133,0,10.281-0.014,15.434-0.035c0.066,0.37,0.133,0.739,0.184,1.111H31.575C31.701,49.048,31.832,48.686,31.98,48.329z    M43.911,39.669c2.155-0.923,4.437-1.391,6.781-1.391h4.473l-1.544,9.119c-5.386,0.04-10.761,0.046-16.124,0.015   c0.023-0.059,0.038-0.122,0.038-0.189c0-0.005-0.005-0.008-0.005-0.013c0-0.005,0.004-0.008,0.004-0.013   c-0.051-0.506-0.051-1.019,0-1.525c0-0.005-0.004-0.008-0.004-0.013c0-0.005,0.005-0.008,0.005-0.013   c0-0.283-0.23-0.514-0.514-0.514h-0.285l0.001-0.727c0-0.042-0.026-0.072-0.044-0.107C38.918,42.505,41.332,40.955,43.911,39.669z    M87.015,38.278c0.249,0,0.483,0.109,0.642,0.299c1.626,2.421,2.755,5.143,3.334,7.991c-5.803,0.222-11.633,0.389-17.47,0.527   l-0.841-8.817H87.015z M93.267,49.391h0.251l0.039,1.26h-1.786l0.048-0.897c0.014-0.031,0.038-0.056,0.038-0.091   c0-0.028-0.021-0.046-0.029-0.071l0.011-0.2H93.267z M81.124,53.811c-2.727-1.787-6.206-1.822-8.946-0.203   c0.662-1.129,1.026-2.402,1.077-3.696H91.31l-0.133,2.493l-0.343,1.32c0,0.001,0.001,0.003,0.001,0.004   c-0.007,0.027-0.003,0.054-0.005,0.082H81.124z M68.282,61.101c0,0.002,0.002,0.003,0.002,0.005c0,0.002-0.002,0.003-0.001,0.005   c0,0.104-0.084,0.188-0.187,0.188H54.532l0.475-4.688h14.346C68.575,57.966,68.195,59.52,68.282,61.101z M31.158,61.298   c-0.419-1.535-0.651-3.109-0.697-4.688h24.042l-0.475,4.688H31.158z M55.057,56.11l0.016-0.156h14.699   c-0.037,0.053-0.078,0.103-0.114,0.156H55.057z M55.124,55.454l0.024-0.236c0-0.001-0.001-0.002-0.001-0.004   c0-0.001,0.001-0.001,0.001-0.002c0.139-1.768,0.095-3.542-0.106-5.3h13.308c-0.188,0.09-0.321,0.262-0.367,0.472   c-0.015,0.031-0.024,0.065-0.026,0.099c-0.016,0.236-0.016,0.478,0,0.714c0.022,0.361,0.323,0.644,0.685,0.644h1.951   c0.361,0,0.663-0.282,0.686-0.644c0.016-0.236,0.016-0.478,0-0.714c-0.002-0.035-0.011-0.068-0.026-0.099   c-0.046-0.21-0.18-0.382-0.367-0.471h1.871c-0.062,1.47-0.554,2.912-1.45,4.116l-1.16,1.427H55.124z M35.829,45.835   C35.829,45.835,35.829,45.834,35.829,45.835c0.075-0.054,0.158-0.09,0.242-0.123c-0.112,0.077-0.228,0.145-0.351,0.201   L35.829,45.835z M91.704,51.915h1.893l0.008,0.265H91.69L91.704,51.915z M93.581,51.415h-1.85l0.014-0.265h1.828L93.581,51.415z    M91.368,49.227c-0.009,0.031-0.023,0.059-0.026,0.092c0,0.001,0.001,0.002,0.001,0.003c0,0.002-0.002,0.003-0.002,0.005   l-0.005,0.084H73.255c-0.01-0.413-0.043-0.827-0.117-1.237c6.044-0.055,12.082-0.118,18.092-0.201   C91.286,48.39,91.334,48.807,91.368,49.227z M34.97,46.623c0.004,0,0.007,0.004,0.011,0.004c0.009,0,0.019,0,0.028-0.001   c0.548-0.061,1.054-0.276,1.486-0.61c-0.02,0.408-0.014,0.815,0.024,1.221h-1.265c-0.153,0-0.277-0.125-0.277-0.277   c0-0.001-0.001-0.001-0.001-0.002s0.001-0.001,0.001-0.002L34.97,46.623z M37.021,45.633c0.007,0,0.014,0.006,0.014,0.014   c0,0,0,0,0,0c-0.052,0.523-0.052,1.052,0,1.575c0,0,0,0,0,0c0,0.007-0.006,0.014-0.014,0.014h-0.003   c-0.053-0.533-0.053-1.07,0-1.603H37.021z M72.625,48.179c0.08,0.408,0.121,0.82,0.131,1.232H54.988   c-0.05-0.373-0.119-0.743-0.184-1.114C60.744,48.273,66.687,48.232,72.625,48.179z M68.642,51.188   c-0.017,0-0.031-0.014-0.033-0.032c-0.002-0.031,0.001-0.061,0-0.092h1.319v0.124H68.642z M70.627,50.523   c0.001,0.013-0.001,0.027,0,0.04h-2.019c0.001-0.013-0.001-0.027,0-0.04c0.003-0.018,0.016-0.032,0.033-0.032h1.951   C70.611,50.491,70.624,50.506,70.627,50.523z M91.328,53.811l0.294-1.131h2.001l0.054,1.131H91.328z M71.452,38.278l0.366,8.852   c-5.417,0.121-10.834,0.203-16.253,0.251l0.978-9.103H71.452z M36.236,45.167c-0.249,0.035-0.49,0.112-0.697,0.261   c-0.001,0-0.001,0-0.002,0l-0.745,0.536c-0.203,0.146-0.323,0.382-0.323,0.631c0,0.001,0.001,0.001,0.001,0.002   s-0.001,0.001-0.001,0.002l0.006,0.364c0,0.002,0.002,0.002,0.002,0.004c0.002,0.164,0.064,0.308,0.153,0.433   c-0.122-0.001-0.246,0-0.368-0.001c-0.004,0-0.007-0.005-0.011-0.005c-0.084,0-0.165-0.036-0.221-0.099   c-0.053-0.059-0.08-0.134-0.075-0.213s0.04-0.152,0.099-0.205c0.084-0.075,0.088-0.19,0.042-0.288   c0.69-0.664,1.407-1.295,2.14-1.905L36.236,45.167z M33.478,47.21c0.009,0.064,0.017,0.127,0.042,0.186   c-0.075-0.001-0.151,0-0.226-0.001C33.355,47.333,33.417,47.272,33.478,47.21z M51.529,51.188c-0.018,0-0.032-0.014-0.034-0.032   c-0.002-0.031,0.001-0.061,0-0.092h1.319v0.124H51.529z M53.514,50.523c0.001,0.013-0.001,0.027,0,0.04h-2.019   c0.001-0.013-0.001-0.027,0-0.04c0.003-0.018,0.016-0.032,0.034-0.032h1.951C53.498,50.491,53.511,50.506,53.514,50.523z    M51.237,49.912c-0.218,0.104-0.377,0.315-0.393,0.571c-0.016,0.236-0.016,0.478,0,0.714c0.022,0.361,0.324,0.644,0.686,0.644   h1.951c0.361,0,0.662-0.282,0.685-0.644c0.016-0.236,0.016-0.478,0-0.714c-0.016-0.256-0.175-0.466-0.392-0.571h0.766   c0.204,1.742,0.247,3.502,0.111,5.255c0,0,0,0,0,0.001l-0.029,0.287H30.472c0.053-1.877,0.356-3.745,0.929-5.542H51.237z    M54.57,55.954l-0.016,0.156H30.458c0-0.052,0.003-0.104,0.003-0.156H54.57z M70.5,56.11h-0.223   c0.038-0.052,0.074-0.105,0.114-0.156h0.235C70.584,56.006,70.54,56.057,70.5,56.11z M71.07,55.454h-0.28l0.478-0.587   c2.467-2.138,5.973-2.512,8.828-1.056h-0.72c-1.051-0.457-2.2-0.672-3.38-0.607C74.111,53.308,72.378,54.109,71.07,55.454z    M93.711,54.311c0.078,0,0.149-0.024,0.214-0.059c0.042,0.031,0.087,0.059,0.142,0.059c0.169,0,0.326,0.062,0.465,0.155H80.564   c-0.078-0.053-0.156-0.106-0.235-0.155H93.711z M56.418,37.048H55.05l2.26-0.831c0.558-0.169,1.129-0.27,1.704-0.319   c-0.616,0.09-1.21,0.302-1.745,0.629L56.418,37.048z M59.684,36.347h21.239c0.589,0,1.157,0.138,1.683,0.374H57.977   C58.511,36.477,59.092,36.347,59.684,36.347z M84.027,37.048c-0.077-0.07-0.164-0.122-0.245-0.186   c-0.035-0.065-0.088-0.109-0.162-0.124c-0.704-0.51-1.53-0.808-2.402-0.864c1.1-0.053,2.204,0.193,3.183,0.716c0,0,0.001,0,0.001,0   l0.765,0.458H84.027z M44.115,38.305c-0.003,0.001-0.003,0.004-0.005,0.005c-0.003,0.001-0.006-0.001-0.008,0   c-4.493,2.016-8.547,4.793-12.049,8.254c-0.092,0.086-0.224,0.124-0.345,0.102c-0.002,0-0.004,0.002-0.007,0.001   c-0.002,0-0.004-0.003-0.006-0.003l-1.469-0.18c3.845-3.119,8.044-5.796,12.509-7.936c0.539-0.225,1.086-0.419,1.639-0.587   C44.361,38.112,44.266,38.248,44.115,38.305z M8.764,50.877c3.026-1.087,6.175-1.869,9.361-2.323l10.194-1.454   c0.002,0,0.003-0.003,0.005-0.003c0.034-0.002,0.066-0.011,0.099-0.018c0.023,0.013,0.038,0.037,0.065,0.041l1.964,0.342   c0,0,0,0,0.001,0.001c0.051,0.008,0.102,0.013,0.152,0.013c0.227,0,0.451-0.085,0.619-0.241c0.034-0.032,0.042-0.076,0.054-0.118   l0.357,0.044c0.01,0.001,0.021,0.002,0.031,0.002c0,0,0,0,0,0c0.036,0.005,0.073,0.009,0.109,0.009c0.227,0,0.45-0.085,0.618-0.242   c0.001-0.001,0.001-0.003,0.002-0.004c0.001-0.001,0.003-0.001,0.004-0.002c3.461-3.421,7.467-6.166,11.908-8.159   c0.003-0.001,0.004-0.005,0.007-0.007c0.376-0.155,0.582-0.528,0.543-0.92c1.466-0.399,2.973-0.619,4.509-0.619   c0.022,0,0.049-0.003,0.067,0h3.987c-0.003,0.009,0.001,0.018-0.001,0.027c-0.004,0.018-0.021,0.031-0.021,0.051   c0,0.016,0.014,0.026,0.017,0.042c0.003,0.015-0.007,0.029-0.002,0.044c0.009,0.024,0.029,0.037,0.043,0.056   c0.011,0.015,0.018,0.03,0.033,0.042c0.045,0.039,0.098,0.066,0.158,0.066h2.843c0.045,0,0.09-0.012,0.131-0.037l0.475-0.291   h26.336c0.093,0.072,0.192,0.132,0.279,0.212l0.054,0.049c0.048,0.044,0.108,0.066,0.169,0.066h2.139   c0.058,0,0.111-0.027,0.156-0.065c0.011-0.009,0.019-0.017,0.029-0.028c0.009-0.011,0.023-0.017,0.03-0.029   c0.013-0.021,0.004-0.045,0.01-0.067c0.006-0.022,0.025-0.037,0.025-0.061c0-0.011-0.011-0.018-0.012-0.029   c-0.002-0.018-0.002-0.032-0.008-0.048h0.388c0.871,0,1.699,0.376,2.274,1.029c2.269,3.126,3.652,6.8,4.022,10.641h-1.153   c-0.352-3.79-1.647-7.452-3.773-10.611c-0.003-0.004-0.008-0.003-0.01-0.007c-0.003-0.004-0.001-0.01-0.004-0.014   c-0.255-0.306-0.631-0.481-1.03-0.481H71.692h-0.011h-20.99c-2.413,0-4.761,0.482-6.98,1.432c-0.003,0.001-0.003,0.005-0.006,0.006   c-0.002,0.001-0.005-0.001-0.007,0c-4.191,2.088-7.954,4.865-11.185,8.254c-0.022,0.023-0.021,0.055-0.032,0.084   c-0.012,0.029-0.036,0.052-0.037,0.086c0,0.002,0.002,0.003,0.002,0.004c0,0.032,0.023,0.057,0.035,0.088   c0.013,0.03,0.016,0.065,0.039,0.088c0.001,0.001,0.001,0.003,0.002,0.004c0.003,0.003,0.008,0.002,0.011,0.004   c-0.242,0-0.485,0.001-0.727,0h0c-0.017,0-0.028,0.015-0.045,0.019c-0.031,0.006-0.055,0.016-0.081,0.034   c-0.03,0.019-0.051,0.039-0.07,0.069c-0.008,0.013-0.025,0.016-0.031,0.031c-0.199,0.47-0.373,0.949-0.536,1.431h-9.08   c-0.001,0-0.002,0.002-0.004,0.002c-0.002,0-0.003-0.002-0.005-0.002c-4.148,0.136-8.327,0.573-12.421,1.301   c-0.136,0.024-0.227,0.154-0.202,0.29c0.021,0.121,0.127,0.206,0.246,0.206c0.015,0,0.029-0.001,0.044-0.004   c4.07-0.724,8.225-1.159,12.35-1.293h8.912c-0.558,1.8-0.858,3.666-0.91,5.542h-1.758c-2.96-3.536-8.236-4.056-11.825-1.14   c-0.157,0.127-0.307,0.263-0.454,0.401H6.203c0.004-0.068,0.009-0.136,0.016-0.204h4.049c0.499,0,0.905-0.406,0.905-0.905   c0-0.273-0.121-0.526-0.331-0.699c0,0,0-0.001,0-0.001l-0.001,0c0,0,0,0,0,0c0,0,0,0,0,0l-0.444-0.364   c-0.002-0.001-0.004,0-0.005-0.002c-0.002-0.001-0.001-0.004-0.003-0.005c-0.607-0.456-1.36-0.707-2.12-0.707H7.471   C7.839,51.447,8.268,51.12,8.764,50.877z M7.053,52.327h1.216c0.541,0,1.074,0.156,1.539,0.431   c-0.078,0.106-0.065,0.255,0.039,0.34l0.445,0.364c0.044,0.036,0.069,0.089,0.069,0.145c0,0.103-0.084,0.187-0.187,0.187   c-0.126,0-0.22,0.098-0.237,0.219H6.302C6.437,53.398,6.692,52.828,7.053,52.327z M6.205,58.632L6.182,58.46h8.344   c-0.143,0.464-0.243,0.948-0.293,1.449c-0.049,0.484-0.049,0.975-0.001,1.459c0,0,0,0,0,0s0,0,0,0c0.001,0.008,0,0.017,0.001,0.025   c0.011,0.112,0.032,0.223,0.049,0.335l-5.34-0.468C7.537,61.137,6.385,60.031,6.205,58.632z M21.651,66.729   c-3.351,0-6.078-2.727-6.078-6.077c0-3.352,2.727-6.078,6.078-6.078s6.078,2.727,6.078,6.078   C27.729,64.002,25.002,66.729,21.651,66.729z M21.651,54.073c-3.627,0-6.578,2.951-6.578,6.578c0,0.158,0.013,0.312,0.024,0.467   H14.72c-0.026-0.386-0.027-0.774,0.011-1.159c0.382-3.814,3.795-6.605,7.612-6.228c3.74,0.374,6.49,3.664,6.239,7.387h-0.377   c0.011-0.155,0.024-0.309,0.024-0.467C28.229,57.024,25.278,54.073,21.651,54.073z M76.387,66.729   c-3.352,0-6.078-2.727-6.078-6.077c0-3.352,2.727-6.078,6.078-6.078c3.351,0,6.077,2.727,6.077,6.078   C82.464,64.002,79.737,66.729,76.387,66.729z M76.387,54.073c-3.627,0-6.578,2.951-6.578,6.578c0,0.046,0.006,0.09,0.007,0.136   l-0.352,0.02c-0.037-1.546,0.425-3.034,1.334-4.27c0,0,0.001-0.001,0.001-0.001c0.133-0.181,0.275-0.357,0.427-0.527   c1.238-1.385,2.942-2.203,4.797-2.306c1.859-0.107,3.639,0.522,5.023,1.761c1.321,1.182,2.12,2.791,2.28,4.548l-0.393,0.023   C82.621,56.696,79.806,54.073,76.387,54.073z M91.058,60.261l-7.212,0.631c0.007-0.219,0.018-0.437,0.006-0.659c0,0,0,0,0-0.001   c0,0,0,0,0,0c0,0,0,0,0,0c-0.052-0.942-0.283-1.844-0.662-2.677h10.616l-0.01,0.076C93.612,59.054,92.486,60.135,91.058,60.261z"/></g><text x="0" y="115" fill="#000000" font-size="5px" font-weight="bold" font-family="'Helvetica Neue', Helvetica, Arial-Unicode, Arial, Sans-serif">Created by Yasser Megahed</text><text x="0" y="120" fill="#000000" font-size="5px" font-weight="bold" font-family="'Helvetica Neue', Helvetica, Arial-Unicode, Arial, Sans-serif">from the Noun Project</text></svg>