<svg width="70" height="28" viewBox="0 0 70 28" fill="none" xmlns="http://www.w3.org/2000/svg">
<g clip-path="url(#clip0_3_54)">
<path d="M10.5792 15.0881C7.21388 15.0881 4.47696 17.8562 4.47696 21.259C4.47696 24.661 7.21465 27.4291 10.5792 27.4291C13.9438 27.4291 16.6815 24.661 16.6815 21.259C16.6815 17.8554 13.9438 15.0881 10.5792 15.0881ZM10.5792 27.0394C7.42619 27.0394 4.86158 24.4463 4.86158 21.2582C4.86158 18.0701 7.42619 15.4762 10.5792 15.4762C13.7315 15.4762 16.2969 18.0701 16.2969 21.2582C16.2969 24.4463 13.7323 27.0394 10.5792 27.0394Z" fill="black"/>
<path d="M10.5792 16.6942C8.09 16.6942 6.06542 18.7421 6.06542 21.2582C6.06542 23.7743 8.09 25.8222 10.5792 25.8222C13.0685 25.8222 15.0931 23.7743 15.0931 21.2582C15.0931 18.7421 13.0685 16.6942 10.5792 16.6942ZM10.5792 25.4341C8.30231 25.4341 6.45003 23.5612 6.45003 21.259C6.45003 18.9568 8.30231 17.0839 10.5792 17.0839C12.8562 17.0839 14.7085 18.9568 14.7085 21.259C14.7085 23.5612 12.8562 25.4341 10.5792 25.4341Z" fill="black"/>
<path d="M6.65772 20.2036C6.62003 20.3039 6.6708 20.4159 6.77003 20.454L8.42692 21.0856C8.44923 21.0941 8.47231 21.098 8.49462 21.098C8.53308 21.098 8.57 21.0863 8.60154 21.0646C8.61385 21.0568 8.61923 21.0412 8.62923 21.0303C8.64538 21.0132 8.66385 20.9992 8.67308 20.9759L8.92308 20.3443V20.342L8.92538 20.3397C8.93385 20.3156 8.92308 20.293 8.92231 20.2697C8.92154 20.2432 8.93 20.2176 8.91923 20.1935C8.91 20.1725 8.88769 20.1631 8.87231 20.1468C8.85385 20.1273 8.84231 20.1017 8.81615 20.0916H8.81308L8.81154 20.09L7.62388 19.6475C7.60772 19.6412 7.59234 19.6506 7.57542 19.649C7.55926 19.6475 7.54618 19.635 7.52849 19.6373L6.90388 19.7322C6.79849 19.7486 6.72695 19.8466 6.74234 19.9531C6.75234 20.0216 6.80157 20.0651 6.85926 20.0916C6.77311 20.083 6.68926 20.1188 6.65772 20.2036ZM7.53695 20.0286L8.49308 20.3848L8.38692 20.6531L6.97157 20.1141L7.53695 20.0286Z" fill="black"/>
<path d="M9.77308 23.1996C9.77846 23.177 9.79385 23.1568 9.79154 23.1342C9.78923 23.1101 9.76923 23.0922 9.75846 23.0705C9.74692 23.0479 9.74461 23.0215 9.72385 23.0036L9.20692 22.5672L9.20385 22.5665L9.20231 22.5641C9.18538 22.5509 9.16308 22.554 9.14385 22.5478C9.11692 22.5385 9.09154 22.5221 9.06308 22.5252C9.04077 22.5276 9.02462 22.5462 9.00462 22.5563C8.98077 22.568 8.95385 22.5711 8.93538 22.5929L8.93461 22.596L8.93231 22.5976L8.14923 23.6032C8.13846 23.6172 8.14231 23.6351 8.13615 23.6499C8.12923 23.6647 8.11385 23.674 8.11077 23.6911L8.00692 24.3219C7.98923 24.4277 8.06 24.528 8.16538 24.5459C8.17615 24.5475 8.18692 24.5482 8.19769 24.5482C8.24846 24.5482 8.29231 24.5249 8.32769 24.4915C8.30231 24.5669 8.31 24.6509 8.37538 24.7038C8.41077 24.7326 8.45308 24.7466 8.49538 24.7466C8.55154 24.7466 8.60769 24.7217 8.64538 24.6735L9.75154 23.2758C9.76923 23.2532 9.76615 23.2252 9.77308 23.1996ZM8.38846 24.374L8.48231 23.8039L9.11231 22.995L9.33231 23.1809L8.38846 24.374Z" fill="black"/>
<path d="M12.2208 22.6777C12.2062 22.6551 12.18 22.6497 12.1592 22.6357C12.1392 22.6225 12.1238 22.6007 12.1008 22.596C12.0731 22.5898 12.0469 22.603 12.0185 22.61C11.9977 22.6147 11.9762 22.6085 11.9577 22.6201L11.3885 22.9826L11.3869 22.9849L11.3838 22.9857C11.3615 23.0005 11.3569 23.0261 11.3431 23.0471C11.33 23.0673 11.3085 23.0829 11.3038 23.107C11.2985 23.1342 11.3115 23.1599 11.3177 23.1871C11.3223 23.2089 11.3162 23.2307 11.3285 23.2509L11.3308 23.2532L11.3315 23.2556L12.0354 24.3196C12.0538 24.3476 12.0792 24.3693 12.1069 24.3841L12.6677 24.6789C12.6962 24.6945 12.7262 24.7007 12.7562 24.7007C12.8254 24.7007 12.8923 24.6626 12.9269 24.5957C12.9515 24.5482 12.9546 24.4953 12.94 24.4479C12.9692 24.4642 13.0008 24.4743 13.0338 24.4743C13.07 24.4743 13.1069 24.4635 13.1392 24.4425C13.2285 24.3833 13.2523 24.2628 13.1946 24.1726L12.2208 22.6777ZM12.3262 24.0613L11.76 23.205L12.0023 23.051L12.8331 24.3281L12.3262 24.0613Z" fill="black"/>
<path d="M11.9046 17.3732C11.8962 17.3701 11.8877 17.3763 11.8792 17.3748C11.8708 17.3732 11.8662 17.3639 11.8569 17.3631C11.8392 17.3608 11.8254 17.3755 11.8085 17.3787C11.7838 17.3833 11.7623 17.3857 11.7415 17.4004C11.7208 17.4144 11.71 17.4315 11.6954 17.4533C11.6846 17.4681 11.6662 17.4759 11.66 17.4938C11.6569 17.5031 11.6631 17.5109 11.6615 17.5202C11.66 17.5288 11.6508 17.5334 11.65 17.5428L11.4923 19.5347C11.4915 19.5471 11.5015 19.5557 11.5031 19.5681C11.5038 19.5805 11.4954 19.5914 11.4992 19.6039C11.5038 19.621 11.5192 19.6311 11.5277 19.6451C11.5308 19.6498 11.5292 19.6568 11.5331 19.6614C11.2538 19.4903 10.9292 19.3853 10.5792 19.3853C10.1615 19.3853 9.78 19.5308 9.47 19.7672C9.47615 19.7579 9.48615 19.7524 9.49077 19.7423C9.49538 19.7307 9.48846 19.719 9.49077 19.7073C9.49385 19.6949 9.50462 19.6871 9.50538 19.6739L9.57462 17.542C9.57462 17.5295 9.56462 17.5218 9.56231 17.5101C9.56077 17.4984 9.56846 17.4875 9.56462 17.4759C9.56 17.4611 9.54462 17.4557 9.53692 17.4432C9.52385 17.4214 9.51231 17.4051 9.49154 17.3895C9.47154 17.374 9.45231 17.3662 9.42692 17.36C9.41231 17.3561 9.40308 17.3429 9.38769 17.3421C9.37462 17.3421 9.36769 17.3522 9.35615 17.3538C9.34462 17.3553 9.33385 17.3475 9.32231 17.3507C8.52615 17.612 7.83846 18.1082 7.33388 18.7849C7.32849 18.7919 7.33157 18.802 7.32772 18.8098C7.32311 18.8175 7.31311 18.8191 7.31003 18.8277C7.30311 18.8448 7.31234 18.8619 7.31003 18.879C7.30695 18.9047 7.30311 18.9257 7.31003 18.9505C7.31695 18.9754 7.3308 18.9918 7.34618 19.0128C7.35695 19.0268 7.35772 19.0462 7.37234 19.0571C7.3808 19.0633 7.3908 19.0618 7.39926 19.0664C7.40542 19.0703 7.40695 19.0789 7.41388 19.0812L9.23846 19.8473C9.25846 19.8567 9.27923 19.859 9.30077 19.8598C9.30308 19.8598 9.30385 19.8621 9.30615 19.8621C9.30846 19.8621 9.31077 19.8621 9.31231 19.8621C9.33692 19.8621 9.35846 19.8504 9.38077 19.8419C8.98385 20.1857 8.72615 20.6904 8.72615 21.259C8.72615 21.476 8.77 21.6821 8.83769 21.8765L8.83538 21.8742C8.82692 21.8625 8.82769 21.8462 8.81615 21.8369C8.80615 21.8283 8.79308 21.8322 8.78231 21.826C8.77154 21.8198 8.76846 21.8065 8.75615 21.8019L6.77234 21.0762C6.7608 21.0723 6.75003 21.0801 6.73849 21.0778C6.72695 21.0754 6.71926 21.0645 6.70695 21.0645C6.6908 21.0645 6.6808 21.0778 6.66618 21.0817C6.64234 21.0871 6.62465 21.0941 6.60388 21.1073C6.58157 21.1229 6.56772 21.1392 6.55388 21.1618C6.54618 21.1742 6.5308 21.1781 6.52618 21.1921C6.52234 21.2038 6.52926 21.2147 6.52772 21.2263C6.52542 21.238 6.51465 21.2458 6.51465 21.2582C6.51465 22.1052 6.76849 22.9203 7.24849 23.6133C7.25311 23.6195 7.26234 23.6172 7.26772 23.6234C7.27465 23.6312 7.27311 23.6429 7.2808 23.6499C7.31695 23.681 7.36157 23.6965 7.40618 23.6965C7.44465 23.6965 7.48311 23.6849 7.51695 23.6615C7.52542 23.6561 7.52465 23.6444 7.53157 23.6382C7.53772 23.6328 7.54695 23.6351 7.55234 23.6281L8.83692 22.1099C8.84308 22.1029 8.84 22.092 8.84538 22.0842C8.85308 22.0718 8.86615 22.064 8.87154 22.05C8.87692 22.036 8.86769 22.0228 8.87 22.0088C8.87077 22.0033 8.87462 21.9987 8.87538 21.9932C9.15846 22.6621 9.81538 23.1319 10.5792 23.1319C10.5823 23.1319 10.5862 23.1311 10.5892 23.1311C10.5862 23.1327 10.5815 23.1311 10.5785 23.1327C10.5677 23.1389 10.5669 23.1529 10.5577 23.1607C10.5485 23.1692 10.5346 23.1684 10.5269 23.1785L9.23077 24.8617C9.22308 24.871 9.22692 24.8842 9.22154 24.8943C9.21615 24.9052 9.20308 24.9091 9.19923 24.9208C9.19462 24.9355 9.20385 24.9488 9.20231 24.9635C9.2 24.9892 9.2 25.0102 9.20769 25.0351C9.21538 25.0592 9.22615 25.0763 9.24231 25.0965C9.25154 25.1082 9.25154 25.1245 9.26385 25.1347C9.27538 25.1432 9.28923 25.1417 9.30231 25.1479C9.31077 25.1525 9.31385 25.1627 9.32308 25.1658C9.73308 25.3011 10.1562 25.3688 10.5785 25.3688C10.9777 25.3688 11.3762 25.3089 11.7646 25.1891C11.7708 25.1868 11.7731 25.1798 11.7792 25.1774C11.7892 25.1735 11.8 25.1751 11.8092 25.1689C11.8246 25.1595 11.8269 25.1409 11.8392 25.1277C11.8569 25.109 11.8723 25.0934 11.8815 25.0693C11.8908 25.0452 11.8892 25.0242 11.8885 24.9985C11.8885 24.9807 11.8985 24.9643 11.8931 24.9464C11.8908 24.9379 11.8808 24.9348 11.8769 24.927C11.8731 24.9184 11.8777 24.9099 11.8731 24.9013L10.8431 23.1972C10.8362 23.1863 10.8231 23.1855 10.8146 23.1762C10.8069 23.1669 10.8077 23.1537 10.7977 23.1451C10.7854 23.1358 10.7708 23.1397 10.7577 23.1342C10.7485 23.1295 10.7431 23.1194 10.7338 23.1171C11.5023 23.0518 12.1331 22.5159 12.3469 21.7918C12.3469 21.7941 12.3485 21.7957 12.3485 21.798C12.3485 21.812 12.3385 21.8244 12.3423 21.8392C12.3454 21.8532 12.3577 21.861 12.3638 21.8734C12.3685 21.8835 12.3638 21.8944 12.37 21.9038L13.5531 23.6701C13.5631 23.6849 13.5777 23.6927 13.5908 23.7043C13.5954 23.7082 13.5946 23.7144 13.5992 23.7183C13.6023 23.7207 13.6069 23.7199 13.61 23.7222C13.6408 23.7424 13.6754 23.7557 13.7123 23.7557C13.7492 23.7557 13.7869 23.7448 13.82 23.7222C13.8323 23.7144 13.8323 23.6989 13.8423 23.6888C13.8492 23.6818 13.8615 23.6841 13.8677 23.6755C14.36 22.9903 14.6285 22.1807 14.6431 21.3344C14.6431 21.3251 14.6346 21.3197 14.6338 21.3111C14.6331 21.3025 14.64 21.2948 14.6377 21.2862C14.6331 21.2675 14.6162 21.2598 14.6077 21.2434C14.5954 21.2209 14.5862 21.2014 14.5669 21.1859C14.5469 21.1688 14.5254 21.1641 14.5 21.1563C14.4838 21.1517 14.4723 21.1361 14.4538 21.1361C14.4446 21.1377 14.4408 21.1439 14.4323 21.1454C14.4231 21.1462 14.4154 21.1392 14.4062 21.1415L12.4838 21.6059C12.4715 21.609 12.4662 21.6214 12.4554 21.6269C12.4438 21.6315 12.4315 21.6269 12.4208 21.6339C12.4085 21.6424 12.4077 21.658 12.3985 21.6689C12.3938 21.6743 12.3854 21.6759 12.3815 21.6813C12.4123 21.546 12.4323 21.406 12.4323 21.2613C12.4323 20.6298 12.1192 20.0721 11.6438 19.7322C11.6531 19.7345 11.6592 19.7439 11.6692 19.7447C11.6746 19.7454 11.6792 19.7454 11.6846 19.7454C11.7023 19.7454 11.72 19.7431 11.7377 19.7377L13.7646 19.1458C13.7738 19.1434 13.7769 19.1325 13.7854 19.1287C13.7985 19.1232 13.8123 19.1248 13.8238 19.1162C13.8362 19.1069 13.8362 19.0913 13.8462 19.0797C13.8631 19.0602 13.8754 19.0431 13.8831 19.0182C13.8915 18.9941 13.8923 18.9731 13.8908 18.9474C13.89 18.9327 13.9 18.9194 13.8954 18.9047C13.8915 18.893 13.8792 18.8883 13.8738 18.8774C13.8685 18.8665 13.8731 18.8541 13.8662 18.8448C13.3754 18.158 12.6969 17.6501 11.9046 17.3732ZM13.3731 18.8533L11.8977 19.2842L12.0115 17.843C12.5408 18.0693 13.0023 18.4123 13.3731 18.8533ZM9.18077 17.829L9.13 19.3799L7.80923 18.8253C8.18538 18.3867 8.65154 18.0491 9.18077 17.829ZM7.43542 23.17C7.14003 22.6738 6.96542 22.1215 6.92157 21.5437L8.36462 22.071L7.43542 23.17ZM9.71692 24.864L10.66 23.6398L11.4054 24.8725C10.8469 25.0032 10.2738 25.0001 9.71692 24.864ZM13.7046 23.2019L12.8438 21.9162L14.2346 21.5802C14.1854 22.1581 14.0054 22.708 13.7046 23.2019ZM12.0477 21.2582C12.0477 22.0764 11.3892 22.7422 10.58 22.7422C9.77077 22.7422 9.11154 22.0764 9.11154 21.2582C9.11154 20.4392 9.77 19.7734 10.58 19.7734C11.39 19.7734 12.0477 20.44 12.0477 21.2582Z" fill="black"/>
<path d="M12.3577 20.1685C12.3408 20.1825 12.3177 20.1895 12.3069 20.2082C12.2931 20.2315 12.2985 20.2611 12.2954 20.2883C12.2931 20.3109 12.28 20.3303 12.2862 20.3537L12.2869 20.3568V20.3583L12.4508 21.014L12.4523 21.0163V21.0194C12.46 21.0482 12.4808 21.0677 12.4992 21.0887C12.5077 21.0988 12.5108 21.1128 12.5215 21.1213C12.5546 21.1462 12.5946 21.161 12.6377 21.161C12.6531 21.161 12.6692 21.1594 12.6846 21.1548L12.6862 21.154C12.6877 21.154 12.6885 21.154 12.69 21.1532L13.9077 20.8055C13.9238 20.8009 13.9308 20.7845 13.9454 20.776C13.96 20.7674 13.9777 20.7698 13.9908 20.7573L14.4408 20.3093C14.5169 20.2339 14.5177 20.111 14.4431 20.034C14.3946 19.985 14.3292 19.9788 14.2662 19.9935C14.3415 19.9508 14.39 19.8699 14.3662 19.782C14.3377 19.6793 14.2346 19.6187 14.13 19.6459L12.4223 20.1188C12.3938 20.1265 12.3785 20.1507 12.3577 20.1685ZM14.1638 20.0394L13.7562 20.4454L12.7754 20.7254L12.7054 20.4439L14.1638 20.0394Z" fill="black"/>
<path d="M10.0992 19.1963C10.1077 19.2228 10.1085 19.2523 10.1262 19.2733C10.1454 19.2959 10.1769 19.3013 10.2046 19.3122C10.2231 19.3192 10.2354 19.3363 10.2562 19.3379H10.2585C10.2592 19.3379 10.2592 19.3387 10.26 19.3387C10.2623 19.3387 10.2654 19.3387 10.2677 19.3387L10.9277 19.383C10.9292 19.383 10.9308 19.383 10.9315 19.383C10.9323 19.383 10.9323 19.3838 10.9323 19.3838C10.9346 19.3838 10.9377 19.3838 10.94 19.3838C10.9908 19.3838 11.0369 19.3636 11.0715 19.3301C11.0846 19.3177 11.0846 19.2974 11.0938 19.2827C11.1092 19.257 11.1292 19.2344 11.1315 19.2026C11.1315 19.2018 11.1308 19.201 11.1308 19.2002C11.1308 19.1994 11.1323 19.1987 11.1323 19.1971L11.1808 17.9184C11.1815 17.9006 11.1677 17.8889 11.1638 17.8726C11.1608 17.8562 11.1685 17.8399 11.1608 17.8243L10.8785 17.2527C10.8308 17.1562 10.7154 17.1189 10.6208 17.1656C10.5585 17.1967 10.5331 17.2581 10.5269 17.3227C10.51 17.2371 10.4492 17.1663 10.3592 17.1617C10.2523 17.1679 10.1631 17.2402 10.1585 17.3468L10.0762 19.131V19.1357C10.0762 19.1582 10.0923 19.1753 10.0992 19.1963ZM10.54 17.4347L10.7954 17.9519L10.7562 18.9817L10.47 18.9622L10.54 17.4347Z" fill="black"/>
<path d="M69.6162 16.5402V16.5371C69.6169 16.5138 69.6 16.4974 69.5931 16.4764C69.5838 16.4492 69.5823 16.4197 69.5638 16.3994C69.5508 16.3854 69.53 16.3854 69.5138 16.3761C69.4877 16.3606 69.4646 16.3396 69.4323 16.338L68.7477 16.3092L68.7377 16.0984C68.7369 16.0782 68.7208 16.0666 68.7146 16.0494C68.7062 16.0253 68.7008 16.0036 68.6838 15.9841C68.6692 15.9678 68.65 15.96 68.63 15.9491C68.6123 15.939 68.6008 15.9203 68.5792 15.9164L68.4 15.8838L68.1069 15.7617C68.0938 15.7562 68.08 15.764 68.0669 15.7617C68.0492 15.7593 68.0385 15.7446 68.0185 15.7477L67.5038 15.7881L67.4946 15.6956C67.51 15.6839 67.5223 15.6738 67.5331 15.6574C67.5477 15.6364 67.5523 15.6162 67.5585 15.5906C67.5631 15.5734 67.5769 15.561 67.5762 15.5431L67.4531 11.1564L67.43 10.3281C67.43 10.3141 67.4177 10.3063 67.4146 10.2931C67.4123 10.2807 67.4192 10.269 67.4138 10.2566L67.0477 9.39711C67.0423 9.38467 67.0285 9.38156 67.0215 9.37144C67.0077 9.35122 66.9946 9.33644 66.9746 9.32244L66.94 8.01656C66.9392 7.987 66.9215 7.96756 66.9115 7.94422C66.9062 7.93178 66.91 7.917 66.9015 7.90533L66.89 7.88978C66.8885 7.88822 66.8877 7.88511 66.8854 7.88356L66.8023 7.77233L66.5808 7.06222L66.3069 5.719C66.3062 5.71433 66.3008 5.712 66.2992 5.70733C66.2977 5.70267 66.3015 5.69878 66.3 5.69411L65.5915 3.62756C65.5908 3.62522 65.5877 3.62444 65.5862 3.62133C65.5854 3.619 65.5869 3.61667 65.5862 3.61356L64.9577 2.14278C64.9485 2.12022 64.9262 2.11244 64.9108 2.09611C64.8969 2.08056 64.8915 2.05878 64.8723 2.04867L64.3862 1.78422L64.0923 1.48633C64.0831 1.477 64.0692 1.47933 64.0592 1.47233C64.0492 1.46533 64.0462 1.45133 64.0338 1.44589L62.8215 0.91L62.4985 0.474445C62.4969 0.472112 62.4931 0.472891 62.4915 0.470558C62.4754 0.450336 62.4508 0.444889 62.4277 0.432444C62.4054 0.420778 62.3877 0.402891 62.3638 0.400558C62.3615 0.400558 62.36 0.397446 62.3569 0.397446L59.3685 0.198334C59.3669 0.198334 59.3662 0.199889 59.3638 0.199889C59.3623 0.199889 59.3615 0.198334 59.36 0.198334L51.26 0C51.2592 0 51.2585 0.000780321 51.2577 0.000780321C51.2569 0.000780321 51.2562 0 51.2554 0C51.2546 0 51.2546 0 51.2538 0L39.8908 0.0801119C39.8892 0.0801119 39.8885 0.081669 39.8869 0.081669C39.8854 0.081669 39.8846 0.0801119 39.8831 0.0801119L35.3608 0.318111C35.3585 0.318111 35.3569 0.321224 35.3546 0.321224C35.3523 0.321224 35.3508 0.318891 35.3477 0.319669L33.0277 0.598112C33.0254 0.598112 33.0238 0.601225 33.0215 0.601225C33.0192 0.601225 33.0169 0.598889 33.0146 0.599667L30.9308 0.997111C30.9269 0.997889 30.9254 1.00256 30.9208 1.00333C30.9169 1.00411 30.9131 1.001 30.9085 1.00256L29.0208 1.59911C29.0131 1.60144 29.0108 1.61078 29.0031 1.61389C28.9962 1.617 28.9877 1.61311 28.9808 1.617L28.2231 2.06967L28.1885 2.06267C28.1854 2.06189 28.1831 2.065 28.18 2.06422C28.1562 2.06033 28.1354 2.072 28.1115 2.07744C28.0862 2.08367 28.06 2.08289 28.0392 2.09844C28.0369 2.1 28.0338 2.09844 28.0315 2.10078L21.4277 7.36322L21.2669 7.26678C21.2523 7.25822 21.2369 7.26522 21.2215 7.26056C21.2069 7.25589 21.1969 7.24189 21.1808 7.24111L20.6192 7.21544C20.6038 7.21311 20.5962 7.22633 20.5823 7.22711C20.5615 7.23022 20.5462 7.23489 20.5269 7.245C20.4969 7.25978 20.4746 7.27611 20.4577 7.30567C20.4523 7.31344 20.4423 7.31422 20.4385 7.32278L20.2085 7.78711C20.2015 7.80111 20.2085 7.81511 20.2054 7.82989C20.1992 7.85556 20.1962 7.87578 20.2008 7.90144C20.2046 7.92711 20.2131 7.94578 20.2262 7.96756C20.2338 7.98078 20.2308 7.99633 20.2415 8.008L20.4015 8.17756L20.2338 8.17133L19.8938 7.96444C19.8854 7.95978 19.8754 7.96444 19.8669 7.96056C19.8585 7.95667 19.8546 7.94656 19.8454 7.94344L19.5646 7.86644C19.5523 7.86333 19.5423 7.87189 19.53 7.87111C19.5185 7.86956 19.5092 7.85944 19.4977 7.86022L15.4654 8.22111C15.4638 8.22111 15.4631 8.22267 15.4623 8.22267C15.4615 8.22267 15.46 8.22111 15.4585 8.22189L11.4008 8.73833C11.4 8.73833 11.4 8.73911 11.3992 8.73911C11.3985 8.73911 11.3977 8.73833 11.3969 8.73833L5.85849 9.56356C5.85234 9.56433 5.85003 9.57056 5.84465 9.57211C5.83926 9.57289 5.83465 9.569 5.82926 9.57056L4.4508 10.0092C4.43003 10.0154 4.42157 10.0357 4.40542 10.0481C4.38772 10.0606 4.36542 10.0629 4.35234 10.0816L3.83926 10.8049C3.83849 10.8057 3.83926 10.8072 3.83849 10.8088C3.83772 10.8096 3.83618 10.8096 3.83618 10.8103L3.82311 10.8306C3.81542 10.8368 3.80542 10.8383 3.79926 10.8453C3.78926 10.8578 3.7908 10.8757 3.78388 10.8904L3.5308 11.2739C3.52388 11.2832 3.52849 11.2941 3.52388 11.3034C3.51926 11.3128 3.50849 11.3167 3.50542 11.3276L2.73926 13.972C2.73772 13.9782 2.74234 13.9837 2.7408 13.9899C2.73926 13.9961 2.73311 13.9992 2.73234 14.0054L2.4408 16.7137L1.14157 17.0419C1.13849 17.0427 1.13695 17.0466 1.13388 17.0481C1.10849 17.0559 1.09234 17.0761 1.07157 17.0948C1.05311 17.1111 1.03234 17.1204 1.02157 17.1422C1.02003 17.1461 1.01542 17.1461 1.01311 17.15L0.764648 17.6983L0.12234 17.9534C0.107725 17.9589 0.103878 17.9752 0.0915708 17.983C0.0700325 17.9978 0.054648 18.011 0.0400326 18.0328C0.0261865 18.0546 0.0200325 18.074 0.0154172 18.0997C0.0123402 18.1144 -0.000736649 18.1253 3.25818e-05 18.1409L0.0769554 20.3591C0.0777246 20.3723 0.0892631 20.3809 0.0915708 20.3933C0.0938785 20.4058 0.0869554 20.4174 0.09234 20.4291L0.895415 22.3238L0.263109 22.4303C0.239263 22.4342 0.226186 22.4544 0.206186 22.4661C0.184648 22.4786 0.161571 22.4848 0.146186 22.5042C0.130802 22.5237 0.130802 22.5478 0.123878 22.5719C0.117725 22.5937 0.100802 22.6116 0.103109 22.6357L0.128494 22.9966C0.13234 23.0487 0.156186 23.0938 0.191571 23.1264C0.193109 23.1257 0.193109 23.1264 0.193109 23.1272L0.856185 23.7207C0.892338 23.7533 0.937723 23.7689 0.983877 23.7689C0.986954 23.7689 0.9908 23.7689 0.994646 23.7689L3.94772 23.6001C3.94926 23.6001 3.95003 23.5978 3.95234 23.5978C3.96542 23.597 3.97849 23.5962 3.9908 23.5923C4.00926 23.5869 4.01695 23.569 4.03234 23.5589C4.05388 23.5449 4.07311 23.5348 4.08772 23.5138C4.10234 23.4928 4.10542 23.471 4.1108 23.4461C4.11542 23.4282 4.12926 23.415 4.12849 23.3956C4.12772 23.3862 4.12003 23.3816 4.11849 23.373C4.11695 23.3652 4.12311 23.359 4.1208 23.3512C3.7808 22.1791 3.76542 20.9362 4.07542 19.7548C4.52849 18.0297 5.61926 16.5877 7.14542 15.6917C8.67154 14.7972 10.4508 14.5553 12.1577 15.0142C13.8631 15.4723 15.29 16.5752 16.1754 18.1183C17.0546 19.6513 17.2938 21.4371 16.8531 23.1513L16.8431 23.198C16.84 23.2128 16.85 23.2244 16.8508 23.2384C16.8508 23.2524 16.84 23.2641 16.8431 23.2789C16.8462 23.2921 16.8577 23.2991 16.8623 23.3116C16.8662 23.3193 16.8638 23.3287 16.8685 23.3364C16.8746 23.3466 16.8846 23.3512 16.8923 23.3606C16.9123 23.3839 16.9346 23.3979 16.9631 23.4096C16.9669 23.4111 16.9692 23.415 16.9731 23.4166C16.9777 23.4181 16.9785 23.4236 16.9831 23.4243C16.9862 23.4251 16.9885 23.429 16.9915 23.4298C17.0054 23.4329 17.0185 23.4344 17.0315 23.4344C17.0446 23.4344 17.0569 23.4329 17.07 23.4306L17.5585 23.3294L17.5708 23.7634C17.5708 23.7658 17.5731 23.7673 17.5731 23.7689C17.5731 23.7712 17.5708 23.7728 17.5715 23.7743C17.5746 23.807 17.5946 23.8296 17.6108 23.8552C17.6192 23.8692 17.62 23.8871 17.6315 23.898C17.6662 23.9314 17.7115 23.9517 17.7623 23.9517C17.7638 23.9517 17.7654 23.9517 17.7677 23.9517C17.7715 23.9517 17.7762 23.9517 17.7792 23.9509L18.4015 23.8957C18.4154 23.8941 18.4231 23.8817 18.4362 23.877C18.4669 23.8677 18.4954 23.8576 18.5177 23.8342C18.5315 23.8202 18.5362 23.8031 18.5446 23.7852C18.5538 23.7673 18.5708 23.7541 18.5738 23.7323L18.6477 23.268L19.1138 23.0829L45.2146 23.2112L45.8985 23.3318L46.1346 23.457L46.0923 23.7261C46.0915 23.7316 46.0962 23.7362 46.0962 23.7417C46.0954 23.7471 46.09 23.7502 46.09 23.7564C46.09 23.7774 46.1062 23.7914 46.1123 23.8109C46.12 23.8358 46.1238 23.8599 46.1408 23.8793C46.1569 23.898 46.1785 23.9042 46.2 23.9159C46.2185 23.926 46.23 23.9447 46.2523 23.9478C46.2623 23.9493 46.2723 23.9501 46.2823 23.9501H46.9408C47.0469 23.9501 47.1331 23.863 47.1331 23.7557V23.7036L47.4877 23.7253C47.4915 23.7253 47.4954 23.7253 47.4992 23.7253C47.5185 23.7253 47.5385 23.7222 47.5585 23.716C47.5669 23.7129 47.5692 23.7036 47.5769 23.7004C47.5815 23.7004 47.5846 23.7059 47.5892 23.7059H47.8646C47.8985 23.7059 47.9323 23.6966 47.9638 23.6787L48.3562 23.4407C49.2262 25.7763 51.4523 27.4462 54.0631 27.4462C57.3669 27.4462 60.0592 24.7761 60.1562 21.4597H60.1946V21.9676C60.1946 21.9784 60.2046 21.9847 60.2062 21.9948C60.21 22.0204 60.22 22.0383 60.2331 22.0609C60.2462 22.0827 60.2577 22.1006 60.2777 22.1161C60.2862 22.1223 60.2869 22.134 60.2962 22.1387L60.6069 22.3051C60.6354 22.3207 60.6662 22.3277 60.6969 22.3277C60.7008 22.3277 60.7046 22.3277 60.7092 22.3277L61.6054 22.2724C61.6069 22.2724 61.6077 22.2709 61.6092 22.2709C61.6192 22.2701 61.6285 22.2701 61.6385 22.2678L62.2423 22.12C62.2608 22.1153 62.2692 22.0974 62.2854 22.0881C62.3077 22.0757 62.3269 22.0663 62.3423 22.0461C62.3585 22.0259 62.3631 22.0041 62.37 21.9792C62.3746 21.9621 62.39 21.9497 62.39 21.931V21.7933L63.6438 21.6634C63.6446 21.6634 63.6454 21.6619 63.6462 21.6619C63.6515 21.6611 63.6569 21.6611 63.6623 21.6603L66.1685 21.1423C66.1692 21.1423 66.1692 21.1423 66.17 21.1423L67.9446 20.7721C67.9462 20.7721 67.9469 20.7698 67.9492 20.769C67.9546 20.7674 67.9592 20.7682 67.9646 20.7667L68.8785 20.4711C68.8877 20.468 68.8908 20.4579 68.8992 20.4532C68.9262 20.44 68.9462 20.4221 68.9646 20.3972C68.9754 20.3824 68.9862 20.3723 68.9923 20.3552C68.9954 20.3474 69.0031 20.3436 69.0054 20.3358L69.3531 19.0229C69.3538 19.0213 69.3523 19.0198 69.3523 19.0182C69.3531 19.0159 69.3554 19.0151 69.3562 19.012L69.5754 17.9402C69.5769 17.934 69.5715 17.9286 69.5723 17.9223C69.5731 17.9161 69.5792 17.9122 69.5792 17.906L69.6162 16.5402ZM68.6615 20.1328L67.8577 20.3926L66.0923 20.7604L63.5969 21.2761L62.1785 21.4231C62.1546 21.4254 62.1408 21.4449 62.1208 21.455C62.0985 21.4659 62.0746 21.4706 62.0585 21.4892C62.0408 21.5087 62.0385 21.5336 62.03 21.5584C62.0231 21.5787 62.0062 21.5942 62.0062 21.6168V21.7778L61.5669 21.8851L61.2546 21.9046C61.3892 20.0628 60.8423 18.2661 59.6885 16.8233C58.4862 15.3214 56.7777 14.3827 54.8769 14.1804C50.9615 13.7706 47.4254 16.6499 47.0108 20.6158C47.0031 20.6897 47.0046 20.7636 46.9992 20.8374L46.8262 20.818L46.9915 19.6918L47.2431 18.2544L47.8762 16.8233C47.8854 16.8148 47.8962 16.8093 47.9038 16.7984L48.2346 16.3069L48.9231 15.771C48.9246 15.7694 48.9246 15.7671 48.9262 15.7663C48.9277 15.7648 48.93 15.7656 48.9315 15.764L49.4492 15.3137L50.1938 14.8657L51.1508 14.4363L52.3154 14.2372C52.3308 14.2349 52.3377 14.2201 52.3515 14.2147C52.3585 14.2116 52.3662 14.21 52.3731 14.2061L52.7939 14.0964L53.5069 13.9728L55.0531 14.0638L56.6638 14.3531L57.9485 14.9123L58.9769 15.5221L59.8962 16.4694L60.5369 17.4946L61.0815 18.6496C61.0908 18.6682 61.1069 18.6791 61.12 18.6931C61.1262 18.6993 61.1246 18.7094 61.1315 18.7157L61.4608 18.9926C61.4615 18.9933 61.4623 18.9926 61.4631 18.9933C61.4969 19.0206 61.5385 19.0369 61.5838 19.0369C61.5977 19.0369 61.6115 19.0353 61.6254 19.0322L62.1185 18.9218C62.1192 18.9218 62.1208 18.9218 62.1215 18.9218C62.1562 18.914 62.1785 18.8868 62.2023 18.8634C62.2138 18.8526 62.2323 18.8494 62.2408 18.8354C62.2592 18.8067 62.2569 18.7701 62.2585 18.7351C62.2592 18.7196 62.27 18.7063 62.2662 18.69C62.2662 18.6892 62.2662 18.6892 62.2662 18.6884L62.0831 17.8749C62.0815 17.8694 62.0762 17.8679 62.0746 17.8624C62.0731 17.8578 62.0769 17.8531 62.0746 17.8477L61.4538 16.2112L66.2469 16.2447C66.2477 16.2447 66.2477 16.2447 66.2485 16.2447C66.2531 16.2447 66.2569 16.2447 66.2615 16.2439L67.2885 16.1739C67.3023 16.177 67.3131 16.1894 67.3277 16.1894C67.3338 16.1894 67.34 16.1894 67.3454 16.1887L67.9992 16.1373L68.2685 16.2501C68.2792 16.254 68.29 16.254 68.3 16.2563C68.3031 16.2571 68.3046 16.261 68.3077 16.2618L68.3577 16.2711L68.3685 16.5052C68.37 16.5317 68.3885 16.5503 68.3992 16.5729C68.4085 16.5931 68.41 16.6149 68.4254 16.6304C68.4454 16.6507 68.4738 16.6561 68.5008 16.6654C68.5192 16.6724 68.5323 16.6888 68.5523 16.6896L69.2231 16.7183L69.1915 17.8772L68.9754 18.9327L68.6615 20.1328ZM46.9523 23.303C46.95 23.303 46.9485 23.3053 46.9462 23.3053C46.9438 23.3053 46.9431 23.303 46.9408 23.303C46.9115 23.303 46.8908 23.3224 46.8662 23.3341C46.8477 23.3427 46.8269 23.3434 46.8123 23.3567C46.7923 23.3753 46.7885 23.4026 46.7777 23.4274C46.7685 23.4477 46.7508 23.4617 46.7492 23.485C46.7492 23.4873 46.7515 23.4889 46.7515 23.4912C46.7515 23.4936 46.7492 23.4943 46.7492 23.4967V23.5612H46.5077L46.5362 23.3792C46.5385 23.3629 46.5269 23.3504 46.5254 23.3349C46.5238 23.3092 46.5208 23.289 46.5092 23.2664C46.4977 23.2431 46.4831 23.2276 46.4638 23.2104C46.4523 23.2003 46.45 23.1832 46.4354 23.1762L46.0515 22.9724C46.0415 22.967 46.0308 22.9732 46.0208 22.9693C46.0108 22.9662 46.0062 22.9553 45.9954 22.953L45.2638 22.8239C45.2577 22.8223 45.2531 22.8278 45.2469 22.8278C45.2408 22.827 45.2377 22.8216 45.2315 22.8216L19.0808 22.6924C19.0677 22.6924 19.0585 22.7041 19.0462 22.7064C19.0338 22.7088 19.0223 22.701 19.01 22.7057L18.4062 22.946C18.3977 22.9499 18.3954 22.96 18.3877 22.9639C18.3662 22.9756 18.3538 22.9927 18.3377 23.0121C18.3215 23.0323 18.3069 23.0487 18.3 23.0743C18.2977 23.0829 18.2885 23.0868 18.2869 23.0953L18.2192 23.5192L17.95 23.5433L17.9377 23.0837C17.9377 23.0774 17.9315 23.0743 17.93 23.0681C17.9292 23.0611 17.9346 23.0564 17.9338 23.0494C17.9285 23.0238 17.9069 23.0106 17.8938 22.9911C17.8823 22.9748 17.8777 22.9577 17.8631 22.946C17.8415 22.9281 17.8177 22.9234 17.79 22.9157C17.7723 22.9102 17.7585 22.8954 17.74 22.8947C17.7338 22.8947 17.73 22.9009 17.7238 22.9017C17.7177 22.9024 17.7123 22.897 17.7069 22.8978L17.2823 22.9857L17.6431 21.2924L18.4331 21.3236C18.4354 21.3236 18.4385 21.3236 18.4408 21.3236C18.4669 21.3236 18.4931 21.3181 18.5192 21.3072L19.1423 21.028L20.1977 21.0047C20.2331 21.042 20.2777 21.0677 20.3308 21.0677C20.3415 21.0677 20.3523 21.0669 20.3638 21.0646C20.4077 21.0568 20.44 21.0288 20.4677 20.9984L20.7677 20.9914L39.9354 21.0467C39.9362 21.0467 39.9369 21.0467 39.9377 21.0467L45.0869 21.0093L46.9808 21.2248C46.9662 21.9341 47.0569 22.6349 47.2469 23.3201L46.9523 23.303ZM18.2508 18.2692C18.2446 18.2389 18.2454 18.2078 18.2246 18.1821L15.7823 15.1962C15.7785 15.1908 15.7708 15.1923 15.7662 15.1877C15.7615 15.183 15.7631 15.1752 15.7577 15.1713C14.1669 13.8157 12.1485 13.1647 10.0762 13.3451C8.00308 13.5232 6.12234 14.5079 4.78157 16.1156C4.66772 16.2517 4.56003 16.3932 4.45542 16.5371L3.16388 16.6328L3.26234 16.3606L3.75849 15.6808C3.75926 15.6792 3.75849 15.6777 3.75926 15.6769C3.7608 15.6746 3.76311 15.6738 3.76465 15.6722L4.30926 14.8283L5.03695 13.9316L5.71772 13.4019L7.68465 12.4398L8.74692 12.1714L10.5315 12.0439L12.2046 12.0983L13.8792 12.4623C13.8946 12.4771 13.9015 12.4989 13.9223 12.5074L15.4308 13.1724L17.3208 14.7311L18.5962 16.3722L19.2877 17.6151L19.9062 19.5292L20.0908 20.6181L19.0931 20.6407C19.0869 20.6407 19.0838 20.6469 19.0785 20.6469L19.0085 20.3646C19.0077 20.3614 19.0038 20.3599 19.0031 20.3568C19.0023 20.3537 19.0046 20.3506 19.0038 20.3474L18.65 19.3146C18.65 19.3138 18.6492 19.3138 18.6492 19.3138C18.6492 19.313 18.6492 19.313 18.6492 19.3122L18.2954 18.319C18.2877 18.2964 18.2654 18.2871 18.2508 18.2692ZM3.11311 14.0638L3.16234 13.8942L4.55772 13.909L4.00311 14.5927C4.0008 14.5958 4.00234 14.5997 4.00003 14.6028C3.99772 14.6059 3.99311 14.6059 3.9908 14.609L3.44388 15.4568L2.93618 16.1537C2.93003 16.1622 2.93388 16.1723 2.92926 16.1809C2.92465 16.1894 2.91388 16.1926 2.91003 16.2019L2.8708 16.3108L3.11311 14.0638ZM4.62542 10.3608L5.92542 9.947L11.4508 9.12333L15.5015 8.60844L19.4954 8.25067L19.7169 8.31133L20.0769 8.52989C20.1023 8.54544 20.1308 8.55011 20.1585 8.55244C20.1623 8.55322 20.1646 8.55711 20.1692 8.55711L20.6908 8.57656C20.7262 8.61622 20.7723 8.64344 20.8277 8.64344C20.8331 8.64344 20.8392 8.64344 20.8446 8.64267L21.7492 8.56333L21.75 8.56256C21.7531 8.56256 21.7562 8.56256 21.76 8.56178L22.5854 8.44278C22.6908 8.42722 22.7638 8.32922 22.7485 8.22267C22.7485 8.22111 22.7469 8.22111 22.7469 8.21956L23.3285 7.721L22.39 8.90089L21.9477 9.10233L20.6315 9.27811L16.3785 9.45856C16.3769 9.45856 16.3762 9.46011 16.3738 9.46089C16.3723 9.46089 16.3715 9.45933 16.37 9.45933L12.4269 9.79456L6.69157 10.3094L5.11234 10.3608C5.10465 10.3608 5.10003 10.3686 5.09234 10.3701C5.06695 10.374 5.04926 10.3864 5.02695 10.4004C5.00542 10.4137 4.98542 10.423 4.9708 10.444C4.96618 10.4502 4.95695 10.451 4.95311 10.458L4.82388 10.682L4.36542 10.7294L4.62542 10.3608ZM20.7262 7.60978L21.1162 7.62767L21.2531 7.707L21.9877 8.13867L21.7092 8.17911L20.9908 8.24211L20.6123 7.84L20.7262 7.60978ZM28.1723 2.48189C28.1869 2.485 28.2 2.49278 28.2146 2.49278C28.2369 2.49278 28.2585 2.48267 28.28 2.47489L28.7446 2.569L22.4877 7.93411L22.2269 7.82911L21.7869 7.57089L28.1723 2.48189ZM29.8438 3.07067C29.8577 3.06756 29.8723 3.06756 29.8862 3.06056L30.4946 2.75256L31.5823 2.39167L33.3638 2.13733L36.7915 2.06344L38.1685 2.051L38.0192 5.70733L37.7831 8.52056L37.6569 10.073L37.3408 9.77822C37.3369 9.77433 37.3308 9.77589 37.3262 9.77278C37.3054 9.75644 37.2815 9.75333 37.2554 9.74633C37.2315 9.74011 37.2115 9.73078 37.1869 9.73389C37.1808 9.73467 37.1762 9.72922 37.17 9.73078L36.7185 9.82644L36.1677 9.77978L35.8392 9.66078C35.8285 9.65689 35.8169 9.66467 35.8062 9.66233C35.7946 9.66 35.7869 9.64911 35.7746 9.64911H35.1708C35.1623 9.64911 35.1569 9.65689 35.1485 9.65844C35.14 9.65922 35.1331 9.65222 35.1238 9.65456L34.7215 9.75644C34.72 9.75722 34.7192 9.75878 34.7177 9.75956C34.7162 9.76033 34.7146 9.75878 34.7131 9.75878L34.4892 9.82644H33.9631C33.9562 9.82644 33.9515 9.83344 33.9446 9.83422C33.92 9.83656 33.9023 9.84978 33.88 9.86144C33.8569 9.87389 33.8354 9.88167 33.8192 9.90189C33.8146 9.90733 33.8069 9.90656 33.8031 9.91278L33.6538 10.1446C33.6431 10.1609 33.6492 10.1796 33.6438 10.1967C33.6385 10.2107 33.6238 10.2192 33.6223 10.2348L33.5969 10.5148C33.5962 10.5241 33.6038 10.5296 33.6046 10.5389C33.6054 10.5646 33.6154 10.5832 33.6254 10.6073C33.6362 10.6307 33.6438 10.6509 33.6631 10.6688C33.6692 10.675 33.6685 10.6843 33.6762 10.6898L33.9531 10.8936C33.9869 10.9184 34.0269 10.9309 34.0662 10.9309H34.4546L34.5669 11.0818C34.57 11.0864 34.5769 11.0841 34.58 11.0888C34.6154 11.13 34.6631 11.1596 34.7208 11.1596C34.7231 11.1596 34.7262 11.1596 34.7285 11.1596L35.3323 11.1339H35.9538C35.9985 11.1339 36.0385 11.1129 36.0731 11.0841C36.0823 11.0763 36.0892 11.0693 36.0969 11.06C36.1054 11.0499 36.1162 11.0444 36.1231 11.0328L36.2192 10.8547H36.6923L37.1031 10.9278C37.1154 10.9301 37.1262 10.9309 37.1369 10.9309C37.1738 10.9309 37.2108 10.92 37.2438 10.8982L37.4708 10.7458C37.4746 10.7427 37.4746 10.7372 37.4785 10.7341C37.5008 10.717 37.5231 10.6976 37.5362 10.6703L37.6262 10.4876L37.5277 11.6947L20.8277 11.9296L20.8015 11.515C20.8008 11.5018 20.7885 11.494 20.7846 11.4823L20.9177 9.98433L21.03 9.97733C21.0315 9.97733 21.0331 9.97733 21.0346 9.97733L22.4131 9.87467C22.4438 9.87233 22.4654 9.85056 22.49 9.835C22.5054 9.82567 22.5254 9.828 22.5385 9.814L23.9169 8.34322L25.1592 7.08711L25.1485 7.18589L24.7446 7.56C24.7385 7.56622 24.74 7.57556 24.7346 7.58256C24.7292 7.58878 24.72 7.58878 24.7146 7.59578L24.3215 8.19233C24.3146 8.20322 24.3192 8.21567 24.3146 8.22733C24.31 8.23822 24.2969 8.24367 24.2946 8.25611L24.1377 8.932C24.1323 8.95611 24.1454 8.97633 24.1485 8.99889C24.1515 9.02456 24.1477 9.051 24.1608 9.07278C24.1731 9.09456 24.1969 9.10311 24.2169 9.11867C24.2354 9.13344 24.2462 9.15522 24.27 9.16222L24.6631 9.28122C24.6731 9.28433 24.6823 9.28433 24.6923 9.28589C24.7231 9.30767 24.7562 9.32944 24.7969 9.32944C24.7977 9.32944 24.7977 9.32944 24.7985 9.32944L36.7915 9.21044C36.7931 9.21044 36.7931 9.20889 36.7946 9.20889C36.8377 9.20733 36.8769 9.18789 36.9108 9.15911C36.9185 9.15289 36.9246 9.14822 36.9315 9.14044C36.9369 9.13422 36.9446 9.13111 36.9492 9.12411L37.1854 8.76711C37.1938 8.75467 37.1885 8.73911 37.1931 8.72589C37.2 8.70956 37.2146 8.69867 37.2169 8.68L37.7669 3.47356C37.7677 3.46967 37.7638 3.46656 37.7638 3.46267C37.7638 3.45878 37.7677 3.45644 37.7677 3.45333V2.77744C37.7677 2.75411 37.7508 2.73856 37.7431 2.71833C37.7362 2.69733 37.74 2.674 37.7254 2.65611L37.4115 2.25867C37.4092 2.25556 37.4038 2.25633 37.4015 2.25322C37.3838 2.23378 37.36 2.22833 37.3354 2.21667C37.3138 2.20656 37.2962 2.19178 37.2723 2.19022C37.2677 2.19022 37.2654 2.18556 37.2608 2.18556H36.5131C36.5108 2.18556 36.51 2.18789 36.5085 2.18789C36.5062 2.18789 36.5054 2.18633 36.5038 2.18633L31.9823 2.42511C31.9731 2.42589 31.9677 2.43444 31.9585 2.43678C31.9492 2.43833 31.9408 2.43133 31.9315 2.43444L30.5162 2.91122C30.5077 2.91433 30.5054 2.92367 30.4977 2.92756C30.49 2.93144 30.4808 2.92756 30.4738 2.93222L28.39 4.28322C28.3854 4.28633 28.3854 4.29333 28.3808 4.29644C28.3762 4.30033 28.3692 4.298 28.3654 4.30189L26.8069 5.71978L26.4538 5.79522C27.5969 4.90156 28.7331 3.99467 29.8438 3.07067ZM38.8385 2.04556C38.8392 2.04556 38.8408 2.04556 38.8415 2.04556L47.1077 1.86044L50.5262 1.897L50.81 2.00667L50.8408 2.065L39.1646 2.17389C39.1415 2.17389 39.1269 2.191 39.1062 2.19878C39.0808 2.20811 39.0531 2.21044 39.0338 2.22989C39.0154 2.24778 39.0123 2.27422 39.0023 2.29833C38.9931 2.32011 38.9746 2.33644 38.9738 2.36056L38.7546 7.92633C38.7546 7.92789 38.7562 7.92867 38.7562 7.93022C38.7562 7.93178 38.7546 7.93256 38.7546 7.93411V8.63644C38.7546 8.64189 38.76 8.645 38.7608 8.65044C38.7623 8.67611 38.7769 8.69556 38.7885 8.71889C38.8 8.74144 38.8062 8.764 38.8246 8.78033C38.8285 8.78422 38.8277 8.79044 38.8323 8.79356L39.18 9.05256C39.2146 9.07822 39.2546 9.09067 39.2938 9.09067C39.2946 9.09067 39.2954 9.09067 39.2969 9.09067L51.9823 8.90711C52.0838 9.42044 52.1062 9.95011 52.0362 10.4697C52.0331 10.4946 52.0485 10.5148 52.0538 10.5381L52.0908 11.5469C52.09 11.5492 52.0869 11.5492 52.0862 11.5516L52.0808 11.5648L37.91 11.6916L38.1654 8.55556L38.4023 5.73378C38.4023 5.73222 38.4008 5.73144 38.4008 5.72989C38.4008 5.72833 38.4023 5.72756 38.4031 5.72522L38.5531 2.04944L38.8385 2.04556ZM60.0354 2.471L60.8131 2.57133L61.2231 3.03411L61.5285 3.70456L61.5385 3.75278C61.5362 3.77844 61.5238 3.80178 61.5315 3.82744L61.5985 4.046L61.7815 4.94278L62.1608 7.58567L62.1362 7.78556L62.0415 7.87267L52.1677 7.98078L51.3962 2.401L60.0354 2.471ZM49.2585 2.96256L49.4985 3.34056L49.6031 4.46989L49.7123 6.993L49.6531 7.83533L43.1146 7.94344H39.5954L39.6769 3.28922L39.9 3.00378L40.0608 2.86767L40.5062 2.80311L48.9077 2.78522L49.2585 2.96256ZM60.01 11.9327C60.0038 11.9327 59.9992 11.9358 59.9931 11.9358C59.9869 11.9358 59.9823 11.9327 59.9762 11.9327H60.01ZM59.9931 12.3254C60.3477 12.3254 60.6662 12.1738 60.8931 11.9334H64.3838L64.4285 11.942L64.5754 13.2284L64.6669 15.3712C64.6669 15.372 64.6677 15.372 64.6677 15.3728C64.6685 15.3837 64.6792 15.3922 64.6815 15.4031C64.6908 15.442 64.7023 15.4793 64.73 15.505C64.7308 15.5058 64.7308 15.5073 64.7315 15.5081L64.9146 15.6746C64.9308 15.6893 64.9531 15.6886 64.9723 15.6963C64.9862 15.7026 64.9946 15.7181 65.01 15.7204L65.6323 15.8317C65.6423 15.834 65.6523 15.834 65.6615 15.834L66.4262 15.8449L66.2492 15.8573L61.3131 15.8223L61.1992 15.5042C61.1962 15.4949 61.1854 15.4926 61.1808 15.484C61.1762 15.4754 61.18 15.4653 61.1746 15.4568L60.3515 14.2924C60.3469 14.2854 60.3377 14.2862 60.3323 14.28C60.3269 14.2738 60.3285 14.2652 60.3223 14.2598L59.2431 13.2984C59.24 13.2953 59.2346 13.2969 59.2315 13.2946C59.2277 13.2914 59.2285 13.2868 59.2246 13.2837L58.42 12.7291C58.4123 12.7237 58.4031 12.7276 58.3946 12.7237C58.3862 12.719 58.3838 12.7089 58.3746 12.7058L57.1677 12.2811C57.1662 12.2811 57.1654 12.2819 57.1638 12.2811C57.1631 12.2811 57.1623 12.2796 57.1615 12.2788L56.1638 11.9646C56.1577 11.9622 56.1515 11.9677 56.1454 11.9661C56.1392 11.9646 56.1362 11.9583 56.13 11.9576L55.9346 11.9334H59.0938C59.32 12.1738 59.6392 12.3254 59.9931 12.3254ZM65.5277 12.866H67.1162L67.1385 13.6601H65.5269L65.5277 12.866ZM66.7454 9.66933C66.7462 9.66933 66.7462 9.66933 66.7454 9.66933L67.0462 10.3756L67.0623 10.962H65.2069C65.1008 10.962 65.0146 11.0491 65.0146 11.1564V12.3954C65.0146 12.4927 65.0892 12.5642 65.1808 12.579C65.1631 12.6086 65.1423 12.6358 65.1423 12.6731V13.8561C65.1423 13.9634 65.2285 14.0506 65.3346 14.0506H67.1492L67.1869 15.4047L66.9908 15.4638L65.6808 15.4451L65.13 15.3471L65.0469 15.2724L64.9585 13.2098C64.9585 13.2067 64.9554 13.2051 64.9554 13.2028C64.9554 13.2004 64.9577 13.1981 64.9577 13.1958L64.7931 11.7538C64.7915 11.7406 64.78 11.7336 64.7762 11.7211L64.7415 9.78756L64.9115 9.68644L66.7454 9.66933ZM61.7108 17.9737L61.8485 18.585L61.6362 18.6324L61.4115 18.4427L60.8808 17.3164C60.8785 17.3126 60.8738 17.3118 60.8715 17.3079C60.8692 17.304 60.8715 17.2993 60.8692 17.2954L60.2108 16.2423C60.2069 16.2361 60.1985 16.2361 60.1938 16.2299C60.1892 16.2237 60.1915 16.2159 60.1862 16.2104L59.2354 15.2304C59.2285 15.2234 59.2185 15.2258 59.2108 15.2196C59.2038 15.2133 59.2031 15.2032 59.1946 15.1986L58.1338 14.5693C58.13 14.567 58.1254 14.5693 58.1215 14.5678C58.1177 14.5654 58.1169 14.5608 58.1131 14.5592L56.7954 13.986C56.7877 13.9829 56.78 13.9876 56.7723 13.986C56.7646 13.9837 56.7608 13.9751 56.7531 13.9736L55.1069 13.678C55.1023 13.6772 55.0992 13.6811 55.0954 13.6803C55.0915 13.6796 55.0892 13.6757 55.0846 13.6749L53.5108 13.5823C53.5023 13.5816 53.4969 13.5893 53.4885 13.5893C53.4808 13.5901 53.4746 13.5831 53.4669 13.5847L52.7169 13.7146C52.7138 13.7153 52.7131 13.7184 52.71 13.7192C52.7069 13.72 52.7046 13.7169 52.7015 13.7177L52.5138 13.7667L52.5469 13.5154C52.5477 13.5092 52.5423 13.5046 52.5423 13.4991C52.5423 13.4929 52.5485 13.489 52.5485 13.4828L52.5008 12.187L52.54 12.1777L54.9054 12.1963L56.0638 12.3402L57.04 12.6482L58.2238 13.0651L58.9969 13.5987L60.0508 14.5374L60.8454 15.6613L60.9177 15.862C60.8662 15.8962 60.8262 15.946 60.8254 16.0137C60.8246 16.1218 60.91 16.2089 61.0162 16.2097H61.0423L61.0562 16.2478C61.0562 16.2486 61.0577 16.2493 61.0577 16.2501C61.0577 16.2509 61.0577 16.2509 61.0577 16.2517L61.7108 17.9737ZM51.0615 14.0576C51.0531 14.0591 51.0492 14.0684 51.0408 14.0708C51.0323 14.0731 51.0238 14.0677 51.0154 14.0716L50.0277 14.5149C50.0238 14.5164 50.0231 14.5219 50.0192 14.5234C50.0154 14.5258 50.0108 14.5227 50.0069 14.525L49.2385 14.9878C49.2331 14.9909 49.2331 14.9979 49.2277 15.0018C49.2223 15.0057 49.2162 15.0033 49.2108 15.0072L48.6846 15.4653L47.9746 16.0176C47.9654 16.0246 47.9662 16.037 47.9592 16.0448C47.9515 16.0526 47.9392 16.0526 47.9331 16.0619L47.6 16.5573C47.5838 16.5737 47.5608 16.5814 47.5508 16.604L46.8823 18.1144C46.8785 18.123 46.8838 18.1308 46.8815 18.1393C46.8792 18.1471 46.87 18.151 46.8685 18.1596L46.6123 19.6218C46.6123 19.6226 46.6131 19.6233 46.6131 19.6249C46.6131 19.6257 46.6115 19.6264 46.6115 19.6272L46.4608 20.6539L45.2115 20.5956L45.2446 19.9632L45.4008 18.9817L45.5577 18.0273C45.5577 18.0258 45.5562 18.0242 45.5562 18.0219L45.8508 17.339L46.6438 16.009L47.4531 14.882L47.8523 14.4612L48.5308 13.9914C48.5331 13.9899 48.5331 13.986 48.5354 13.9837C48.5385 13.9813 48.5423 13.9821 48.5454 13.9798L49.4392 13.2214L50.5769 12.7182L51.4408 12.4273L52.1177 12.2726L52.1615 13.4797L52.11 13.8701L52.0592 13.8833C52.0585 13.8833 52.0577 13.8849 52.0569 13.8849L51.0615 14.0576ZM20.4808 20.6103L20.2838 19.4514C20.2831 19.446 20.2769 19.4437 20.2762 19.439C20.2746 19.4336 20.2792 19.4297 20.2769 19.4242L19.6477 17.4767C19.6454 17.4697 19.6377 17.4681 19.6346 17.4611C19.6315 17.4541 19.6354 17.4471 19.6323 17.4409L19.0546 16.4041L20.0585 16.3528C20.0592 16.3528 20.0592 16.3528 20.06 16.3528C20.0862 16.3512 20.1023 16.3318 20.1246 16.3209C20.1477 16.31 20.1754 16.3069 20.1915 16.2874C20.2108 16.2657 20.2115 16.2346 20.22 16.2066C20.2262 16.1863 20.2415 16.17 20.2408 16.1474V16.1459L20.2223 15.8317C20.2208 15.8091 20.2038 15.7959 20.1954 15.7772C20.1854 15.7516 20.1808 15.7251 20.1608 15.7064C20.1485 15.6948 20.13 15.6932 20.1154 15.6854C20.09 15.6714 20.0677 15.6504 20.0369 15.6489L19.0123 15.6116C19.0108 15.6116 19.01 15.6131 19.0092 15.6131C19.0077 15.6131 19.0069 15.6116 19.0062 15.6116C18.9177 15.6116 18.8554 15.6777 18.8331 15.7601C18.8285 15.7749 18.8146 15.7834 18.8138 15.7998C18.8138 15.8013 18.8154 15.8021 18.8154 15.8037C18.8154 15.8052 18.8138 15.806 18.8138 15.8068V16.0246L17.6108 14.476C17.6062 14.4698 17.5969 14.4706 17.5915 14.4651C17.5862 14.4597 17.5869 14.4503 17.5815 14.4457L15.6546 12.8543C15.6469 12.8481 15.6369 12.8512 15.6285 12.8466C15.6208 12.8419 15.6185 12.831 15.61 12.8271L14.87 12.5012L20.4738 12.3091L20.4054 14.8027C20.4054 14.8042 20.4069 14.805 20.4069 14.8066C20.4069 14.8081 20.4054 14.8089 20.4054 14.8104L20.4415 17.3802C20.4415 17.381 20.4423 17.381 20.4423 17.381C20.4423 17.3818 20.4415 17.3818 20.4415 17.3826L20.5146 20.2121C20.5146 20.2144 20.5169 20.216 20.5177 20.2183C20.5185 20.2207 20.5154 20.2222 20.5154 20.2246L20.5508 20.608L20.4808 20.6103ZM12.2692 11.7141C12.2631 11.7126 12.2577 11.718 12.2515 11.7172C12.2454 11.7164 12.2415 11.7094 12.2346 11.7094L10.5338 11.6542C10.53 11.6542 10.5277 11.6581 10.5238 11.6581C10.52 11.6581 10.5177 11.6542 10.5138 11.655L8.70308 11.7849C8.69692 11.7857 8.69385 11.7919 8.68769 11.7927C8.68154 11.7934 8.67615 11.7888 8.67 11.7903L7.57234 12.0672C7.56542 12.0688 7.56234 12.0773 7.55542 12.0797C7.54849 12.082 7.54157 12.0773 7.53465 12.0812L7.04849 12.3192L7.31695 10.9208L15.9877 10.2931L16.4038 11.1572C16.4131 11.1759 16.4292 11.186 16.4423 11.2008C16.4477 11.207 16.4469 11.2163 16.4531 11.2218L17.0654 11.7382C17.1015 11.7686 17.1454 11.7833 17.1885 11.7833C17.1892 11.7833 17.19 11.7833 17.1915 11.7833L20.4262 11.7343L20.4377 11.921L14.2023 12.1349L12.2692 11.7141ZM6.76388 11.7616C6.76465 11.7592 6.76311 11.7561 6.76388 11.7538C6.76465 11.7514 6.76618 11.7491 6.76695 11.7468L6.76388 11.7616ZM20.9385 20.6041L20.9008 20.1942L20.8277 17.3717L20.7915 14.8097L20.86 12.3177L37.5077 12.0836L37.4731 15.3837L35.5792 15.4078L22.0985 15.4996C22.0915 15.4996 22.0877 15.5066 22.0808 15.5073C22.0738 15.5081 22.0685 15.5019 22.0623 15.5034L21.5138 15.6147C21.5008 15.6178 21.4946 15.631 21.4823 15.6357C21.4577 15.6458 21.44 15.6574 21.4215 15.6769C21.4038 15.6956 21.3931 15.7127 21.3838 15.7368C21.3785 15.75 21.3646 15.757 21.3623 15.771L21.3069 16.0852C21.3062 16.0899 21.31 16.0938 21.31 16.0977C21.3069 16.1226 21.3185 16.1436 21.3254 16.1677C21.3323 16.1926 21.3338 16.2167 21.35 16.2369C21.3531 16.2408 21.3515 16.2454 21.3546 16.2493L21.7023 16.6374C21.74 16.6802 21.7923 16.7012 21.8446 16.7012C21.8477 16.7012 21.8508 16.6973 21.8538 16.6973C21.8569 16.6973 21.8592 16.7012 21.8631 16.7012C21.8638 16.7012 21.8646 16.7012 21.8662 16.7012L37.4446 16.4601L37.4323 16.835C37.4323 16.8358 37.4331 16.8366 37.4331 16.8373C37.4331 16.8381 37.4323 16.8389 37.4323 16.8397L37.3938 20.65L20.9385 20.6041ZM36.1038 10.465C36.1015 10.465 36.1 10.4673 36.0977 10.4673C36.0946 10.4673 36.0938 10.465 36.0908 10.465L34.7285 10.5552C34.7162 10.5529 34.7077 10.5412 34.6938 10.5412H34.1269L33.9892 10.4401L34 10.3196L34.0669 10.2184H34.4823C34.5031 10.2262 34.5192 10.2441 34.5431 10.2441H36.5062C36.54 10.2441 36.5654 10.2231 36.5931 10.2076L36.6708 10.2138C36.6585 10.2503 36.6477 10.2884 36.6477 10.3289C36.6477 10.3771 36.6577 10.423 36.6754 10.465H36.1038ZM51.3446 12.0532C51.3408 12.054 51.34 12.0579 51.3369 12.0587C51.3331 12.0594 51.33 12.0563 51.3262 12.0579L50.4477 12.3534C50.4446 12.3542 50.4438 12.3581 50.4408 12.3597C50.4377 12.3612 50.4346 12.3581 50.4315 12.3597L49.2608 12.8777C49.2515 12.8816 49.25 12.8924 49.2415 12.8979C49.2331 12.9033 49.2223 12.9002 49.2146 12.9064L48.3085 13.6749L47.62 14.1517C47.6138 14.1556 47.6138 14.1641 47.6085 14.1696C47.6031 14.1742 47.5946 14.1727 47.59 14.1781L47.1692 14.6214C47.1654 14.6253 47.1669 14.6308 47.1638 14.6347C47.1608 14.6386 47.1554 14.6378 47.1523 14.6417L46.3292 15.7889C46.3277 15.7912 46.3292 15.7951 46.3269 15.7974C46.3254 15.7998 46.3215 15.7998 46.32 15.8029L45.5154 17.1523C45.5131 17.1562 45.5154 17.1609 45.5131 17.1656C45.5108 17.1702 45.5054 17.171 45.5031 17.1757L45.1923 17.8967C45.1854 17.9122 45.1938 17.9278 45.1915 17.9441C45.1892 17.9519 45.18 17.9558 45.1785 17.9643L45.0215 18.9187L44.8638 19.9127C44.8631 19.9166 44.8669 19.9204 44.8669 19.9243C44.8662 19.9282 44.8623 19.9298 44.8615 19.9337L44.8277 20.5847L37.7762 20.622L37.8146 16.8506L37.8277 16.4554L44.5662 16.3512C44.5677 16.3512 44.5692 16.3512 44.5708 16.3512L45.0285 16.3333C45.0292 16.3333 45.03 16.3326 45.0308 16.3326C45.0392 16.3326 45.0485 16.3318 45.0569 16.3294C45.0777 16.3256 45.0885 16.3069 45.1062 16.2968C45.1292 16.2843 45.1515 16.2766 45.1677 16.2563C45.1831 16.2369 45.1854 16.2136 45.1923 16.1894C45.1985 16.1692 45.2146 16.1537 45.2138 16.1311C45.2138 16.1257 45.2077 16.1226 45.2069 16.1163C45.2062 16.1109 45.2108 16.107 45.21 16.1023L45.1185 15.6217C45.1169 15.6116 45.1062 15.6069 45.1031 15.5976C45.0954 15.5734 45.0823 15.5579 45.0654 15.5384C45.0477 15.5167 45.0323 15.5011 45.0077 15.4887C44.9992 15.4848 44.9969 15.4747 44.9877 15.4716L44.4754 15.3051C44.4654 15.302 44.4554 15.309 44.4454 15.3074C44.4346 15.3059 44.4285 15.2958 44.4169 15.2958C44.4162 15.2958 44.4154 15.2958 44.4146 15.2958L37.8569 15.3782L37.8915 12.0781L51.7723 11.9537L51.3446 12.0532ZM29.1577 4.47922L30.7769 3.34911L31.8269 3.00767L36.7646 2.73467L37.1038 2.99211V3.402L36.6877 8.06867L31.5123 8.18378C31.5115 8.18378 31.5108 8.18456 31.5092 8.18533C31.5085 8.18533 31.5077 8.18456 31.5069 8.18456L28.6369 8.32767L28.5631 7.73033V6.07367C28.5631 6.06744 28.5569 6.06433 28.5569 6.05811C28.5546 6.03244 28.5408 6.01456 28.53 5.99122C28.5185 5.96789 28.5115 5.94611 28.4915 5.92978C28.4869 5.92589 28.4877 5.91889 28.4831 5.91578L28.2085 5.71667C28.1915 5.70422 28.1708 5.70889 28.1515 5.70344C28.1323 5.69722 28.1185 5.68089 28.0969 5.68089H27.7023L29.1577 4.47922ZM27.0154 6.06978H27.03C27.0577 6.08456 27.0823 6.10944 27.1131 6.10944C27.1523 6.10944 27.1908 6.09389 27.2238 6.06978H28.0346L28.1785 6.174V7.74356C28.1785 7.74822 28.1831 7.75056 28.1831 7.75522C28.1831 7.75989 28.1792 7.763 28.18 7.76767L28.2415 8.26078L27.6223 8.54233H25.58C25.5723 8.54233 25.5677 8.54933 25.5608 8.55011C25.5531 8.55089 25.5477 8.54467 25.54 8.54622L25.1138 8.63878L24.9823 8.449L25.4708 7.60278C25.4777 7.59111 25.4715 7.57789 25.4762 7.56544C25.4815 7.55144 25.4946 7.54211 25.4962 7.52578L25.52 7.31033C25.5254 7.28778 25.5292 7.26989 25.5269 7.24656L25.5931 6.64533L25.9015 6.33344C25.9085 6.32644 25.9077 6.31322 25.9131 6.30467L27.0154 6.06978ZM3.82695 11.5982L6.39311 11.5656V11.683L6.15542 12.2912L5.91618 12.4421C5.91157 12.4452 5.91157 12.4514 5.90695 12.4553C5.90234 12.4584 5.89618 12.4569 5.89157 12.4608L4.68465 13.5217L3.27388 13.5069L3.82695 11.5982ZM65.9331 5.80767L66.2054 7.14622C66.2062 7.15011 66.21 7.15244 66.2115 7.15633C66.2123 7.15944 66.21 7.16256 66.2108 7.16567L66.4469 7.92089C66.4508 7.93411 66.4631 7.94111 66.4692 7.95278C66.4739 7.96133 66.47 7.97144 66.4762 7.98L66.5577 8.08967L66.5892 9.28278L64.8585 9.29911C64.8408 9.29911 64.8292 9.31389 64.8131 9.31856C64.7962 9.32322 64.7785 9.31622 64.7623 9.32556L64.4515 9.50989C64.4431 9.51533 64.4423 9.52622 64.4354 9.53167C64.4154 9.54722 64.4054 9.56589 64.3931 9.58844C64.3808 9.611 64.37 9.62967 64.3669 9.65533C64.3654 9.66467 64.3569 9.67089 64.3569 9.681L64.39 11.5446H61.1462C61.2069 11.396 61.2415 11.2342 61.2415 11.0639C61.2415 10.3678 60.6815 9.80233 59.9938 9.80233C59.3062 9.80233 58.7462 10.3686 58.7462 11.0639C58.7462 11.2342 58.7808 11.396 58.8415 11.5446H55.5954L55.0454 11.4372C55.0415 11.4364 55.0385 11.4396 55.0346 11.4396C55.0308 11.4388 55.0292 11.4349 55.0254 11.4349L54.0015 11.3423C53.9954 11.3416 53.9931 11.347 53.9877 11.347C53.9823 11.347 53.98 11.3423 53.9738 11.3423L52.4723 11.4232L52.4385 10.4899C52.4377 10.4774 52.4262 10.4704 52.4238 10.4588C52.4869 9.94 52.4662 9.415 52.3715 8.90244L62.2646 8.75933C62.2669 8.75933 62.2685 8.757 62.2708 8.757C62.3031 8.75544 62.3354 8.74844 62.3638 8.72978L62.8585 8.41556C62.8638 8.41244 62.8638 8.40544 62.8685 8.40156C62.8908 8.38444 62.9015 8.36111 62.9146 8.33622C62.9246 8.31678 62.9385 8.30278 62.9415 8.281C62.9423 8.27633 62.9477 8.27322 62.9477 8.26856L63.0208 7.43711C63.0215 7.42389 63.0108 7.41456 63.01 7.40133C63.0092 7.38811 63.0177 7.37567 63.0138 7.36244L61.9715 3.948L61.9023 3.60811C61.9008 3.59956 61.8915 3.59567 61.8892 3.58789C61.8869 3.58089 61.8915 3.57311 61.8885 3.56611L61.5592 2.84511C61.5554 2.83578 61.5438 2.83422 61.5385 2.82567C61.5331 2.81633 61.5354 2.80467 61.5285 2.79611L61.0531 2.26022C61.0354 2.24078 61.0108 2.24 60.9892 2.22911C60.97 2.219 60.9569 2.20033 60.9338 2.19722L60.0738 2.086C60.0692 2.08522 60.0669 2.08911 60.0623 2.08911C60.0585 2.08911 60.0562 2.08444 60.0515 2.08444L51.2462 2.009L51.1177 1.76089C51.1062 1.73911 51.0831 1.73211 51.0654 1.71733C51.0477 1.70178 51.0385 1.67844 51.0154 1.66989L50.6315 1.52211C50.62 1.51822 50.6092 1.52522 50.5977 1.52367C50.5862 1.52133 50.5785 1.50967 50.5654 1.50967L47.1077 1.47233C47.1069 1.47233 47.1062 1.47233 47.1054 1.47233C47.1046 1.47233 47.1038 1.47311 47.1031 1.47311C47.1023 1.47311 47.1015 1.47233 47.1008 1.47233L38.8323 1.65744L36.7862 1.67611C36.7854 1.67611 36.7846 1.67611 36.7838 1.67611L33.3446 1.75C33.34 1.75 33.3377 1.75467 33.3338 1.75467C33.3292 1.75467 33.3262 1.75078 33.3223 1.75156L31.5115 2.01056C31.5054 2.01133 31.5023 2.01833 31.4962 2.01989C31.49 2.02144 31.4846 2.01678 31.4785 2.01833L30.3623 2.38856C30.3569 2.39011 30.3562 2.39633 30.3508 2.39867C30.3462 2.401 30.3408 2.39711 30.3362 2.39944L29.7638 2.68878C29.7285 2.69267 29.6923 2.69578 29.6623 2.72067C27.7631 4.30267 25.7923 5.84344 23.8038 7.31578L29.1692 2.71522C29.1746 2.71367 29.18 2.71444 29.1854 2.71211L30.7869 2.11944L33 1.60922L36.9492 1.372L44.6454 1.17367L49.9477 1.134L57.1769 1.21333L60.9908 1.33233C60.9931 1.33233 60.9946 1.33233 60.9969 1.33233H62.8062C62.8092 1.33233 62.8108 1.32922 62.8131 1.32922L63.8462 1.78578L64.1346 2.07822C64.1423 2.086 64.1531 2.08367 64.1615 2.08911C64.1692 2.09533 64.1708 2.107 64.18 2.11167L64.6323 2.35744L65.2308 3.75744L65.9331 5.80767ZM29.1577 1.96078L31.0154 1.37433L33.0823 0.98L35.3862 0.703891L39.8954 0.466668L51.2531 0.387334L59.3477 0.585668L62.2438 0.778556L62.3669 0.944222H61.0038L57.19 0.825222C57.1892 0.825222 57.1885 0.826 57.1877 0.826C57.1869 0.826 57.1869 0.825222 57.1862 0.825222L49.9515 0.745111C49.9508 0.745111 49.9508 0.745891 49.95 0.745891C49.9492 0.745891 49.9492 0.745111 49.9492 0.745111C49.9485 0.745111 49.9485 0.745111 49.9477 0.745111L44.6392 0.784778C44.6385 0.784778 44.6369 0.784778 44.6354 0.784778L36.9392 0.983111C36.9377 0.983111 36.9377 0.984667 36.9362 0.984667C36.9354 0.984667 36.9346 0.983889 36.9331 0.983889L32.9615 1.22267C32.9554 1.22267 32.9523 1.22889 32.9469 1.22967C32.9408 1.23044 32.9362 1.22578 32.93 1.22656L30.6885 1.743C30.6838 1.74378 30.6823 1.74922 30.6785 1.75078C30.6738 1.75233 30.67 1.74844 30.6654 1.75L29.2308 2.28044C29.2223 2.27733 29.2192 2.268 29.21 2.26644L28.7885 2.18089L29.1577 1.96078ZM3.70388 19.6544C3.39618 20.8266 3.40311 22.0531 3.7008 23.2244L1.05234 23.3753L0.507725 22.8877L0.500032 22.7827L1.09388 22.6823C1.12311 22.6994 1.15465 22.7103 1.18849 22.7103C1.21388 22.7103 1.23926 22.7049 1.26465 22.694C1.27849 22.6878 1.28234 22.6722 1.29465 22.6637L2.60772 22.736C2.61157 22.736 2.61465 22.736 2.61849 22.736C2.67311 22.736 2.71926 22.7111 2.75465 22.673C2.75695 22.6707 2.76157 22.6714 2.76388 22.6691L3.09542 22.2826C3.16465 22.2017 3.15618 22.078 3.07618 22.008C2.99618 21.938 2.87465 21.9466 2.80465 22.0267L2.53465 22.3409L1.29618 22.2724L0.461571 20.3039L0.390802 18.2599L0.978492 18.0266C0.983108 18.025 0.983877 18.0188 0.988492 18.0172C1.02849 17.9986 1.06311 17.9706 1.08311 17.927L1.08465 17.9231L1.32542 17.3919L2.64849 17.0582L5.1608 16.8716C4.49465 17.6563 3.98311 18.592 3.70388 19.6544ZM16.5085 17.9231C15.5715 16.289 14.0608 15.1231 12.2569 14.6386C9.75308 13.9658 7.20388 14.7653 5.49772 16.5021C5.46388 16.4803 5.42772 16.4601 5.38542 16.4671L4.97311 16.4974C5.00772 16.4539 5.04003 16.408 5.07542 16.3652C6.3508 14.8361 8.13769 13.9012 10.1085 13.7317C12.0715 13.5606 13.9877 14.1766 15.4985 15.4599L17.9269 18.4287C17.9292 18.431 17.9323 18.4302 17.9346 18.4326C17.9362 18.4388 17.9315 18.445 17.9338 18.4512L18.2877 19.4444L18.6377 20.4672L18.7177 20.7916L18.4015 20.9331L17.4946 20.8973C17.4715 20.8981 17.46 20.9121 17.4408 20.9176C17.4354 20.9191 17.43 20.9183 17.4246 20.9207C17.3469 19.8777 17.0431 18.8557 16.5085 17.9231ZM47.8108 23.3178H47.6415C47.4323 22.6061 47.3415 21.8742 47.3685 21.1338C47.3777 21.1143 47.3946 21.1003 47.3969 21.0786C47.4 21.0506 47.3838 21.0288 47.3754 21.0031C47.3815 20.888 47.3815 20.7729 47.3938 20.657C47.7846 16.9034 51.1238 14.1657 54.8362 14.5678C56.6346 14.7591 58.2508 15.6473 59.3892 17.0683C60.4923 18.4473 61.0108 20.167 60.8677 21.9287L60.7392 21.9364L60.5792 21.8509V21.2652C60.5792 21.1579 60.4931 21.0708 60.3869 21.0708H60.1546C60.0462 17.7644 57.3585 15.1068 54.0631 15.1068C50.6985 15.1068 47.9608 17.8749 47.9608 21.2769C47.9608 21.8991 48.0546 22.4996 48.2246 23.0666L47.8108 23.3178ZM54.0631 27.0581C50.91 27.0581 48.3454 24.465 48.3454 21.2769C48.3454 18.0888 50.91 15.4957 54.0631 15.4957C57.2077 15.4957 59.7662 18.0756 59.7792 21.252C59.7785 21.2574 59.7738 21.2606 59.7738 21.2652C59.7738 21.2714 59.78 21.2753 59.78 21.2808C59.7777 24.4673 57.2146 27.0581 54.0631 27.0581Z" fill="black"/>
<path d="M54.0631 16.7129C51.5746 16.7129 49.5492 18.7608 49.5492 21.2769C49.5492 23.793 51.5746 25.8409 54.0631 25.8409C56.5515 25.8409 58.5769 23.793 58.5769 21.2769C58.5769 18.7608 56.5523 16.7129 54.0631 16.7129ZM54.0631 25.452C51.7862 25.452 49.9338 23.5791 49.9338 21.2769C49.9338 18.9747 51.7862 17.1018 54.0631 17.1018C56.34 17.1018 58.1923 18.9747 58.1923 21.2769C58.1923 23.5791 56.34 25.452 54.0631 25.452Z" fill="black"/>
<path d="M50.1415 20.2214C50.1046 20.3218 50.1546 20.4338 50.2538 20.4719L51.91 21.1034C51.9315 21.112 51.9554 21.1159 51.9777 21.1159C52.0162 21.1159 52.0531 21.1042 52.0846 21.0824C52.0954 21.0754 52.1 21.0614 52.1092 21.0521C52.1269 21.0342 52.1462 21.0187 52.1562 20.9938L52.4062 20.3622V20.3591L52.4077 20.3568C52.4154 20.335 52.4054 20.3148 52.4054 20.293C52.4054 20.265 52.4131 20.237 52.4023 20.2113C52.3931 20.1911 52.3715 20.1818 52.3562 20.1662C52.3377 20.146 52.3254 20.1203 52.2992 20.1094C52.2977 20.1087 52.2969 20.1102 52.2954 20.1094L52.2938 20.1079L51.1062 19.6661C51.09 19.6599 51.0746 19.6692 51.0585 19.6677C51.0415 19.6661 51.03 19.6537 51.0115 19.656L50.3869 19.7501C50.2815 19.7664 50.21 19.8644 50.2254 19.971C50.2354 20.0394 50.2846 20.0838 50.3431 20.1094C50.2592 20.1017 50.1731 20.1367 50.1415 20.2214ZM51.0208 20.0472L51.9762 20.4027L51.8692 20.6718L50.4546 20.132L51.0208 20.0472Z" fill="black"/>
<path d="M53.2331 23.2968C53.2331 23.296 53.2331 23.296 53.2331 23.2968L53.2354 23.2937C53.2515 23.2734 53.2477 23.2486 53.2546 23.2252C53.2623 23.2003 53.2777 23.1778 53.2754 23.1529C53.2731 23.1303 53.2546 23.114 53.2446 23.0938C53.2331 23.0697 53.23 23.0417 53.2077 23.023L52.6908 22.5874C52.69 22.5867 52.6885 22.5874 52.6877 22.5867C52.6869 22.5859 52.6869 22.5851 52.6869 22.5843C52.6661 22.5672 52.6392 22.5696 52.6138 22.5633C52.5915 22.5579 52.5715 22.5423 52.5492 22.5447C52.5238 22.547 52.5054 22.5672 52.4831 22.5797C52.4615 22.5913 52.4362 22.5929 52.42 22.6131C52.4192 22.6139 52.42 22.6154 52.4192 22.6162C52.4185 22.617 52.4177 22.617 52.4169 22.617L51.6331 23.6219C51.6223 23.6351 51.6269 23.653 51.62 23.6678C51.6131 23.6833 51.5969 23.6919 51.5938 23.7098L51.49 24.3406C51.4731 24.4463 51.5438 24.5467 51.6485 24.5646C51.6592 24.5661 51.6692 24.5669 51.68 24.5669C51.73 24.5669 51.7738 24.5451 51.8092 24.5117C51.7846 24.5863 51.7931 24.6696 51.8577 24.7217C51.8931 24.7504 51.9362 24.7644 51.9777 24.7644C52.0338 24.7644 52.09 24.7396 52.1277 24.6913L53.2331 23.2968ZM51.8731 24.3911L51.9669 23.8218L52.5969 23.0144L52.8169 23.1996L51.8731 24.3911Z" fill="black"/>
<path d="M55.7069 22.6994L55.7062 22.6987L55.7046 22.6963C55.6915 22.6769 55.6685 22.673 55.6508 22.6598C55.6285 22.6434 55.6116 22.6201 55.5847 22.6147C55.5647 22.61 55.5446 22.6224 55.5231 22.6248C55.4946 22.6279 55.4662 22.6232 55.4408 22.6388L54.8715 23.002L54.8701 23.0043H54.8678C54.8508 23.016 54.8485 23.037 54.8362 23.0518C54.817 23.0759 54.7931 23.0961 54.7869 23.1257C54.7823 23.1474 54.7946 23.1684 54.7977 23.191C54.8015 23.2182 54.7954 23.2454 54.8108 23.2703L54.8139 23.2727V23.2742L55.5169 24.3374C55.5354 24.3654 55.5608 24.3872 55.5885 24.402L56.1492 24.6968C56.1777 24.7123 56.2078 24.7185 56.2378 24.7185C56.307 24.7185 56.3747 24.6804 56.4085 24.6135C56.4332 24.5661 56.4354 24.514 56.4208 24.4665C56.45 24.4837 56.4824 24.4938 56.5155 24.4938C56.5516 24.4938 56.5885 24.4829 56.6216 24.4619C56.7101 24.4028 56.7346 24.283 56.6762 24.192L55.7069 22.6994ZM55.8101 24.08L55.2439 23.2244L55.4862 23.0697L56.3162 24.346L55.8101 24.08Z" fill="black"/>
<path d="M55.3885 17.3927C55.38 17.3896 55.3715 17.3958 55.3631 17.3942C55.3546 17.3927 55.35 17.3833 55.3408 17.3826C55.3215 17.3794 55.3077 17.395 55.2892 17.3981C55.2669 17.4028 55.2477 17.4043 55.2285 17.4168C55.2054 17.4323 55.1923 17.451 55.1769 17.4751C55.1669 17.4891 55.15 17.4953 55.1438 17.5124C55.1408 17.521 55.1469 17.5288 55.1454 17.5381C55.1438 17.5467 55.1346 17.5521 55.1338 17.5607L54.9762 19.5526C54.9754 19.565 54.9854 19.5736 54.9869 19.586C54.9877 19.5984 54.9792 19.6093 54.9831 19.6218C54.9877 19.6397 55.0031 19.649 55.0123 19.6646C55.0154 19.6692 55.0138 19.6754 55.0169 19.6801C54.7369 19.509 54.4131 19.404 54.0623 19.404C53.6431 19.404 53.2608 19.551 52.95 19.789C52.9569 19.7781 52.9685 19.7727 52.9731 19.7602C52.9777 19.7486 52.9708 19.7377 52.9731 19.726C52.9762 19.7136 52.9877 19.7058 52.9877 19.6918L53.0577 17.5599C53.0585 17.5474 53.0477 17.5389 53.0454 17.5272C53.0438 17.5156 53.0515 17.5054 53.0477 17.4938C53.0431 17.4798 53.0285 17.4743 53.0208 17.4619C53.0077 17.4393 52.9954 17.4222 52.9746 17.4067C52.9538 17.3911 52.9346 17.3833 52.91 17.3771C52.8962 17.3732 52.8869 17.36 52.8715 17.3592C52.87 17.3592 52.8677 17.3592 52.8654 17.3592C52.8538 17.3592 52.8469 17.3693 52.8354 17.3717C52.8254 17.3732 52.8162 17.3662 52.8054 17.3693C52.0085 17.6314 51.3208 18.1269 50.8169 18.8028C50.8115 18.8098 50.8146 18.8191 50.8108 18.8269C50.8062 18.8347 50.7962 18.8362 50.7931 18.8448C50.7862 18.8619 50.7954 18.8782 50.7931 18.8961C50.79 18.9218 50.7862 18.9436 50.7931 18.9684C50.8 18.9933 50.8131 19.0097 50.8292 19.0307C50.84 19.0447 50.8408 19.0641 50.8554 19.075C50.8638 19.0812 50.8738 19.0797 50.8823 19.0843C50.8885 19.0882 50.89 19.0968 50.8969 19.0991L52.7215 19.8652C52.7423 19.8746 52.7631 19.8769 52.7838 19.8784C52.7862 19.8784 52.7869 19.8808 52.7885 19.8808C52.79 19.8808 52.7923 19.8808 52.7946 19.8808C52.8192 19.8808 52.8415 19.8691 52.8646 19.8598C52.4669 20.2036 52.2092 20.7083 52.2092 21.2777C52.2092 21.4954 52.2531 21.7016 52.3215 21.896C52.3208 21.8944 52.3192 21.8937 52.3177 21.8929C52.3092 21.8812 52.3108 21.8657 52.2992 21.8563C52.2892 21.8478 52.2762 21.8517 52.2654 21.8454C52.2546 21.8392 52.2508 21.8252 52.2385 21.8206L50.2546 21.0941C50.2431 21.0902 50.2323 21.098 50.2208 21.0957C50.2092 21.0933 50.2015 21.0824 50.1892 21.0824C50.1731 21.0824 50.1631 21.0957 50.1485 21.0996C50.1238 21.105 50.1054 21.112 50.0846 21.126C50.0631 21.1408 50.0508 21.1571 50.0369 21.1789C50.0285 21.1913 50.0131 21.196 50.0077 21.2108C50.0038 21.2224 50.0115 21.2333 50.0092 21.2458C50.0069 21.2574 49.9962 21.2652 49.9962 21.2769C49.9962 22.1231 50.25 22.9382 50.7292 23.632C50.7338 23.639 50.7438 23.6367 50.7492 23.6421C50.7554 23.6499 50.7538 23.6608 50.7615 23.6678C50.7985 23.6997 50.8423 23.7152 50.8869 23.7152C50.9254 23.7152 50.9638 23.7036 50.9977 23.6802C51.0054 23.6748 51.0054 23.6639 51.0123 23.6569C51.0185 23.6514 51.0277 23.6538 51.0331 23.6476L52.3185 22.1301C52.3246 22.1231 52.3215 22.113 52.3269 22.1052C52.3354 22.0928 52.3485 22.085 52.3538 22.0694C52.3592 22.0554 52.35 22.0414 52.3515 22.0274C52.3523 22.022 52.3562 22.0173 52.3569 22.0119C52.64 22.6808 53.2969 23.1506 54.0608 23.1506C54.0646 23.1506 54.0677 23.1498 54.0715 23.1498C54.0677 23.1521 54.0638 23.1498 54.06 23.1513C54.0492 23.1576 54.0485 23.1716 54.04 23.1793C54.0308 23.1879 54.0162 23.1871 54.0085 23.1972L52.7123 24.8811C52.7046 24.8904 52.7085 24.9037 52.7031 24.9138C52.6969 24.9247 52.6846 24.9286 52.6808 24.9402C52.6762 24.955 52.6854 24.9682 52.6846 24.9838C52.6823 25.0094 52.6831 25.0297 52.6908 25.0546C52.6985 25.0794 52.7092 25.0973 52.7262 25.1168C52.7354 25.1284 52.7354 25.144 52.7469 25.1541C52.7577 25.1627 52.7715 25.1611 52.7831 25.1666C52.7923 25.1712 52.7954 25.1821 52.8054 25.186C53.2154 25.3206 53.6385 25.3874 54.0615 25.3874C54.46 25.3874 54.8585 25.3276 55.2477 25.2086C55.2538 25.2062 55.2562 25.1992 55.2623 25.1961C55.2715 25.1922 55.2823 25.1938 55.2915 25.1876C55.3069 25.1782 55.3085 25.1603 55.32 25.1479C55.3385 25.1284 55.3546 25.1129 55.3638 25.088C55.3731 25.0647 55.3708 25.0437 55.3708 25.018C55.3708 25.0001 55.3815 24.9838 55.3762 24.9651C55.3731 24.9558 55.3638 24.9534 55.36 24.9449C55.3569 24.9371 55.3608 24.9286 55.3562 24.9208L54.3254 23.2159C54.3192 23.205 54.3054 23.2042 54.2977 23.1949C54.2892 23.1856 54.29 23.1716 54.28 23.163C54.2685 23.1537 54.2531 23.1576 54.24 23.1521C54.2315 23.1474 54.2262 23.1373 54.2162 23.135C54.9854 23.0697 55.6162 22.5338 55.83 21.8089C55.83 21.8112 55.8315 21.8136 55.8315 21.8167C55.8315 21.8307 55.8215 21.8431 55.8254 21.8571C55.8285 21.8711 55.8408 21.8789 55.8469 21.8913C55.8515 21.9014 55.8469 21.9123 55.8531 21.9217L57.0362 23.688C57.0462 23.7028 57.0615 23.7113 57.0746 23.7222C57.0785 23.7261 57.0785 23.7323 57.0831 23.7354C57.0862 23.7378 57.0908 23.737 57.0938 23.7393C57.1246 23.7596 57.1592 23.7728 57.1962 23.7728C57.2338 23.7728 57.2715 23.7619 57.3046 23.7393C57.3169 23.7308 57.3169 23.7152 57.3269 23.7051C57.3338 23.6981 57.3462 23.7004 57.3523 23.6919C57.8446 23.0074 58.1123 22.1978 58.1277 21.3516C58.1277 21.3422 58.1192 21.3368 58.1185 21.3274C58.1177 21.3189 58.1246 21.3111 58.1223 21.3026C58.1177 21.2839 58.1008 21.2746 58.0915 21.259C58.08 21.238 58.0715 21.2193 58.0531 21.2038C58.0331 21.1867 58.0108 21.1812 57.9846 21.1734C57.9685 21.1688 57.9569 21.1532 57.9385 21.1532C57.9369 21.1532 57.9346 21.1532 57.9346 21.1532C57.9262 21.1532 57.9215 21.161 57.9131 21.1618C57.9046 21.1626 57.8985 21.1563 57.89 21.1579L55.9685 21.6222C55.9562 21.6253 55.9515 21.6378 55.94 21.6432C55.9285 21.6479 55.9154 21.6432 55.9046 21.651C55.8923 21.6596 55.8915 21.6759 55.8815 21.686C55.8769 21.6914 55.8685 21.693 55.8646 21.6984C55.8962 21.5623 55.9162 21.4223 55.9162 21.2769C55.9162 20.6453 55.6031 20.0884 55.1285 19.7486L55.13 19.7493C55.1392 19.7517 55.1438 19.761 55.1538 19.7618C55.1592 19.7626 55.1638 19.7626 55.1692 19.7626C55.1862 19.7626 55.2046 19.7602 55.2223 19.7548L57.25 19.1629C57.2592 19.1606 57.2623 19.1504 57.2708 19.1466C57.2838 19.1411 57.2985 19.1427 57.31 19.1333C57.3223 19.124 57.3223 19.1077 57.3323 19.0968C57.3492 19.0773 57.3608 19.0602 57.3692 19.0361C57.3777 19.012 57.3785 18.991 57.3769 18.9653C57.3761 18.9506 57.3862 18.9373 57.3815 18.9226C57.3785 18.9101 57.3654 18.9062 57.36 18.8953C57.3546 18.8844 57.3592 18.872 57.3523 18.8619C56.8577 18.1759 56.1785 17.6672 55.3885 17.3927ZM56.8569 18.8728L55.3823 19.3029L55.4961 17.8617C56.0231 18.0872 56.4854 18.4302 56.8569 18.8728ZM52.6646 17.8469L52.6138 19.3986L51.2931 18.844C51.6692 18.4061 52.1346 18.0678 52.6646 17.8469ZM50.9185 23.1879C50.6231 22.6917 50.4485 22.1394 50.4054 21.5623L51.8485 22.0904L50.9185 23.1879ZM53.2008 24.8827L54.1438 23.6569L54.89 24.8912C54.3308 25.0234 53.7577 25.0196 53.2008 24.8827ZM57.1885 23.2198L56.3277 21.9349L57.7177 21.5989C57.6685 22.1768 57.4892 22.7267 57.1885 23.2198ZM55.5308 21.2769C55.5308 22.0951 54.8723 22.7609 54.0631 22.7609C53.2538 22.7609 52.5954 22.0951 52.5954 21.2769C52.5954 20.4587 53.2538 19.7929 54.0631 19.7929C54.8723 19.7929 55.5308 20.4587 55.5308 21.2769Z" fill="black"/>
<path d="M55.8431 20.1864C55.8254 20.2012 55.8023 20.2082 55.7908 20.2277C55.7777 20.2502 55.7831 20.2774 55.78 20.3039C55.7769 20.3272 55.7638 20.3482 55.77 20.3731L55.7708 20.3762V20.3778L55.9346 21.0327C55.9346 21.0327 55.9362 21.0342 55.9362 21.0358V21.0381C55.9431 21.0622 55.9615 21.0778 55.9762 21.0964C55.9869 21.1104 55.9915 21.1291 56.0054 21.1392C56.0385 21.1641 56.0785 21.1789 56.1208 21.1789C56.1369 21.1789 56.1523 21.1773 56.1685 21.1727L56.17 21.1719C56.1715 21.1719 56.1723 21.1719 56.1738 21.1711L57.3915 20.8234C57.4077 20.8188 57.4138 20.8024 57.4277 20.7947C57.4423 20.7861 57.4608 20.7884 57.4731 20.776L57.9238 20.328C58 20.2518 58.0015 20.1289 57.9269 20.0527C57.8777 20.0029 57.8131 19.9967 57.7508 20.0099C57.8246 19.9663 57.8723 19.887 57.8485 19.7991C57.8208 19.6964 57.7177 19.635 57.6115 19.663L55.9039 20.1367C55.8777 20.1452 55.8631 20.1693 55.8431 20.1864ZM57.6477 20.0573L57.24 20.4633L56.26 20.7433L56.19 20.4625L57.6477 20.0573Z" fill="black"/>
<path d="M53.61 19.2912C53.6292 19.313 53.66 19.3184 53.6877 19.3301C53.7062 19.3379 53.7185 19.355 53.74 19.3558H53.7423L53.7438 19.3566C53.7462 19.3566 53.7492 19.3566 53.7515 19.3566L54.4115 19.4009C54.4131 19.4009 54.4154 19.4009 54.4154 19.4009L54.4162 19.4017C54.4185 19.4017 54.4215 19.4017 54.4238 19.4017C54.4746 19.4017 54.5208 19.3814 54.5554 19.348C54.5677 19.3356 54.5685 19.3161 54.5777 19.3006C54.5931 19.2749 54.6131 19.2523 54.6154 19.2197L54.6146 19.2173C54.6146 19.2158 54.6162 19.2142 54.6162 19.2142L54.6647 17.9356C54.6655 17.9177 54.6515 17.906 54.6477 17.8897C54.6446 17.8733 54.6524 17.857 54.6447 17.8414L54.3623 17.2698C54.3146 17.1733 54.1969 17.1368 54.1046 17.1827C54.0423 17.2138 54.0169 17.2752 54.0108 17.3406C53.9931 17.2558 53.9324 17.1842 53.8432 17.1803C53.7401 17.1811 53.6469 17.2589 53.6415 17.3654L53.56 19.1536C53.5585 19.1831 53.577 19.2041 53.5878 19.2298C53.5962 19.25 53.5954 19.2749 53.61 19.2912ZM54.0239 17.4533L54.2792 17.9706L54.24 19.0003L53.9538 18.9817L54.0239 17.4533Z" fill="black"/>
<path d="M47.44 10.3017C47.4508 10.3258 47.4585 10.346 47.4777 10.3639C47.4838 10.3701 47.4831 10.3794 47.4908 10.3849L47.7677 10.5887C47.8015 10.6136 47.8415 10.626 47.88 10.626H48.2685L48.3808 10.7769C48.3838 10.7816 48.3908 10.7792 48.3938 10.7839C48.4292 10.8251 48.4762 10.8547 48.5346 10.8547C48.5369 10.8547 48.54 10.8547 48.5431 10.8547L49.1469 10.829H49.7677C49.8123 10.829 49.8523 10.808 49.8869 10.7792C49.8962 10.7714 49.9031 10.7644 49.9108 10.7551C49.9192 10.745 49.93 10.7396 49.9369 10.7279L50.0331 10.5498H50.5069L50.9177 10.6229C50.9292 10.6252 50.94 10.626 50.9508 10.626C50.9877 10.626 51.0246 10.6151 51.0577 10.5933L51.2838 10.4409C51.2877 10.4386 51.2869 10.4331 51.2908 10.43C51.3131 10.4129 51.3354 10.3934 51.3492 10.3662L51.5254 10.01C51.5331 9.99367 51.5254 9.97733 51.5292 9.96022C51.5346 9.93533 51.5385 9.91433 51.5339 9.88945C51.5292 9.86378 51.5185 9.84667 51.5046 9.82489C51.4962 9.81089 51.4969 9.79222 51.4846 9.78056L51.1569 9.47489C51.1531 9.471 51.1469 9.47256 51.1423 9.46945C51.1223 9.45311 51.0985 9.45078 51.0731 9.44378C51.0485 9.43756 51.0285 9.42745 51.0031 9.43056C50.9969 9.43133 50.9923 9.42589 50.9862 9.42745L50.5362 9.52233L49.9862 9.47567L49.6577 9.35667C49.6462 9.35278 49.6354 9.36056 49.6246 9.35822C49.6131 9.35589 49.6054 9.345 49.5931 9.345H48.9892C48.9808 9.345 48.9754 9.35278 48.9669 9.35433C48.9585 9.35511 48.9515 9.34811 48.9423 9.35045L48.54 9.45233C48.5385 9.45311 48.5377 9.45467 48.5362 9.45545C48.5346 9.45622 48.5331 9.45467 48.5315 9.45467L48.3077 9.52233H47.7823C47.7754 9.52233 47.7708 9.52933 47.7638 9.53011C47.7385 9.53245 47.72 9.54567 47.6969 9.55811C47.6746 9.57056 47.6546 9.57833 47.6385 9.59778C47.6338 9.60322 47.6262 9.60322 47.6215 9.60867L47.4708 9.83733C47.4615 9.85133 47.4669 9.86845 47.4615 9.884C47.4554 9.89956 47.4408 9.90967 47.4392 9.92756L47.4138 10.2068C47.4131 10.2161 47.4208 10.2223 47.4215 10.2309C47.42 10.2589 47.43 10.2783 47.44 10.3017ZM48.2977 9.91356C48.3185 9.92133 48.3346 9.93922 48.3585 9.93922H50.3215C50.3554 9.93922 50.3815 9.91822 50.4092 9.90267L50.4869 9.90889C50.4746 9.94545 50.4638 9.98356 50.4638 10.0248C50.4638 10.073 50.4738 10.1189 50.4908 10.1609H49.9192C49.9169 10.1609 49.9154 10.1632 49.9131 10.1632C49.91 10.1632 49.9092 10.1609 49.9062 10.1609L48.5438 10.2511C48.5315 10.2488 48.5231 10.2371 48.5092 10.2371H47.9423L47.8046 10.136L47.8154 10.0154L47.8823 9.91433L48.2977 9.91356Z" fill="black"/>
</g>
<defs>
<clipPath id="clip0_3_54">
<rect width="70" height="28" fill="white"/>
</clipPath>
</defs>
</svg>
