<svg width="85" height="35" viewBox="0 0 85 35" fill="none" xmlns="http://www.w3.org/2000/svg">
<g clip-path="url(#clip0_3_72)">
<path d="M10.8857 7.24605H19.7118C20.7205 7.24605 21.2248 7.63667 21.2248 8.45695V14.0038C21.2248 14.1601 21.0777 14.2968 20.9096 14.2968H16.2863C15.8451 14.2968 15.3197 14.2968 14.8574 15.0195L13.2602 17.4804C13.1973 17.5585 13.0922 17.6171 12.987 17.6171H6.72473C6.55661 17.6171 6.40951 17.4804 6.40951 17.3241V14.0233V14.0038C6.66169 11.289 9.33055 7.24605 10.8857 7.24605ZM7.06104 17.0313H12.8191L14.3111 14.7071C14.9626 13.711 15.7821 13.711 16.2655 13.711H20.5944V13.1055H15.9292C14.7734 13.1055 14.3951 13.3203 13.8488 13.9844L12.5459 15.7422C12.5249 15.7813 12.4619 15.8008 12.4198 15.8008H7.04008V17.0313H7.06104ZM7.06104 15.5079H12.3567L13.6176 13.8086C14.2061 13.1055 14.6473 12.8126 15.9503 12.8126H20.5945V8.45706C20.5945 8.14456 20.5945 7.83206 19.7119 7.83206H10.8858C9.85611 7.83206 7.31335 11.3673 7.06114 14.0235L7.06104 15.5079ZM17.3372 27.8318C18.1148 27.8318 18.7242 28.4178 18.7242 29.1209C18.7242 29.8241 18.0938 30.41 17.3372 30.41C16.5807 30.41 15.9502 29.8241 15.9502 29.1209C15.9502 28.4178 16.5596 27.8318 17.3372 27.8318ZM17.3372 29.8435C17.7575 29.8435 18.0937 29.531 18.0937 29.1404C18.0937 28.7498 17.7575 28.4373 17.3372 28.4373C16.9169 28.4373 16.5807 28.7498 16.5807 29.1404C16.5807 29.531 16.9169 29.8435 17.3372 29.8435ZM14.7734 29.1209C14.7734 29.5115 14.8786 29.9217 15.0887 30.2537C15.1308 30.3318 15.1097 30.4099 15.0256 30.449C15.0047 30.4685 14.9836 30.4685 14.9416 30.4685C14.8786 30.4685 14.8365 30.449 14.7944 30.3904C14.5633 29.9998 14.4372 29.5506 14.4372 29.1209C14.4372 28.8475 14.4793 28.574 14.5633 28.3006C14.5843 28.2225 14.6684 28.1834 14.7524 28.2029C14.8365 28.2225 14.8786 28.3006 14.8575 28.3787C14.8155 28.6326 14.7734 28.8865 14.7734 29.1209ZM16.7699 15.5859H19.3336C19.6699 15.5859 19.943 15.8789 19.943 16.2304C19.943 16.582 19.6699 16.875 19.3336 16.875H16.7699C16.4336 16.875 16.1604 16.582 16.1604 16.2304C16.1604 15.8789 16.4336 15.5859 16.7699 15.5859ZM16.7699 16.582H19.3336C19.5018 16.582 19.6279 16.4257 19.6279 16.2304C19.6279 16.0351 19.5018 15.8789 19.3336 15.8789H16.7699C16.6018 15.8789 16.4757 16.0351 16.4757 16.2304C16.4757 16.4257 16.6018 16.582 16.7699 16.582ZM0.315376 24.1797H2.20669L2.14364 19.0625C2.18567 18.125 2.62697 16.4453 3.34149 14.6094H1.78642C1.6183 14.6094 1.47121 14.4727 1.47121 14.3164V13.3203H1.11395C0.945839 13.3203 0.798736 13.1836 0.798736 13.0273V11.0156C0.798736 9.70705 1.36612 9.04295 2.45892 9.04295C2.62704 9.04295 2.77414 9.17967 2.77414 9.33592V13.0273C2.77414 13.1836 2.62704 13.3203 2.45892 13.3203H2.10167V14.0234H3.57272C5.14877 10.2343 7.79667 5.97651 10.4235 5.97651H20.0691C21.9395 5.97651 23.0322 7.07031 23.0322 8.88671V15.5078H23.7677V5.72261L15.3828 3.63281C15.2358 3.59375 15.1517 3.47656 15.1517 3.35937V0.292969C15.1517 0.136719 15.2988 0 15.4669 0H83.7434C83.9116 0 84.0587 0.136719 84.0587 0.292969V23.594C84.0587 23.6721 84.0167 23.7502 83.9746 23.8088C83.9326 23.8674 83.8275 23.8869 83.7434 23.8869H83.4072V26.1525C83.4072 26.2502 83.3442 26.3478 83.2391 26.4064L81.7471 27.2072V27.9689C81.7471 28.1252 81.6 28.2619 81.4318 28.2619H79.9398C79.7717 28.2619 79.6247 28.1252 79.6247 27.9689V23.8869H78.763V26.6799C78.763 26.8362 78.616 26.9729 78.4478 26.9729H72.8369L72.921 27.2268C72.9421 27.305 72.921 27.4026 72.879 27.4807C72.8159 27.5589 72.7319 27.5979 72.6268 27.5979H69.9579C70.126 28.1253 70.2311 28.6721 70.2311 29.2385C70.2311 32.3244 67.5412 34.8244 64.2209 34.8244C61.2789 34.8244 58.8202 32.8322 58.2948 30.2346L54.8904 29.3948H46.6316C46.5265 29.3948 46.4215 29.3362 46.3585 29.2581L45.4549 27.7933H42.1346V30.3324C42.1346 30.4886 41.9874 30.6253 41.8194 30.6253H28.1806C28.0125 30.6253 27.8654 30.4886 27.8654 30.3324V28.0863H26.8987V29.1801C26.8987 29.3363 26.7517 29.473 26.5835 29.473H23.3472C23.1792 32.4222 20.5522 34.766 17.3371 34.766C14.1219 34.766 11.495 32.4222 11.327 29.473H3.19428C1.17687 29.473 0 28.3597 0 26.4066V24.5121C0 24.3168 0.147259 24.1797 0.315376 24.1797ZM2.16472 12.7347V9.64878C1.72341 9.74644 1.45022 10.0589 1.45022 11.016V12.7348L2.16472 12.7347ZM4.24518 14.0238C4.37127 14.0628 4.47633 14.1605 4.47633 14.2972V18.262C4.47633 18.4183 4.32923 18.555 4.16112 18.555C3.993 18.555 3.8459 18.4183 3.8459 18.262V14.9808C3.21545 16.641 2.81617 18.1253 2.77414 19.0433V19.4144H5.10681V14.4144C5.33797 12.0316 7.58654 8.00821 9.9192 6.60191C7.88081 7.14879 5.65317 10.723 4.24518 14.0238ZM5.12778 20.5472V19.7269H4.47633V22.8714H5.12778V20.5472ZM2.81621 23.1839L2.83724 24.1995H5.12782V23.1839H2.81621ZM4.16115 22.8909V19.7268H2.79523L2.83727 22.8713H4.16122L4.16115 22.8909ZM22.4232 15.7815V8.86741C22.4232 7.36351 21.5827 6.54321 20.0696 6.54321H10.7391C8.42751 7.40259 5.69557 11.719 5.44337 14.4534V18.594H22.4444V15.7815H22.4232ZM22.4232 18.887H5.42217V20.4104H22.4232V18.887ZM22.4232 20.7034H5.42217V24.1995H11.5584C13.0504 22.7151 15.1518 21.8753 17.3374 21.8753C18.5353 21.8753 19.7331 22.1292 20.8049 22.6175H22.423L22.4232 20.7034ZM81.3067 0.547409H26.7733V2.14901H81.3067V0.547409ZM41.0845 11.9144V10.8597H26.7733V11.9144H41.0845ZM26.7733 12.5003V22.0511H41.0845V12.5003H26.7733ZM41.0845 10.2934V8.10585H26.7733V10.2934H41.0845ZM41.0845 7.51995V6.46525H26.7733V7.51995H41.0845ZM41.0845 5.87935V2.73485H26.7733V5.87935H41.0845ZM41.715 2.73485V22.0508H42.7867V2.73485H41.715ZM49.4904 20.5468C50.2049 20.5468 50.7933 21.0937 50.7933 21.7577V22.0507H57.2869V21.7577C57.2869 21.0937 57.8752 20.5468 58.5897 20.5468C59.3042 20.5468 59.8926 21.0937 59.8926 21.7577V22.0507H64.6629V12.4999H43.3957V22.0507H48.1661V21.7577C48.187 21.0937 48.7759 20.5468 49.4904 20.5468ZM48.818 21.7577V22.0507H50.1839V21.7577C50.1839 21.4062 49.8686 21.1327 49.5114 21.1327C49.1121 21.1327 48.818 21.4062 48.818 21.7577ZM57.9173 21.7577V22.0507H59.2832V21.7577C59.2832 21.4062 58.9679 21.1327 58.6107 21.1327C58.2324 21.1327 57.9173 21.4062 57.9173 21.7577ZM64.684 11.9139V10.8592H43.4168V11.9139H64.684ZM64.684 10.2929V8.10535H43.4168V10.2929H64.684ZM64.684 7.51945V6.46475H43.4168V7.51945H64.684ZM64.684 5.87885V2.73435H43.4168V5.87885H64.684ZM65.3144 2.73435V22.0504H66.3862V2.73435H65.3144ZM81.3063 2.73435H66.9951V5.87885H81.3063V2.73435ZM81.3063 6.46485H66.9951V7.51955H81.3063V6.46485ZM81.3063 8.10545H66.9951V10.2929H81.3063V8.10545ZM81.3063 10.8788H66.9951V11.9335H81.3063V10.8788ZM81.3063 12.5H66.9951V22.0508H72.8581V21.7578C72.8581 21.0937 73.4466 20.5469 74.161 20.5469C74.8755 20.5469 75.4639 21.0938 75.4639 21.7578V22.0508H81.306L81.3063 12.5ZM73.4889 21.7577V22.0507H74.8548V21.7577C74.8548 21.4062 74.5395 21.1327 74.1823 21.1327C73.8251 21.1327 73.4889 21.4062 73.4889 21.7577ZM81.7686 26.5038L82.7983 25.957V23.8672H81.7686V26.5038ZM80.2766 27.6367H81.1382V23.8475H80.2766V27.6367ZM72.6693 26.3475H78.1542V25.2342H72.3542L72.6693 26.3475ZM78.1542 24.9608V23.8671H71.9339L72.2701 24.9804H78.1543L78.1542 24.9608ZM72.2071 26.9725L71.6817 25.2342H68.4454C68.9708 25.7225 69.4122 26.3084 69.7063 26.9725H72.2071ZM71.6186 24.9608L71.2824 23.8475H65.9236C66.7432 24.0819 67.4787 24.453 68.1091 24.9608H71.6186ZM58.8837 29.9217C59.262 32.3631 61.5105 34.2187 64.2214 34.2187C67.1844 34.2187 69.6011 31.9726 69.6011 29.2187C69.6011 26.4648 67.1844 24.2187 64.2214 24.2187C61.2583 24.2187 58.8416 26.4648 58.8416 29.2187C58.8206 29.453 58.8417 29.6874 58.8837 29.9217ZM45.9594 27.4022L46.8 28.7694H54.9117C54.9327 28.7694 54.9748 28.7694 54.9958 28.789L58.19 29.5898C58.19 29.4726 58.1691 29.3358 58.1691 29.2187C58.1691 28.1835 58.4632 27.2265 58.9886 26.4062H45.9384V27.4023L45.9594 27.4022ZM45.9594 26.0937H59.2194C59.4295 25.8007 59.6817 25.5077 59.976 25.2538H45.9801V26.0937H45.9594ZM45.9594 24.9608H60.3126C60.9431 24.453 61.6996 24.0819 62.5191 23.8475L45.9807 23.828V24.9608H45.9594ZM42.1347 27.1679H45.35V26.3866H42.1347V27.1679ZM42.1347 26.0937H45.35V25.2538H42.1347V26.0937ZM42.1347 24.9608H45.35V23.828H42.1347V24.9608ZM28.496 28.5937H30.4924C30.6606 28.5937 30.8077 28.7304 30.8077 28.8866C30.8077 29.0429 30.6606 29.1796 30.4924 29.1796H28.496V29.9804H41.5042V29.1796H39.4447C39.2767 29.1796 39.1296 29.0429 39.1296 28.8866C39.1296 28.7304 39.2767 28.5937 39.4447 28.5937H41.5042V26.3867H28.496V28.5937ZM28.496 26.0937H41.5042V25.2538H28.496V26.0937ZM28.496 24.9608H41.5042V23.828L28.496 23.8085V24.9608ZM26.8988 27.4413H27.8656V23.8085H26.8988V27.4413ZM24.4191 28.8475H26.2684V23.828H24.4191V28.8475ZM24.4191 5.48855V23.2225H28.1177H28.1807H28.2438L78.4691 23.2616H79.9401H79.9611H79.9822H81.4323H81.4742H81.5163H83.4706V0.546612H81.9786V22.3436C81.9786 22.4999 81.8316 22.6366 81.6634 22.6366H66.8056H66.7425H66.6795H65.1034H65.0405H64.9774H43.2486H43.1856H43.1225H41.5465H41.4834H41.4204H26.5422C26.374 22.6366 26.2269 22.4999 26.2269 22.3436V0.546612H15.8877V3.10521L24.2726 5.19501C24.3146 5.23407 24.4191 5.35183 24.4191 5.48855ZM17.3372 34.1405C20.3003 34.1405 22.717 31.8944 22.717 29.1405C22.717 26.3866 20.3003 24.1405 17.3372 24.1405C14.3741 24.1405 11.9575 26.3866 11.9575 29.1405C11.9365 31.8944 14.3532 34.1405 17.3372 34.1405ZM0.630965 26.2108H3.50999C3.59405 26.2108 3.6571 26.2694 3.6571 26.3476C3.6571 26.4257 3.59406 26.4843 3.50999 26.4843H0.630965C0.672993 28.0077 1.55561 28.8281 3.19474 28.8281H11.3274C11.4956 25.8789 14.1224 23.5156 17.3375 23.5156C20.5527 23.5156 23.1796 25.8594 23.3477 28.8086H23.789V16.0356H23.0535V22.852C23.0535 23.0082 22.9064 23.145 22.7383 23.145H20.7418C20.6999 23.145 20.6368 23.1254 20.5947 23.1059C19.586 22.6371 18.4722 22.3832 17.3375 22.3832C15.2781 22.3832 13.3027 23.2035 11.9368 24.6098C11.8737 24.6684 11.7897 24.7075 11.7057 24.7075H2.52221H2.45917H0.609818V26.2114L0.630965 26.2108ZM17.3372 25.6249C19.4177 25.6249 21.1198 27.2069 21.1198 29.1405C21.1198 31.0741 19.4177 32.6561 17.3372 32.6561C15.2567 32.6561 13.5546 31.0741 13.5546 29.1405C13.5546 27.2069 15.2567 25.6249 17.3372 25.6249ZM17.3372 32.0507C19.0814 32.0507 20.4894 30.7421 20.4894 29.121C20.4894 27.4999 19.0814 26.1913 17.3372 26.1913C15.593 26.1913 14.185 27.4999 14.185 29.121C14.185 30.7421 15.593 32.0507 17.3372 32.0507ZM17.3372 27.0116C18.5981 27.0116 19.6068 27.9686 19.6068 29.121C19.6068 30.2929 18.5771 31.2304 17.3372 31.2304C16.0974 31.2304 15.0676 30.2734 15.0676 29.121C15.0676 27.9687 16.0763 27.0116 17.3372 27.0116ZM17.3372 30.9569C18.4299 30.9569 19.2916 30.1366 19.2916 29.1405C19.2916 28.1249 18.409 27.3241 17.3372 27.3241C16.2654 27.3241 15.3828 28.1444 15.3828 29.1405C15.3619 30.1366 16.2445 30.9569 17.3372 30.9569ZM15.9292 31.1327C16.2865 31.3475 16.7068 31.4842 17.1271 31.5038C17.2112 31.5038 17.2742 31.5819 17.2742 31.66C17.2742 31.7382 17.1901 31.7967 17.1271 31.7967H17.1061C16.6228 31.7577 16.1604 31.621 15.7612 31.3671C15.6981 31.328 15.6771 31.2303 15.7191 31.1717C15.7612 31.1132 15.8662 31.0936 15.9292 31.1327ZM62.8126 31.2108C63.17 31.4257 63.5902 31.5624 64.0105 31.5819C64.0946 31.5819 64.1576 31.66 64.1576 31.7382C64.1576 31.8163 64.0735 31.8749 64.0105 31.8749H63.9895C63.5062 31.8358 63.0439 31.6991 62.6446 31.4452C62.5815 31.4061 62.5605 31.3085 62.6025 31.2499C62.6446 31.1717 62.7286 31.1522 62.8126 31.2108ZM65.2503 31.3866C65.6496 31.2303 65.9858 30.9764 66.238 30.6639C66.3011 30.6053 66.3851 30.5858 66.4482 30.6444C66.5112 30.6835 66.5322 30.7811 66.4691 30.8397C66.175 31.1913 65.7967 31.4842 65.3553 31.66C65.3343 31.66 65.3134 31.6796 65.2923 31.6796C65.2293 31.6796 65.1663 31.6405 65.1452 31.6014C65.1452 31.5038 65.1663 31.4061 65.2503 31.3866ZM64.1996 27.91C64.9771 27.91 65.5867 28.4959 65.5867 29.1991C65.5867 29.9218 64.9561 30.4882 64.1996 30.4882C63.4221 30.4882 62.8126 29.9023 62.8126 29.1991C62.8126 28.4959 63.443 27.91 64.1996 27.91ZM64.1996 29.9217C64.6199 29.9217 64.9561 29.6092 64.9561 29.2186C64.9561 28.8279 64.6199 28.5154 64.1996 28.5154C63.7793 28.5154 63.443 28.8279 63.443 29.2186C63.443 29.5897 63.7793 29.9217 64.1996 29.9217ZM63.5272 26.8944C63.1068 26.992 62.7286 27.2069 62.4344 27.4803C62.4134 27.4999 62.3714 27.5194 62.3293 27.5194C62.2873 27.5194 62.2453 27.4999 62.2243 27.4803C62.1613 27.4217 62.1613 27.3241 62.2243 27.2655C62.5815 26.953 63.0018 26.7382 63.4641 26.621C63.5482 26.6014 63.6322 26.6405 63.6532 26.7186C63.6532 26.7967 63.6112 26.8749 63.5272 26.8944ZM18.3879 31.3085C18.7872 31.1522 19.1234 30.8983 19.3755 30.5858C19.4385 30.5272 19.5227 30.5077 19.5856 30.5663C19.6487 30.6054 19.6698 30.703 19.6067 30.7616C19.3124 31.1132 18.9342 31.4061 18.4929 31.5819C18.4718 31.5819 18.4508 31.6015 18.4298 31.6015C18.3668 31.6015 18.3037 31.5624 18.2827 31.5233C18.2617 31.4257 18.3037 31.3476 18.3879 31.3085ZM66.7217 28.203C66.8057 28.1835 66.8897 28.2225 66.9318 28.2811C67.0368 28.5741 67.0999 28.8671 67.0999 29.1796C67.0999 29.3163 67.0789 29.453 67.0579 29.5897C67.0368 29.6678 66.9738 29.7069 66.9107 29.7069H66.8897C66.8057 29.6874 66.7426 29.6288 66.7636 29.5507C66.7847 29.4335 66.7847 29.2967 66.7847 29.1796C66.7847 28.9061 66.7427 28.6327 66.6375 28.3788C66.5956 28.3202 66.6375 28.2421 66.7217 28.203ZM66.0281 27.4608C65.9861 27.4608 65.9441 27.4413 65.9231 27.4217C65.6078 27.1483 65.2086 26.9725 64.8093 26.8749C64.7252 26.8553 64.6832 26.7772 64.6832 26.6991C64.7042 26.621 64.7882 26.5819 64.8723 26.5819C65.3347 26.6796 65.7759 26.8944 66.1332 27.1874C66.1963 27.246 66.1963 27.3241 66.1542 27.4022C66.1121 27.4413 66.0702 27.4608 66.0281 27.4608ZM61.6361 29.1991C61.6361 29.5897 61.7412 29.9999 61.9513 30.3319C61.9934 30.41 61.9723 30.4882 61.8883 30.5272C61.8673 30.5467 61.8463 30.5467 61.8043 30.5467C61.7412 30.5467 61.6991 30.5272 61.6572 30.4686C61.426 30.078 61.2999 29.6288 61.2999 29.1991C61.2999 28.9257 61.3419 28.6522 61.426 28.3788C61.447 28.3007 61.5311 28.2616 61.6151 28.2812C61.6991 28.3007 61.7412 28.3788 61.7202 28.4569C61.6782 28.7108 61.6361 28.9452 61.6361 29.1991ZM19.1447 27.3827C19.1027 27.3827 19.0607 27.3632 19.0397 27.3436C18.7244 27.0702 18.3251 26.8944 17.9259 26.7968C17.8418 26.7772 17.7998 26.6991 17.7998 26.621C17.8207 26.5429 17.9048 26.5038 17.9889 26.5038C18.4512 26.6014 18.8925 26.8163 19.2498 27.1093C19.3129 27.1679 19.3129 27.246 19.2708 27.3241C19.2287 27.3632 19.1868 27.3827 19.1447 27.3827ZM16.665 26.8163C16.2447 26.914 15.8664 27.1288 15.5722 27.4022C15.5512 27.4218 15.5092 27.4413 15.4672 27.4413C15.4251 27.4413 15.3832 27.4218 15.3621 27.4022C15.299 27.3436 15.299 27.246 15.3621 27.1874C15.7194 26.8749 16.1397 26.6601 16.6019 26.5429C16.6859 26.5233 16.7701 26.5624 16.7911 26.6405C16.7911 26.7186 16.7491 26.7968 16.665 26.8163ZM64.2004 27.0897C65.4613 27.0897 66.47 28.0468 66.47 29.1991C66.47 30.371 65.4403 31.3085 64.2004 31.3085C62.9395 31.3085 61.9308 30.3515 61.9308 29.1991C61.9308 28.0272 62.9606 27.0897 64.2004 27.0897ZM64.2004 31.035C65.2931 31.035 66.1548 30.2147 66.1548 29.2186C66.1548 28.203 65.2721 27.4022 64.2004 27.4022C63.1077 27.4022 62.246 28.2225 62.246 29.2186C62.246 30.2147 63.1286 31.035 64.2004 31.035ZM19.839 28.1444C19.9231 28.1249 20.0072 28.164 20.0491 28.2226C20.1543 28.5155 20.2173 28.8085 20.2173 29.121C20.2173 29.2577 20.1963 29.3944 20.1752 29.5312C20.1543 29.6093 20.0912 29.6483 20.0282 29.6483H20.0072C19.9231 29.6288 19.8601 29.5702 19.8811 29.4921C19.9021 29.3749 19.9021 29.2382 19.9021 29.121C19.9021 28.8476 19.8601 28.5741 19.755 28.3202C19.734 28.2421 19.776 28.164 19.839 28.1444ZM37.3017 29.1796H33.54C33.372 29.1796 33.2249 29.0429 33.2249 28.8867C33.2249 28.7304 33.372 28.5937 33.54 28.5937H37.3017C37.4698 28.5937 37.6169 28.7304 37.6169 28.8867C37.6169 29.0429 37.4698 29.1796 37.3017 29.1796ZM64.2004 25.6835C66.2808 25.6835 67.983 27.2655 67.983 29.1991C67.983 31.1327 66.2808 32.7147 64.2004 32.7147C62.1199 32.7147 60.4178 31.1327 60.4178 29.1991C60.4178 27.2655 62.1199 25.6835 64.2004 25.6835ZM64.2004 32.1288C65.9446 32.1288 67.3526 30.8202 67.3526 29.1991C67.3526 27.578 65.9446 26.2694 64.2004 26.2694C62.4562 26.2694 61.0482 27.578 61.0482 29.1991C61.0482 30.8202 62.4772 32.1288 64.2004 32.1288Z" fill="black"/>
</g>
<defs>
<clipPath id="clip0_3_72">
<rect width="85" height="35" fill="white"/>
</clipPath>
</defs>
</svg>
