<svg width="30" height="30" viewBox="0 0 30 30" fill="none" xmlns="http://www.w3.org/2000/svg">
<path d="M21.404 15.7837C21.3728 12.6175 23.9865 11.0988 24.1028 11.0237C22.634 8.87375 20.3465 8.58 19.5315 8.54625C17.5853 8.34875 15.7328 9.6925 14.744 9.6925C13.759 9.6925 12.234 8.575 10.619 8.605C8.49901 8.63625 6.54276 9.8375 5.45026 11.7375C3.24526 15.5625 4.88526 21.2312 7.03401 24.3337C8.08401 25.8525 9.33651 27.5588 10.9803 27.4963C12.5628 27.4338 13.1615 26.4725 15.0753 26.4725C16.989 26.4725 17.5278 27.4975 19.2028 27.4662C20.9065 27.4338 21.9853 25.9175 23.0278 24.395C24.234 22.6325 24.7303 20.9262 24.7603 20.8387C24.7228 20.8225 21.4378 19.5638 21.4053 15.7825L21.404 15.7837ZM18.2565 6.4925C19.129 5.43375 19.7178 3.965 19.5565 2.5C18.3003 2.55 16.7765 3.3375 15.8753 4.39375C15.0665 5.33125 14.3578 6.825 14.5478 8.26125C15.9503 8.37125 17.3828 7.54875 18.2565 6.4925Z" fill="#040404"/>
</svg>
