<svg width="26" height="27" viewBox="0 0 26 27" fill="none" xmlns="http://www.w3.org/2000/svg">
<path opacity="0.987" fill-rule="evenodd" clip-rule="evenodd" d="M11.1739 0.113906C12.5333 -0.0379688 13.3377 -0.0379688 14.7983 0.113906C17.3838 0.496585 19.7806 1.69169 21.6421 3.52641C20.3842 4.71541 19.1428 5.92178 17.9183 7.14516C15.5733 5.15766 12.9558 4.69891 10.0658 5.76891C7.94582 6.74391 6.46957 8.32391 5.63707 10.5089C4.27665 9.49609 2.93394 8.45968 1.60957 7.40016C1.51753 7.35171 1.41241 7.33397 1.30957 7.34953C3.41332 3.29328 6.70082 0.880781 11.1721 0.112031" fill="#F44336"/>
<path opacity="0.997" fill-rule="evenodd" clip-rule="evenodd" d="M1.30547 7.34973C1.41172 7.33348 1.51235 7.35035 1.60735 7.40035C2.93172 8.45988 4.27442 9.49629 5.63485 10.5091C5.42077 11.3605 5.28582 12.2298 5.23172 13.106C5.27797 13.9535 5.41235 14.7854 5.63485 15.6016L1.40672 18.9672C-0.434527 15.1197 -0.468277 11.2472 1.30547 7.34973Z" fill="#FFC107"/>
<path opacity="0.999" fill-rule="evenodd" clip-rule="evenodd" d="M21.4414 23.0436C20.1249 21.8826 18.7466 20.7935 17.3126 19.7811C18.7501 18.7661 19.6226 17.3736 19.9301 15.6036H12.8857V10.7118C16.9482 10.678 21.0089 10.7124 25.0676 10.8149C25.8376 14.9961 24.9482 18.7661 22.3995 22.1249C22.0964 22.4471 21.7754 22.7537 21.4414 23.0436Z" fill="#448AFF"/>
<path opacity="0.993" fill-rule="evenodd" clip-rule="evenodd" d="M5.63438 15.6035C7.17188 19.4248 9.99063 21.2085 14.0906 20.9548C15.2416 20.8215 16.345 20.4195 17.3119 19.781C18.7469 20.796 20.1231 21.8835 21.4406 23.0435C19.3531 24.9194 16.6915 26.0324 13.89 26.201C13.2535 26.2519 12.614 26.2519 11.9775 26.201C7.205 25.6385 3.68125 23.2273 1.40625 18.9673L5.63438 15.6035Z" fill="#43A047"/>
</svg>
